<svg version="2.0" viewBox="-12 -12 24 24" xmlns="http://www.w3.org/2000/svg">
	<defs>
		<path id="cv" d="
			M-10 -10 h20 v15 l-5 5 h-15 z
			M5 10 v-4 a 1 1 0 0 1 1 -1 h4 z
			M-6.5 -6.5 a 1.5 1.5 0 0 1 3 0 a 1.5 1.5 0 0 1 -3 0 z
			M-8 -1.5 a 3 3 0 0 1 6 0 z
			M3 -5.5 a 1.5 1.5 0 1 1 0 -2
			M4.5 -8 l1.5 3 1.5 -3
			M0 -3.5 h8 z
			M0 -1.5 h8 z
			M-8 1 h16 z
			M-8 3 h16 z
			M-8 5.5 h11 z
			M-8 7.5 h11 z" />
	</defs>
	<g fill="none" stroke="currentColor" stroke-linecap="round" stroke-linejoin="round">
		<use href="#cv" />
	</g>
</svg>
