<?xml version="1.0" encoding="UTF-8"?>
<svg version="1.1" viewBox="-12 -12 24 24" xmlns="http://www.w3.org/2000/svg" xmlns:xlink="http://www.w3.org/1999/xlink">
	<defs>
		<ellipse id="orbit" rx="10" ry="5" />
		<path id="dark" d="M0 -8 
          A 8 8 0 0 0 0 8 
          A 8 8 0 0 0 8 0 
          A 6 6 0 1 1 0 -8 z" />
		<path id="light" d="M-10 0 
          A 5 5 0 0 0 -7 -7 
          A 5 5 0 0 0 0 -10 
          A 5 5 0 0 0 7 -7 
          A 5 5 0 0 0 10 0 
          A 5 5 0 0 0 7 7 
          A 5 5 0 0 0 0 10 
          A 5 5 0 0 0 -7 7 
          A 5 5 0 0 0 -10 0 z
          M-6 0 a 6 6 0 0 0 12 0 a 6 6 0 0 0 -12 0 z
          M-5 0 a 5 5 0 0 0 10 0 a 5 5 0 0 0 -10 0 z" />
	</defs>
	<g fill="none" stroke="#5fd4f4">
		<g stroke-width=".5">
			<use xlink:href="#orbit" />
			<use xlink:href="#orbit" transform="rotate(60)" />
			<use xlink:href="#orbit" transform="rotate(-60)" />
		</g>
		<g fill="#5fd4f4" transform="scale(.2)">
			<line y1="-12" y2="12" />
			<g stroke="none">
				<use xlink:href="#light" x="-12" y="0" />
				<use xlink:href="#dark" x="12" y="0" />
			</g>
		</g>
	</g>
</svg>
