<svg xmlns="http://www.w3.org/2000/svg" viewBox="0 0 881.63 587.66">
	<path fill="#ffb6b6" d="m150.93 561.32 13.28 3.6 20.2-49.52-19.61-5.31-13.87 51.23z" />
	<path fill="#2f2e41" d="m146.7 575.05 40.85 11.06.14-.51a16.47 16.47 0 0 0-11.6-20.2l-5.92-7.69-15.45 1.9-3.57-.97Z" />
	<path fill="#ffb6b6" d="M242.64 572.85h13.76l6.55-53.09-20.31.01v53.08z" />
	<path fill="#2f2e41" d="M242.15 587.2h42.32v-.53A16.47 16.47 0 0 0 268 570.19l-7.73-5.86-14.42 5.87h-3.7ZM248.52 266.76l18.46 261.58-29.74 2.64-41.49-193.86 4.6 112.16-16.47 88.22-25.17-12.17.41-91.86-33.05-148.44 8.8-18.27Z" />
	<path fill="#3f3d56" d="m130.3 299.3-.2-.25c-9.85-13.8 4.97-46.96 7.21-51.77a12.07 12.07 0 0 1-8.26-12.88l.96-8.2 1-8.03-7.19-7.2-.02-.18-4.14-36.24-6.02-24.07a52.85 52.85 0 0 1 15-51.22l13.92-2.21 16.92-16.3h27.28l9.35 8.94c17.46 3.06 20.46 2.06 35.46 20.06l-6.81 55.96-1.7 7.7v10.44l4.33 4.8a14.95 14.95 0 0 1 3.54 12.94l-.57 2.84c4.46 1.91 8.72 35.87 9.73 40.6l1.52 7.1c1.3 1.7 9.87 13.14 9.87 16.26 0 .47-.34.93-1.09 1.43-5.84 3.96-29.13 32.02-43.43 26.3-15.22-6.08-75.74 3.05-76.35 3.14Z" />
	<path fill="#ffb6b6" d="M126.63 234.23s7-39.6-.06-54.48l-28 2 4.27 56.49 24.47 62.71a11.15 11.15 0 1 0 18.08-6.46Z" />
	<path fill="#3f3d56" d="m98.57 158.75 1.74-18.87a54.1 54.1 0 0 1 19.4-36.75 23.69 23.69 0 0 1 24.79-3.28 23.63 23.63 0 0 1 12.2 29.87c-6.47 16.97-4.13 34.92-16.75 37.1l1.37 6.53-12.4 40.5-35.35-4.1Z" />
	<path fill="#ffb6b6" d="M237.35 287.93a11.15 11.15 0 1 0 19 2.8l11.71-66.3-6.89-56.23-27.85 3.53c-4 15.99 10.63 53.44 10.63 53.44Z" />
	<path fill="#3f3d56" d="m271.56 194.68-33.85 10.94-13.03-20.33.06-6.67c-12.8.33-21.1-34.67-30.77-50.05a23.63 23.63 0 0 1 6.12-31.67 23.69 23.69 0 0 1 24.95-1.65 54.1 54.1 0 0 1 26.23 32.23l5.4 18.17Z" />
	<circle cx="171.28" cy="42.58" r="30.3" fill="#ffb6b6" />
	<path fill="#2f2e41" d="M149.29 63.93c-.27-.23-.52-.48-.78-.72 0 .03 0 .05-.02.08ZM196.1 10.58a17.18 17.18 0 0 0-6.06-5.85 25.38 25.38 0 0 0-5.3-1.88l-4.8-1.3A38.01 38.01 0 0 0 172.4.01a19.42 19.42 0 0 0-17.74 9.63c-1.45 2.57-2.61 5.77-5.4 6.7-2.26.77-4.72-.3-7.1-.1a8.53 8.53 0 0 0-6.47 4.77 18.38 18.38 0 0 0-1.7 8.15 45.62 45.62 0 0 0 14.52 34.04c.79-2.06-.5-4.28-1.52-6.26-1.03-1.99-1.67-4.77.06-6.2 1.92-1.6 5-.06 7.27-1.1a5.07 5.07 0 0 0 2.53-4.08c.22-1.65 0-3.34.1-5a12.54 12.54 0 0 1 13.3-11.74h.1c5.18.37 10.2 3.9 15.17 2.45 2.33-.68 4.32-2.42 6.74-2.7 2.67-.33 5.19 1.18 7.46 2.63a26.6 26.6 0 0 0-3.61-20.63Z" />
	<path fill="#f0f0f0" d="m354.43 570.18-7.7-12.39-1.55 7.08c-.27 1.24-.54 2.5-.79 3.75a111.4 111.4 0 0 0-6.8-5.26q-10.5-7.62-20.99-15.26l2.2 12.7c1.34 7.82 2.75 15.8 6.1 22.95.36.81.76 1.61 1.2 2.39h32.53a10.49 10.49 0 0 0 .54-2.24.77.77 0 0 0 .01-.15c.51-4.85-2.17-9.42-4.75-13.57Z" />
	<path fill="#cacaca" d="m392.3 587.36-315.36.3a1.2 1.2 0 0 1 0-2.38l315.35-.3a1.2 1.2 0 0 1 0 2.38Z" />
	<path fill="#3f3d56" d="M718.26 193.4a140.2 140.2 0 1 1-8.87-49.38l.9 2.48q1.93 5.5 3.41 11.18a141.16 141.16 0 0 1 4.56 35.72Z" />
	<path d="M561.67 98.16a47.36 47.36 0 0 0-41.58-1.7c-5.81 2.53-11.93 7.07-13.87 15.26 7.84-4.62 18 2.69 20.01 14.42l-.47.13c-1.07 8.13 1.31 16.97 5.92 22.01a15.48 15.48 0 0 1 7.43-11.02c3.39-2.22 7.13-3.84 9.72-7.66 3.06-4.54 3.84-11.17 5.05-17.21s3.53-12.54 7.79-14.23Z" />
	<path d="M517.76 167.31c-2.17 3.27-5.07 5.31-7.67 7.86a17.67 17.67 0 0 0-5.59 10.44c-.33 2.84.18 5.72.11 8.6-.07 2.86-1.02 6.1-2.98 6.8-3.08 1.12-5.43-4.6-8.6-5-2.52-.32-4.78 3.64-4.05 7.08s4.15 4.95 6.12 2.71c1.78 2.99.53 8.4-2.15 9.33l-.84 5.63c-6.76-4.73-13.59-9.53-19.33-16.46a49.96 49.96 0 0 1-11.4-26.91c-.74-7.96.37-17.06-3.28-23.19-2.93-4.9-7.95-5.98-12.47-5.68-.82.06-1.65.15-2.47.26a139.6 139.6 0 0 1 10.1-23.14 9.9 9.9 0 0 0 2.54-1.57c4.2-3.57 6.07-10.8 9.48-15.79q.33-.48.68-.94c3.49-4.56 8.16-6.9 12.68-9.08 10-4.86 20.29-9.77 30.84-9.1l-3 .3-10.52 29.45-1.62 4.52c-2 5.58-4.05 11.53-3.74 17.78.18 3.7 1.47 7.65 3.91 8.92 2.28 1.18 4.78-.26 6.98-1.7l2.8-1.79c3.34-2.15 7.05-4.37 10.59-2.92 3.24 1.31 5.63 5.71 6.08 10.46a20.91 20.91 0 0 1-3.2 13.13ZM537.68 234.34l-29.34-18.06.17-.43c-6.08 2.32-8.6 13.13-7.6 21.96s4.4 16.75 6.13 25.36a67.3 67.3 0 0 1-2.54 35.3 289.18 289.18 0 0 0 33.97-46.8 25.04 25.04 0 0 0 3.08-6.82 10.84 10.84 0 0 0-.72-7.7 8.58 8.58 0 0 0-3.15-2.8Z" />
	<path d="M499.08 124.8a10.81 10.81 0 0 0-.5 7.86 8.72 8.72 0 0 0 4.88 4.51l5.4 2.68c1.8.9 3.74 1.8 5.57 1.06 2.2-.89 3.74-4.35 3.34-7.57-.42-3.42-2.58-5.78-4.57-7.78l-8.38-8.42-1.57 1.93a21.02 21.02 0 0 0-4.17 5.73ZM689.3 161.4l7.29 1.71c-.42 8.21-4.5 15.81-9.95 18.56-2.28 1.15-4.8 1.57-6.7 3.71-1.7 1.95-2.56 4.97-3.35 7.87l-4.16 15.15c-1.5 5.44-3.4 11.49-7.28 13.45-3.32 1.68-7.13-.38-9.68-3.84-2.56-3.46-4.12-8.1-5.63-12.64.09 4.94-2.2 9.79-5.46 11.5-3.26 1.72-7.23.17-9.41-3.67-1.57-2.75-2.22-6.38-3.76-9.17-1.54-2.8-4.76-4.4-6.44-1.77-1.1 1.74-.96 4.4-1.51 6.62a7.19 7.19 0 0 1-6 5.77 10.02 10.02 0 0 1-7.2-3.28 32.57 32.57 0 0 1-8.93-18.01 21.49 21.49 0 0 1 .25-9.85c.97-3.05 3.3-5.4 5.6-4.83 1.53-3.21-1.47-7.48-4.18-7.1-2.71.38-4.84 3.29-7.06 5.52-2.22 2.24-5.33 3.86-7.56 1.64a3.07 3.07 0 0 1-2.88 3.25h-.24a11.12 11.12 0 0 1-4.05-2.15c-5.12-3.19-11.62-1.07-15.26 4.97 2.27-9.68 5.6-20.78 12.6-23.06 2.85-.93 5.96-.16 8.66-1.78 4.77-2.86 5.74-13.67 1.61-18.13.53 4.21.43 9.14-1.8 12.02-2.23 2.9-6.9 1-6.62-3.26a2.86 2.86 0 0 1-5.32 1.13c-1.48-2.26-1.35-5.95-.3-8.65a20.37 20.37 0 0 1 4.57-6.5c3.72-3.98 7.5-8.02 11.82-10.53 4.32-2.5 9.3-3.36 13.63-.86 2.29 1.31 4.3 3.51 6.62 4.67a4.9 4.9 0 0 0 6.76-1.58l.07-.13c1.74-3.04.92-7.56 1.56-11.36 1.16-6.72 7.88-9.87 11.6-5.43-2.78-.71-5.66 2.58-6 6.57-.36 4 1.66 8.03 4.35 9.23 4.54 2.01 8.98-3.04 12.4-7.71l10.75-14.67a17.73 17.73 0 0 1 1.92-2.34 6.18 6.18 0 0 1 8.44-.17c3.63 2.95 5.33 9.01 8.3 13.19 4.31 6.06 10.77 7.53 16.77 8.7l13.44 2.63a139.27 139.27 0 0 1 7.8 17.23 47.22 47.22 0 0 0-20.08 17.37ZM713.7 157.68a28.27 28.27 0 0 0-1.49 8.4c-3.84-4.7-4.45-13.49-1.93-19.57q1.94 5.48 3.42 11.17ZM703.77 255.75a140.6 140.6 0 0 1-11.68 19.55c-2.83-1.21-5.86.94-8.5 2.97-2.76 2.11-6.08 4.18-8.91 2.25-2.9-1.98-3.83-7.5-2.91-11.89a31.68 31.68 0 0 1 5.43-11.17c2.35-3.51 4.87-7.16 8.14-8.52 3.27-1.37 7.48.56 8.44 5.22l2.32-.08c-1.3-1.78-.62-5.49 1.13-6.14 2.02-.76 3.77 2.01 4.96 4.46.53 1.1 1.07 2.22 1.58 3.35Z" />
	<path d="M614.87 222.62c-4.99.32-8.94-5.83-11.56-11.87s-5.03-12.95-9.53-16.03c-2.57-1.75-5.5-2-8.3-2.85a10.27 10.27 0 0 1-7.04-6.2l-3.16-1.28a47.53 47.53 0 0 0-12.02 8.57 26.86 26.86 0 0 0-7.16 15.65c-.6 6.34 1.63 13.4 5.8 15.78 3.3 1.88 7.13.7 10.47 2.42 4.17 2.15 6.65 8.4 7.59 14.57s.7 12.58 1.37 18.82 2.52 12.73 6.34 15.92c4.79 4 11.81.68 13.96-6.6 1.06-3.58 1.02-7.6 1.8-11.32 1.4-6.53 5.14-11.37 8.11-16.73s5.3-12.63 3.33-18.85ZM565.57 158.45a13.31 13.31 0 0 1 1.3 1.38 4.53 4.53 0 0 1-.08 4.68 4.35 4.35 0 0 0 3.12-1.58 20.04 20.04 0 0 0 2.39-3.37 3.67 3.67 0 0 0 .7-2.94c-.23-.67-.79-.96-1.18-1.46a9.96 9.96 0 0 1-1.1-3.18 5.73 5.73 0 0 0-4.14-4.37l.25.04a2.37 2.37 0 0 0-1.12 2.53c.16.98.78 1.8.72 2.79-.09 1.43-1.52 2.1-1.61 3.54a2.74 2.74 0 0 0 .75 1.94ZM557.02 134.06h.03a4 4 0 0 0 .42-.45Z" />
	<path d="M558.52 140.8a4.35 4.35 0 0 0 1.35-4.31c-.36-1.63-1.64-2.73-2.82-2.43a2.88 2.88 0 0 1-2.69.79c-.73-.19-1.53-.67-2.16-.12a3.28 3.28 0 0 0-.74 1.44l-.7 2.16a1.36 1.36 0 0 0-.1.82.7.7 0 0 0 .54.42l4.23 1.25a3.64 3.64 0 0 0 3.09-.02ZM664.89 233.8l-1.96-3.2a10.69 10.69 0 0 0-2.57-3.23 2.28 2.28 0 0 0-3.22.29l-.03.04.08.6a13.75 13.75 0 0 1 3.43 6.7c.15 1.1.1 2.22.23 3.31a3.86 3.86 0 0 0 1.2 2.7c1.03.69 2.24-.32 2.97-1.55a5.36 5.36 0 0 0 .83-3.42 5.99 5.99 0 0 0-.96-2.24ZM675.1 235.2a7.38 7.38 0 0 0-.23-2.99 6.54 6.54 0 0 1 1-3.7 12.05 12.05 0 0 0 1.54-3.4 2.84 2.84 0 0 0-.07-1.66c-.22-.49-.74-.7-1.04-.32l.64.4a5.84 5.84 0 0 0-2.6.13 3.22 3.22 0 0 0-1.97 2.23 13.76 13.76 0 0 1-.52 2.3c-.38.79-1.12 1.05-1.59 1.74a4.15 4.15 0 0 0 .07 3.95 4.6 4.6 0 0 0 2.6 2.04c.79.29 1.82.3 2.17-.73ZM693.3 240.68a8.95 8.95 0 0 0 1.13 2.07c.87.88 2.05.34 3.1.12a5.38 5.38 0 0 1 5.13 2.06 13.03 13.03 0 0 0-7.5-9.35 22.01 22.01 0 0 0-7.7-1.2l-.45.11c1.14 3.32 4.72 3.24 6.29 6.2ZM616.24 247.47v.01l.13-.25ZM613.48 252.81a24.52 24.52 0 0 0-1.55 3.4 29.61 29.61 0 0 0-1.12 5.82c-.14 1.13-.19 2.56.52 3.1a1 1 0 0 0 1.3-.17 5.16 5.16 0 0 0 .95-1.4 32.37 32.37 0 0 0 3.19-7.58 13.18 13.18 0 0 0-.53-8.5l-2.76 5.33ZM586.85 110.47a3.14 3.14 0 0 0 3.39.66 11.18 11.18 0 0 0 3.18-2.1 7.5 7.5 0 0 0 1.93-2.11 4.27 4.27 0 0 0 .4-3.26 3.3 3.3 0 0 0-2.52-1.99l-4.7-1.4 1.14-1.01c-1.17-.63-2.45.53-3.18 1.97a10.6 10.6 0 0 0-.97 2.97 7.63 7.63 0 0 0 1.33 6.27ZM614.46 101.2a2.58 2.58 0 0 0 3.52.29 3.94 3.94 0 0 0 1.56-2.8c.1-1.24-.5-2.6-1.37-2.71l.2-1.15c-1.67-.3-3.73-.37-4.63 1.67a4.77 4.77 0 0 0 .72 4.7Z" />
	<path fill="#fff" d="M879.21 200.35c9.24-4.03-9.49-6.37-30.74-7.14s-46.95-.73-60.53-2.92c-13.14-2.12-12.17-5.9-13.27-9.3s-6.16-6.93-26.65-7.68c-25.54-.95-67.65 2.7-86.93.5-17.99-2.04-7.3-8.44-33.53-8.68-14.97-.14-34.27 1.97-50.94 2.48a185.72 185.72 0 0 1-35.35-1.84c-8.12-1.33-13.78-3.02-22.92-4.2-24-3.08-70.97-2.05-112.89 1.9s-77.85 10.45-98.11 16.87-25.86 12.74-21.14 18.1c3.01 3.43 10.72 6.63 29.43 8 35 2.58 97.3-1.85 133.47.49 20.15 1.3 29.1 4.54 46.78 6.3 19 1.9 46.8 2.01 74.13 1.96 56.9-.09 115.25-.67 174.74-1.75 24.86-.44 50.9-1.03 77.34-3.16s53.41-6.25 59-10.11" opacity=".35" />
	<path d="M718.65 378.2q-19.37 0-42.46-1.46c-79.6-5.06-182.73-22.63-290.37-49.5-107.64-26.85-206.93-59.79-279.59-92.73-35.39-16.04-62.55-31.23-80.73-45.14C6.25 174.64-2.17 161.8.47 151.2c5.15-20.63 50.73-25.14 88.07-25.3l.01 3c-51.27.22-81.51 8.4-85.17 23.03-4.65 18.64 33.3 47.74 104.1 79.84 72.49 32.87 171.6 65.74 279.07 92.56 107.46 26.81 210.4 44.36 289.83 49.4 77.58 4.93 124.75-2.93 129.4-21.57 3.86-15.48-21.6-38.28-71.69-64.2l1.38-2.67c36.4 18.84 78.64 45.86 73.22 67.6-2.64 10.58-16.1 17.96-40.01 21.92-13.63 2.25-30.37 3.38-50.03 3.38Z" />
	<path d="M226 382.11c-35.6 0-68.7-1.22-98.33-3.69-38.72-3.22-69.41-8.4-91.2-15.4-23.08-7.4-35.33-16.66-36.4-27.52-2.08-21.16 39.34-40.73 74.45-53.41l1.02 2.82c-48.22 17.42-73.96 35.28-72.48 50.3 1.88 19.12 47.4 33.78 124.86 40.22 79.33 6.6 183.72 4.27 293.95-6.59C532.1 358 634.95 339.94 711.47 318c74.72-21.43 116.5-44.68 114.61-63.8-1.56-15.87-33.2-28.8-89.09-36.38l.4-2.97c40.62 5.51 89.49 16.76 91.68 39.06 1.07 10.86-9.13 22.33-30.32 34.09-20.02 11.1-49.1 22.17-86.46 32.88-76.69 21.99-179.72 40.08-290.13 50.95-69.26 6.82-136.24 10.28-196.16 10.28Z" />
	<circle cx="437.85" cy="427.99" r="17.48" />
	<circle cx="93.57" cy="324.77" r="17.48" fill="#e6e6e6" />
	<circle cx="414.57" cy="63.57" r="10.7" fill="#ff6584" />
	<circle cx="349.82" cy="137.58" r="17.48" fill="#e6e6e6" />
</svg>
