<svg xmlns="http://www.w3.org/2000/svg" viewBox="0 0 835.21 613.1">
	<path fill="#f1f1f1" d="m789.43 613.1.96-1.76c-12.76-6.9-28.63-15.48-36.92-29.57-8.17-13.88-8.36-32.74-.48-49.2 6.7-14.02 19.02-26.58 35.61-36.32 3.27-1.92 6.71-3.74 10.03-5.5 8.03-4.26 16.34-8.66 23.19-14.9 9.43-8.6 16.57-23.04 11.25-35.9a23.86 23.86 0 0 0-20.68-14.47l-.11 2a21.86 21.86 0 0 1 18.94 13.25c4.95 11.95-1.83 25.5-10.75 33.63-6.66 6.08-14.85 10.42-22.77 14.62a266.9 266.9 0 0 0-10.11 5.54c-16.94 9.95-29.53 22.8-36.4 37.18-8.16 17.06-7.95 36.63.56 51.09 8.57 14.56 24.71 23.3 37.68 30.3Z" />
	<ellipse cx="799.71" cy="427.52" fill="#f1f1f1" rx="17.5" ry="8.5" />
	<ellipse cx="785.71" cy="483.52" fill="#f1f1f1" rx="17.5" ry="8.5" />
	<ellipse cx="817.71" cy="492.52" fill="#f1f1f1" rx="17.5" ry="8.5" />
	<ellipse cx="767.71" cy="539.52" fill="#f1f1f1" rx="17.5" ry="8.5" />
	<ellipse cx="732.71" cy="539.52" fill="#f1f1f1" rx="17.5" ry="8.5" />
	<path d="M137.29 439.48h-62.1a6.35 6.35 0 0 1-6.34-6.34v-204.6a6.35 6.35 0 0 1 6.34-6.34h62.1a6.35 6.35 0 0 1 6.34 6.34v204.6a6.35 6.35 0 0 1-6.34 6.34ZM250.52 439.48h-62.1a6.35 6.35 0 0 1-6.33-6.34V147.35a6.35 6.35 0 0 1 6.34-6.34h62.1a6.35 6.35 0 0 1 6.34 6.34v285.8a6.35 6.35 0 0 1-6.35 6.33ZM363.76 439.48h-62.1a6.35 6.35 0 0 1-6.34-6.34v-204.6a6.35 6.35 0 0 1 6.35-6.34h62.1a6.35 6.35 0 0 1 6.33 6.34v204.6a6.35 6.35 0 0 1-6.34 6.34ZM477 439.48h-62.1a6.21 6.21 0 0 1-6.34-6.05V115.02a6.21 6.21 0 0 1 6.34-6.06H477a6.21 6.21 0 0 1 6.34 6.06v318.4a6.21 6.21 0 0 1-6.34 6.06ZM590.24 439.48h-62.1a6.35 6.35 0 0 1-6.34-6.34V57.62a6.35 6.35 0 0 1 6.34-6.34h62.1a6.35 6.35 0 0 1 6.34 6.34v375.52a6.35 6.35 0 0 1-6.34 6.34Z" />
	<circle cx="106.24" cy="183.74" r="12.82" fill="#3f3d56" />
	<circle cx="219.48" cy="100.42" r="12.82" fill="#3f3d56" />
	<circle cx="332.71" cy="183.74" r="12.82" fill="#3f3d56" />
	<circle cx="445.95" cy="59.82" r="12.82" fill="#3f3d56" />
	<circle cx="559.19" cy="12.82" r="12.82" fill="#3f3d56" />
	<path fill="#cbcbcb" d="M663 441.86H1a1 1 0 1 1 0-2h662a1 1 0 0 1 0 2ZM828 612.86H504a1 1 0 0 1 0-2h324a1 1 0 0 1 0 2Z" />
	<path fill="#ffb7b7" d="M619.94 425.61a7.93 7.93 0 0 0-1.04-12.11l3.93-17.7-10.16-5-5.2 25.05a7.97 7.97 0 0 0 12.47 9.76ZM731.12 426a7.93 7.93 0 0 0-1.97-12l2.55-17.94-10.52-4.21-3.25 25.39a7.97 7.97 0 0 0 13.19 8.76ZM651.86 602.08h-10.37l-4.93-39.99h15.3v39.99z" />
	<path fill="#2f2e41" d="M654.5 612.13h-33.42v-.43a13.01 13.01 0 0 1 13-13h20.43Z" />
	<path fill="#ffb7b7" d="M686.54 602.08h-10.37l-4.93-39.99h15.3v39.99z" />
	<path fill="#2f2e41" d="M689.18 612.13h-33.43v-.43a13.01 13.01 0 0 1 13.01-13h20.42ZM707.41 265.63l11.18-4.03s4.74 1 4.74 13.87 12.6 132.88 12.6 132.88l-22.05 5.81-12.46-113.86ZM632.7 265.63l-11.18-4.03s-4.74 1-4.74 13.87-12.6 132.88-12.6 132.88l22.05 5.81L638.7 300.3ZM632.85 402.5l-3.06 90.16 6.77 99.72 17.43.4 2.54-93.02 14.37-46.51-1.45 137.09 19.74-.24 12.23-94.31s16.14-78.06 7.19-93.28l-41.23-13.71Z" />
	<path fill="#e5e5e5" d="m633.18 391.64-1 21.7s13.92 6.91 38.37 2.7 40.7-1.44 40.7-1.44l-1.87-27.65Z" />
	<path fill="#2f2e41" d="m621.08 261.92 32.15-14.1 1.92-7.37 31.28.9 1.35 7.54 30.81 12.7-13.57 47.2 1.39 33.2 16.92 60.52s-14.27 12.12-48.57 6.9l-5.92-11.92-3.62 12.61s-30.08 11.07-38.41-3.34l6.04-104.04Z" />
	<circle cx="670.51" cy="212.74" r="20.77" fill="#ffb7b7" />
	<path fill="#2f2e41" d="M695.19 204.7a12.65 12.65 0 0 0-2.1-4.7 25.34 25.34 0 0 0-3.79-10.9 11.45 11.45 0 0 0-3.38-3.92 10 10 0 0 0-5.34-1.33c-.33 0-.94.1-1.5.12l-1.05-.3c-.2-.45-.62-1.8-.73-1.7l-1.55 1.22c-.65-.11-1.31-.2-1.97-.27l-.72-2.06a14.09 14.09 0 0 0-1.03 1.93q-.98-.05-1.97-.04l-1.31-1.26a1.85 1.85 0 0 1-1.45 1.42c-.6.06-1.21.14-1.81.24h-.15c-3.24-.08-6.72-.23-9.43 1.55a9.3 9.3 0 0 0-3 3.4c-.33.23-.67.46-.99.7a10.78 10.78 0 0 0-2.78 2.75 11.68 11.68 0 0 0-1.23 2.98 28.55 28.55 0 0 0-1.41 9.75 14.48 14.48 0 0 0 3.56 9.04c1.39 1.49 3.15 2.59 4.54 4.08 2.87 3.07 3.4 7.35 5.85 10.6 2.6 3.43 7.32 5.7 11.48 6.34a19.16 19.16 0 0 0 14.27-3.56 8.83 8.83 0 0 0 2.43-2.55c1.44-2.5.83-5.62 1.37-8.45 1-5.3 6.06-9.76 5.19-15.08Z" />
	<path fill="#3f3d56" d="m105.56 184.55-1.2-1.61 115.12-85.7 112.87 84.19L446.76 57.21l.21-.09 111.04-45.83.76 1.85-110.83 45.75L332.6 184.11 219.48 99.73l-113.92 84.82z" />
</svg>
