<svg xmlns="http://www.w3.org/2000/svg" viewBox="0 0 751.15 558.15">
	<path fill="#f0f0f0" d="M641.23 553.96c7.97-18.67 13.6-39 10.93-59.1a65.24 65.24 0 0 0-5.88-19.65 59.56 59.56 0 0 0-9.22-13.93 8.35 8.35 0 0 0-10.57-1.7c-.26.15-.52.3-.76.48a8.75 8.75 0 0 0-2.97 3.63 6.28 6.28 0 0 0-.3.86 8.94 8.94 0 0 0-.3 3.79 95.57 95.57 0 0 1-.9 31.1q-.76 3.92-1.87 7.77a77.51 77.51 0 0 0-5.27-5.93 65.32 65.32 0 0 0-16.45-12.12l-.09-.05c-7.38-3.76-17.22-2.2-22.97.36-.38.16-.74.34-1.09.5-3 1.55-4.49 3.32-3.2 4.48.28.25.57.5.84.77a95.7 95.7 0 0 1 21.06 28.34 93.3 93.3 0 0 1 5.21 13.17c1.93 6.23 3.53 13.14 7.3 18.22a16.38 16.38 0 0 0 1.25 1.53l33.68-.27.23-.11 1.34.05c-.05-.24-.1-.48-.17-.72v-.02l-.1-.4-.07-.26c.06-.15.12-.3.2-.44l.14-.35Z" />
	<path fill="#fff" d="M641.06 555.4a.44.44 0 0 1-.69.3 18.27 18.27 0 0 0-4.5-2.38h-.02a37.98 37.98 0 0 0-6.24-1.66l-.05-.01-2.58-.48c-4.18-.77-8.43-1.7-12.05-4.08a12.28 12.28 0 0 1-5.63-8.33c-.53-3.35.14-6.72.42-10.06a17.89 17.89 0 0 0 .08-1.64 19.4 19.4 0 0 0-1.78-8.8 34.9 34.9 0 0 0-6.36-8.94q-1.99-2.15-4.16-4.13a2.5 2.5 0 0 0-.18-.16c0-.01 0-.02-.02-.03a81.07 81.07 0 0 0-20.75-13.7l-.83-.37c-.73-.33-1.46-.64-2.2-.95.35-.17.71-.35 1.1-.51a82.99 82.99 0 0 1 23.08 14.66c.23.2.46.4.68.62q2.6 2.4 4.94 5.03a32.5 32.5 0 0 1 6 9.16 20.41 20.41 0 0 1 1.38 8.58c-.02.56-.06 1.12-.1 1.69-.32 3.37-1 6.85-.24 10.22.88 3.84 3.86 6.52 7.32 8.16a31.64 31.64 0 0 0 7.16 2.22c5.1 1.07 10.37 1.59 14.83 4.33h.01l.2.13h.01a9.49 9.49 0 0 1 .93.64c.02 0 .04.03.06.04a.57.57 0 0 1 .08.07.44.44 0 0 1 .1.39Z" />
	<path fill="#fff" d="M598.12 505.09a12.2 12.2 0 0 0-.4-15.8c-.4-.43-1.09.15-.7.59a11.3 11.3 0 0 1 .35 14.7c-.37.45.38.96.75.51ZM610.1 527.03a23.52 23.52 0 0 1-16.59-4.37c-.47-.34-.98.41-.5.76a24.47 24.47 0 0 0 17.25 4.5c.59-.07.41-.96-.17-.9ZM576.61 491.19l-.06.1a7.76 7.76 0 0 1-5.39 3.93c-.27-.26-.56-.52-.85-.77a.33.33 0 0 1 .15-.05 6.9 6.9 0 0 0 5.26-3.47l.14-.25a.45.45 0 0 1 .63-.12.47.47 0 0 1 .12.63Z" />
	<path fill="#fff" d="M297.68 176.37a67.9 67.9 0 0 0-67.81 67.82v259.9a67.9 67.9 0 0 0 67.81 67.82h604.64a67.9 67.9 0 0 0 67.81-67.82v-259.9a67.9 67.9 0 0 0-67.81-67.82Z" style="isolation:isolate" transform="translate(-224.42 -170.93)" />
	<path fill="#e6e6e6" d="M902.32 577.35H297.68a73.34 73.34 0 0 1-73.26-73.26v-259.9a73.34 73.34 0 0 1 73.26-73.26h604.64a73.34 73.34 0 0 1 73.26 73.26v259.9a73.34 73.34 0 0 1-73.26 73.26ZM297.68 181.8a62.45 62.45 0 0 0-62.37 62.38v259.9a62.45 62.45 0 0 0 62.37 62.37h604.64a62.45 62.45 0 0 0 62.37-62.37v-259.9a62.45 62.45 0 0 0-62.37-62.38Z" style="isolation:isolate" transform="translate(-224.42 -170.93)" />
	<path d="M377.2 59.25H89.66A23.2 23.2 0 0 0 66.5 82.4v129.7a21.82 21.82 0 0 0 .38 4.1c.09.61.23 1.21.38 1.81a23.23 23.23 0 0 0 22.39 17.24H377.2c.47 0 .94-.02 1.4-.06h.32v-.01a1.38 1.38 0 0 0 .28-.02l.29-.02a.16.16 0 0 0 .09-.02l.58-.05.96-.15a.3.3 0 0 1 .13-.02.36.36 0 0 1 .18-.03.07.07 0 0 1 .05-.02c.2-.04.4-.07.6-.13a2.1 2.1 0 0 0 .33-.07c.4-.1.8-.18 1.18-.3l.52-.15.73-.26a2.86 2.86 0 0 0 .36-.13.1.1 0 0 0 .07-.03 16.22 16.22 0 0 0 1.55-.64c.43-.2.85-.41 1.27-.63.16-.07.3-.17.47-.26a.38.38 0 0 0 .1-.07l1.24-.74c.02-.02.02-.04.04-.04a.02.02 0 0 0 .02-.02 13.87 13.87 0 0 0 1.23-.87h.02l.29-.23.36-.3.64-.54a2.79 2.79 0 0 0 .34-.3l.89-.86a5.13 5.13 0 0 0 .44-.47 7.53 7.53 0 0 0 .63-.69l.56-.7a8.12 8.12 0 0 0 .6-.79 25.07 25.07 0 0 0 1.6-2.52l.32-.64c.02 0 .02-.01.02-.03.2-.38.38-.76.55-1.16l.2-.47c.14-.31.25-.64.38-.97.2-.6.4-1.21.56-1.83.15-.6.3-1.2.38-1.81a21.82 21.82 0 0 0 .38-4.1V82.4a23.2 23.2 0 0 0-23.15-23.15Z" />
	<path fill="#fff" d="M66.51 96.45h333.85v1.81H66.51zM66.51 116.41h333.85v1.81H66.51zM66.51 136.36h333.85v1.81H66.51zM66.51 156.32h333.85v1.81H66.51zM66.51 176.28h333.85v1.81H66.51zM66.51 196.24h333.85v1.81H66.51zM399.97 216.2c-.09.61-.23 1.21-.38 1.81H66.76a15 15 0 0 1-.22-1.81Z" opacity=".3" />
	<path d="M400.35 184.01v28.09a21.82 21.82 0 0 1-.38 4.1c-.09.61-.23 1.21-.38 1.81a30.7 30.7 0 0 1-.56 1.83c-.13.33-.24.66-.38.97l-.2.47c-.17.4-.35.78-.55 1.16 0 .02 0 .03-.02.03l-.32.64a25.04 25.04 0 0 1-1.6 2.52 8.12 8.12 0 0 1-.6.78l-.56.7a7.53 7.53 0 0 1-.63.7 5.13 5.13 0 0 1-.44.47c-.29.3-.58.58-.89.85a2.79 2.79 0 0 1-.34.31l-.64.55c-.1.09-.23.2-.36.29l-.3.23h-.01a13.87 13.87 0 0 1-1.23.87.02.02 0 0 1-.02.02c-.02 0-.02.02-.04.04-.25.18-.52.34-.8.5-.14.1-.29.17-.43.24a.38.38 0 0 1-.11.07c-.16.1-.31.19-.47.26-.42.22-.84.43-1.27.63a16.22 16.22 0 0 1-1.55.64.1.1 0 0 1-.07.03 2.86 2.86 0 0 1-.36.13c-.24.1-.49.18-.73.26l-.52.14c-.38.13-.78.22-1.18.3a2.1 2.1 0 0 1-.33.08c-.2.06-.4.1-.6.13a.07.07 0 0 0-.05.02.36.36 0 0 0-.18.03.3.3 0 0 0-.13.02c-.3.06-.64.1-.96.15l-.58.05a.16.16 0 0 1-.1.02l-.56.05h-.03l-.6.04c-.36.02-.73.02-1.09.02H89.66A23.23 23.23 0 0 1 67.26 218h-.5a15 15 0 0 1-.22-1.81c-.02-.35-.03-.71-.03-1.06V183.5a43.15 43.15 0 0 1 11.23 1.83c9.87 3.02 19.47 8.11 29.77 8.11.82 0 1.67-.03 2.5-.1 10.85-.91 19.3-7.64 26.31-15.25a142.9 142.9 0 0 0 5.48-6.28 97.68 97.68 0 0 1 13.2-13.67c.77-.64 1.55-1.24 2.35-1.82a33.51 33.51 0 0 1 16-6.4c.75-.08 1.5-.13 2.24-.15 7.76-.23 15.06 2.56 21.7 6.55.96.58 1.92 1.18 2.85 1.82a108.35 108.35 0 0 1 9.16 6.95 175.17 175.17 0 0 0 14.15 11.19l1.09.73c.56.38 1.14.74 1.72 1.08a41.93 41.93 0 0 0 16.4 6.2l.64.08c9.45 1.1 18.25-1.68 26.29-6.28 1-.58 2.01-1.17 3-1.81a123.97 123.97 0 0 0 17.57-14.15c1.42-1.33 2.85-2.67 4.34-4l2.03-1.8c10.78-9.48 23.2-18.15 37.89-18.15.61 0 1.25.02 1.88.05 10.56.51 19.84 5.63 27.62 12.12a84.7 84.7 0 0 1 6.48 5.97l.25.26c.5.5 1.02 1.03 1.49 1.56 5.8 6.07 11.16 12.57 17.47 18.14.7.64 1.4 1.23 2.12 1.81a59.25 59.25 0 0 0 6.9 4.94c.56.34 1.14.67 1.72.98Z" opacity=".1" />
	<path d="M400.35 156.6v55.5a21.82 21.82 0 0 1-.38 4.1c-.09.61-.23 1.21-.38 1.81a30.7 30.7 0 0 1-.56 1.83c-.13.33-.24.66-.38.97l-.2.47c-.17.4-.35.78-.55 1.16 0 .02 0 .03-.02.03l-.32.64a25.04 25.04 0 0 1-1.6 2.52 8.12 8.12 0 0 1-.6.78l-.56.7a7.53 7.53 0 0 1-.63.7 5.13 5.13 0 0 1-.44.47c-.29.3-.58.58-.89.85a2.79 2.79 0 0 1-.34.31l-.64.55c-.1.09-.23.2-.36.29l-.3.23h-.01a13.87 13.87 0 0 1-1.23.87.02.02 0 0 1-.02.02c-.02 0-.02.02-.04.04-.25.18-.52.34-.8.5-.14.1-.29.17-.43.24a.38.38 0 0 1-.11.07c-.16.1-.31.19-.47.26-.42.22-.84.43-1.27.63a16.22 16.22 0 0 1-1.55.64.1.1 0 0 1-.07.03 2.86 2.86 0 0 1-.36.13c-.24.1-.49.18-.73.26l-.52.14c-.38.13-.78.22-1.18.3a2.1 2.1 0 0 1-.33.08c-.2.06-.4.1-.6.13a.07.07 0 0 0-.05.02.36.36 0 0 0-.18.03.3.3 0 0 0-.13.02c-.3.06-.64.1-.96.15l-.58.05a.16.16 0 0 1-.1.02l-.28.02a1.38 1.38 0 0 1-.28.02.96.96 0 0 1-.23.01h-.1l-.3.04c-.36.02-.73.02-1.09.02H89.66A23.23 23.23 0 0 1 67.26 218c-.14-.6-.28-1.2-.37-1.81a21.82 21.82 0 0 1-.38-4.1v-32.32a88.58 88.58 0 0 0 3.74-3.5 139.23 139.23 0 0 0 14.7-18.14c.15-.2.3-.38.43-.58l.88-1.24a142.59 142.59 0 0 1 14.72-18.14c.62-.62 1.23-1.22 1.87-1.82 6.75-6.35 14.44-11.08 23.51-12.2 12.5-1.57 24.13 4.22 34.42 12.2a145.73 145.73 0 0 1 12.27 10.9c.83.84 1.68 1.68 2.54 2.51a382.94 382.94 0 0 0 8.65 8.37c9.07 8.4 18.89 15.78 30.56 18.14.8.16 1.61.3 2.43.42a40.62 40.62 0 0 0 13.24-.42c.73-.13 1.43-.29 2.16-.47 10.92-2.7 21.05-9.5 30.21-17.67l1.98-1.82c4.68-4.33 9.12-8.98 13.28-13.55a483.14 483.14 0 0 1 5.91-6.4 153.33 153.33 0 0 1 19.85-18.15c.86-.63 1.7-1.23 2.56-1.81 9.6-6.55 20.09-10.76 31.6-10.1 9.52.55 18.2 4.47 26.03 10.1.8.58 1.6 1.18 2.4 1.81a108.7 108.7 0 0 1 16.2 16.1l1.68 2.04c.3.35.56.71.85 1.06l.6.76c4.81 6 9.44 12.25 14.35 18.14Z" opacity=".1" />
	<path d="M400.35 133.68v78.42a21.82 21.82 0 0 1-.38 4.1c-.09.61-.23 1.21-.38 1.81a30.7 30.7 0 0 1-.56 1.83c-.13.33-.24.66-.38.97l-.2.47c-.17.4-.35.78-.55 1.16 0 .02 0 .03-.02.03l-.32.64a25.04 25.04 0 0 1-1.6 2.52 8.12 8.12 0 0 1-.6.78l-.56.7a7.53 7.53 0 0 1-.63.7 5.13 5.13 0 0 1-.44.47c-.29.3-.58.58-.89.85a2.79 2.79 0 0 1-.34.31l-.64.55c-.1.09-.23.2-.36.29l-.3.23h-.01a13.87 13.87 0 0 1-1.23.87.02.02 0 0 1-.02.02c-.02 0-.02.02-.04.04-.25.18-.52.34-.8.5-.14.1-.29.17-.43.24a.38.38 0 0 1-.11.07c-.16.1-.31.19-.47.26-.42.22-.84.43-1.27.63a16.22 16.22 0 0 1-1.55.64.1.1 0 0 1-.07.03 2.86 2.86 0 0 1-.36.13c-.24.1-.49.18-.73.26l-.52.14c-.38.13-.78.22-1.18.3a2.1 2.1 0 0 1-.33.08c-.2.06-.4.1-.6.13a.07.07 0 0 0-.05.02.36.36 0 0 0-.18.03.3.3 0 0 0-.13.02c-.3.06-.64.1-.96.15l-.58.05a.16.16 0 0 1-.1.02l-.28.02a1.38 1.38 0 0 1-.28.02.06.06 0 0 1-.03.01h-.3c-.45.04-.92.06-1.39.06H89.66A23.23 23.23 0 0 1 67.26 218c-.14-.6-.28-1.2-.37-1.81a21.82 21.82 0 0 1-.38-4.1v-46.85q2.74-3.57 5.51-7.11c.47-.62.95-1.22 1.42-1.82 2.48-3.2 4.99-6.35 7.56-9.43a174.2 174.2 0 0 1 7.77-8.71c.58-.6 1.16-1.22 1.76-1.82a100.85 100.85 0 0 1 23.46-18.14 55.5 55.5 0 0 1 3.6-1.81 56.06 56.06 0 0 1 20.51-5.36 56.99 56.99 0 0 1 27.1 5.36c1.28.54 2.53 1.16 3.76 1.81 8.88 4.57 17.2 10.98 25 18.14.68.58 1.31 1.2 1.97 1.82a331.36 331.36 0 0 1 17.63 18.14l1.25 1.38.4.44a266.1 266.1 0 0 0 17.42 17.67c.16.16.35.3.53.47a140.7 140.7 0 0 0 9.5 8 97.28 97.28 0 0 0 19.55 11.96c1.46.67 2.95 1.27 4.46 1.81a53.66 53.66 0 0 0 26.05 3.09 51.91 51.91 0 0 0 11.81-3.09 58.93 58.93 0 0 0 4.27-1.81c9.2-4.36 17.5-10.94 25.38-18.15l1.96-1.81c4.48-4.2 8.84-8.58 13.14-12.8 1.81-1.79 3.66-3.58 5.57-5.34l2-1.82a139.8 139.8 0 0 1 7.07-5.97 90.9 90.9 0 0 1 19.45-12.17 57.73 57.73 0 0 1 4.59-1.81 48.66 48.66 0 0 1 12.4-2.7Z" opacity=".1" />
	<circle cx="138.17" cy="116.41" r="5.44" fill="#fff" />
	<circle cx="221.64" cy="176.28" r="5.44" fill="#fff" />
	<circle cx="334.13" cy="136.36" r="5.44" fill="#fff" />
	<path fill="#e6e6e6" d="M581.72 182.8H453.37a4.63 4.63 0 1 0 0 9.27h128.35a4.63 4.63 0 1 0 0-9.26ZM581.72 252.93H453.37a4.63 4.63 0 1 0 0 9.27h128.35a4.63 4.63 0 1 0 0-9.27ZM581.72 323.06H453.37a4.63 4.63 0 1 0 0 9.26h128.35a4.63 4.63 0 1 0 0-9.26Z" />
	<circle cx="659.49" cy="187.78" r="11.57" fill="#f2f2f2" style="isolation:isolate" />
	<path fill="#fff" d="M657.91 193.8a1.29 1.29 0 0 1-1.03-.51l-3.15-4.2a1.29 1.29 0 1 1 2.05-1.55l2.07 2.75 5.3-7.95a1.29 1.29 0 0 1 2.14 1.42l-6.3 9.47a1.29 1.29 0 0 1-1.04.57Z" />
	<circle cx="659.49" cy="257.91" r="11.57" fill="#f2f2f2" style="isolation:isolate" />
	<path fill="#fff" d="M657.91 263.93a1.29 1.29 0 0 1-1.03-.51l-3.15-4.21a1.29 1.29 0 1 1 2.05-1.54l2.07 2.75 5.3-7.96a1.29 1.29 0 1 1 2.14 1.43l-6.3 9.47a1.29 1.29 0 0 1-1.04.57Z" />
	<circle cx="659.49" cy="328.04" r="11.57" fill="#f2f2f2" style="isolation:isolate" />
	<path fill="#e6e6e6" d="M581.72 112.68H453.37a4.63 4.63 0 1 0 0 9.26h128.35a4.63 4.63 0 1 0 0-9.26Z" />
	<circle cx="659.49" cy="117.66" r="11.57" />
	<path fill="#fff" d="M657.91 123.67a1.29 1.29 0 0 1-1.03-.51l-3.15-4.2a1.29 1.29 0 1 1 2.05-1.55l2.07 2.75 5.3-7.95a1.29 1.29 0 1 1 2.14 1.43l-6.3 9.46a1.29 1.29 0 0 1-1.04.57Z" />
	<circle cx="621.12" cy="117.66" r="11.57" fill="#f2f2f2" style="isolation:isolate" />
	<circle cx="621.12" cy="187.78" r="11.57" fill="#f2f2f2" style="isolation:isolate" />
	<circle cx="621.12" cy="257.91" r="11.57" fill="#f2f2f2" style="isolation:isolate" />
	<circle cx="621.12" cy="328.04" r="11.57" fill="#f2f2f2" style="isolation:isolate" />
	<path fill="#fff" d="M657.91 334.06a1.29 1.29 0 0 1-1.03-.52l-3.15-4.2a1.29 1.29 0 1 1 2.05-1.55l2.07 2.76 5.3-7.96a1.29 1.29 0 0 1 2.14 1.43l-6.3 9.47a1.29 1.29 0 0 1-1.04.57ZM641.23 553.96a.43.43 0 0 1-.15.35.58.58 0 0 1-.27.1.4.4 0 0 1-.46-.28c-1.38-4.64-4.76-8.2-7.96-11.7-2.88-3.12-5.7-6.42-7.16-10.5a12.28 12.28 0 0 1 .52-10.04 17.72 17.72 0 0 1 1.73-2.62c1.43-1.82 3.13-3.44 4.66-5.16a23.05 23.05 0 0 0 1.05-1.26 19.35 19.35 0 0 0 3.87-8.1 34.8 34.8 0 0 0 .31-10.97q-.3-2.91-.83-5.78l-.05-.25a80.77 80.77 0 0 0-8.32-23.47l-.44-.8c-.64-1.16-1.3-2.3-2-3.42.24-.17.5-.33.76-.48a82.83 82.83 0 0 1 5.97 11.63 81.25 81.25 0 0 1 4.87 16.05 71.68 71.68 0 0 1 1.09 7.89 32.34 32.34 0 0 1-.74 10.92 20.38 20.38 0 0 1-4.07 7.7q-.5.65-1.08 1.27c-1.52 1.66-3.2 3.27-4.57 5.08a15.11 15.11 0 0 0-1.77 2.94c-1.6 3.6-.85 7.54.93 10.92 3.22 6.15 9.36 10.34 12.63 16.37a18.6 18.6 0 0 1 1.46 3.49.5.5 0 0 1 .02.12Z" />
	<path fill="#fff" d="M637.1 488.27a12.2 12.2 0 0 0 9.18-12.86c-.05-.58-.96-.53-.9.06a11.3 11.3 0 0 1-8.58 11.94c-.57.14-.27 1 .3.86ZM633.44 513a23.52 23.52 0 0 1-10.6-13.47c-.18-.56-1.04-.27-.87.3a24.47 24.47 0 0 0 11.07 13.98c.5.3.9-.52.4-.81ZM628.28 464.23l-.1.05a7.7 7.7 0 0 1-5.73.27 6.28 6.28 0 0 1 .31-.86 6.83 6.83 0 0 0 4.97-.21c.1-.03.17-.07.26-.11a.46.46 0 0 1 .58.28.48.48 0 0 1-.29.58Z" />
	<path fill="#ffb6b6" d="M578.44 311a9.36 9.36 0 0 0-2.58-14.13l6.04-32.72-15.92 6.74-3.3 30.04a9.41 9.41 0 0 0 15.76 10.06Z" />
	<path fill="#3f3d56" d="m588.15 214.16-5.06-17.01-35.68-55.67a26.35 26.35 0 0 0-7-5.78 26.56 26.56 0 0 0-34.69 38.66 24.72 24.72 0 0 0 2.43 2.9l46.21 47.66 2.63 2.72 4.16 10.52 1.64 47.97 1.47.35 12.95 3.05 1.81.43 3.03-15.67 1.9-7.5a79.54 79.54 0 0 0 2.43-19.53c0-2.03-.07-4.07-.23-6.1Z" />
	<path fill="#ffb6b6" d="M539.11 544.95h-12.39l-5.9-47.79h18.29v47.79z" />
	<path fill="#2f2e41" d="m538.77 540.9-13.22-5.37-.39-.16-7.3 5.53a15.54 15.54 0 0 0-15.53 14.87c-.02.22-.02.45-.02.68v.5h39.95V540.9Z" />
	<path fill="#ffb6b6" d="m515.51 520.23-10.68 6.28-29.32-38.19 15.76-9.28 24.24 41.19z" />
	<path fill="#2f2e41" d="m522.88 526.53-1.45-2.47-5.25-8.92-2.73 1.6-.28.17-14.12 2.08-.42.06-3.48 8.47a15.55 15.55 0 0 0-5.52 21.29l.26.43 34.43-20.26Z" />
	<path fill="#2f2e41" d="M554.8 252.79c5.8 17.52 5.2 36.53-1.4 56.94l-1.72 70.17-5.53 44.26a75.78 75.78 0 0 1 5.05 27.17c-.03 24.35-1.66 58.95-9.96 75.2h-19.65l-4.44-72.37-5.29-36.4-.65-38.98-.57-34.01L489.28 376l-20.76 30.36 20.63 34.8 18 56-19 16-21.55-40.87-10.45-12.13-28.51-61.73 2.56-8.6a203.33 203.33 0 0 1 22.78-50.23l28.37-65.83Z" />
	<path fill="#3f3d56" d="m557.31 246.94-3.24-6.48.3-15.54.96-52.54a50.4 50.4 0 0 0-14.93-36.68 49.36 49.36 0 0 0-9.56-7.43l-6.96-4.16-3.52-8.94-32.46.79-.07 8.67-.03 3.05-11.63 18.54.01.08.24 33.74.48 67.16 3.21 10.4-4.85 12.13 2.58 7.72 2.06-.33 69.38-11.1a13.62 13.62 0 0 0 7.53-5.97 12.4 12.4 0 0 0 .9-1.74 13.65 13.65 0 0 0-.4-11.37Z" />
	<circle cx="501.16" cy="74.55" r="29.5" fill="#ffb6b6" />
	<path fill="#2f2e41" d="M519.5 99c3.12-2.2 6.28-6.37 8.38-9.5a35.42 35.42 0 0 0 5.08-28.35 10.8 10.8 0 0 0-2.62-5.16 4.64 4.64 0 0 0-5.36-.98 9.68 9.68 0 0 0-.5-7.68 17.06 17.06 0 0 0-5.13-5.94 28.4 28.4 0 0 0-28.97-3.02c-1.83.88 1.1-5.76-.82-5.1a7.86 7.86 0 0 1-5.93-.02c-1.83-.88-7.77 4.62-7.1 2.7A8.96 8.96 0 0 0 474.67 51c1.54 1.26 3.45 1.97 5.13 3.04a14.61 14.61 0 0 1 4.73 18.8 19.36 19.36 0 0 1 5.66-2.56 6.55 6.55 0 0 1 5.85 1.32 7.36 7.36 0 0 1 1.86 5.53c-.04 2-.48 3.98-.51 5.99-.08 5.87-3.07 17.08 1.53 20.14 3.63 2.42 16.33-1.27 20.59-4.26Z" />
	<path fill="#ffb6b6" d="M337.3 146.3a9.36 9.36 0 0 0 14.17 2.31l28.78 16.68-1-17.26-27.18-13.2a9.41 9.41 0 0 0-14.77 11.46Z" />
	<path fill="#3f3d56" d="M523.2 141.13a26.57 26.57 0 0 0-35.37-16.5l-.96.4-63.86 29.08-24.86-2.95-32.18-11.24-.82 1.27-7.23 11.17-1 1.56 34.51 20.4 3.66.77a24.73 24.73 0 0 1 15.68 10.67l13.38 4.4 52.27-10.12 29.3-5.68 1.66-.32a26.64 26.64 0 0 0 17.07-24.84 26.37 26.37 0 0 0-1.26-8.07Z" />
	<path fill="#ccc" d="M671.8 558.15h-348a1.2 1.2 0 1 1 0-2.38h348a1.2 1.2 0 0 1 0 2.38Z" />
	<path fill="#e6e6e6" d="M297.25 279.94H85.9a4.63 4.63 0 0 0 0 9.26h211.35a4.63 4.63 0 1 0 0-9.26Z" />
	<circle cx="375.02" cy="284.91" r="11.57" />
	<path fill="#fff" d="M373.44 290.93a1.29 1.29 0 0 1-1.03-.51l-3.15-4.2a1.29 1.29 0 1 1 2.06-1.55l2.06 2.75 5.3-7.95a1.29 1.29 0 1 1 2.14 1.42l-6.3 9.47a1.29 1.29 0 0 1-1.04.57Z" />
	<circle cx="336.65" cy="284.91" r="11.57" fill="#f2f2f2" style="isolation:isolate" />
	<path fill="#e6e6e6" d="M296.25 335.94H84.9a4.63 4.63 0 0 0 0 9.26h211.35a4.63 4.63 0 1 0 0-9.26Z" />
	<circle cx="374.02" cy="340.91" r="11.57" fill="#f2f2f2" style="isolation:isolate" />
	<path fill="#fff" d="M372.44 346.93a1.29 1.29 0 0 1-1.03-.51l-3.15-4.2a1.29 1.29 0 1 1 2.06-1.55l2.06 2.75 5.3-7.95a1.29 1.29 0 1 1 2.14 1.42l-6.3 9.47a1.29 1.29 0 0 1-1.04.57Z" />
	<circle cx="335.65" cy="340.91" r="11.57" fill="#f2f2f2" style="isolation:isolate" />
</svg>
