<svg xmlns="http://www.w3.org/2000/svg" viewBox="0 0 628.95 540.75">
	<path fill="#e6e6e6" d="M.33.43h532.26v313.48H.33z" />
	<path d="M0 0h532.26v32.4H0z" />
	<path fill="#fff" d="M12.27 42.35h507.51v255.96H12.27z" />
	<circle cx="50.44" cy="16.12" r="5.36" fill="#fff" />
	<circle cx="70.78" cy="16.12" r="5.36" fill="#fff" />
	<circle cx="30.04" cy="16.12" r="5.36" fill="#fff" />
	<path fill="#e6e6e6" d="M71.47 86.55H460.6v10.16H71.47z" />
	<path fill="#e6e6e6" d="M196.66 111.96H335.4v10.16H196.66zM196.66 163.5H335.4v10.16H196.66zM196.66 189.9H335.4v10.16H196.66z" />
	<path fill="#e6e6e6" d="M127.83 137.37h276.4v10.16h-276.4z" />
	<path d="M387.59 236.06h73v18.05h-73z" />
	<path fill="#9f616a" d="m531.23 529.37-12.26-.01-5.83-47.28h18.09v47.29z" />
	<path fill="#2f2e41" d="M510.21 525.86h23.65v14.89h-38.53a14.89 14.89 0 0 1 14.88-14.89Z" />
	<path fill="#9f616a" d="m577.23 529.37-12.26-.01-5.83-47.28h18.09v47.29z" />
	<path fill="#2f2e41" d="M556.21 525.86h23.65v14.89h-38.53a14.89 14.89 0 0 1 14.88-14.89Z" />
	<path fill="#9f616a" d="M575.73 388.53a10.74 10.74 0 0 1-2.06-16.35l-8.07-114.55 23.25 2.25.64 112.19a10.8 10.8 0 0 1-13.76 16.46Z" />
	<path fill="#2f2e41" d="m530.65 505.54-13.5-.64a4.5 4.5 0 0 1-4.28-4.46l-.94-136.56a4.5 4.5 0 0 1 5.14-4.49l54 7.84a4.47 4.47 0 0 1 3.85 4.42l6.95 126.54a4.5 4.5 0 0 1-4.5 4.53h-14.55a4.48 4.48 0 0 1-4.45-3.8s-10.99-94.91-12.5-94.86c-1.52.03-10.54 97.52-10.54 97.52a4.52 4.52 0 0 1-4.46 3.97h-.22Z" />
	<path fill="#3f3d56" d="M570.86 296.12a4.48 4.48 0 0 1-1.86-3.4l-1.7-30.88a12.4 12.4 0 0 1 24.35-3.93l7.48 27.6a4.5 4.5 0 0 1-3.16 5.53l-21.3 5.77a4.48 4.48 0 0 1-3.8-.7Z" />
	<circle cx="550.97" cy="198.18" r="24.56" fill="#9f616a" />
	<path fill="#9f616a" d="M461.97 246.43a10.53 10.53 0 0 1 .24 1.64l42.96 24.78 10.44-6 11.13 14.56-22.34 15.92-49-38.66a10.5 10.5 0 1 1 6.57-12.24Z" />
	<path fill="#3f3d56" d="M506.7 270.75a4.48 4.48 0 0 1 1.3-3.66l21.86-21.87a12.4 12.4 0 0 1 19.17 15.52l-15.57 24a4.5 4.5 0 0 1-6.23 1.32l-18.5-12.01a4.48 4.48 0 0 1-2.03-3.3Z" />
	<path fill="#2f2e41" d="M568.36 217.6c-4.59 4.89-13.1 2.27-13.7-4.4a8.05 8.05 0 0 1 .02-1.56c.3-2.95 2.01-5.63 1.6-8.75a4.59 4.59 0 0 0-.84-2.15c-3.65-4.89-12.22 2.19-15.67-2.24-2.1-2.71.38-6.98-1.25-10.02-2.14-4-8.47-2.03-12.45-4.22-4.42-2.44-4.16-9.22-1.25-13.35 3.55-5.03 9.78-7.72 15.93-8.1s12.25 1.27 17.99 3.5c6.52 2.54 12.99 6.06 17 11.8 4.88 6.96 5.35 16.34 2.9 24.5-1.48 4.95-6.54 11.01-10.28 15Z" />
	<path fill="#3f3d56" d="M627.95 540.56h-193a1 1 0 0 1 0-2h193a1 1 0 0 1 0 2ZM575.49 239.14q-.64-.46-1.3-.9a32.36 32.36 0 0 0-7.6-3.72v-6.46h-19v5.99a33.32 33.32 0 0 0-24.16 27.69l-12.94 96.05a4.48 4.48 0 0 0 .93 3.4 4.42 4.42 0 0 0 3.05 1.67c4.49.45 13.78 2.19 25.68 8.8a38.13 38.13 0 0 0 18.7 4.77 45.09 45.09 0 0 0 15.23-2.71 4.47 4.47 0 0 0 2.92-4c.47-10.34 3.2-63.55 11.13-96a33.18 33.18 0 0 0-12.64-34.58Z" />
</svg>
