<svg xmlns="http://www.w3.org/2000/svg" viewBox="0 0 816.22 640.5">
	<path fill="#f0f0f0" d="M570.36 291.13a363.96 363.96 0 0 1-17 100.61c-.23.76-.49 1.5-.74 2.26h-63.45c.07-.68.14-1.43.2-2.26 4.24-48.63-19.93-341.12-49.1-391.74 2.56 4.1 135.01 136.6 130.1 291.13Z" data-name="Path 133" />
	<path fill="#f0f0f0" d="M565.6 391.74c-.53.76-1.08 1.52-1.65 2.26h-47.6l1.26-2.26c7.87-14.19 31.14-56.62 52.75-100.6 23.2-47.28 44.51-96.34 42.72-114.1.56 4 16.62 126.1-47.48 214.7Z" data-name="Path 134" />
	<path fill="#3f3d56" d="M793.72 640.5h-586a22.53 22.53 0 0 1-22.5-22.5V334a22.53 22.53 0 0 1 22.5-22.5h586a22.53 22.53 0 0 1 22.5 22.5v284a22.53 22.53 0 0 1-22.5 22.5Z" />
	<path fill="#f0f0f0" d="M280.76 475h438.8v2h-438.8zM280.76 515h438.8v2h-438.8zM280.76 555h438.8v2h-438.8z" />
	<path d="M719.2 458.71c-13.03-14.08-34.79-16.73-53.5-12.46s-35.49 14.26-52.88 22.36-36.7 14.49-55.53 10.87c-18.2-3.5-33.22-15.74-48.82-25.72s-34.62-18.22-52.26-12.57c-21.83 7-31.9 31.44-47.58 48.17a80.7 80.7 0 0 1-123.92-7.47v74.74h433.34Z" opacity=".2" />
	<path fill="#f0f0f0" d="M280.76 395h438.8v2h-438.8zM280.76 435h438.8v2h-438.8z" />
	<path d="M283.41 482.64c18.7 25.25 51 38.21 81.92 32.14a83.66 83.66 0 0 0 41.43-21.4c10.38-9.93 17.52-22.59 26.72-33.52 4.45-5.29 9.44-10.24 15.44-13.76a38.97 38.97 0 0 1 22.69-5.13c17.69 1.28 32.88 11.84 47.14 21.41 13.85 9.3 28.43 18.35 45.52 19.5 17.98 1.2 35.46-5.39 51.42-12.97 16.34-7.76 32.27-17 50.04-21.12 14.48-3.37 30.95-2.73 43.94 5.1a39.85 39.85 0 0 1 8.47 6.88c1.32 1.41 3.44-.71 2.12-2.12-10.04-10.68-24.82-14.95-39.16-14.75-16.74.22-32.45 6.64-47.3 13.8-16.53 7.96-32.75 17.1-50.91 20.8a64.41 64.41 0 0 1-27.34.08c-8.28-1.92-15.95-5.68-23.2-10.01-14.6-8.72-27.8-19.76-43.89-25.76-14.79-5.5-30.96-5.6-44.22 3.74-11.41 8.03-19.02 20.18-27.22 31.2a107.14 107.14 0 0 1-14.42 16.39 80.33 80.33 0 0 1-20.6 13.24 78.78 78.78 0 0 1-47.37 5.48 81.17 81.17 0 0 1-40.95-21.85 77.58 77.58 0 0 1-7.68-8.88c-1.14-1.53-3.74-.04-2.59 1.51Z" />
	<circle cx="468.98" cy="440.28" r="10" />
	<circle cx="678.98" cy="443.28" r="10" />
	<circle cx="355.98" cy="514.28" r="10" />
	<path fill="#ffb6b6" d="M141.3 213.5a9.38 9.38 0 0 0-4.3 13.72l-28.34 40.5 8.9 10.03 33.02-48a9.43 9.43 0 0 0-9.29-16.25ZM162.36 627.14H150.1l-5.83-47.29h18.09v47.29z" />
	<path fill="#2f2e41" d="M165.49 639.02h-39.54v-.5a15.39 15.39 0 0 1 15.4-15.39h24.14Z" />
	<path d="m212.86 764.63-1-.23ZM213.52 764.76l-.5-.07.55.1ZM199.2 759.05ZM199.23 759.06ZM213.03 764.7Z" opacity=".1" style="isolation:isolate" transform="translate(-191.89 -129.75)" />
	<path fill="#cacaca" d="m131.02 453 12.79 161.39h21.73L171.53 453h-40.51zM165.02 285.75l-8.66-4.38-29.76-1.93 3.13-14.87h-23.48l-9.04 31.2 54.97 10.12 12.84-20.14z" />
	<circle cx="180.89" cy="237.89" r="28.94" fill="#2f2e41" />
	<ellipse cx="343.84" cy="345.69" fill="#2f2e41" rx="11.98" ry="8.98" transform="rotate(-45 91.28 512.44)" />
	<ellipse cx="391.93" cy="338.14" fill="#2f2e41" rx="8.98" ry="11.98" transform="rotate(-66.87 197.73 418.58)" />
	<circle cx="181.81" cy="244.8" r="24.56" fill="#ffb6b6" />
	<path fill="#2f2e41" d="M156 229.35a33.4 33.4 0 0 0 19.1 5.9 20.47 20.47 0 0 1-8.12 3.34 67.36 67.36 0 0 0 27.51.15 17.8 17.8 0 0 0 5.76-1.97 7.29 7.29 0 0 0 3.56-4.76c.6-3.45-2.08-6.58-4.88-8.7a35.97 35.97 0 0 0-30.22-6.03c-3.38.87-6.76 2.35-8.95 5.06s-2.84 6.89-.76 9.68Z" />
	<path fill="#ffb6b6" d="m149.72 534.46-6.55 10.36-43.08-20.36 9.67-15.29 39.96 25.29z" />
	<path fill="#2f2e41" d="m161.44 538.17-21.14 33.4-.42-.26a15.39 15.39 0 0 1-4.78-21.23l12.91-20.4Z" />
	<path fill="#cacaca" d="m214.4 272.7-58.04 8.67-9.97 23.03s-22.21 10.28-7.44 34.94l-17.22 62.45s-80.56 40.88-79.03 68.3 84.05 72.5 84.05 72.5l11.57-18.7-47.68-47.24 44.64-14.21 35.2 1.66s38.26-29.91 15.5-79.76l15.7-46Z" />
	<path fill="#ffb6b6" d="M171.7 414.45a9.38 9.38 0 0 0 8.82-11.36l40.71-28.03-4.82-12.5-47.72 33.4a9.43 9.43 0 0 0 3.01 18.49Z" />
	<path fill="#cacaca" d="m201.48 282.08 11.92-9.38s15.78 11.94 15.8 20.87 2.64 79.78 2.64 79.78l-21.28 15.25-19.9-12.08 13.68-17.45-6.45-40.7Z" />
	<path fill="#3f3d56" d="M382 640H1a1 1 0 0 1 0-2h381a1 1 0 0 1 0 2Z" />
</svg>
