<svg xmlns="http://www.w3.org/2000/svg" viewBox="0 0 860.13 551.74">
	<path fill="#e6e6e6" d="M804 487.5H586.65a29.86 29.86 0 0 1-29.82-29.83V114.83a29.86 29.86 0 0 1 29.82-29.82H804a29.86 29.86 0 0 1 29.83 29.82v342.84A29.86 29.86 0 0 1 804 487.5Z" />
	<path fill="#fff" d="M807.6 102.8H586.24a9.35 9.35 0 0 0-9.33 9.34v347.31a9.35 9.35 0 0 0 9.33 9.34H807.6a9.35 9.35 0 0 0 9.34-9.34V112.14a9.35 9.35 0 0 0-9.34-9.34Z" />
	<path fill="#e6e6e6" d="M591.96 85a2.28 2.28 0 0 1 2.29-2.28h15.51a2.28 2.28 0 1 1 0 4.57h-15.51a2.28 2.28 0 0 1-2.29-2.28ZM617.52 85a2.28 2.28 0 0 1 2.28-2.28h15.52a2.28 2.28 0 1 1 0 4.57H619.8a2.28 2.28 0 0 1-2.28-2.28ZM770.85 85a2.28 2.28 0 0 1 2.28-2.28h15.52a2.28 2.28 0 0 1 0 4.57h-15.52a2.28 2.28 0 0 1-2.28-2.28Z" />
	<path fill="#f2f2f2" d="M727.6 461.63c0 2.4-.05 4.8-.16 7.16h-141.2a9.35 9.35 0 0 1-9.33-9.34V284.64a179.29 179.29 0 0 1 150.69 177Z" />
	<rect width="61.34" height="14.09" x="665.8" y="192.06" rx="4.34" />
	<rect width="128.28" height="14.09" x="632.33" y="220.24" fill="#e6e6e6" rx="4.34" />
	<rect width="128.28" height="14.09" x="632.33" y="248.43" fill="#e6e6e6" rx="4.34" />
	<path fill="#ccc" d="M735.8 445.05a3.35 3.35 0 0 1-2.43-5.8l.23-.91-.1-.22a9 9 0 0 0-16.58.06c-2.71 6.53-6.16 13.08-7.01 19.99a26.6 26.6 0 0 0 .46 9.14 106.63 106.63 0 0 1-9.7-44.29 102.92 102.92 0 0 1 .64-11.48q.53-4.69 1.47-9.3a107.87 107.87 0 0 1 21.39-45.73 28.7 28.7 0 0 0 11.94-12.38 21.9 21.9 0 0 0 1.99-5.99c-.58.08-1.17.13-1.75.17l-.56.02h-.06a3.32 3.32 0 0 1-2.73-5.4l.76-.92 1.15-1.42a1.65 1.65 0 0 0 .12-.15l1.32-1.62a9.6 9.6 0 0 0-3.15-3.04c-4.39-2.57-10.45-.79-13.62 3.19-3.19 3.97-3.79 9.55-2.68 14.5a38.44 38.44 0 0 0 5.32 11.86l-.73.9a108.57 108.57 0 0 0-11.33 17.96 45.13 45.13 0 0 0-2.7-20.96c-2.57-6.22-7.4-11.46-11.66-16.84-5.12-6.46-15.6-3.64-16.5 4.55l-.03.23q.95.54 1.86 1.14a4.54 4.54 0 0 1-1.83 8.26l-.1.02a45.18 45.18 0 0 0 1.2 6.75 46.52 46.52 0 0 0 23.16 29.16c.37.2.73.38 1.1.56a110.81 110.81 0 0 0-5.96 28.07 105.1 105.1 0 0 0 .08 16.97l-.03-.2a27.77 27.77 0 0 0-9.48-16.03c-7.3-6-17.6-8.2-25.48-13.02a5.21 5.21 0 0 0-7.98 5.07l.03.21a30.5 30.5 0 0 1 3.42 1.65q.95.53 1.86 1.14a4.54 4.54 0 0 1-1.83 8.26l-.1.01-.19.03a45.22 45.22 0 0 0 8.32 13.03 46.56 46.56 0 0 0 33.77 14.81h.01a110.78 110.78 0 0 0 7.44 21.73h26.59c.1-.3.18-.6.26-.9a30.2 30.2 0 0 1-7.35-.43l5.92-7.28a1.65 1.65 0 0 0 .12-.15l3.01-3.7a44.24 44.24 0 0 0-1.3-11.28Zm-30.45-59.88.01-.02-.01.04Zm-5.89 53.08-.23-.51v-1.13l-.02-.31.26 1.97Z" />
	<path fill="#cacaca" d="M796.54 133.47H597.31a1.65 1.65 0 0 1 0-3.3h199.23a1.65 1.65 0 0 1 0 3.3Z" />
	<ellipse cx="607.94" cy="120.45" fill="#3f3d56" rx="4.85" ry="4.95" />
	<ellipse cx="624.68" cy="120.45" fill="#3f3d56" rx="4.85" ry="4.95" />
	<ellipse cx="641.42" cy="120.45" fill="#3f3d56" rx="4.85" ry="4.95" />
	<path fill="#3f3d56" d="M788.75 117.4h-10.84a.82.82 0 0 0 0 1.65h10.84a.82.82 0 0 0 0-1.64ZM788.75 120.49h-10.84a.82.82 0 0 0 0 1.64h10.84a.82.82 0 0 0 0-1.64ZM788.75 123.57h-10.84a.82.82 0 0 0 0 1.64h10.84a.82.82 0 0 0 0-1.64Z" />
	<path fill="#e6e6e6" d="M465.5 284.77H349.99a6.16 6.16 0 0 0-6.16 6.17V473.4h127.84V290.94a6.17 6.17 0 0 0-6.17-6.17Zm-57.37 103.68a13.7 13.7 0 0 1-13.64-13.64v-21.05a13.64 13.64 0 0 1 27.28 0v21.05a13.7 13.7 0 0 1-13.64 13.64Z" />
	<path fill="#ccc" d="M343.44 467.57v17.6a3.45 3.45 0 0 0 3.44 3.45h121.74a3.46 3.46 0 0 0 3.44-3.44v-17.6Z" />
	<path fill="#e6e6e6" d="M656.77 0H163.01a16.03 16.03 0 0 0-16 16v333.2a16.02 16.02 0 0 0 16 16h493.76a16.02 16.02 0 0 0 16-16V16a16.03 16.03 0 0 0-16-16Z" />
	<path fill="#fff" d="M652.65 11.56H167.14a8.58 8.58 0 0 0-8.56 8.57v324.94a8.57 8.57 0 0 0 8.56 8.56h485.51a8.57 8.57 0 0 0 8.56-8.56V20.13a8.58 8.58 0 0 0-8.56-8.57Z" />
	<path d="M661.2 20.13v324.94a8.57 8.57 0 0 1-8.55 8.56h-171.2a210.1 210.1 0 0 1-45.84-61.67q-1.12-2.25-2.13-4.54a208.23 208.23 0 0 1-18.5-71.23 201.49 201.49 0 0 1-.64-16.42 209.13 209.13 0 0 1 14.74-77.42 143.4 143.4 0 0 1 1.85-4.55A210.67 210.67 0 0 1 531.2 11.56h121.45a8.58 8.58 0 0 1 8.56 8.57Z" />
	<path fill="#cacaca" d="M628.25 56.33h-454.3a1.8 1.8 0 0 1 0-3.62h454.3a1.8 1.8 0 0 1 0 3.62Z" />
	<ellipse cx="204.88" cy="32.67" fill="#3f3d56" rx="10.59" ry="10.82" />
	<ellipse cx="241.45" cy="32.67" fill="#3f3d56" rx="10.59" ry="10.82" />
	<ellipse cx="278.03" cy="32.67" fill="#3f3d56" rx="10.59" ry="10.82" />
	<path fill="#3f3d56" d="M606.22 24.53h-25.98a1.97 1.97 0 0 0 0 3.93h25.98a1.97 1.97 0 0 0 0-3.93ZM606.22 31.91h-25.98a1.97 1.97 0 0 0 0 3.93h25.98a1.97 1.97 0 0 0 0-3.93ZM606.22 39.28h-25.98a1.97 1.97 0 0 0 0 3.94h25.98a1.97 1.97 0 0 0 0-3.94Z" />
	<rect width="72.21" height="15.44" x="245.18" y="161.87" rx="4.34" />
	<rect width="145.55" height="15.44" x="208.51" y="192.75" fill="#e6e6e6" rx="4.34" />
	<rect width="145.55" height="15.44" x="208.51" y="223.63" fill="#e6e6e6" rx="4.34" />
	<path d="M220.4 335a53.05 53.05 0 0 1-3.35 18.63h-49.91a8.57 8.57 0 0 1-8.56-8.56v-62.78a52.72 52.72 0 0 1 8.43-.67A53.38 53.38 0 0 1 220.4 335Z" />
	<path d="M661.65 122.35v-4.55h-76.34V65h-4.54v52.8h-87.5V65h-4.54v52.8h-57.8c-.64 1.51-1.26 3.02-1.85 4.55h59.65v89.29h-74.06c.07 1.53.18 3.04.3 4.55h73.76v71.23h-55.25q1.01 2.3 2.13 4.54h53.12v59.87h4.53v-59.87h87.5v59.87h4.55v-59.87h76.34v-4.54h-76.34a71.22 71.22 0 0 1 71.22-71.23h5.12v-4.55h-76.34v-89.29Zm-80.88 165.07h-87.5v-71.23h87.5Zm0-75.78h-87.5v-1.78a87.5 87.5 0 0 1 87.5-87.5Z" opacity=".2" />
	<path fill="#2f2e41" d="M600.18 319.92a4.75 4.75 0 0 1-3.44-8.25l.32-1.3-.13-.3c-4.38-10.44-19.21-10.37-23.55.09-3.85 9.27-8.76 18.57-9.97 28.38a37.77 37.77 0 0 0 .67 12.99 151.44 151.44 0 0 1-13.78-62.9 146.17 146.17 0 0 1 .9-16.3q.76-6.67 2.1-13.23a153.2 153.2 0 0 1 30.37-64.93 40.77 40.77 0 0 0 16.96-17.6 31.1 31.1 0 0 0 2.83-8.49c-.83.1-1.67.18-2.5.23l-.78.04h-.1a4.71 4.71 0 0 1-3.86-7.67l1.07-1.32c.54-.67 1.1-1.34 1.63-2.01a2.35 2.35 0 0 0 .18-.2c.62-.78 1.25-1.53 1.87-2.3a13.62 13.62 0 0 0-4.47-4.32c-6.24-3.66-14.84-1.13-19.35 4.52-4.52 5.64-5.37 13.56-3.8 20.6 1.34 6.04 4.26 11.58 7.55 16.84-.34.44-.7.86-1.03 1.29a154.19 154.19 0 0 0-16.1 25.5 64.1 64.1 0 0 0-3.82-29.78c-3.66-8.83-10.53-16.28-16.57-23.91-7.27-9.18-22.16-5.18-23.44 6.46l-.03.33q1.34.76 2.63 1.62a6.45 6.45 0 0 1-2.6 11.73l-.13.02a64.17 64.17 0 0 0 1.7 9.6 66.07 66.07 0 0 0 32.9 41.4c.52.28 1.03.55 1.56.8a157.38 157.38 0 0 0-8.47 39.87 149.27 149.27 0 0 0 .1 24.1l-.03-.28a39.44 39.44 0 0 0-13.47-22.77c-10.36-8.52-25-11.65-36.18-18.5-5.38-3.29-12.27.97-11.34 7.2l.05.3a43.33 43.33 0 0 1 4.86 2.35q1.35.76 2.64 1.61a6.45 6.45 0 0 1-2.6 11.74l-.14.02-.27.04a64.23 64.23 0 0 0 11.82 18.5 66.13 66.13 0 0 0 47.96 21.04h.01a157.34 157.34 0 0 0 10.57 30.86h37.76l.37-1.28a42.9 42.9 0 0 1-10.44-.62l8.4-10.34a2.34 2.34 0 0 0 .18-.2l4.27-5.26a62.84 62.84 0 0 0-1.84-16.01Zm-43.23-85.06.02-.02-.02.05Zm-8.37 75.4-.32-.74v-1.6l-.03-.44c.12.93.23 1.87.37 2.8Z" />
	<path fill="#e6e6e6" d="M263.98 231.61v-50.74a29.37 29.37 0 0 0-29.37-29.37H127.1a29.37 29.37 0 0 0-29.38 29.37v278.38a29.37 29.37 0 0 0 29.37 29.37h107.5a29.37 29.37 0 0 0 29.38-29.37V267.73a1.85 1.85 0 0 0 1.85-1.85v-32.42a1.85 1.85 0 0 0-1.85-1.85Z" />
	<path fill="#fff" d="M257.73 181.07v277.98a21.92 21.92 0 0 1-21.7 21.92 1.93 1.93 0 0 1-.23.01H127.77a21.93 21.93 0 0 1-21.93-21.93V181.07a21.93 21.93 0 0 1 21.93-21.93h13.1a10.43 10.43 0 0 0 9.66 14.36h61.59a10.44 10.44 0 0 0 9.64-14.36h14.04a21.93 21.93 0 0 1 21.93 21.93Z" />
	<path fill="#f2f2f2" d="M236.3 472.4q0 4.32-.26 8.57a1.93 1.93 0 0 1-.24.01H127.77a21.93 21.93 0 0 1-21.93-21.93V335.17A137.39 137.39 0 0 1 236.3 472.4Z" />
	<path fill="#e6e6e6" d="M98.33 260a2.5 2.5 0 0 1-2.5-2.5v-17a2.5 2.5 0 0 1 5 0v17a2.5 2.5 0 0 1-2.5 2.5Z" />
	<rect width="35.21" height="15.44" x="164.18" y="246.43" rx="4.34" />
	<rect width="108.55" height="15.44" x="127.51" y="277.31" fill="#e6e6e6" rx="4.34" />
	<rect width="108.55" height="15.44" x="127.51" y="308.19" fill="#e6e6e6" rx="4.34" />
	<path fill="#ccc" d="M207.69 465.16a2.23 2.23 0 0 1-1.62-3.87l.15-.6-.06-.15a6 6 0 0 0-11.05.04c-1.8 4.35-4.11 8.72-4.68 13.32a17.73 17.73 0 0 0 .31 6.1 71.07 71.07 0 0 1-6.46-29.52 68.6 68.6 0 0 1 .42-7.65q.36-3.13.98-6.2a71.9 71.9 0 0 1 14.26-30.48 19.13 19.13 0 0 0 7.96-8.25 14.6 14.6 0 0 0 1.32-4c-.38.06-.78.1-1.16.12l-.37.02h-.05a2.21 2.21 0 0 1-1.81-3.6l.5-.62.77-.95a1.1 1.1 0 0 0 .08-.1l.88-1.07a6.4 6.4 0 0 0-2.1-2.03c-2.93-1.71-6.97-.52-9.08 2.12-2.12 2.65-2.52 6.37-1.79 9.68a25.62 25.62 0 0 0 3.55 7.9l-.48.6a72.36 72.36 0 0 0-7.56 11.96 30.08 30.08 0 0 0-1.8-13.97c-1.71-4.14-4.93-7.64-7.77-11.22a6.17 6.17 0 0 0-11 3.03l-.01.16q.63.36 1.23.76a3.03 3.03 0 0 1-1.22 5.5l-.06.01a30.11 30.11 0 0 0 .8 4.5 31 31 0 0 0 15.43 19.44l.74.37a73.85 73.85 0 0 0-3.98 18.71 70.05 70.05 0 0 0 .06 11.31l-.02-.13a18.51 18.51 0 0 0-6.32-10.69c-4.86-4-11.73-5.47-16.98-8.68a3.47 3.47 0 0 0-5.32 3.38l.02.14a20.33 20.33 0 0 1 2.28 1.1q.63.36 1.24.76a3.03 3.03 0 0 1-1.22 5.5l-.06.02c-.05 0-.09 0-.13.02a30.14 30.14 0 0 0 5.54 8.68 31.03 31.03 0 0 0 22.5 9.87h.02a73.83 73.83 0 0 0 4.95 14.48h17.72l.18-.6a20.13 20.13 0 0 1-4.9-.29l3.94-4.85a1.1 1.1 0 0 0 .08-.1l2.01-2.47a29.49 29.49 0 0 0-.86-7.5Zm-20.3-39.91.02-.01-.01.02Zm-3.92 35.38-.15-.35v-.75l-.01-.2c.05.43.1.87.17 1.31Z" />
	<path fill="#e6e6e6" d="M97.83 227a2.5 2.5 0 0 1-2.5-2.5v-17a2.5 2.5 0 0 1 5 0v17a2.5 2.5 0 0 1-2.5 2.5Z" />
	<path fill="#fff" d="M164.33 162a2.5 2.5 0 0 1 2.5-2.5h17a2.5 2.5 0 0 1 0 5h-17a2.5 2.5 0 0 1-2.5-2.5Z" />
	<path fill="#e6e6e6" d="M98.33 289a2.5 2.5 0 0 1-2.5-2.5v-17a2.5 2.5 0 0 1 5 0v17a2.5 2.5 0 0 1-2.5 2.5Z" />
	<circle cx="193.33" cy="162" r="2.5" fill="#fff" />
	<path fill="#cacaca" d="m858.94 488.61-857.75.31a1.2 1.2 0 0 1 0-2.38l857.75-.3a1.2 1.2 0 0 1 0 2.37Z" />
	<path fill="#2f2e41" d="m366.77 226.1-4.5.97a25.97 25.97 0 0 0-.71-5.6 16.82 16.82 0 0 1-2.54 6.3l-25.88 5.52-24.84-26.22c-.04-13.1 7.24-23.07 20.3-23.07.78 0 1.6.04 2.42.12a27.6 27.6 0 0 1 31.6 21.7c9.25 9.1 5.9 14.46 4.15 20.29Z" />
	<path fill="#ffb6b6" d="M379.5 532.71h9.38l4.47-36.2h-13.86l.01 36.2z" />
	<path fill="#2f2e41" d="m377.17 528.08 14.83-.89v6.36l14.11 9.74a3.97 3.97 0 0 1-2.25 7.24h-17.67l-3.04-6.28-1.2 6.28h-6.65Z" />
	<path fill="#ffb6b6" d="m269.53 522.49 8.17 4.64 21.75-29.29-12.05-6.83-17.87 31.48z" />
	<path fill="#2f2e41" d="m269.8 517.32 13.33 6.55-3.13 5.53 7.46 15.43a3.97 3.97 0 0 1-5.54 5.19l-15.36-8.72.45-6.97-4.13 4.88-5.8-3.29Z" />
	<path fill="#ffb6b6" d="M414.19 232.45a8.31 8.31 0 0 0-6.7 10.84l-14.36 12.43 5.42 10.58 20.04-17.85a8.36 8.36 0 0 0-4.4-16Z" />
	<path fill="#2f2e41" d="M399.73 275.2c-4.8 7.26-15.53 14.26-31.47 20.48a6.84 6.84 0 0 1-5.5-.18c-6.01-2.74-9.87-12.92-10.23-13.9l-11.65-15.71c-.2-.23-5.65-6.42-5.03-12.5a8.88 8.88 0 0 1 3.83-6.35c8.81-6.54 28.57 16.16 31.14 19.18l12.9-7.86 9.4-4.2 7.58-9.22 10.68 10.92-9.6 15.28a18.42 18.42 0 0 1-2.05 4.06ZM366.23 303.04s27.6 43.96 22.6 48.96-12.78 6.31-12.78 6.31L358.83 336Z" />
	<path fill="#2f2e41" d="m341.83 243 13 8.8a33.55 33.55 0 0 1 13.08 38.28l-3.67 11.13ZM318.83 363l-1.74 6.06-5.94 73.04-29.64 55.25 14.15 10.1 40.42-52.55 15.99-52.18 25.11 115.52 18.87-1.35-13.1-160.17-24.87-45.08L318.83 363z" />
	<path d="m339.61 245.21 18.1 14.8a24.65 24.65 0 0 1 8.2 12.6 24.65 24.65 0 0 1 .86 6.9l-.54 32.13 16.6 44.36s-45 17-51 2 7.78-112.79 7.78-112.79Z" />
	<path fill="#2f2e41" d="M345.03 365.79c-22.48 0-27.96.17-28.31.1l-.36-.08V352.3l5.47-24.29c-.64-7.54-2.14-17.49-2-26 .49-30.78-1.03-60.84-1.03-60.84l11.9-10.98 5.4 3.52 10.03 10.02c11.66 28.69 20.9 55.69 20.96 57.42l.74 29.86-3 12c-13.58 9.58-1.17 22.79-19.8 22.79Z" />
	<path d="m323.85 267.97-2.74 17.06 18.5 7.63-15.76-24.69z" opacity=".2" />
	<circle cx="342.48" cy="208.87" r="18.11" fill="#ffb6b6" />
	<path d="M312.13 300.77a33.27 33.27 0 0 0 39.94 8.08l3.94-1.96Z" opacity=".2" />
	<path fill="#ffb6b6" d="M375.16 296.6a8.31 8.31 0 0 0-12.74.39l-18.29-5.14-5.83 10.36 25.93 6.89a8.36 8.36 0 0 0 10.93-12.5Z" />
	<path fill="#2f2e41" d="M331.52 308.1c-8.7 0-20.46-5.1-34.43-14.98a6.84 6.84 0 0 1-2.88-4.69c-1.03-6.52 5.34-15.35 5.96-16.2l6.7-18.37c.07-.3 2.23-8.25 7.64-11.08a8.88 8.88 0 0 1 7.42-.32c10.31 3.76 2.26 32.76 1.15 36.56l13.67 6.43 8.68 5.54 11.88 1.24-3.23 14.93-18.04.4a18.42 18.42 0 0 1-4.52.53ZM364.2 196.95c-1.45 1.89-6.44 3.55-12.37 4.9v-.37a25.97 25.97 0 0 0-.7-5.6 16.82 16.82 0 0 1-2.54 6.3l-.29.42c-5.09 1-10.47 1.78-14.7 2.3 2.9 10.45 14.03 19.02 12.82 25.37l-32.57 6.65a25.54 25.54 0 0 0-.63-7.87 16.93 16.93 0 0 1-4.72 8.96l-2.77.57-.82-4.07c-7.15-17.16 2.81-34.74 19.13-43.82a19.84 19.84 0 0 1 12.57-8.44l4.07-.84a19.93 19.93 0 0 1 23.52 15.54Z" />
	<path fill="#f2f2f2" d="m442.03 525.34.48-10.84a34.98 34.98 0 0 1 16.32-4.13c-7.84 6.41-6.86 18.76-12.17 27.38a21.04 21.04 0 0 1-15.44 9.72l-6.55 4.02a35.26 35.26 0 0 1 7.43-28.57 34.06 34.06 0 0 1 6.26-5.82 93.68 93.68 0 0 0 3.67 8.24Z" />
	<path fill="#cacaca" d="M457.93 551.74H229.54a1.2 1.2 0 0 1 0-2.38h228.39a1.2 1.2 0 1 1 0 2.38Z" />
</svg>
