<svg xmlns="http://www.w3.org/2000/svg" viewBox="0 0 522.71 519.89">
	<path fill="#3f3d56" d="M347.67 519.9H28.53A28.56 28.56 0 0 1 0 491.35V28.53A28.56 28.56 0 0 1 28.53 0h319.14a28.56 28.56 0 0 1 28.53 28.53v462.83a28.56 28.56 0 0 1-28.53 28.53Z" />
	<path fill="#fff" d="M348.24 501.69H27.97a8.8 8.8 0 0 1-8.8-8.8V27a8.8 8.8 0 0 1 8.8-8.79h320.27a8.8 8.8 0 0 1 8.79 8.8v465.9a8.8 8.8 0 0 1-8.8 8.79Z" />
	<circle cx="186.89" cy="8.74" r="2.43" fill="#fff" />
	<path fill="#ffb7b7" d="m273.53 215.23-10.6-31.75-.18-.55 44.65-28.2 2.37 3.2 12.44 16.74-4.55 13.54-11.75 35-.51 1.53 21.75 16.17a57.91 57.91 0 0 1 2.17 4.38c6.5 14.8-3.12 14.13-3.12 14.13l-44.25-18.97Z" />
	<path fill="#ffb7b7" d="M296.96 221.14 295 215.3l-9.57-28.7-2-5.98-1.67-5 21.83-13.8 22.82-14.4 14.81 19.94-4.49 13.37-2.18 6.5-3.37 10.05-6.77 20.15 21.76 16.17a42.2 42.2 0 0 1 3.87 9.15 14.07 14.07 0 0 1 .53 4.1 5.02 5.02 0 0 1-5.36 5.25l-44.25-18.96Z" />
	<path d="m294.88 222.44-2.57-27.07 12.8-6.94.84 1.55-11.78 6.38 2.38 25.1 26.16 17.91-.99 1.45-26.84-18.38z" opacity=".15" style="isolation:isolate" />
	<path d="M673.24 405.63H675v32.83h-1.76z" opacity=".15" style="isolation:isolate" transform="rotate(-53.54 316.43 662.65)" />
	<path fill="#fff" d="M321.22 248.07 188.4 154.7 54.23 247.2l132.17 55.81 134.82-54.94z" />
	<path fill="#ffb7b7" d="m226.13 168.82 44.72-43.73 79.99-5.4 99.43 94.94 72.44 39.64-20.41 60.02-87.44-41.5c-17.8-1.31-29.25-7.22-36.5-13.43a44.1 44.1 0 0 1-6.7-7.17 32.24 32.24 0 0 1-4.94-9.25l-35.54-45.66-7.33-9.43-4.74-6.1-15.52-19.93-1.11-1.43-26.35-.7-13.72 18-9.63 12.64a21.42 21.42 0 0 1-4.6 12.21c-8.64 10.51-26.15 8.46-26.15 8.46Z" />
	<path fill="#fff" d="M54.74 247.1h.1l54.85 23.43 75.05 32.05a2.42 2.42 0 0 0 1.86 0l77.43-32.11 56.2-23.32.08-.04h.1a3.35 3.35 0 0 1 3.35 3.34v145.26a3.35 3.35 0 0 1-3.35 3.35H54.74a3.35 3.35 0 0 1-3.34-3.35V250.45a3.35 3.35 0 0 1 3.34-3.34Z" />
	<path fill="#3f3d56" d="M54.5 248.06a.48.48 0 0 0 .28-.08l132.14-92.03a2.4 2.4 0 0 1 2.74 0l131.2 92.03a.48.48 0 0 0 .54-.78l-131.2-92.03a3.36 3.36 0 0 0-3.82 0L54.23 247.19a.48.48 0 0 0 .28.87Z" />
	<path fill="#e6e6e6" d="m313.36 251.33-125.2-92.79-126.14 99.39 119.69 70.96 64.99-14.82 66.66-62.74z" />
	<path d="M241.21 372.71h61.85a2.89 2.89 0 0 0 0-5.78h-61.85a2.89 2.89 0 0 0 0 5.78ZM280.87 360.29h22.19a2.89 2.89 0 0 0 0-5.78h-22.2a2.89 2.89 0 0 0 0 5.78Z" />
	<path fill="#fff" d="M186.4 303a3.61 3.61 0 0 0 1.37-.26l77.21-32.04V170.42a3.35 3.35 0 0 0-3.34-3.35H113.52a3.35 3.35 0 0 0-3.35 3.35v100.35l.15.06 74.67 31.9a3.64 3.64 0 0 0 1.41.28Z" />
	<path fill="#3f3d56" d="m184.9 302.94-74.97-32.01V170.42a3.59 3.59 0 0 1 3.59-3.58h148.12a3.59 3.59 0 0 1 3.58 3.58v100.44l-77.36 32.1a3.89 3.89 0 0 1-2.96-.02Zm79.37-132.52a2.63 2.63 0 0 0-2.63-2.63H113.52a2.63 2.63 0 0 0-2.63 2.63v99.88l74.38 31.76a2.92 2.92 0 0 0 2.23.02l76.77-31.86Z" />
	<path fill="#3f3d56" d="M52.12 250.45v145.26a3.35 3.35 0 0 0 3.34 3.35h265.67a3.35 3.35 0 0 0 3.34-3.35V250.45a3.35 3.35 0 0 0-3.34-3.34h-.1l-.08.04-56.2 23.32-77.44 32.12a2.42 2.42 0 0 1-1.85-.01l-75.05-32.05-54.85-23.42h-.1a3.35 3.35 0 0 0-3.34 3.34Zm.95 0a2.4 2.4 0 0 1 2.3-2.38l55.04 23.5 74.67 31.89a3.4 3.4 0 0 0 2.6.01l77.06-31.97 56.48-23.44a2.4 2.4 0 0 1 2.3 2.4V395.7a2.39 2.39 0 0 1-2.4 2.39H55.47a2.39 2.39 0 0 1-2.39-2.39Z" />
	<path d="M126.48 204.56h52.56a3.82 3.82 0 0 0 0-7.64h-52.56a3.82 3.82 0 0 0 0 7.64ZM126.51 188.31h25.33a3.82 3.82 0 0 0 0-7.64H126.5a3.82 3.82 0 0 0 0 7.64Z" />
	<path fill="#ccc" d="M148.27 242.79h80.27a3.82 3.82 0 1 0 0-7.65h-80.27a3.82 3.82 0 0 0 0 7.65ZM148.27 260.47h80.27a3.82 3.82 0 0 0 0-7.65h-80.27a3.82 3.82 0 0 0 0 7.65Z" />
	<path d="m673.2 377.28 15.94-.92 63.7 78.5-22.5-3.44-13.33-2.01a44.1 44.1 0 0 1-6.7-7.17l-14.8-4.4-6.82-5.03c.42 1.63-15.5-55.53-15.5-55.53Z" opacity=".1" style="isolation:isolate" transform="translate(-338.65 -190.05)" />
	<path fill="#ffb7b7" d="M232.64 184.73a11.25 11.25 0 0 1 12.77-9.4l17 2.37 21.03 2.92 16.25 2.26 19.42-1.13 17.62-1.02 10.41-.6 69.25 85.33-59.53-17.67-6.82-5.04-29.84-22.04s-9.78-1.8-25.2-5.41c-2.29-.55-28.24-7.06-40.43-10.6a75.18 75.18 0 0 1-6.39-2.16c-13.59-5.35-16.3-12.2-15.54-17.81Z" />
	<path d="M581.02 385.44c.06 0 6.12-.76 8.71-5.2 1.75-3 1.57-7.03-.52-11.98l1.62-.68c2.32 5.5 2.46 10.06.41 13.55-3.04 5.2-9.74 6.03-10.02 6.06Z" opacity=".15" style="isolation:isolate" transform="translate(-338.65 -190.05)" />
	<path d="M303.71 183.53v-1.76l31.23-.05-32.93-20.59.93-1.49 38.11 23.83-37.34.06z" opacity=".15" style="isolation:isolate" />
</svg>
