<svg xmlns="http://www.w3.org/2000/svg" viewBox="0 0 711.19 669.68">
	<path fill="#e6e6e6" d="M516.33 380.02v184.99l30.94 50.43 2.36 3.84h122.09l2.47-239.26H516.33z" />
	<path d="M516.33 380.02v184.99l30.94 50.43 1.9-235.42h-32.84z" opacity=".1" />
	<path fill="#e6e6e6" d="M221.57 375.08v185l-30.95 50.43-2.35 3.84H66.17L63.7 375.08h157.87z" />
	<path d="M221.57 375.08v185l-30.95 50.43-1.9-235.43h32.85z" opacity=".1" />
	<path fill="#e6e6e6" d="M711.19 371.39v11.09H47.67v-16.03l61.67-32.06h547.58l54.27 37z" />
	<path d="M711.19 371.39v11.09H47.67v-16.03l663.52 4.94z" opacity=".1" />
	<path fill="#3f3d56" d="M142.64 426.88h-29.6l-12.34-8.63h55.5l-13.56 8.63zM142.64 462.65h-29.6l-12.34-8.63h55.5l-13.56 8.63zM142.64 513.22h-29.6l-12.34-8.64h55.5l-13.56 8.64zM142.64 563.78h-29.6l-12.34-8.63h55.5l-13.56 8.63zM595.26 431.82h29.6l12.33-8.64h-55.5l13.57 8.64zM595.26 467.58h29.6l12.33-8.63h-55.5l13.57 8.63zM595.26 518.15h29.6l12.33-8.63h-55.5l13.57 8.63zM595.26 568.71h29.6l12.33-8.63h-55.5l13.57 8.63zM615.41 120.46H366.23a9.42 9.42 0 0 0-9.43 9.42v167.86a9.42 9.42 0 0 0 9.43 9.42h94.6l-3.55 22.63s-20.26 10.76-6.02 11.07 81.33 0 81.33 0 12.98 0-7.6-11.39l-3.33-22.3h93.75a9.42 9.42 0 0 0 9.43-9.43V129.88a9.42 9.42 0 0 0-9.43-9.42Z" />
	<path fill="#f2f2f2" d="M365.82 130.42h250v139.87h-250z" />
	<circle cx="490.82" cy="125.99" r="1.58" fill="#f2f2f2" />
	<circle cx="490.82" cy="294.35" r="6.01" fill="#f2f2f2" />
	<path fill="#3f3d56" d="M481.45 357.95v3.17H311.2v-2.53l.24-.64 4.19-11.39h162.34l3.48 11.39zM546.97 354.85c-.31 1.33-1.48 2.73-4.13 4.05-9.49 4.75-28.8-1.26-28.8-1.26s-14.87-2.54-14.87-9.18a11.87 11.87 0 0 1 1.3-.78c4-2.1 17.23-7.32 40.7.22a9.79 9.79 0 0 1 4.46 2.93 4.67 4.67 0 0 1 1.34 4.02Z" />
	<path d="M546.97 354.85c-11.62 4.46-21.98 4.79-32.6-2.6a23.34 23.34 0 0 0-13.9-4.57c4-2.1 17.23-7.32 40.7.22a9.79 9.79 0 0 1 4.46 2.93 4.67 4.67 0 0 1 1.34 4.02Z" opacity=".1" />
	<ellipse cx="532.4" cy="350.99" fill="#f2f2f2" rx="4.11" ry="1.27" />
	<path d="M481.45 357.95v3.17H311.2v-2.53l.24-.64h170.01z" opacity=".1" />
	<path fill="#2f2e41" d="M94.66 0a8.55 8.55 0 0 0-4.96 1.1c-1.48 1.02-2.4 2.79-3.36 4.44a52.99 52.99 0 0 1-14.43 16.3c-4.29 3.14-9.74 7.06-9 12.86a17.37 17.37 0 0 0 2.08 5.42c3.96 7.99 14.76 14.16 13.7 23.27 3.93-6.58-1.33-9.83 2.6-16.41 1.87-3.14 5.12-6.67 7.95-4.7.95.65 1.57 1.84 2.55 2.41 2.35 1.38 4.85-1.25 6.94-3.12 7.17-6.45 17.38-4.76 26.31-2.75 4.22.95 8.85 2.2 11.34 6.22 3.28 5.3-3.11 11.02-4.73 17.01a3.26 3.26 0 0 0 3.5 4.06c2.68-.26 5.86-.48 6.02-1.65 3.37.12 7.5-.27 8.94-3.78a14.76 14.76 0 0 0 .7-4.29c.53-5.9 3.03-11.28 4.69-16.89s2.38-12.19-.42-17.17a19.86 19.86 0 0 0-3.67-4.45C135.53 2.5 114.66-.02 94.66 0Z" />
	<path fill="#ffb8b8" d="M82.14 74.9s3.45 28.78-9.21 31.09 11.51 41.44 11.51 41.44l57.56 6.9-13.82-46.04s-9.2-3.46-3.45-26.48-42.6-6.9-42.6-6.9ZM47.03 569.32l4.6 63.31h24.18l-6.91-63.31H47.03zM224.3 449.6l3.46 52.95 26.47-11.51-10.36-43.74-19.57 2.3z" />
	<path fill="#2f2e41" d="M29.76 327.58s1.15 66.77 8.06 88.64 5.75 23.02 4.6 26.47-2.3 1.15-2.3 6.91-2.3 96.7 0 104.75-6.9 21.88 0 23.03 39.14 0 40.3-6.91-9.22-9.21-4.61-13.81 11.5-99 11.5-99l16.12-65.62 29.93-34.53h63.32l19.57 75.97s-8.06 21.88-2.3 21.88 40.28 6.9 40.28-18.42-11.5-100.15-13.81-102.45 1.15-10.36-2.3-13.82-43.75-27.62-58.71-32.23-35.96-10.08-35.96-10.08ZM254.23 481.83s-17.26-5.75-25.32 11.51-4.6 21.87-4.6 21.87 26.47 9.21 31.07 4.6c2-2 8.37-2.69 14.92-2.84 9.97-.22 12.62-14.33 3.2-17.62q-.42-.14-.85-.25c-9.2-2.3-18.42-17.27-18.42-17.27Z" />
	<circle cx="108.04" cy="59.36" r="34.53" fill="#ffb8b8" />
	<path d="M63.14 120.38s56.41 11.5 70.22-6.91 19.57 51.8 19.57 51.8l6.9 73.67-10.35 40.3s-54.1 43.74-71.37 47.19-43.74 5.75-43.74 5.75 8.05-127.77 8.05-130.07 20.72-81.73 20.72-81.73Z" />
	<path fill="#2f2e41" d="M80.3 98.79s-12.55-7.2-16-.29-35.69 24.18-39.14 24.18 6.9 95.54 2.3 107.05S.98 325.28 13.65 332.18s3.45-6.9 16.11 10.36 74.82 17.27 78.28 10.36-27.63-58.7-21.87-107.05 14.96-115.11 6.9-124.32S80.3 98.79 80.3 98.79ZM121.85 106.56l1.6-5.52s47.9 15.88 50.2 26.24 1.15 82.88-6.9 88.64-19.57 14.96-11.52 28.78 17.27 28.78 24.18 29.93 19.57 9.2 16.11 17.26-44.89-6.9-44.89-6.9-27.63-20.72-26.48-52.95-2.3-125.48-2.3-125.48Z" />
	<path fill="#ffb8b8" d="m162.14 242.4-27.63 51.8s-40.29 41.44-17.26 46.04 35.68-37.99 35.68-37.99l29.93-42.59Z" />
	<path fill="#2f2e41" d="M96.34 9.04a7.84 7.84 0 0 0-4.03.78 9.41 9.41 0 0 0-2.74 3.13 39.77 39.77 0 0 1-11.75 11.52c-3.49 2.22-7.93 5-7.33 9.09a11.36 11.36 0 0 0 1.7 3.83 30.16 30.16 0 0 1 3.67 18.8l9.6-13.95c1.52-2.22 4.17-4.72 6.47-3.32.77.46 1.28 1.3 2.08 1.7 1.91.98 3.95-.88 5.64-2.2 5.84-4.56 14.15-3.37 21.42-1.95 3.44.67 7.2 1.55 9.23 4.4 3.38 4.73-.15 11.57 1.82 17.04a5.02 5.02 0 0 0 2.08-3.32c2.75.09 6.1-.18 7.28-2.66a9.19 9.19 0 0 0 .57-3.04c.43-4.17 2.47-7.97 3.82-11.94s1.93-8.61-.34-12.13a14.68 14.68 0 0 0-2.99-3.15c-12.92-10.86-29.92-12.65-46.2-12.63ZM162.14 122.68l10.73 2.84s24.96 63.92 19.2 107.67-9.2 34.53-9.2 34.53-9.22-20.72-29.94-16.12ZM48.62 624.26c-2.77 3.78-2.22 9.17-4.68 13.15-2.13 3.46-6.14 5.27-8.81 8.33a22.33 22.33 0 0 0-2.27 3.26c-2.47 4.15-4.48 9.45-2.04 13.62 1.96 3.35 6.07 4.66 9.85 5.55 4.78 1.13 9.74 2.03 14.56 1.17s9.55-3.82 11.28-8.41a32.5 32.5 0 0 1 1.2-3.4c2.62-5.16 10.83-5.21 13.5-10.33 1.88-3.59.16-7.92-1.56-11.58l-5.27-11.18c-1.74-3.7-8.82-1.57-12.5-2.46-4.82-1.16-9.8-2.44-13.26 2.28Z" />
	<path fill="#ffb8b8" d="m10.2 265.42 48.34 74.82s29.93 37.99 39.14 20.72-32.23-46.04-32.23-46.04l-31.08-57.56Z" />
	<path fill="#2f2e41" d="m34.37 124.98-9.21-2.3S6.74 128.43 2.13 152.6.98 273.48 6.73 274.63s28.44-16.84 32.06-13.03-7.88-15.75-4.42-26.11 0-110.51 0-110.51Z" />
	<g>
		<path d="M437.41 176.36h29.75v7.16h-29.75z" />
		<path d="M559.72 176.36h10.47v7.16h-10.47z" />
		<path d="M580.66 176.36h10.47v7.16h-10.47z" />
		<path d="M477.63 176.36h71.08v7.16h-71.08z" />
		<path d="M399.94 222.64h29.75v7.16h-29.75z" />
		<path d="M522.26 222.64h10.47v7.16h-10.47z" />
		<path d="M543.19 222.64h10.47v7.16h-10.47z" />
		<path d="M440.16 222.64h71.08v7.16h-71.08z" />
		<path d="M522.81 192.34h29.75v7.16h-29.75z" />
		<path d="M563.03 192.34h29.75v7.16h-29.75z" />
		<path d="M399.94 192.34h10.47v7.16h-10.47z" />
		<path d="M420.88 192.34h10.47v7.16h-10.47z" />
		<path d="M441.81 192.34h71.08v7.16h-71.08z" />
		<path d="M461.1 207.77h29.75v7.16H461.1z" />
		<path d="M420.88 207.77h29.75v7.16h-29.75z" />
		<path d="M399.94 207.77h10.47v7.16h-10.47z" />
		<path d="M582.31 207.77h10.47v7.16h-10.47z" />
		<path d="M500.77 207.77h71.08v7.16h-71.08z" />
	</g>
</svg>
