<svg xmlns="http://www.w3.org/2000/svg" viewBox="0 0 1029.56 548.69">
	<path fill="#f1f1f1" d="m48.16 547.11.2-1.12c.06-.25 4.92-24.91 23.14-39.22 18.22-14.31 43.33-13.2 43.58-13.18l1.14.06-.21 1.12c-.05.25-4.9 24.91-23.13 39.23-18.22 14.3-43.33 13.19-43.58 13.17Zm24.57-38.77c-15.4 12.1-20.95 31.88-22.14 36.86 5.12.02 25.67-.69 41.06-12.78 15.38-12.09 20.94-31.88 22.13-36.86-5.11-.02-25.66.7-41.05 12.78Z" />
	<path fill="#f1f1f1" d="M79.98 513.83c-8.35 21.5-30.32 33.02-30.32 33.02s-8.44-23.33-.1-44.83S79.89 469 79.89 469s8.44 23.33.1 44.83ZM999.34 547.17c-.25.02-25.36 1.14-43.58-13.17-18.22-14.32-23.08-38.98-23.13-39.23l-.21-1.12 1.14-.06c.26-.01 25.37-1.13 43.59 13.18 18.22 14.3 23.08 38.97 23.12 39.22l.22 1.12Zm-64.48-51.6c1.19 4.97 6.75 24.76 22.13 36.85 15.4 12.09 35.94 12.8 41.06 12.78-1.19-4.98-6.74-24.76-22.14-36.86-15.39-12.09-35.93-12.8-41.05-12.78Z" />
	<path fill="#f1f1f1" d="M968.67 513.83c8.34 21.5 30.31 33.02 30.31 33.02s8.44-23.33.1-44.83S968.76 469 968.76 469s-8.44 23.33-.1 44.83Z" />
	<path fill="#e6e6e6" d="m590.1 541.97-14.6-6.14-10-73.15H432.18l-10.85 72.85-13.06 6.53a3.1 3.1 0 0 0 1.39 5.87h179.22a3.1 3.1 0 0 0 1.2-5.96Z" />
	<path fill="#ccc" d="M826.99 472.41H172.16a12.97 12.97 0 0 1-12.95-12.97V367.1h680.72v92.34A12.97 12.97 0 0 1 827 472.4Z" />
	<path fill="#3f3d56" d="M840.62 410.74h-682V15.64A15.66 15.66 0 0 1 174.26 0h650.72a15.66 15.66 0 0 1 15.64 15.64Z" />
	<path fill="#fff" d="M799.88 382.06H199.35a12.07 12.07 0 0 1-12.06-12.05V40.73a12.07 12.07 0 0 1 12.06-12.05h600.53a12.07 12.07 0 0 1 12.06 12.05v329.28a12.07 12.07 0 0 1-12.06 12.05Z" />
	<path fill="#ccc" d="M1028.04 548.7H1.59a1.57 1.57 0 0 1-1.54-1.14 1.53 1.53 0 0 1 1.48-1.92H1027.9a1.62 1.62 0 0 1 1.62 1.2 1.53 1.53 0 0 1-1.5 1.85Z" />
	<path fill="#e5e5e5" d="M219.58 153.2h98.81v9.28h-98.81zM219.58 175.71h98.81v9.28h-98.81zM219.58 198.71h98.81v9.28h-98.81zM219.58 221.71h98.81v9.28h-98.81z" />
	<path d="M242.99 250.93h52v8.05h-52z" />
	<path fill="#e5e5e5" d="M471.19 210.75h.94v2.83h-.94zM472.14 273.98h-.95v-6.04h.95Zm0-12.08h-.95v-6.04h.95Zm0-12.08h-.95v-6.04h.95Zm0-12.08h-.95v-6.03h.95Zm0-12.07h-.95v-6.04h.95ZM471.19 280.02h.94v2.83h-.94zM574.65 210.75h.94v2.83h-.94zM575.6 273.98h-.95v-6.04h.94Zm0-12.08h-.95v-6.04h.94Zm0-12.08h-.95v-6.04h.94Zm0-12.08h-.95v-6.03h.94Zm0-12.07h-.95v-6.04h.94ZM574.65 280.02h.94v2.83h-.94zM626.83 155.31h.94v2.83h-.94zM627.78 274.21h-.95v-5.8h.95Zm0-11.6h-.95v-5.8h.95Zm0-11.61h-.95v-5.8h.95Zm0-11.6h-.95v-5.81h.95Zm0-11.62h-.95v-5.8h.95Zm0-11.6h-.95v-5.8h.95Zm0-11.61h-.95v-5.8h.95Zm0-11.6h-.95v-5.81h.95Zm0-11.61h-.95v-5.8h.95Zm0-11.61h-.95v-5.8h.95ZM626.83 280.02h.94v2.83h-.94zM678.5 132.63h.94v2.83h-.94zM679.44 274.24h-.94v-5.79h.94Zm0-11.57h-.94v-5.78h.94Zm0-11.56h-.94v-5.78h.94Zm0-11.57h-.94v-5.78h.94Zm0-11.56h-.94v-5.78h.94Zm0-11.56h-.94v-5.79h.94Zm0-11.57h-.94v-5.78h.94Zm0-11.56h-.94v-5.79h.94Zm0-11.57h-.94v-5.78h.94Zm0-11.56h-.94v-5.78h.94Zm0-11.57h-.94v-5.78h.94Zm0-11.56h-.94v-5.78h.94ZM678.5 280.02h.94v2.83h-.94zM523.16 172.78h.94v2.83h-.94zM524.1 274.52h-.94v-5.5h.94Zm0-10.99h-.94v-5.5h.94Zm0-10.99h-.94v-5.49h.94Zm0-10.98h-.94v-5.5h.94Zm0-11h-.94v-5.49h.94Zm0-10.98h-.94v-5.5h.94Zm0-11h-.94v-5.49h.94Zm0-10.98h-.94v-5.5h.94Zm0-11h-.94v-5.49h.94ZM523.16 280.02h.94v2.83h-.94z" />
	<path fill="#3f3d56" d="M731.84 284.17H419.06a.98.98 0 0 1-.98-.98V133.27a.98.98 0 0 1 1.96 0v148.94h311.8a.98.98 0 1 1 0 1.96Z" />
	<path fill="#3f3d56" d="m575.55 212.07-52.01-38.95-51.29 38.42-1.17-1.57 52.46-39.3 51.76 38.77 51.43-56.28.21-.09 51.88-20.9.73 1.82-51.67 20.81-52.33 57.27z" />
	<circle cx="471.66" cy="210.75" r="5.87" />
	<circle cx="523.54" cy="172.58" r="5.87" />
	<circle cx="575.42" cy="210.75" r="5.87" />
	<circle cx="627.3" cy="153.98" r="5.87" />
	<circle cx="679.18" cy="132.44" r="5.87" />
	<path fill="#e5e5e5" d="M347.27 28.68h2v353.39h-2z" />
	<path fill="#ffb7b7" d="M820.77 378.45a7.35 7.35 0 0 0-1.96-11.1l4.88-25.64-12.52 5.22-2.72 23.55a7.39 7.39 0 0 0 12.32 7.97ZM883.2 535.8h-10.6l-5.05-40.9h15.65v40.9z" />
	<path fill="#2f2e41" d="M885.9 546.07h-34.18v-.43a13.3 13.3 0 0 1 13.3-13.3h20.88Z" />
	<path fill="#ffb7b7" d="M825.26 535.8h-10.6l-5.05-40.9h15.65v40.9z" />
	<path fill="#2f2e41" d="M825.37 546.07h-34.19v-.43a13.3 13.3 0 0 1 13.31-13.3h20.88ZM824.39 363.08l-10.38 23.91-8.56 137.41 21.62-.86 5.91-65.51 18.21-58.34 10.47 65.04 4.33 57.08 17.89.77 7.13-159.5h-66.62z" />
	<path d="m876.26 245.11-30.07.76-17.66 9.06-.97 66.88-11.01 46.18s68.8 4.73 78.32-2.19l-11.24-52.75 15.08-57Z" />
	<path d="m831.74 255.98-3.21-1.05s-10.2 6.54-9.22 22.35c0 0-.38 8.19-.02 13.63.42 6.25-12.1 68.32-12.1 68.32h18.15l7.79-56.21Z" />
	<path fill="#ffb7b7" d="M898.24 379.31a7.35 7.35 0 0 1 1.96-11.09l-4.89-25.64 12.53 5.22 2.71 23.55a7.39 7.39 0 0 1-12.31 7.96Z" />
	<path d="m894.18 256.84 3.21-1.04s10.2 6.54 9.23 22.35c0 0 .38 8.18.01 13.63-.42 6.24 5.2 68.32 5.2 68.32h-18.17l-7.78-56.22Z" />
	<path fill="#ffb7b7" d="M883.65 217.05a20.85 20.85 0 1 1-20.85-20.85 20.8 20.8 0 0 1 20.85 20.75v.1Z" />
	<path fill="#2f2e41" d="M842.02 189.05c2.44-5.25 7.17-4.21 11.3-2.43 5.23-1.17 10.21-4.64 15.85-2.59 5.56 8.09 24.21 5.7 20.24 18.86 0 3.16 5.94 1.32 4.9 6.48 3.14 9.94-11.35 28.75-19.68 24.8 2.06-3.78 6.76-12.35-.37-13.2-15.34 14.28-1.58-27.18-20.85-15.12-6.39 5.84-15.12-10.96-11.4-16.8Z" />
</svg>
