<svg xmlns="http://www.w3.org/2000/svg" viewBox="0 0 658.72 482.74">
	<path fill="#e6e6e6" d="M285.1 196.86a30.28 30.28 0 0 0-24.19 12.02 19.94 19.94 0 0 0-27.82 18.31h82.33a30.33 30.33 0 0 0-30.33-30.33Z" />
	<path fill="#3f3d56" d="M398.82 175.87H38.5a18.2 18.2 0 0 0-18.17 18.18v270.51a18.2 18.2 0 0 0 18.17 18.18h360.33A18.2 18.2 0 0 0 417 464.56V194.05a18.2 18.2 0 0 0-18.18-18.18Zm16.04 288.7a16.06 16.06 0 0 1-16.04 16.03H38.5a16.06 16.06 0 0 1-16.04-16.04V194.05A16.06 16.06 0 0 1 38.5 178h360.33a16.06 16.06 0 0 1 16.04 16.04Z" />
	<circle cx="80.73" cy="289.74" r="80.73" />
	<path fill="#3f3d56" d="M417 404.76v22.38H20.32v-22.49l2.13-3.07 125.77-181.1a6.2 6.2 0 0 1 10.18 0l84.34 121.43 60.04-85.69a6.2 6.2 0 0 1 10.15 0L414.86 401.7ZM107.46 452.8H44.37a1.07 1.07 0 0 1 0-2.14h63.09a1.07 1.07 0 1 1 0 2.14ZM202.62 452.8h-63.08a1.07 1.07 0 1 1 0-2.14h63.08a1.07 1.07 0 0 1 0 2.14ZM297.78 452.8H234.7a1.07 1.07 0 0 1 0-2.14h63.08a1.07 1.07 0 1 1 0 2.14ZM392.94 452.8h-63.08a1.07 1.07 0 0 1 0-2.14h63.08a1.07 1.07 0 0 1 0 2.14Z" />
	<ellipse cx="771.11" cy="360.02" fill="#e6e6e6" rx="186.05" ry="115.48" transform="rotate(-42.15 365.07 606.9)" />
	<path fill="#ccc" d="M356.3 425.76c-10.27-21.22-13.91-45.14-12.12-68.55a164.74 164.74 0 0 1 20.13-66.26c10.82-19.79 25.13-37.5 41.38-53.07 17.26-16.53 36.71-30.56 57.18-42.82 21.62-12.95 44.33-23.96 67.31-34.25q4.3-1.93 8.6-3.82c1.9-.83.26-3.6-1.61-2.77-23.43 10.31-46.66 21.18-68.87 33.94-21.23 12.19-41.53 26.13-59.67 42.6-16.92 15.37-32 32.94-43.7 52.63a172.04 172.04 0 0 0-23.16 66c-3 23.51-.68 47.97 8.23 70.03q1.64 4.04 3.53 7.96c.9 1.86 3.67.23 2.77-1.62Z" />
	<path fill="#ccc" d="M444.78 203.24a193.82 193.82 0 0 1 3.91-52.18 197.01 197.01 0 0 1 17.6-49.3 193.76 193.76 0 0 1 15.5-25.1c1.22-1.67-1.57-3.27-2.77-1.62a196.92 196.92 0 0 0-25.06 46.63 200.26 200.26 0 0 0-11.9 51.62 193.68 193.68 0 0 0-.49 29.95c.13 2.05 3.34 2.06 3.21 0ZM220.26 247.5a37.36 37.36 0 0 0-29.83 14.84 24.6 24.6 0 0 0-34.32 22.6h101.58a37.42 37.42 0 0 0-37.43-37.43Z" />
</svg>
