<svg xmlns="http://www.w3.org/2000/svg" viewBox="0 0 801.58 647.18">
	<g transform="translate(-231.22 -125)">
		<path fill="#3f3d56" d="M1001.04 125H760.43a51.15 51.15 0 0 0-49.9 39.9L588.95 704.17a41.34 41.34 0 0 0 38.3 50.38l247.35 12.19a54.62 54.62 0 0 0 56.43-44.83L1000 340.64l5.13 1.47 13.2-72.27-5.28-1.32 19.25-106.42a31.5 31.5 0 0 0-31.25-37.1Z" />
		<path fill="#fff" d="M792.1 136.63h-28.08a35.35 35.35 0 0 0-34.54 27.8l-116.7 534.88a21.9 21.9 0 0 0 19.97 26.52L879.3 742a28.37 28.37 0 0 0 29.77-23.28l99.58-552.83a24.85 24.85 0 0 0-24.45-29.25h-26.64a11.73 11.73 0 0 0-11.32 8.67 10.35 10.35 0 0 1-10 7.66h-126.5a17.7 17.7 0 0 1-17.64-16.33Z" />
		<path fill="#e6e6e6" d="M928.4 510.54a2 2 0 0 0 2.03-1.63l54.52-300.92a2.02 2.02 0 0 0-.41-1.63 1.96 1.96 0 0 0-1.5-.73l-248.06-2.93h-.03a1.99 1.99 0 0 0-1.92 1.56l-64.28 291.15a2.02 2.02 0 0 0 .36 1.65 1.96 1.96 0 0 0 1.47.78Z" />
		<path fill="#e6e6e6" d="M713.13 530a1 1 0 0 0-.97.77l-2.33 9.96a1 1 0 0 0 .9 1.22l131.23 9.33a1 1 0 0 0 1.06-.8l2.23-11.52a1 1 0 0 0-.92-1.2L713.19 530Z" />
		<path fill="#e6e6e6" d="M872.57 588.26a1 1 0 0 0 1.05-.76l2.84-11.54a1 1 0 0 0-.9-1.24L707.97 563a.99.99 0 0 0-1.03.72l-2.95 9.97a1 1 0 0 0 .88 1.28Z" />
		<path fill="#e6e6e6" d="M863.57 625.26a1 1 0 0 0 1.05-.76l2.84-11.54a1 1 0 0 0-.9-1.24L698.97 600a.99.99 0 0 0-1.03.72l-2.95 9.97a1 1 0 0 0 .88 1.28Z" />
		<path fill="#e6e6e6" d="M573 755.52c0 8.37-76.6 9.26-170.89 15.15-94.2 5.89-170.89-6.78-170.89-15.15s77.05-25.2 170.9-15.15c94.27 10.1 170.88 6.78 170.88 15.15Z" />
		<path d="M786.38 688.51a.99.99 0 0 0 1.07-.75l6-24.05a1 1 0 0 0-.88-1.24l-102.91-8.66a1.02 1.02 0 0 0-1.06.78l-5.13 23.08a1 1 0 0 0 .88 1.22Z" />
		<path fill="#a0616a" d="M370.83 590.5a10.74 10.74 0 0 0 1.58-16.4l4.17-93.01-21.21 2.38 1.23 90.98a10.8 10.8 0 0 0 14.23 16.05Z" />
		<path fill="#a0616a" d="m409.53 747.97 12.08 2.12 11.93-45.56-15.82-3.14Z" />
		<path fill="#2f2e41" d="m442.93 765.4-37.95-6.68 2.58-14.66 23.28 4.1a14.89 14.89 0 0 1 12.09 17.24Z" />
		<path fill="#a0616a" d="M376.4 754.01h12.25l5.83-47.29H376.4Z" />
		<path fill="#2f2e41" d="M412.3 765.4h-38.54V750.5h23.64a14.89 14.89 0 0 1 14.9 14.89Z" />
		<path fill="#2f2e41" d="M427.54 737.06a4.74 4.74 0 0 1-.57-.03l-14.43-1.2a4.88 4.88 0 0 1-4.24-5.65l14.32-70.68-9-47.47a1.63 1.63 0 0 0-3.22.16L397.14 732.8a4.92 4.92 0 0 1-5.2 4.44l-13.6-.5a4.89 4.89 0 0 1-4.54-4.64l1.09-145.77 70.48-8.8 4.92 76.04-.02.08-17.99 79.67a4.89 4.89 0 0 1-4.74 3.73Z" />
		<circle cx="24.56" cy="24.56" r="24.56" fill="#a0616a" transform="translate(373.57 371.7)" />
		<path d="M421.27 597.44a20.11 20.11 0 0 1-10.86-3.1c-11.9-7.45-25.4-4.49-32.4-2.07a4.88 4.88 0 0 1-4.22-.48 4.81 4.81 0 0 1-2.23-3.55l-12.72-113.62c-2.13-19.04 9.34-36.94 27.27-42.56q1.01-.32 2.05-.6a39.57 39.57 0 0 1 32.98 5.72 40.2 40.2 0 0 1 17.16 29.35l10.71 114.39a4.8 4.8 0 0 1-1.52 4c-3.76 3.48-14.66 12.52-26.22 12.52Z" />
		<path d="m382.53 498.98-28.7-3.15a5.72 5.72 0 0 1-4.9-7.14l7.3-27.84a15.88 15.88 0 1 1 31.56 3.56l1.08 28.67a5.72 5.72 0 0 1-6.34 5.9Z" />
		<path fill="#a0616a" d="M448.9 586.52a10.74 10.74 0 0 0-.4-16.46l-7.08-92.85-20.8 4.68 12.2 90.42a10.8 10.8 0 0 0 16.07 14.21Z" />
		<path d="M412.66 493.15a5.71 5.71 0 0 1-1.82-4.4l1.09-28.68a15.88 15.88 0 1 1 31.55-3.56l7.3 27.84a5.72 5.72 0 0 1-4.9 7.14l-28.7 3.15a5.71 5.71 0 0 1-4.52-1.5Z" />
		<path fill="#2f2e41" d="M396.67 421.74a5.68 5.68 0 0 1-1.3-.15l-.13-.03c-21.6-3.3-26.36-15.81-27.41-21.04-1.08-5.4.15-10.62 2.94-12.65-1.52-4.8-1.28-9.06.73-12.66 3.5-6.28 11.08-8.4 12.1-8.67 6.05-4.47 13.3-1.48 14.62-.88 11.72-4.33 16.2-.72 17 .08 5.25.94 8.44 2.97 9.5 6.02 2 5.73-4.3 12.86-4.57 13.16l-.14.15-9.38.45a6.36 6.36 0 0 0-5.99 7.32 29.61 29.61 0 0 0 .96 3.35c1.6 5 2.8 9.29 1.26 10.91a2.51 2.51 0 0 1-2.63.46c-1.46-.4-2.46-.31-2.95.24-.77.86-.54 3.04.66 6.13a5.74 5.74 0 0 1-1.05 5.84 5.57 5.57 0 0 1-4.22 1.97Z" />
	</g>
</svg>
