<svg xmlns="http://www.w3.org/2000/svg" viewBox="0 0 882.35 779">
	<path fill="#e6e6e6" d="m342.36 20.06 3.47-5.36a80.39 80.39 0 0 0-3.56-8.33l-2.24 1.8 1.77-2.74C340.11 2.1 338.78 0 338.78 0s-6.96 10.97-9.28 22.57l4.45 6.89-4.93-3.99a32.52 32.52 0 0 0-.27 4.08c0 13.75 4.49 24.9 10.03 24.9s10.03-11.15 10.03-24.9a42.82 42.82 0 0 0-2.3-12.84Z" />
	<path fill="#e6e6e6" d="m366.92 31.98 6.24-1.34a80.39 80.39 0 0 0 3.38-8.4l-2.87-.31 3.2-.69c1.16-3.55 1.7-5.98 1.7-5.98s-12.67 2.84-22.53 9.4l-1.71 8.01-.67-6.3a32.52 32.52 0 0 0-3.08 2.7c-9.72 9.72-14.43 20.78-10.5 24.7s14.96-.8 24.69-10.52a42.82 42.82 0 0 0 7.46-10.7Z" />
	<path fill="#e6e6e6" d="M369.2 85.18c-14.48.93-30.26-.05-47.05 0V46.75c14.8 2.3 30.57 2.07 47.05 0ZM472.8 115.15l2.26-3.5a52.42 52.42 0 0 0-2.32-5.43l-1.46 1.18 1.16-1.79c-1.1-2.17-1.97-3.54-1.97-3.54a50.24 50.24 0 0 0-6.06 14.72l2.9 4.49-3.2-2.6a21.21 21.21 0 0 0-.19 2.66c0 8.97 2.93 16.24 6.55 16.24s6.54-7.27 6.54-16.24a27.92 27.92 0 0 0-1.5-8.38Z" />
	<path fill="#e6e6e6" d="m488.82 122.93 4.07-.88a52.42 52.42 0 0 0 2.2-5.48l-1.87-.2 2.09-.45c.75-2.31 1.1-3.9 1.1-3.9a50.24 50.24 0 0 0-14.69 6.13l-1.12 5.23-.43-4.11a21.2 21.2 0 0 0-2 1.76c-6.35 6.34-9.42 13.55-6.86 16.1s9.76-.51 16.1-6.85a27.92 27.92 0 0 0 4.87-6.99Z" />
	<path fill="#e6e6e6" d="M490.3 157.62c-9.44.6-19.73-.03-30.68 0v-25.06a110.58 110.58 0 0 0 30.68 0ZM484.47 231.9c-8.34.53-17.42-.03-27.09 0v-22.13a97.65 97.65 0 0 0 27.1 0ZM167.51 82.48h364.55v10.18H167.51z" />
	<path fill="#e6e6e6" d="M167.51 154.78h364.55v10.18H167.51zM167.51 227.08h364.55v10.18H167.51z" />
	<circle cx="470.96" cy="197.55" r="20.37" fill="#e6e6e6" />
	<circle cx="470.96" cy="197.55" r="16.29" fill="#fff" />
	<circle cx="470.96" cy="197.55" r="4.07" fill="#e6e6e6" />
	<path fill="#e6e6e6" d="M485.22 196.53v2.04h-16.3v-2.04z" />
	<path fill="#e6e6e6" d="M471.97 199.59h-2.04v-16.3h2.04zM339.73 105.1h13.48v53.34h-13.48z" />
	<path fill="#ccc" d="M339.73 113.53h13.48v6.18h-13.48zM339.73 140.48h13.48v6.18h-13.48z" />
	<path fill="#e6e6e6" d="M318.95 105.1h13.48v53.34h-13.48z" />
	<path fill="#ccc" d="M318.95 113.53h13.48v6.18h-13.48zM318.95 140.48h13.48v6.18h-13.48z" />
	<path fill="#e6e6e6" d="m352.74 110.86 12.08-5.99 23.66 47.8-12.08 5.99z" />
	<path fill="#ccc" d="m356.47 118.4 12.08-5.97 2.74 5.54-12.08 5.98zM368.43 142.56l12.08-5.98 2.74 5.54-12.08 5.98z" />
	<path fill="#e6e6e6" d="M219.57 177.4h13.48v53.34h-13.48z" />
	<path fill="#ccc" d="M219.57 185.82h13.48V192h-13.48zM219.57 212.77h13.48v6.18h-13.48z" />
	<path fill="#e6e6e6" d="M198.79 177.4h13.48v53.34h-13.48z" />
	<path fill="#ccc" d="M198.79 185.82h13.48V192h-13.48zM198.79 212.77h13.48v6.18h-13.48z" />
	<path fill="#e6e6e6" d="m232.58 183.16 12.08-5.98 23.66 47.8-12.08 5.98z" />
	<path fill="#ccc" d="m236.31 190.71 12.08-5.98 2.75 5.54-12.08 5.98zM248.27 214.86l12.08-5.98 2.74 5.54-12.08 5.98z" />
	<path fill="#e6e6e6" d="M345.84 177.4h13.48v53.34h-13.48z" />
	<path fill="#ccc" d="M345.84 185.82h13.48V192h-13.48zM345.84 212.77h13.48v6.18h-13.48z" />
	<path fill="#e6e6e6" d="M325.06 177.4h13.48v53.34h-13.48z" />
	<path fill="#ccc" d="M325.06 185.82h13.48V192h-13.48zM325.06 212.77h13.48v6.18h-13.48z" />
	<path fill="#e6e6e6" d="m358.84 183.16 12.08-5.98 23.67 47.8-12.08 5.98z" />
	<path fill="#ccc" d="m362.58 190.7 12.08-5.97 2.75 5.54-12.09 5.98zM374.54 214.86l12.08-5.98 2.74 5.54-12.08 5.98z" />
	<path fill="#e6e6e6" d="M449.99 32.65h53.56v53.56h-53.56z" />
	<path fill="#ccc" d="M460.7 43.36h32.13v32.13H460.7z" />
	<path fill="#e6e6e6" d="m470 54.14 6.81 11.8 6.82 11.81h-27.26l6.82-11.81 6.81-11.8z" />
	<path fill="#e6e6e6" d="m481.84 56.4 6.81 11.8 6.82 11.8h-27.26l6.82-11.8 6.81-11.8z" />
	<circle cx="486.63" cy="48.99" r="3.95" fill="#e6e6e6" />
	<path fill="#e6e6e6" d="M179.12 32.65h53.56v53.56h-53.56z" />
	<path fill="#ccc" d="M189.83 43.36h32.13v32.13h-32.13z" />
	<path fill="#e6e6e6" d="m199.14 54.14 6.81 11.8 6.81 11.81h-27.25l6.81-11.81 6.82-11.8z" />
	<path fill="#e6e6e6" d="m210.98 56.4 6.81 11.8L224.6 80h-27.25l6.81-11.8 6.82-11.8z" />
	<circle cx="215.77" cy="48.99" r="3.95" fill="#e6e6e6" />
	<path d="m71.5 397.84 3.47-5.36a80.39 80.39 0 0 0-3.56-8.33l-2.25 1.81 1.78-2.74c-1.7-3.34-3.02-5.44-3.02-5.44s-6.96 10.97-9.29 22.58l4.45 6.88-4.92-3.98a32.52 32.52 0 0 0-.27 4.08c0 13.75 4.49 24.9 10.03 24.9s10.03-11.15 10.03-24.9a42.82 42.82 0 0 0-2.3-12.85Z" />
	<path d="m96.06 409.76 6.24-1.33a80.39 80.39 0 0 0 3.38-8.41l-2.87-.3 3.2-.7c1.15-3.55 1.7-5.97 1.7-5.97s-12.68 2.83-22.53 9.4l-1.72 8.01-.67-6.3a32.52 32.52 0 0 0-3.07 2.7c-9.72 9.71-14.43 20.77-10.51 24.69s14.97-.8 24.7-10.51a42.82 42.82 0 0 0 7.45-10.71Z" />
	<path fill="#3f3d56" d="M98.34 462.97c-14.48.93-30.26-.06-47.05 0v-38.43c14.8 2.3 30.57 2.06 47.05 0Z" />
	<path fill="#e6e6e6" d="M501 475.03h195.51v253.55H501zM92.66 488.27h10.18v240.32H92.66z" />
	<path fill="#e6e6e6" d="M0 457.72h696.51v20.37H0z" />
	<path fill="#e6e6e6" d="M87.57 478.09h20.37v20.37H87.57z" />
	<path fill="#3f3d56" d="m614.16 489.8-1.15 4.58H584.5l-1.72-4.58h-72.62v46.84h177.18V489.8h-73.18zM614.16 548.86l-1.15 4.58H584.5l-1.72-4.58h-72.62v46.84h177.18v-46.84h-73.18zM614.16 607.92l-1.15 4.58H584.5l-1.72-4.58h-72.62v46.84h177.18v-46.84h-73.18zM614.16 666.98l-1.15 4.58H584.5l-1.72-4.58h-72.62v46.84h177.18v-46.84h-73.18z" />
	<path fill="#e6e6e6" d="M377.79 454.67h-60.08l2.03-26.48h56.01l2.04 26.48z" />
	<path fill="#e6e6e6" d="M314.65 451.61h67.21v6.11h-67.21z" />
	<path fill="#3f3d56" d="M462.81 257.63H233.2a6.11 6.11 0 0 0-6.11 6.1v140.02h241.84V263.74a6.11 6.11 0 0 0-6.1-6.11Z" />
	<path fill="#e6e6e6" d="M227.08 403.75v22.91a6.11 6.11 0 0 0 6.1 6.11h229.63a6.11 6.11 0 0 0 6.11-6.1v-22.92Z" />
	<path fill="#fff" d="M239.3 270.36h217.91v122.19H239.3z" />
	<circle cx="348.25" cy="418.01" r="6.11" fill="#3f3d56" />
	<path fill="#3f3d56" d="M865.04 727.06c-22.26 1.42-46.5-.09-72.3 0V668c22.73 3.54 46.97 3.17 72.3 0Z" />
	<path fill="#3f3d56" d="M831.43 673.3h-6.11l2.04-119.35h2.04l2.03 119.35zM858.93 674.11h-6.11l2.03-119.35h2.04l2.04 119.35zM806.99 674.11h-6.11l2.04-119.35h2.04l2.03 119.35z" />
	<path fill="#e6e6e6" d="m836.52 477.58 9.87-15.25a228.51 228.51 0 0 0-10.12-23.68l-6.38 5.15 5.05-7.8c-4.81-9.48-8.6-15.45-8.6-15.45s-19.78 31.17-26.39 64.18l12.66 19.56-14.01-11.32a92.45 92.45 0 0 0-.77 11.6c0 39.08 12.76 70.76 28.51 70.76s28.51-31.68 28.51-70.77c0-12.12-2.74-24.8-6.52-36.52Z" />
	<path d="m864.02 479.61 9.86-15.24a228.51 228.51 0 0 0-10.12-23.69l-6.38 5.16 5.05-7.8c-4.8-9.48-8.6-15.45-8.6-15.45s-19.78 31.17-26.38 64.17l12.65 19.56-14-11.31a92.45 92.45 0 0 0-.78 11.59c0 39.08 12.77 70.77 28.51 70.77s28.52-31.69 28.52-70.77c0-12.12-2.74-24.8-6.53-36.52Z" />
	<path d="m812.08 479.61 9.87-15.24a228.52 228.52 0 0 0-10.12-23.69l-6.38 5.16 5.05-7.8c-4.81-9.48-8.6-15.45-8.6-15.45s-19.78 31.17-26.39 64.17l12.66 19.56-14.01-11.31a92.45 92.45 0 0 0-.77 11.59c0 39.08 12.76 70.77 28.51 70.77s28.51-31.69 28.51-70.77c0-12.12-2.74-24.8-6.52-36.52Z" />
	<path fill="#3f3d56" d="M309.96 304.85h58.76v3.37h-58.76z" />
	<path d="M309.96 317.15h90.73v3.37h-90.73zM309.96 328.74h73.94v3.37h-73.94z" />
	<path fill="#3f3d56" d="M309.96 340.29h43.17v3.37h-43.17zM309.96 351.84h65.15v3.37h-65.15zM283.18 303.65h7.19v7.19h-7.19z" />
	<path d="M283.18 315.24h7.19v7.19h-7.19zM283.18 326.83h7.19v7.19h-7.19z" />
	<path fill="#3f3d56" d="M283.18 338.42h7.19v7.19h-7.19zM283.18 350.01h7.19v7.19h-7.19z" />
	<path d="M447.12 298.46h-30.84a107.84 107.84 0 0 1 0-36.76h30.84a66.15 66.15 0 0 0 0 36.76Z" />
	<path fill="#2f2e41" d="m222.76 372.14-12.68-3.09a32.66 32.66 0 0 1-32.05-39.12 42.68 42.68 0 0 1 42.63-42.74 42.68 42.68 0 0 1 42.74 42.63c7.19 25.03-15.34 48.5-40.64 42.32Z" />
	<circle cx="236.62" cy="345.24" r="31.36" fill="#ffb8b8" />
	<path fill="#ffb8b8" d="M216.17 361.6s-9.55 32.73-15 35.46 43.63 6.82 43.63 6.82-1.36-31.36 1.37-34.1-30-8.17-30-8.17Z" />
	<path fill="#2f2e41" d="M265.26 563.43s61.36-5.46 69.54 15-5.45 141.81-5.45 141.81h-25.91V620.7s-110.47-31.4-110.47-42.31 72.29-14.96 72.29-14.96Z" />
	<path fill="#2f2e41" d="m325.26 714.79 13.63 5.45s16.37-1.36 9.55 10.91a27 27 0 0 1-19.1 13.64s-25.9 9.54-27.27 0 6.82-28.64 6.82-28.64ZM231.17 563.43s61.36-5.46 69.54 15-5.45 141.81-5.45 141.81h-25.91V620.7s-78.42-18.17-78.42-29.07c0-5.13-5.34-31.18 4.07-36.66 10.63-6.2 36.17 8.46 36.17 8.46Z" />
	<path fill="#2f2e41" d="m291.17 714.79 13.63 5.45s16.37-1.36 9.55 10.91a27 27 0 0 1-19.1 13.64s-25.9 9.54-27.27 0 6.82-28.64 6.82-28.64Z" />
	<path fill="#575a89" d="m202.53 392.97 40.98 4.46a30.18 30.18 0 0 1 26.27 23.76l15.93 75.42s5.46 75-5.45 79.09-25.91-16.37-46.37-13.64-47.04 8.87-47.04 8.87-4.23-134.25-4.78-145.23c-1.1-21.95 20.46-32.73 20.46-32.73Z" />
	<path fill="#ffb8b8" d="m299.6 567.32 16.82 9.91s30.19-4.33 29.24 6.28-33.88 8.56-33.88 8.56l-20.28-12.5Z" />
	<circle cx="175.74" cy="299.48" r="20.26" fill="#2f2e41" />
	<path fill="#2f2e41" d="M194.44 288.58a20.25 20.25 0 0 0-24.25-19.83 20.25 20.25 0 1 1 12.63 38.16 20.24 20.24 0 0 0 11.62-18.33ZM211.82 300.07l27.31-5.03 21 13.17a31.86 31.86 0 0 1 14.68 31.1l-21.04-5.34-4.7-11.8-5.62 9.19-29.33 37.75-16.47-10.5-14.68-23Z" />
	<path fill="#575a89" d="m234.3 404.57 13.65-6.82s28.63 4.1 34.09 23.18 30 151.37 30 151.37l-23.19 10.9-32.72-80.45Z" />
	<path d="m245.92 458.23 13.65 52.98 24.2 59.49-.84 2.06-28.87-60.56-8.14-53.97z" opacity=".2" />
	<path fill="#3f3d56" d="m144.08 750.38-4.81-1.66 46.63-138.49 6.74 2.32-48.56 137.83zM322.29 750.38l4.82-1.66-46.63-138.49-6.74 2.32 48.55 137.83zM223.77 778.98l5.09.02 1.58-161.89-7.12-.03.45 161.9z" />
	<path d="m132.3 528.86 13.97 56.44a44.83 44.83 0 0 0 32.64 32.72 238.26 238.26 0 0 0 118.54-.76l20.86-5.5c12.11-3.2 21.22-13.6 22.08-26.1a25.68 25.68 0 0 0-2.32-12.87l-.24-.52a34.06 34.06 0 0 0-29.6-19.14l-22.1-.7-80.44-35.65s-27.66-14.05-50.4-15.63c-15.03-1.03-26.6 13.09-22.99 27.7Z" />
	<path fill="#e6e6e6" d="M543.26 351.31h79.43v107.94h-79.43z" />
	<path fill="#fff" d="M552.42 363.76h61.1v83.03h-61.1z" />
	<path fill="#3f3d56" d="M576.47 385.49h29.6v3.37h-29.6zM559.87 383.62h7.19v7.19h-7.19zM576.47 399.75h29.6v3.37h-29.6zM559.87 397.88h7.19v7.19h-7.19zM576.47 414h29.6v3.37h-29.6zM559.87 412.14h7.19v7.19h-7.19z" />
	<rect width="6.11" height="6.11" x="579.91" y="354.36" fill="#3f3d56" rx="3.05" />
</svg>
