<svg xmlns="http://www.w3.org/2000/svg" viewBox="0 0 552.81 556.01">
	<path fill="#3f3d56" d="M388.94 554H148.49a47.33 47.33 0 0 1-47.28-47.28V47.28A47.33 47.33 0 0 1 148.5 0h240.45a47.33 47.33 0 0 1 47.27 47.28v459.44A47.33 47.33 0 0 1 388.94 554Z" />
	<path fill="#3f3d56" d="M436.21 169a2 2 0 0 0-2 2v64a2 2 0 0 0 4 0v-64a2 2 0 0 0-2-2Z" />
	<path fill="#fff" d="M431.72 47.28v459.44a42.78 42.78 0 0 1-40 42.69l-1 .05a35 35 0 0 1-1.78.04l-6.22-.46c-4.06-.3-9.97-.75-17.34-1.34l-7-.56c-4.9-.4-10.28-.84-16.05-1.34l-7.11-.61a3913.4 3913.4 0 0 1-48.5-4.46l-2-.2a2995.23 2995.23 0 0 1-32-3.32l-2-.21a2090.3 2090.3 0 0 1-54.71-6.68 1014.44 1014.44 0 0 1-37.57-5.8c-3.72-.65-7.3-1.31-10.72-1.98l-2-.4c-24.17-4.84-40-10.06-40-15.42V47.28A42.78 42.78 0 0 1 148.5 4.5h25.54a7.8 7.8 0 0 1 7.7 7.25c.04.27.07.54.12.8.74 4.1 4.49 6.95 8.65 6.95h156.42c4.16 0 7.9-2.85 8.65-6.94.05-.27.08-.54.1-.81a7.8 7.8 0 0 1 7.72-7.25h25.54a42.78 42.78 0 0 1 42.78 42.78Z" />
	<path fill="#fafafa" d="m229.9 465 .4 2h-72.09c-4.66 0-8.62 3.05-9.99 7.26l-.82-1.32v-.01l.25-2.1a140.79 140.79 0 0 1 8.34-33.06 10.7 10.7 0 0 0 10-17.41l-.37-2.97.37-.66a28.68 28.68 0 0 1 52.48 6.8c3.78 13.71 8.48 27.55 11.42 41.47ZM424 352.05l-.19.65a98.1 98.1 0 0 0-17.82 6.72 14.47 14.47 0 0 0 2.51 26.89l.28.08.6.17a144.63 144.63 0 0 1-31.52 37.92c-18.15 57.01-65.28 56.71-112.8 33.47l-.04-.01a354.09 354.09 0 0 1-14.3 33.58V477.5c0-.9-.12-1.78-.34-2.61a340.33 340.33 0 0 0 25.57-92.88 329.62 329.62 0 0 0 1.61-66.66 344.2 344.2 0 0 0-49.53-153.25 91.59 91.59 0 0 1-32.86-43.97 69.64 69.64 0 0 1-3.93-19.74c1.81.48 10.44-26.91 9.26-28.8 3.06-3.57 7.9-4.93 11.17-8.37 16.3-17.14 35.08-11.42 41.87 15.5 20.04 13.49 18 31.43 2.7 47.01-9.73 9.91-12.75 24.59-21.55 35.4.63 1.06 1.3 2.1 1.93 3.16a346.14 346.14 0 0 1 28.73 61.34 144.07 144.07 0 0 1 16.87-65.29c10.64-18.67 28.03-33.33 43.65-48.67a29.56 29.56 0 0 1 50.43 20.97l-.02.76a99.66 99.66 0 0 0-6.33 2.86 14.49 14.49 0 0 0 2.51 26.89l.28.08a144.11 144.11 0 0 1-6.45 20.92c8.88 69.03-31.5 88.69-84.94 83.08-1.26.46-2.48.92-3.73 1.34a353.14 353.14 0 0 1 7.71 91.24 335.9 335.9 0 0 1-6.99 53.7l.17-.62a88.62 88.62 0 0 1 36.4-47c25.48-16.07 59-18.95 85.83-31.07A16.62 16.62 0 0 1 424 352.05Z" />
	<path fill="#3f3d56" d="M100.21 121a2 2 0 0 0-2 2v16a2 2 0 0 0 4 0v-16a2 2 0 0 0-2-2ZM100.21 169a2 2 0 0 0-2 2v31a2 2 0 0 0 4 0v-31a2 2 0 0 0-2-2ZM100.21 213a2 2 0 0 0-2 2v31a2 2 0 0 0 4 0v-31a2 2 0 0 0-2-2Z" />
	<rect width="39" height="5" x="134.71" y="11.5" fill="#3f3d56" rx="2" ry="2" />
	<circle cx="369.71" cy="12.5" r="4" fill="#3f3d56" />
	<circle cx="380.71" cy="12.5" r="4" fill="#3f3d56" />
	<circle cx="391.71" cy="12.5" r="4" fill="#3f3d56" />
	<path fill="#e6e6e6" d="M358.71 62h-180a8.51 8.51 0 0 1 0-17h180a8.51 8.51 0 0 1 0 17Z" />
	<path fill="#fff" d="M181.71 57.5a5 5 0 1 1 .02-10.01 5 5 0 0 1-.02 10.01Zm0-8a3 3 0 1 0 .01 6 3 3 0 0 0 0-6Z" />
	<path fill="#fff" d="M189.4 60.9a1 1 0 0 1-.68-.27l-4.69-4.4a1 1 0 1 1 1.37-1.46l4.7 4.4a1 1 0 0 1-.7 1.73Z" />
	<path fill="#3f3d56" d="M181.21 231c-.82 0-1.5.67-1.5 1.5v1c0 .83.68 1.5 1.5 1.5h35c.83 0 1.5-.67 1.5-1.5v-1c0-.83-.67-1.5-1.5-1.5h-35Z" />
	<path fill="#f2f2f2" d="M240.21 216h-82c-6.89 0-12.5-5.6-12.5-12.5v-82c0-6.9 5.61-12.5 12.5-12.5h82c6.9 0 12.5 5.6 12.5 12.5v82c0 6.9-5.6 12.5-12.5 12.5Zm-82-105c-5.8 0-10.5 4.7-10.5 10.5v82c0 5.8 4.7 10.5 10.5 10.5h57.44a35.06 35.06 0 0 0 35.06-35.06V121.5c0-5.8-4.7-10.5-10.5-10.5h-82Z" />
	<g fill="#f2f2f2">
		<path d="M170.21 119.5c-6.34 0-11.5 5.16-11.5 11.5v18c0 6.34 5.16 11.5 11.5 11.5h18c6.35 0 11.5-5.16 11.5-11.5v-18c0-6.34-5.15-11.5-11.5-11.5h-18ZM217.21 119.5c-6.34 0-11.5 5.16-11.5 11.5v18c0 6.34 5.16 11.5 11.5 11.5h18c6.35 0 11.5-5.16 11.5-11.5v-18c0-6.34-5.15-11.5-11.5-11.5h-18ZM166.71 165c-6.34 0-11.5 5.16-11.5 11.5v18c0 6.34 5.16 11.5 11.5 11.5h18c6.35 0 11.5-5.16 11.5-11.5v-18c0-6.34-5.15-11.5-11.5-11.5h-18Z" />
	</g>
	<path fill="#3f3d56" d="M320.21 231c-.82 0-1.5.67-1.5 1.5v1c0 .83.68 1.5 1.5 1.5h35c.83 0 1.5-.67 1.5-1.5v-1c0-.83-.67-1.5-1.5-1.5h-35ZM181.21 409c-.82 0-1.5.67-1.5 1.5v1c0 .83.68 1.5 1.5 1.5h35c.83 0 1.5-.67 1.5-1.5v-1c0-.83-.67-1.5-1.5-1.5h-35Z" />
	<path fill="#f2f2f2" d="M240.21 394h-82c-6.89 0-12.5-5.6-12.5-12.5v-82c0-6.9 5.61-12.5 12.5-12.5h82c6.9 0 12.5 5.6 12.5 12.5v82c0 6.9-5.6 12.5-12.5 12.5Zm-82-105c-5.8 0-10.5 4.7-10.5 10.5v82c0 5.8 4.7 10.5 10.5 10.5h58.44a34.06 34.06 0 0 0 34.06-34.06V299.5c0-5.8-4.7-10.5-10.5-10.5h-82Z" />
	<path fill="#f2f2f2" d="M166.71 297c-6.34 0-11.5 5.16-11.5 11.5v18c0 6.34 5.16 11.5 11.5 11.5h18c6.35 0 11.5-5.16 11.5-11.5v-18c0-6.34-5.15-11.5-11.5-11.5h-18ZM213.71 297c-6.34 0-11.5 5.16-11.5 11.5v18c0 6.34 5.16 11.5 11.5 11.5h18c6.35 0 11.5-5.16 11.5-11.5v-18c0-6.34-5.15-11.5-11.5-11.5h-18ZM166.71 343c-6.34 0-11.5 5.16-11.5 11.5v18c0 6.34 5.16 11.5 11.5 11.5h18c6.35 0 11.5-5.16 11.5-11.5v-18c0-6.34-5.15-11.5-11.5-11.5h-18Z" />
	<path fill="#3f3d56" d="M320.21 409c-.82 0-1.5.67-1.5 1.5v1c0 .83.68 1.5 1.5 1.5h35c.83 0 1.5-.67 1.5-1.5v-1c0-.83-.67-1.5-1.5-1.5h-35Z" />
	<path fill="#f2f2f2" d="M379.21 394h-82c-6.89 0-12.5-5.6-12.5-12.5v-82c0-6.9 5.61-12.5 12.5-12.5h82c6.9 0 12.5 5.6 12.5 12.5v82c0 6.9-5.6 12.5-12.5 12.5Zm-82-105c-5.8 0-10.5 4.7-10.5 10.5v82c0 5.8 4.7 10.5 10.5 10.5h59.1a33.4 33.4 0 0 0 33.4-33.4v-59.1c0-5.8-4.7-10.5-10.5-10.5h-82Z" />
	<path fill="#f2f2f2" d="M305.71 297c-6.34 0-11.5 5.16-11.5 11.5v18c0 6.34 5.16 11.5 11.5 11.5h18c6.35 0 11.5-5.16 11.5-11.5v-18c0-6.34-5.15-11.5-11.5-11.5h-18ZM352.71 297c-6.34 0-11.5 5.16-11.5 11.5v18c0 6.34 5.16 11.5 11.5 11.5h18c6.35 0 11.5-5.16 11.5-11.5v-18c0-6.34-5.15-11.5-11.5-11.5h-18ZM305.71 343c-6.34 0-11.5 5.16-11.5 11.5v18c0 6.34 5.16 11.5 11.5 11.5h18c6.35 0 11.5-5.16 11.5-11.5v-18c0-6.34-5.15-11.5-11.5-11.5h-18ZM252.72 477.5v59.7l-2-.2v-59.5a10.51 10.51 0 0 0-10.5-10.5h-82a10.52 10.52 0 0 0-10.5 10.5v45.04l-2-.4V477.5a12.5 12.5 0 0 1 12.5-12.5h82a12.54 12.54 0 0 1 12.5 12.5Z" />
	<path fill="#f2f2f2" d="M184.71 475h-18c-6.34 0-11.5 5.16-11.5 11.5v18c0 6.34 5.16 11.5 11.5 11.5h18c6.34 0 11.5-5.16 11.5-11.5v-18c0-6.34-5.16-11.5-11.5-11.5ZM231.71 475h-18c-6.34 0-11.5 5.16-11.5 11.5v18c0 6.34 5.16 11.5 11.5 11.5h18c6.34 0 11.5-5.16 11.5-11.5v-18c0-6.34-5.16-11.5-11.5-11.5ZM184.72 521h-18c-3.25 0-6.2 1.36-8.28 3.53 11.42 2 24.14 3.95 37.57 5.79a11.51 11.51 0 0 0-11.3-9.32ZM391.72 477.5v71.96h-2V477.5c0-5.8-4.71-10.5-10.5-10.5h-82c-5.8 0-10.5 4.7-10.5 10.5v63.23l-2-.2V477.5c0-6.9 5.6-12.5 12.5-12.5h82c6.89 0 12.5 5.6 12.5 12.5Z" />
	<path fill="#f2f2f2" d="M323.71 475h-18c-6.34 0-11.5 5.16-11.5 11.5v18c0 6.34 5.16 11.5 11.5 11.5h18c6.34 0 11.5-5.16 11.5-11.5v-18c0-6.34-5.16-11.5-11.5-11.5ZM370.71 475h-18c-6.34 0-11.5 5.16-11.5 11.5v18c0 6.34 5.16 11.5 11.5 11.5h18c6.34 0 11.5-5.16 11.5-11.5v-18c0-6.34-5.16-11.5-11.5-11.5ZM323.72 521h-18c-6.34 0-11.5 5.16-11.5 11.5v8.95a3913.4 3913.4 0 0 0 41 3.74v-12.7c0-6.33-5.16-11.5-11.5-11.5ZM206.94 342.83c-2.7 0-4.9 2.2-4.9 4.9v7.69c0 2.7 2.2 4.9 4.9 4.9h7.69c2.7 0 4.9-2.2 4.9-4.9v-7.68c0-2.7-2.2-4.91-4.9-4.91h-7.69ZM230.94 342.83c-2.7 0-4.9 2.2-4.9 4.9v7.69c0 2.7 2.2 4.9 4.9 4.9h7.69c2.7 0 4.9-2.2 4.9-4.9v-7.68c0-2.7-2.2-4.91-4.9-4.91h-7.69ZM206.94 166.83c-2.7 0-4.9 2.2-4.9 4.9v7.69c0 2.7 2.2 4.9 4.9 4.9h7.69c2.7 0 4.9-2.2 4.9-4.9v-7.68c0-2.7-2.2-4.91-4.9-4.91h-7.69ZM230.94 166.83c-2.7 0-4.9 2.2-4.9 4.9v7.69c0 2.7 2.2 4.9 4.9 4.9h7.69c2.7 0 4.9-2.2 4.9-4.9v-7.68c0-2.7-2.2-4.91-4.9-4.91h-7.69ZM353.8 521h-7.68a4.91 4.91 0 0 0-4.9 4.91v7.68c0 2.71 2.2 4.91 4.9 4.91h7.68c2.71 0 4.91-2.2 4.91-4.91v-7.68c0-2.71-2.2-4.91-4.9-4.91ZM377.8 521h-7.68a4.91 4.91 0 0 0-4.9 4.91v7.68c0 2.71 2.2 4.91 4.9 4.91h7.68c2.71 0 4.91-2.2 4.91-4.91v-7.68c0-2.71-2.2-4.91-4.9-4.91ZM353.8 544h-7.67c-1.53 0-2.9.7-3.8 1.8 5.77.5 11.15.94 16.05 1.34a4.88 4.88 0 0 0-4.57-3.14ZM377.8 544h-7.67a4.9 4.9 0 0 0-4.75 3.7c7.37.59 13.28 1.04 17.34 1.34v-.13c0-2.71-2.2-4.91-4.91-4.91Z" />
	<path fill="#a0616a" d="m397.94 121.54 3.36 16.8-9.32 3.25-2.93-17.87a5.73 5.73 0 1 1 8.89-2.18Z" />
	<path d="m446.68 231.47 13.65-14.7-43.74-44.74s-1.8-1.68-.58-1.92-.62-2.04-.62-2.04-2.85-2.7-.57-1.86-.6-2.02-.6-2.02l-10.25-33.82-1.82-6-15.3 9.14s.14 1.16.4 3.14c1.37 9.99 6.17 40.83 14.26 48.67 9.7 9.4 45.17 46.15 45.17 46.15Z" />
	<path fill="#a0616a" d="M408.19 544.67h-9.64l-4.59-37.17h14.23v37.17z" />
	<path fill="#2f2e41" d="M408.53 554.73h-29.64v-.38c0-6.37 5.16-11.53 11.53-11.53l5.42-4.11 10.1 4.1h2.59v11.92Z" />
	<path fill="#a0616a" d="m486.81 535.23-9.11 3.13-16.43-33.66 13.45-4.62 12.09 35.15z" />
	<path fill="#2f2e41" d="m490.4 544.63-28.03 9.63-.12-.35a11.54 11.54 0 0 1 7.16-14.66l3.78-5.65 10.89.6 2.45-.84 3.87 11.27ZM468.83 295.92H404.2s-3.15 27.98-4.32 26.28-.83.77-.5 3.03-2.96 3.67-.81 4.97 1.37 3.71-.74 4.5-1.12 6.8-1.12 6.8l-11 107.42 9 80.58h15l20-147v75l40 67 13-5-16-72 12-133-9.88-18.58Z" />
	<path fill="#3f3d56" d="m479.71 303.5-4.94 5.42-75.06 2.58-3-7 15-34 16-69 7-15v-1.65c0-.23-.05-.46-.15-.66-.43-.86.06-1.9 1-2.11l.15-2.58-2 1 13-6 10.7 1.05.3.95 2.23 1.71a36.77 36.77 0 0 1 14.44 29.88l-.67 37.41 6 58Z" />
	<path fill="#a0616a" d="M435.98 169.48a18.6 18.6 0 0 0 5.46.47 19.42 19.42 0 0 0 17.92-15.02 19.47 19.47 0 0 0-37.8-9.3c-.05.16-.1.31-.13.47a19.47 19.47 0 0 0 14.55 23.38ZM406.4 304.51l10.02-13.89 8.73 4.62-11.1 14.3a5.73 5.73 0 1 1-7.64-5.03Z" />
	<path d="M453.8 194h-20.05l-3.04 62.5s-.01 2.45-1 1.73-1.08 1.84-1.08 1.84-.04 3.93-.98 1.68-1.06 1.82-1.06 1.82l-17.82 30.52-3.16 5.41 17.1 5s.76-.89 2.03-2.43c6.4-7.8 25.74-32.3 25.97-43.57.29-13.5 3.1-64.5 3.1-64.5Z" />
	<path fill="#3f3d56" d="M427.71 208.5s16-21 30-1l-3-26-15.3-2.82c-.9-.1-1.67.63-1.64 1.53l-10.06 28.29Z" />
	<path d="m433.71 187.5-.05-3.46-.46-.74.51-.8.08-.18 1.92-7.82 17.1-6 4.6 7.05c-6.9 4.66-8.48 12.12-23.7 11.95Z" />
	<path fill="#2f2e41" d="m449.86 166.59-1.67-12.52a1.36 1.36 0 0 0-2.48-.57h-3l-3-10s-1.14 4.53-3.07 3.42c-2.13-1.22-4.8-.61-7.17.03l1.08-2.87-4.81 1.32.65-2.04-3 .96c.52-.39.05-1.3-.58-1.4s-3.1 2.58-4.1 2.58c-.82 0-1.63-.66-2.27-1.19-1.69-1.38-2.53-8.36-1.73-9.81 1.5-2.69 4.87-1.8 7-4 .48-.5 5.52-.52 6-1 .6-.6 4.92-2.73 5.77-2.74s1.64 1.05 1.09 1.7c.4-1.28 2.03-1.6 3.36-1.58.93.02 3.85-2.46 4.78-2.38 2.01.18 2.04 2.92 4.05 3.1 1.62.14 3.55.49 4.19 1.99.3.73.21 1.56.24 2.36s.23 1.68.9 2.1c.6.36 1.39.24 1.98-.11s1.04-.92 1.47-1.46c.65 2.1 4.3 7.2 4.95 9.3a44.93 44.93 0 0 1 1.65 6.46c1.02 6.7-6.2 13.82-10.85 18.76" />
	<path fill="#f2f2f2" d="M297.21 110c-6.34 0-11.5 5.16-11.5 11.5v82c0 6.34 5.16 11.5 11.5 11.5h82c6.35 0 11.5-5.16 11.5-11.5v-82c0-6.34-5.15-11.5-11.5-11.5h-82Z" />
	<path d="M305.71 119c-6.34 0-11.5 5.16-11.5 11.5v18c0 6.34 5.16 11.5 11.5 11.5h18c6.35 0 11.5-5.16 11.5-11.5v-18c0-6.34-5.15-11.5-11.5-11.5h-18ZM352.71 119c-6.34 0-11.5 5.16-11.5 11.5v18c0 6.34 5.16 11.5 11.5 11.5h18c6.35 0 11.5-5.16 11.5-11.5v-18c0-6.34-5.15-11.5-11.5-11.5h-18Z" />
	<path fill="#fff" d="M305.71 165c-6.34 0-11.5 5.16-11.5 11.5v18c0 6.34 5.16 11.5 11.5 11.5h18c6.35 0 11.5-5.16 11.5-11.5v-18c0-6.34-5.15-11.5-11.5-11.5h-18Z" />
	<g fill="#fff">
		<path d="M346.12 165c-2.7 0-4.9 2.2-4.9 4.9v7.7c0 2.7 2.2 4.9 4.9 4.9h7.69c2.7 0 4.9-2.2 4.9-4.9v-7.7c0-2.7-2.2-4.9-4.9-4.9h-7.69ZM370.12 165c-2.7 0-4.9 2.2-4.9 4.9v7.7c0 2.7 2.2 4.9 4.9 4.9h7.69c2.7 0 4.9-2.2 4.9-4.9v-7.7c0-2.7-2.2-4.9-4.9-4.9h-7.69ZM346.12 188c-2.7 0-4.9 2.2-4.9 4.9v7.7c0 2.7 2.2 4.9 4.9 4.9h7.69c2.7 0 4.9-2.2 4.9-4.9v-7.7c0-2.7-2.2-4.9-4.9-4.9h-7.69ZM370.12 188c-2.7 0-4.9 2.2-4.9 4.9v7.7c0 2.7 2.2 4.9 4.9 4.9h7.69c2.7 0 4.9-2.2 4.9-4.9v-7.7c0-2.7-2.2-4.9-4.9-4.9h-7.69Z" />
	</g>
	<path fill="#f2f2f2" d="M498.55 538.68c2.07.13 3.2-2.44 1.65-3.93l-.16-.62.06-.15a6.1 6.1 0 0 1 11.24.04c1.84 4.43 4.18 8.87 4.76 13.55.26 2.06.14 4.17-.32 6.2a72.28 72.28 0 0 0 6.15-37.8 73.12 73.12 0 0 0-15.5-37.3 19.46 19.46 0 0 1-8.1-8.4 14.84 14.84 0 0 1-1.34-4.06c.4.05 1.48-5.95 1.19-6.32.55-.83 1.53-1.24 2.13-2.06 2.98-4.04 7.09-3.33 9.23 2.16 4.59 2.31 4.63 6.15 1.82 9.84-1.79 2.35-2.04 5.52-3.6 8.03l.49.62a73.6 73.6 0 0 1 7.68 12.17 30.6 30.6 0 0 1 1.82-14.21c1.75-4.22 5.03-7.77 7.91-11.42 3.47-4.38 10.58-2.47 11.19 3.08l.01.17c-.42.24-.84.5-1.25.77a3.08 3.08 0 0 0 1.24 5.6h.06a30.63 30.63 0 0 1-.8 4.59c3.7 14.31-4.3 19.53-15.7 19.76l-.76.38a73.86 73.86 0 0 1 4.04 19.03c.3 3.83.28 7.68-.05 11.5l.02-.13c.82-4.21 3.11-8.15 6.43-10.87 4.95-4.07 11.93-5.56 17.27-8.83 2.57-1.57 5.86.46 5.4 3.44l-.01.14a20.68 20.68 0 0 0-3.58 1.89 3.08 3.08 0 0 0 1.24 5.6l.06.01.13.02a30.65 30.65 0 0 1-5.64 8.83c-2.31 12.5-12.25 13.68-22.89 10.04a75.1 75.1 0 0 1-5.05 14.73H499l-.18-.6c1.67.1 3.35 0 4.99-.3l-4.01-4.94a1.12 1.12 0 0 1-.09-.1c-.67-.84-1.36-1.67-2.04-2.5v-.01c-.04-2.58.27-5.15.88-7.64Z" />
	<path fill="#ccc" d="M0 554.82c0 .66.53 1.2 1.19 1.2h550.29c.66 0 1.19-.54 1.19-1.2 0-.66-.53-1.19-1.19-1.19H1.19c-.66 0-1.19.53-1.19 1.2Z" />
</svg>
