<svg xmlns="http://www.w3.org/2000/svg" viewBox="0 0 888 741.05">
	<path fill="#e6e6e6" d="M365.9 174.38h-4.04V63.93A63.93 63.93 0 0 0 297.94 0H63.93A63.93 63.93 0 0 0 0 63.93v605.95a63.93 63.93 0 0 0 63.93 63.93h234a63.93 63.93 0 0 0 63.93-63.93V253h4.04Z" />
	<path fill="#fff" d="M300.52 16.63h-30.55a22.68 22.68 0 0 1-21 31.25H114.91a22.68 22.68 0 0 1-21-31.25H65.38a47.74 47.74 0 0 0-47.74 47.74v605.07a47.74 47.74 0 0 0 47.74 47.74h235.14a47.74 47.74 0 0 0 47.74-47.74V64.37a47.74 47.74 0 0 0-47.74-47.74Z" />
	<path fill="#e6e6e6" d="M113.67 139.63H99.63a1.86 1.86 0 0 0-1.86 1.87v6.16a1.86 1.86 0 0 0 1.86 1.86h2.33v9.23h9.39v-9.23h2.32a1.86 1.86 0 0 0 1.86-1.86v-6.16a1.86 1.86 0 0 0-1.86-1.87Z" />
	<path fill="#e6e6e6" d="M127.73 196.03a72.18 72.18 0 0 1-12.55-42.8 1.52 1.52 0 0 0-1.2-1.51v-2.66H99.17v2.62h-.2a1.52 1.52 0 0 0-1.52 1.53v.1q1.75 24.43-11.83 43.81a4.2 4.2 0 0 0-.76 2.54l1.62 50.16a4.34 4.34 0 0 0 4.3 4.19h33.54a4.34 4.34 0 0 0 4.31-4.27l.62-48.7a8.79 8.79 0 0 0-1.5-5Z" />
	<path fill="#fff" d="M122.43 212.69h-29.2a3 3 0 0 0-2.96 3.45l4.41 28.68h25.33l5.36-28.58a3 3 0 0 0-2.94-3.55Z" />
	<path fill="#e6e6e6" d="M269.96 289.87h-14.04a1.86 1.86 0 0 0-1.86 1.86v6.16a1.86 1.86 0 0 0 1.86 1.86h2.32V309h9.39v-9.24h2.33a1.86 1.86 0 0 0 1.86-1.86v-6.16a1.86 1.86 0 0 0-1.86-1.86Z" />
	<path fill="#e6e6e6" d="M284.02 346.27a72.18 72.18 0 0 1-12.56-42.8 1.52 1.52 0 0 0-1.19-1.52v-2.66h-14.82v2.63h-.2a1.52 1.52 0 0 0-1.53 1.52v.11q1.76 24.43-11.83 43.8a4.2 4.2 0 0 0-.76 2.55l1.63 50.15a4.34 4.34 0 0 0 4.3 4.2h33.54a4.34 4.34 0 0 0 4.3-4.27l.63-48.7a8.79 8.79 0 0 0-1.51-5.01Z" />
	<path fill="#fff" d="M278.71 362.92h-29.2a3 3 0 0 0-2.95 3.46l4.4 28.67h25.34l5.36-28.58a3 3 0 0 0-2.95-3.55Z" />
	<path fill="#e6e6e6" d="M93.94 502.26h-6.66a.88.88 0 0 0-.89.88v2.92a.88.88 0 0 0 .89.89h1.1v4.38h4.45v-4.38h1.1a.88.88 0 0 0 .89-.89v-2.92a.88.88 0 0 0-.88-.88Z" />
	<path fill="#e6e6e6" d="M100.6 529a34.24 34.24 0 0 1-5.95-20.29.72.72 0 0 0-.56-.72v-1.26h-7.04v1.24h-.1a.72.72 0 0 0-.72.72v.06a31.25 31.25 0 0 1-5.6 20.78 1.99 1.99 0 0 0-.37 1.2l.77 23.8a2.06 2.06 0 0 0 2.04 1.98h15.91a2.06 2.06 0 0 0 2.05-2.02l.3-23.1a4.17 4.17 0 0 0-.72-2.38Z" />
	<path fill="#fff" d="M83.14 537.75h15.18v7.59H83.14z" />
	<path fill="#e6e6e6" d="M124.94 502.26h-6.66a.88.88 0 0 0-.89.88v2.92a.88.88 0 0 0 .89.89h1.1v4.38h4.45v-4.38h1.1a.88.88 0 0 0 .89-.89v-2.92a.88.88 0 0 0-.88-.88Z" />
	<path fill="#e6e6e6" d="M131.6 529a34.24 34.24 0 0 1-5.95-20.29.72.72 0 0 0-.56-.72v-1.26h-7.04v1.24h-.1a.72.72 0 0 0-.72.72v.06a31.25 31.25 0 0 1-5.6 20.78 1.99 1.99 0 0 0-.37 1.2l.77 23.8a2.06 2.06 0 0 0 2.04 1.98h15.91a2.06 2.06 0 0 0 2.05-2.02l.3-23.1a4.17 4.17 0 0 0-.72-2.38Z" />
	<path fill="#fff" d="M114.14 537.75h15.18v7.59h-15.18z" />
	<path fill="#e6e6e6" d="M155.94 502.26h-6.66a.88.88 0 0 0-.89.88v2.92a.88.88 0 0 0 .89.89h1.1v4.38h4.45v-4.38h1.1a.88.88 0 0 0 .89-.89v-2.92a.88.88 0 0 0-.88-.88Z" />
	<path fill="#e6e6e6" d="M162.6 529a34.24 34.24 0 0 1-5.95-20.29.72.72 0 0 0-.56-.72v-1.26h-7.04v1.24h-.1a.72.72 0 0 0-.72.72v.06a31.25 31.25 0 0 1-5.6 20.78 1.99 1.99 0 0 0-.37 1.2l.77 23.8a2.06 2.06 0 0 0 2.04 1.98h15.91a2.06 2.06 0 0 0 2.05-2.02l.3-23.1a4.17 4.17 0 0 0-.72-2.38Z" />
	<path fill="#fff" d="M145.14 537.75h15.18v7.59h-15.18z" />
	<path fill="#e6e6e6" d="M245.57 444.14h-14.04a1.86 1.86 0 0 0-1.86 1.86v6.16a1.86 1.86 0 0 0 1.86 1.86h2.32v9.24h9.4v-9.24h2.32a1.86 1.86 0 0 0 1.86-1.86V446a1.86 1.86 0 0 0-1.86-1.86Z" />
	<path fill="#e6e6e6" d="M259.63 500.53a72.18 72.18 0 0 1-12.56-42.79 1.52 1.52 0 0 0-1.19-1.52v-2.66h-14.82v2.62h-.2a1.52 1.52 0 0 0-1.53 1.53v.1q1.76 24.43-11.83 43.82a4.2 4.2 0 0 0-.76 2.54l1.63 50.15a4.34 4.34 0 0 0 4.3 4.19h33.54a4.34 4.34 0 0 0 4.3-4.27l.63-48.69a8.79 8.79 0 0 0-1.51-5.02Z" />
	<path fill="#fff" d="M254.32 517.2h-29.2a3 3 0 0 0-2.95 3.45l4.4 28.67h25.34l5.36-28.58a3 3 0 0 0-2.95-3.55Z" />
	<path fill="#e6e6e6" d="M253.23 260.46h-83.69c5.85-31.63 4.5-69.83 0-110.9h83.7c-4.4 41.07-5.7 79.27 0 110.9Z" />
	<circle cx="211.89" cy="201.98" r="20.17" fill="#fff" />
	<path fill="#e6e6e6" d="M176.6 407.67H92.91c5.86-31.63 4.5-69.83 0-110.9h83.7c-4.4 41.07-5.7 79.27 0 110.9Z" />
	<circle cx="135.26" cy="349.19" r="20.17" fill="#fff" />
	<path fill="#e6e6e6" d="M300.62 267.52h-83.69c5.85-31.63 4.5-69.83 0-110.91h83.7c-4.4 41.08-5.7 79.28 0 110.91Z" />
	<circle cx="259.28" cy="209.04" r="20.17" fill="#fff" />
	<path fill="#e6e6e6" d="M300.62 262.48h-83.69c5.85-31.63 4.5-69.83 0-110.91h83.7c-4.4 41.08-5.7 79.28 0 110.9Z" />
	<circle cx="259.28" cy="204" r="20.17" fill="#fff" />
	<path fill="#e6e6e6" d="M300.62 267.52h-83.69c5.85-31.63 4.5-69.83 0-110.91h83.7c-4.4 41.08-5.7 79.28 0 110.91Z" />
	<circle cx="259.28" cy="209.04" r="20.17" fill="#fff" />
	<path fill="#e6e6e6" d="M45.52 254.41h274.25v30.25H45.52zM45.52 404.65h274.25v30.25H45.52zM45.52 554.88h274.25v30.25H45.52z" />
	<path d="m796.85 677.6-68.32-48.33c23.04-22.44 44-54.4 64.05-90.55l68.32 48.33c-27.3 31-50.43 61.43-64.05 90.55Z" />
	<circle cx="796.87" cy="605.98" r="20.17" fill="#fff" />
	<path fill="#e6e6e6" d="M467.26 457.08h-7.5a1 1 0 0 0-1 1v3.28a1 1 0 0 0 1 1h1.25v4.93h5.01v-4.93h1.24a1 1 0 0 0 1-1v-3.29a1 1 0 0 0-1-1Z" />
	<path d="M474.77 487.2a38.56 38.56 0 0 1-6.7-22.85.81.81 0 0 0-.64-.82v-1.42h-7.92v1.4h-.1a.81.81 0 0 0-.82.82v.06a35.19 35.19 0 0 1-6.32 23.4 2.24 2.24 0 0 0-.4 1.36l.86 26.79a2.32 2.32 0 0 0 2.3 2.24h17.92a2.32 2.32 0 0 0 2.3-2.28l.33-26.01a4.7 4.7 0 0 0-.8-2.68Z" />
	<path d="M621.7 537.63a2.15 2.15 0 0 1-4.3 0" opacity=".2" style="isolation:isolate" transform="translate(-156 -79.48)" />
	<path fill="#fff" d="M456.16 492.37h15.12v10.08h-15.12z" />
	<path fill="#e6e6e6" d="M704.6 561.74h-14.04a1.86 1.86 0 0 0-1.86 1.86v6.17a1.86 1.86 0 0 0 1.86 1.86h2.33v9.23h9.39v-9.23h2.32a1.86 1.86 0 0 0 1.86-1.86v-6.17a1.86 1.86 0 0 0-1.86-1.86Z" />
	<path d="M718.66 618.14a72.18 72.18 0 0 1-12.55-42.8 1.52 1.52 0 0 0-1.2-1.51v-2.67H690.1v2.63h-.2a1.52 1.52 0 0 0-1.52 1.52v.11q1.75 24.43-11.83 43.81a4.2 4.2 0 0 0-.76 2.54l1.62 50.15a4.34 4.34 0 0 0 4.3 4.2h33.54a4.34 4.34 0 0 0 4.31-4.27l.62-48.7a8.79 8.79 0 0 0-1.5-5.01Z" />
	<path d="M857.68 643.23a4.02 4.02 0 0 1-8.04 0" opacity=".2" style="isolation:isolate" transform="translate(-156 -79.48)" />
	<path fill="#fff" d="M713.36 634.8h-29.2a3 3 0 0 0-2.96 3.45l4.41 28.67h25.33l5.36-28.57a3 3 0 0 0-2.94-3.55Z" />
	<path d="M664.55 677.52h-83.7c5.86-31.63 4.51-69.83 0-110.91h83.7c-4.39 41.08-5.7 79.28 0 110.91Z" />
	<circle cx="623.21" cy="619.04" r="20.17" fill="#fff" />
	<path fill="#ffb8b8" d="m322.24 328.47 18.79-1.71 11.96-29.04-21.35-11.95-9.4 42.7zM494.66 408.17a10.6 10.6 0 0 0-9.2-14.51l-29.17-1.74-4.3 14.28 30.03 8.25a10.6 10.6 0 0 0 12.64-6.28Z" />
	<path fill="#575a89" d="m463.34 414.69-.32-26.8-64.8-10.34-49.91-57.25a16.34 16.34 0 0 0-21.3-2.91 16.34 16.34 0 0 0-2.84 24.92L365.35 393Z" />
	<path fill="#2f2e41" d="M307.73 716.17h17.07l42.37-191.54 43.89 59.17 25.61 128.1h16.23l-3.42-137.5-57.21-146.87H335.9c-15.4 27.87-27.49 56.6-13.67 86.25Z" />
	<path fill="#2f2e41" d="M426.2 727.8a4.46 4.46 0 0 0 3.48 5.72l41.8 7.42a6.88 6.88 0 0 0 7.8-4.72 6.83 6.83 0 0 0-3.35-8.12 63.9 63.9 0 0 1-23.05-20.04c-4.59 4.28-9.72 3.87-15.18.72l-5.78.72ZM299.82 727.8a4.46 4.46 0 0 0 3.47 5.72l41.8 7.42a6.88 6.88 0 0 0 7.8-4.72 6.83 6.83 0 0 0-3.34-8.12 63.9 63.9 0 0 1-23.05-20.04c-4.6 4.28-9.73 3.87-15.18.72l-5.78.72Z" />
	<circle cx="353.41" cy="284.49" r="23.91" fill="#ffb8b8" />
	<path fill="#575a89" d="m332.06 433.93 62.34-1.7-18.3-57.63c11.37-18.24-.08-36.46-16.28-54.67L347 311.39l-20.5-1.71a50.31 50.31 0 0 0-13.55 35.05c.4 27.83 5.34 58.12 19.1 89.2Z" />
	<path fill="#ffb8b8" d="M475.3 472.72a10.6 10.6 0 0 0-2.76-16.97l-26.13-13.07-9.57 11.44 24.36 19.4a10.6 10.6 0 0 0 14.1-.8Z" />
	<path fill="#575a89" d="m443.93 466.38 10.25-24.76-55.5-35-23.37-72.27a16.34 16.34 0 0 0-18.43-11.05 16.34 16.34 0 0 0-12.42 21.8l17.92 62.79Z" />
	<path fill="#2f2e41" d="M314.13 275.1c0 9.3 6.04 23.7 13.66 29.88 5.13 4.16 11.9 3.98 14.52-1.7 2.68-5.84 11.92-19.56 28.18-28.19 21.68-11.5-7.69-31.18-28.18-28.18-15.4 2.26-28.18 12.62-28.18 28.18Z" />
	<circle cx="328.65" cy="245.2" r="17.08" fill="#2f2e41" />
	<path fill="#2f2e41" d="M348.29 239.23a17.07 17.07 0 0 0-15.8-17.02c.42-.03.85-.06 1.28-.06a17.08 17.08 0 0 1 0 34.16c-.43 0-.86-.04-1.28-.07a17.07 17.07 0 0 0 15.8-17.01Z" />
	<ellipse cx="353.84" cy="287.9" fill="#ffb8b8" rx="3.84" ry="5.12" />
	<path fill="#3f3d56" d="M837.75 684.85H571.88l-56.3-266.16h-48.05v-11.94h57.73l56.3 266.15h256.19v11.95z" />
	<circle cx="610.84" cy="707.88" r="25.59" fill="#3f3d56" />
	<circle cx="801.92" cy="707.88" r="25.59" fill="#3f3d56" />
	<path fill="#3f3d56" d="M832.9 679.22H574.23l-45.65-225.55h347.16a12.27 12.27 0 0 1 12.11 14.17l-42.83 201.02a12.2 12.2 0 0 1-12.12 10.36Zm-255.87-3.41H832.9a8.8 8.8 0 0 0 8.75-7.48l42.83-201.02a8.85 8.85 0 0 0-8.74-10.23H532.73Z" />
	<path fill="#3f3d56" d="m624.51 678.5-29.89-222.85 3.37-.55 29.89 222.84-3.37.56zM790.71 676.79l-3.37-.55 29.02-221.14 3.37.55-29.02 221.14zM708.11 455.38h3.41v222.85h-3.41z" />
	<path fill="#3f3d56" d="m546 518.5.01-3.4 330.3.8v3.4zM562.83 622.48 853 620.49l.03 3.41-290.18 1.99z" />
	<ellipse cx="472.65" cy="411.02" fill="#3f3d56" rx="18.77" ry="10.24" />
</svg>
