<svg xmlns="http://www.w3.org/2000/svg" viewBox="0 0 693 616">
	<path fill="#3f3d56" d="M676.1 257.75c-11.9 96.32-74.08 181.71-153.68 237.23q-9.69 6.76-19.86 12.98l-2.55 1.55c-47.3 28.38-101.49 46.56-155.93 40.89-44.23-4.6-87.66-28.13-113.58-63.28-.49-.66-.98-1.34-1.45-2.01a121.43 121.43 0 0 1-20.96-49.22c-4.66-26.29-1.04-55.36-15.52-77.79-18.78-29.1-59-33.84-93.61-32.75-32.35 1.01-64.65 4.51-96.96 6.33l-2 .11V22.69A22.72 22.72 0 0 1 22.69 0h140.73c6.81.89 11.63 14.55 18.42 15q4.41.3 8.81.48c15.43.64 30.84.37 46.23-.48 8.99-.49 19.98-14.18 28.96-15H525.7c1.94.64 3.86 1.31 5.78 2a214.76 214.76 0 0 1 24.2 10.44C642.24 56.33 688 161.43 676.1 257.75Z" />
	<path d="M567.39 129.14c-40.29 37.5-93.66 61.56-148.48 67.33q-8.07.85-16.18 1.17a214.23 214.23 0 0 1-9.5.18q-3.53 0-7.05-.1a255.88 255.88 0 0 1-40.52-4.43l-1.46-.29q-3.17-.62-6.31-1.32-6.03-1.34-12-2.96a269.81 269.81 0 0 1-9.4-2.75l-2.07-.66q-1.05-.33-2.1-.69-6.4-2.1-12.7-4.56a255.24 255.24 0 0 1-66.37-37.91 557.2 557.2 0 0 1-8.32-6.78c-14.62-12.06-29.74-24.53-48.17-27.25-19.9-2.93-39.02 6.13-57.5 14.89-6.27 2.97-12.75 6.04-19.16 8.61A152.67 152.67 0 0 1 2 136.31c-.67-.18-1.34-.38-2-.58v-2.09l2 .59a150.75 150.75 0 0 0 97.36-4.47c6.35-2.54 12.81-5.6 19.05-8.56 18.75-8.89 38.14-18.08 58.64-15.06 18.98 2.8 34.32 15.45 49.15 27.69 2.72 2.24 5.53 4.56 8.29 6.76a253.1 253.1 0 0 0 65.94 37.65h.01a263.74 263.74 0 0 0 13.95 4.97l1.99.63q2.54.81 5.08 1.54 2.49.75 5.01 1.42h.01q6.45 1.75 12.98 3.17a194.56 194.56 0 0 0 7.24 1.47 253 253 0 0 0 38.86 4.26h.01q6.8.21 13.57.05l3.52-.11q7.67-.3 15.31-1.08h.01c54.65-5.59 107.89-29.51 148.05-66.89a1 1 0 0 1 1.36 1.47Z" />
	<path fill="#ff6584" d="M.31 90.94a2.31 2.31 0 0 1-.31.72v-2.79a2.82 2.82 0 0 1 .31 2.07Z" />
	<ellipse cx="259.44" cy="243.28" fill="#e6e6e6" rx="3.27" ry="2.28" transform="rotate(-83.62 53.31 313.98)" />
	<ellipse cx="262.22" cy="264.49" fill="#3f3d56" rx="3.27" ry="2.28" transform="rotate(-83.62 56.1 335.19)" />
	<ellipse cx="753.44" cy="432.59" fill="#fff" rx="3.6" ry="5.18" transform="rotate(-75.78 535.46 524.47)" />
	<ellipse cx="719.6" cy="432.38" fill="#3f3d56" rx="3.6" ry="5.18" transform="rotate(-75.78 501.61 524.25)" />
	<ellipse cx="759.79" cy="460.67" fill="#ff6584" rx="3.6" ry="5.18" transform="rotate(-75.78 541.8 552.55)" />
	<ellipse cx="770.44" cy="472.28" fill="#e6e6e6" rx="3.27" ry="2.28" transform="rotate(-83.62 564.31 542.98)" />
	<ellipse cx="773.22" cy="493.49" fill="#3f3d56" rx="3.27" ry="2.28" transform="rotate(-83.62 567.1 564.19)" />
	<ellipse cx="738.62" cy="453.07" fill="#e6e6e6" rx="3.27" ry="2.28" transform="rotate(-83.62 532.5 523.77)" />
	<ellipse cx="755.65" cy="446.67" fill="#ff6584" rx="3.27" ry="2.28" transform="rotate(-83.62 549.53 517.37)" />
	<ellipse cx="734.67" cy="429.39" fill="#3f3d56" rx="3.27" ry="2.28" transform="rotate(-83.62 528.55 500.09)" />
	<ellipse cx="298.44" cy="195.59" fill="#fff" rx="3.6" ry="5.18" transform="rotate(-75.78 80.46 287.47)" />
	<ellipse cx="264.6" cy="195.38" fill="#3f3d56" rx="3.6" ry="5.18" transform="rotate(-75.78 46.61 287.25)" />
	<ellipse cx="304.79" cy="223.67" fill="#ff6584" rx="3.6" ry="5.18" transform="rotate(-75.78 86.8 315.55)" />
	<ellipse cx="315.44" cy="235.28" fill="#e6e6e6" rx="3.27" ry="2.28" transform="rotate(-83.62 109.31 305.98)" />
	<ellipse cx="318.22" cy="256.49" fill="#3f3d56" rx="3.27" ry="2.28" transform="rotate(-83.62 112.1 327.19)" />
	<ellipse cx="283.62" cy="216.07" fill="#e6e6e6" rx="3.27" ry="2.28" transform="rotate(-83.62 77.5 286.77)" />
	<ellipse cx="300.65" cy="209.67" fill="#ff6584" rx="3.27" ry="2.28" transform="rotate(-83.62 94.53 280.37)" />
	<ellipse cx="279.67" cy="192.39" fill="#3f3d56" rx="3.27" ry="2.28" transform="rotate(-83.62 73.55 263.09)" />
	<circle cx="158.37" cy="194.1" r="4" fill="#fff" />
	<circle cx="60.37" cy="234.1" r="2" fill="#fff" />
	<circle cx="457.37" cy="383.1" r="2" fill="#fff" />
	<circle cx="199.37" cy="291.1" r="2" fill="#fff" />
	<circle cx="235.37" cy="82.1" r="2" fill="#fff" />
	<circle cx="562.37" cy="159.1" r="2" fill="#fff" />
	<circle cx="97.37" cy="55.1" r="2" fill="#fff" />
	<circle cx="461.37" cy="43.1" r="4" fill="#fff" />
	<path fill="#e6e6e6" d="M640.37 574.6h-2c0-11.54-10.81-22.83-32.14-33.56-20.87-10.5-50.79-19.94-88.91-28.05q-8.46-1.8-17.31-3.48c-30.52-5.8-64.43-10.55-100.75-14.16q-11.26-1.13-22.85-2.09c-2.5-.22-5.02-.42-7.55-.63q-10.54-.83-21.31-1.54a1878.67 1878.67 0 0 0-117.05-3.97c-2.37-.02-4.75-.02-7.13-.02-52.43 0-64.27 4.95-64.97 9.11-1.79 10.52 58.85 31.65 117.49 52.1 64.91 22.62 131.62 45.88 154.34 65.69.77.67 1.49 1.34 2.16 2h-2.75a50.23 50.23 0 0 0-2.36-2c-23.99-19.16-91.28-42.62-152.05-63.81-74.94-26.12-120.77-42.72-118.81-54.32.85-5.02 9.23-10.77 66.95-10.77l5.68.01c40.25.11 79.58 1.43 117.08 3.89q11 .7 21.77 1.56c2.67.21 5.33.42 7.98.65q11.88.99 23.45 2.14c37.28 3.7 72.05 8.6 103.23 14.61q7.74 1.5 15.18 3.08c79.08 16.82 122.63 39.39 122.63 63.56Z" />
	<path fill="#e6e6e6" d="M609.37 569.78h-2c0-8.54-34.89-17.68-86.82-17.68-51.94 0-86.83 9.14-86.83 17.68h-2c0-12.32 45.17-19.68 88.83-19.68s88.82 7.36 88.82 19.68Z" />
	<path fill="#e6e6e6" d="M574.48 575.6h-2c0-4.83-21.21-10.2-51.64-10.2s-51.64 5.37-51.64 10.2h-2c0-7.93 27.64-12.2 53.64-12.2s53.64 4.27 53.64 12.2Z" />
	<circle cx="360.37" cy="94.1" r="40" fill="#f2f2f2" />
	<circle cx="354.37" cy="97.1" r="40" fill="#f2f2f2" />
	<path fill="#f2f2f2" d="M398.37 535.04h-37.49v-.47a14.6 14.6 0 0 1 14.6-14.6l6.84-5.2 12.78 5.2h3.27Z" />
	<path fill="#f2f2f2" d="m380.92 514.8-32.03 19.47-.25-.4a14.6 14.6 0 0 1 4.88-20.05l3.16-8 13.61-2.2 2.8-1.7Z" />
	<path fill="#f2f2f2" d="M402.94 408.57c-.17 1.2-.42 5.28-.7 11.22-1.42 28.8-3.87 101.3-3.87 101.3l-15.27-4.74s-18.16-54.78-15.16-84.78l-2.16-10.44-3.7-17.84v-.01l-11.27-54.33s-2.47 14.72-2.67 18.17-2.2 4.45-3.2 4.45c-5 0-3.47-.9-2.74 4.06.53 3.56-3.8 23.97-6.29 35.13-.96 4.34-1.64 7.28-1.64 7.28l4.24 9.14 35.15 75.8-13.29 7.12-53.02-78.58-5.23-7.75-1.12-8.7-8.82-68.36s-2.75-7.73 0-7.93c2.76-.21 4.32.66 3.54-2.27-.78-2.94 15.22-51.94 15.22-51.94l83 18s8.18 16.26 5 24c-3.19 7.74 2.61 67.68-.7 70.34-3.3 2.66-5.43.53-.87 5.1a8.39 8.39 0 0 0 2.43 1.76c2.82 1.28 3.94-.8 3.14 4.8Z" />
	<circle cx="354.11" cy="98.96" r="23.06" fill="#a0616a" />
	<path fill="#3f3d56" d="m372.08 118.82-9.14 1.75s8.5-13.72 8-20c-.5-6.28-7.34-8.53-7.34-8.53s-3.79.82-7.78 1.28a20.06 20.06 0 0 0-1.85-3.85 6.72 6.72 0 0 1-1.96 4.14 10.94 10.94 0 0 1-4.33-.5c-1.58-.72-1.55-1.97-1.03-3.14a41.62 41.62 0 0 0-14.82 4.07 40.9 40.9 0 0 1 .35-9.2l.66-.2a20.41 20.41 0 0 0 3.92-1.71 6.75 6.75 0 0 1-3.7-1.74c.84-2.46 2.18-4.6 4.29-5.63a15.82 15.82 0 0 1 13.13-.35s-4.89-3.57-3.09-5.03a5.96 5.96 0 0 0 .91.77c1.11.9 2.77-.37 2.99-1.73a4.59 4.59 0 0 1 .1-.51l.11-.41a3.4 3.4 0 0 1 .12-.34c3.33-.8 13.4 2.45 17.27 9.6 0 0 27.05 13 3.19 41.26Z" />
	<path d="M363.73 324.38a8.93 8.93 0 0 1 7.32-10.09 8.57 8.57 0 0 1 1.41-.1l24.1-55.98 16.55 12.41-32.2 53.04a8.9 8.9 0 0 1-7.37 8 8.53 8.53 0 0 1-9.78-7.05l-.03-.23ZM296.2 328.94a8.93 8.93 0 0 0 0-12.46 8.57 8.57 0 0 0-1.1-.91l13.36-59.47-20.67.34-5.08 61.83a8.9 8.9 0 0 0 1.27 10.8 8.53 8.53 0 0 0 12.05.04l.17-.17Z" />
	<path fill="#f2f2f2" d="M429.44 229.39c-3 4-7-.51-3 5.25 2.75 3.96-13 41.08-23.1 63.82a1245.29 1245.29 0 0 1-7.97 17.64l-17-9.85-2-1.15s15.6-39.26 20.62-53.37a50.07 50.07 0 0 0 1.51-4.65c.94-4.7 1.06-8.71 0-10.2a13.9 13.9 0 0 1-.64-1.71c-2-5.9-8.13-25.78-13.86-44.6l-4.82-15.88-6.74-22.3 23 1 1.05 1.8c1.6 2.76 4.88 8.45 8.68 15.29a720.85 720.85 0 0 1 8.61 15.89c7.26 13.84 13.51 27.17 11.66 29.02-4 4-8.09 1.73-3.05 6.86 5.05 5.14 10.05 3.14 7.05 7.14Z" />
	<path fill="#f2f2f2" d="M401.94 282.57c-6-5.94-4.89-33.01-4.89-33.01s5.97-90.9-2.11-97a112.67 112.67 0 0 0-17.76-10.48l-.55-.25-5.16-14.55-31.79-1.65-5.55 10.78s-.87.06-2.23.25c-5.08.7-17.02 3.18-15.96 10.9 1.34 9.8-8.12 70-11 73s-2.12 14.02 5 21 2 26-3 34a27.38 27.38 0 0 0-3.96 16.35s3.96 21.66 13.96 14.66c3.81-2.67 9.22-3.01 15.73-2.52l.2.01-.2.99c9.04.67 20.21 2.94 32.16 2.8l-.35-1h.35c2.02-.01 4.05-.1 6.11-.28 17.82-1.55 25.69 3.35 28-2 2.31-5.35 9-16.06 3-22Z" />
	<circle cx="354.37" cy="97.1" r="30" opacity=".3" />
	<path fill="#f2f2f2" d="M339.94 142.39s-4.56 15.14-9.87 32.6l-5.12 16.8c-5.55 18.12-10.6 34.44-11.08 35.09-1.06 1.49-.93 5.5 0 10.2.2.94-.24 4.6-1.05 9.85a962.91 962.91 0 0 1-4.59 26.33 2958.69 2958.69 0 0 1-7.86 40.84h-19s3.57-79.71 7.57-85.46c4-5.76 0-1.25-3-5.25s2-2 7.04-7.14c5.04-5.13.96-2.86-3.04-6.86-1.48-1.48 1.83-10.91 6.6-22.2a608.84 608.84 0 0 1 7.24-16.33 1115.5 1115.5 0 0 1 12.25-25.64l.01-.03.9-1.8Z" />
	<path fill="#3f3d56" d="M381.37 146.1c-20.88 8.1-39.65 9.5-55 0v-18c18.08 10.84 36.42 10.55 55 0ZM397.37 261.1c-32.26 8.1-61.28 9.5-85 0v-18c27.94 10.84 56.28 10.55 85 0ZM402.94 408.57c-.17 1.2-.42 5.28-.7 11.22a147.58 147.58 0 0 1-36.46 1.34l-3.7-17.84a112.89 112.89 0 0 0 37.72.48c2.82 1.28 3.94-.8 3.14 4.8ZM338.51 427.18a195.43 195.43 0 0 1-31.16 4.34l-5.23-7.75-1.12-8.7a118.57 118.57 0 0 0 34.91-4.31c-.96 4.34-1.64 7.28-1.64 7.28Z" />
	<path d="M341.37 184.1a10 10 0 0 1-20 0c0-5.53 9-17 10-10s10 4.47 10 10Z" />
	<path d="M332.46 167.14c-.36-.03-.72-.04-1.09-.04a17.03 17.03 0 0 0-16.98 16.11l-.02.89c0 .41.01.81.05 1.21a16.99 16.99 0 0 0 31.24 7.98 15.95 15.95 0 0 0 1.04-1.85 16.99 16.99 0 0 0-14.24-24.3ZM344.2 193a16.92 16.92 0 0 1-12.83 6.1 15.02 15.02 0 0 1-14.88-13.13 14.44 14.44 0 0 1-.12-1.87 2.26 2.26 0 0 1 .01-.26 15 15 0 0 1 14.99-14.74l.28.69c4.27 10.1 13.53 9.34 14.72 14.31a9.83 9.83 0 0 1-.98 7.09 11.52 11.52 0 0 1-1.19 1.81Z" />
	<path fill="#3f3d56" d="M670.31 0H22.69A22.72 22.72 0 0 0 0 22.69v570.62A22.72 22.72 0 0 0 22.69 616h647.62A22.72 22.72 0 0 0 693 593.31V22.69A22.72 22.72 0 0 0 670.31 0ZM691 593.31A20.71 20.71 0 0 1 670.31 614H22.69A20.71 20.71 0 0 1 2 593.31V22.69A20.71 20.71 0 0 1 22.69 2h647.62A20.71 20.71 0 0 1 691 22.69Z" />
</svg>
