<svg xmlns="http://www.w3.org/2000/svg" viewBox="0 0 768 728.86">
	<path fill="#e6e6e6" d="M466.88 172.95h-4V63.4A63.4 63.4 0 0 0 399.49 0H167.4A63.4 63.4 0 0 0 104 63.4v600.98a63.4 63.4 0 0 0 63.4 63.4h232.08a63.4 63.4 0 0 0 63.4-63.4V250.92h4Z" />
	<path fill="#fff" d="M402.04 16.5h-30.3a22.5 22.5 0 0 1-20.82 30.99H217.96a22.5 22.5 0 0 1-20.83-31h-28.3a47.35 47.35 0 0 0-47.34 47.35v600.1a47.35 47.35 0 0 0 47.35 47.34h233.2a47.35 47.35 0 0 0 47.35-47.34V63.84a47.35 47.35 0 0 0-47.35-47.34Z" />
	<path fill="#3f3d56" d="M767 728.86H1a1 1 0 0 1 0-2h766a1 1 0 0 1 0 2ZM426.82 182.5H143.95a5.24 5.24 0 0 1-5.24-5.23V107.1a5.24 5.24 0 0 1 5.24-5.24h282.87a5.24 5.24 0 0 1 5.24 5.24v70.17a5.24 5.24 0 0 1-5.24 5.23Zm-282.87-78.55a3.15 3.15 0 0 0-3.15 3.15v70.17a3.15 3.15 0 0 0 3.15 3.14h282.87a3.15 3.15 0 0 0 3.14-3.14V107.1a3.15 3.15 0 0 0-3.14-3.15ZM426.82 460.14H143.95a5.24 5.24 0 0 1-5.24-5.24V325.01a5.24 5.24 0 0 1 5.24-5.23h282.87a5.24 5.24 0 0 1 5.24 5.23V454.9a5.24 5.24 0 0 1-5.24 5.24ZM143.95 321.87a3.15 3.15 0 0 0-3.15 3.14V454.9a3.15 3.15 0 0 0 3.15 3.14h282.87a3.15 3.15 0 0 0 3.14-3.14V325.01a3.15 3.15 0 0 0-3.14-3.14Z" />
	<path fill="#e6e6e6" d="M424.72 291.46H299a5.24 5.24 0 0 1-5.24-5.24v-70.16a5.24 5.24 0 0 1 5.24-5.24h125.72a5.24 5.24 0 0 1 5.24 5.24v70.16a5.24 5.24 0 0 1-5.24 5.24ZM299 212.91a3.15 3.15 0 0 0-3.14 3.15v70.16a3.15 3.15 0 0 0 3.14 3.15h125.72a3.15 3.15 0 0 0 3.15-3.15v-70.16a3.15 3.15 0 0 0-3.15-3.15ZM269.67 629.86H143.95a5.24 5.24 0 0 1-5.24-5.24V493.7a5.24 5.24 0 0 1 5.24-5.24h125.72a5.24 5.24 0 0 1 5.24 5.24v130.93a5.24 5.24 0 0 1-5.24 5.24ZM143.95 490.55a3.15 3.15 0 0 0-3.15 3.14v130.93a3.15 3.15 0 0 0 3.15 3.15h125.72a3.15 3.15 0 0 0 3.14-3.15V493.7a3.15 3.15 0 0 0-3.14-3.14ZM424.72 629.86H299a5.24 5.24 0 0 1-5.24-5.24V493.7a5.24 5.24 0 0 1 5.24-5.24h125.72a5.24 5.24 0 0 1 5.24 5.24v130.93a5.24 5.24 0 0 1-5.24 5.24ZM299 490.55a3.15 3.15 0 0 0-3.14 3.14v130.93a3.15 3.15 0 0 0 3.14 3.15h125.72a3.15 3.15 0 0 0 3.15-3.15V493.7a3.15 3.15 0 0 0-3.15-3.14Z" />
	<circle cx="185.8" cy="365.79" r="21.34" />
	<path d="M235.09 351.56a3.56 3.56 0 0 0 0 7.11h167.65a3.56 3.56 0 0 0 0-7.1ZM235.09 372.9a3.56 3.56 0 0 0-.02 7.11h72.16a3.56 3.56 0 1 0 0-7.11Z" />
	<path fill="#ccc" d="M169.44 407.01c-2.7 0-4.91 1.6-4.91 3.56s2.2 3.56 4.9 3.56h231.32c2.71 0 4.91-1.6 4.91-3.56s-2.2-3.56-4.9-3.56ZM169.44 428.35c-2.7 0-4.91 1.6-4.91 3.56s2.2 3.56 4.9 3.56h231.32c2.71 0 4.91-1.6 4.91-3.56s-2.2-3.56-4.9-3.56Z" />
	<circle cx="187.9" cy="139.49" r="21.34" />
	<path d="M237.18 125.26a3.56 3.56 0 0 0 0 7.12h167.66a3.56 3.56 0 1 0 .02-7.12h-.02ZM237.18 146.6a3.56 3.56 0 0 0 0 7.11h72.15a3.56 3.56 0 1 0 .01-7.1h-.01Z" />
	<path fill="#e6e6e6" d="M269.56 291.48H151.62l27.75-48.08a5.67 5.67 0 0 1 9.82 0l11.86 20.54 20.16-34.92a7.1 7.1 0 0 1 12.29 0Zm-114.31-2.1h110.68l-34.25-59.31a5 5 0 0 0-8.66 0l-21.97 38.06-13.67-23.68a3.57 3.57 0 0 0-6.2 0ZM420.42 291.48H302.48l27.76-48.08a5.67 5.67 0 0 1 9.82 0l11.85 20.54 20.16-34.92a7.1 7.1 0 0 1 12.3 0Zm-114.3-2.1h110.67l-34.24-59.31a5 5 0 0 0-8.66 0l-21.98 38.06-13.67-23.68a3.57 3.57 0 0 0-6.19 0Z" />
	<path fill="#e6e6e6" d="M269.67 291.46H143.95a5.24 5.24 0 0 1-5.24-5.24v-70.16a5.24 5.24 0 0 1 5.24-5.24h125.72a5.24 5.24 0 0 1 5.24 5.24v70.16a5.24 5.24 0 0 1-5.24 5.24Zm-125.72-78.55a3.15 3.15 0 0 0-3.15 3.15v70.16a3.15 3.15 0 0 0 3.15 3.15h125.72a3.15 3.15 0 0 0 3.14-3.15v-70.16a3.15 3.15 0 0 0-3.14-3.15ZM170.74 515.45a3.56 3.56 0 1 0 0 7.12h72.14a3.56 3.56 0 0 0 0-7.12ZM170.74 536.4a3.56 3.56 0 1 0 0 7.12h72.14a3.56 3.56 0 0 0 0-7.11ZM206.8 602.86a22.39 22.39 0 1 1 22.4-22.38 22.41 22.41 0 0 1-22.4 22.38Zm0-42.67a20.3 20.3 0 1 0 20.3 20.29 20.31 20.31 0 0 0-20.3-20.3ZM397.94 602.86a3.56 3.56 0 1 0 0-7.11h-72.15a3.56 3.56 0 0 0 0 7.11ZM397.94 581.9a3.56 3.56 0 1 0 0-7.1h-72.15a3.56 3.56 0 0 0 0 7.1ZM361.86 515.45a22.39 22.39 0 1 1-22.38 22.39 22.41 22.41 0 0 1 22.38-22.39Zm0 42.68a20.3 20.3 0 1 0-20.29-20.3 20.31 20.31 0 0 0 20.3 20.3Z" />
	<path fill="#ffb8b8" d="M589.99 713.73H573.8l-7.7-62.44h23.89v62.44z" />
	<path fill="#2f2e41" d="M557.47 709.1h35.99v19.66h-50.88v-4.77a14.89 14.89 0 0 1 14.89-14.89Z" />
	<path fill="#ffb8b8" d="M654.68 713.73H638.5l-7.71-62.44h23.89v62.44z" />
	<path fill="#2f2e41" d="M622.16 709.1h35.99v19.66h-50.87v-4.77a14.89 14.89 0 0 1 14.88-14.89Z" />
	<path fill="#ffb8b8" d="M561.79 533.74a12.38 12.38 0 0 0-1.07-18.95l6.93-27.43-15.64-8.28-9.25 38.87a12.45 12.45 0 0 0 19.03 15.8Z" />
	<path fill="#2f2e41" d="m660.44 485.84-1.32 92.42-1.32 121.46-29.05-2.64-14.52-167.67-18.49 167.67h-29.98l-3.02-168.99 10.56-36.97 87.14-5.28z" />
	<path fill="#3f3d56" d="m570.4 491.68-.42-.19 16.55-113.23-8.41-34.22a7.49 7.49 0 0 1 4.64-8.8l15.14-5.68 5.35-14.7 42.2 4.54 1.04 11.5c4.58 1.46 42.24 14 39.64 28.3-2.56 14.1-17.7 58.49-18.48 60.74L665 483.59l-.32.16c-.4.2-29.49 14.5-61.1 14.5-11.12 0-22.57-1.78-33.18-6.57Z" />
	<path fill="#3f3d56" d="m542.22 503.57 13.3-85.17c.08-.5 7.96-50.35 10.57-66.02 2.7-16.17 15.21-16.36 15.34-16.36h6.89l8.06 36.27-15.88 72.76-14.65 60.3Z" />
	<path fill="#ffb8b8" d="M628.53 495.16a12.38 12.38 0 0 1 15.11-11.48l16.38-23.08 16.44 6.53-23.57 32.26a12.45 12.45 0 0 1-24.36-4.23Z" />
	<path fill="#3f3d56" d="m646.49 475.32 29.1-48.96-11.85-31.62 16.15-43.08.6.26c.39.17 9.56 4.26 10.92 18.93l18.57 58.33-49.54 64.27Z" />
	<circle cx="838.7" cy="362.75" r="30.39" fill="#ffb8b8" transform="rotate(-61.34 658.55 502.09)" />
	<path fill="#2f2e41" d="M602.3 262.38c3.14 3.72 8.47 4.77 13.38 5.2 9.97.88 24.47-.54 34.22-2.79.7 6.74-1.2 14.01 2.77 19.56a90.8 90.8 0 0 0 3.23-20.58c.12-3 .07-6.08-1.14-8.82s-3.86-5.07-6.91-5.1a17.31 17.31 0 0 1 7.72-3.3l-9.65-4.84 2.48-2.55-17.47-1.07 5.06-3.21a109.71 109.71 0 0 0-22.99-.73c-3.56.27-7.28.77-10.16 2.83s-4.55 6.16-2.76 9.19a13.34 13.34 0 0 0-10.17 8.07c-1.29 3.26-1.17 6.88-.77 10.35a73.4 73.4 0 0 0 3.84 16.28" />
</svg>
