<svg xmlns="http://www.w3.org/2000/svg" viewBox="0 0 801.92 597.46">
	<circle cx="436.31" cy="42" r="18.93" />
	<path fill="#fff" d="M434.44 49.22c-.43 0-.84-.13-1.18-.39l-.02-.02-4.45-3.4a1.98 1.98 0 0 1 2.4-3.14l2.88 2.21 6.81-8.88a1.98 1.98 0 0 1 2.78-.37l-.05.06.05-.06c.86.67 1.03 1.9.36 2.77l-8 10.45c-.38.49-.96.77-1.58.77Z" />
	<circle cx="436.31" cy="170" r="18.93" />
	<path fill="#fff" d="M434.44 177.22c-.43 0-.84-.13-1.18-.39l-.02-.02-4.45-3.4a1.98 1.98 0 1 1 2.4-3.14l2.88 2.21 6.81-8.88a1.98 1.98 0 0 1 2.78-.37l-.05.06.05-.06c.86.67 1.03 1.9.36 2.77l-8 10.45c-.38.49-.96.77-1.58.77Z" />
	<path fill="#ffb7b7" d="M483.86 368.96a10.75 10.75 0 0 1 12.21-11.07l17.34-34.02 9.8 17.26-17.97 29.66a10.8 10.8 0 0 1-21.38-1.83ZM564.71 583.19H551.1l-6.47-52.49h20.08v52.49z" />
	<path fill="#2f2e41" d="M568.18 596.39H524.3v-.56c0-9.43 7.65-17.08 17.08-17.08h26.8v17.64Z" />
	<path fill="#ffb7b7" d="M638.48 583.19h-13.61l-6.47-52.49h20.08v52.49z" />
	<path fill="#2f2e41" d="M641.95 596.39h-43.88v-.56c0-9.43 7.65-17.08 17.08-17.08h26.8v17.64Z" />
	<path fill="#e5e5e5" d="m504.77 339.35-5.94 9.9s9.9 0 11.88 14.85l7.92-9.9-13.86-14.85Z" />
	<path fill="#2f2e41" d="M608.73 318.56s15.84 41.58 18.82 67.33c2.97 25.74 7.92 94.06 7.92 94.06l9.9 88.12-27.73 3.96-11.88-89.11-26.73-88.12-5.94 88.12-4.95 80.2-25.75 1-1.98-83.18-10.89-105.95 5.94-50.5 73.27-5.93Z" />
	<path fill="#e5e5e5" d="m589.42 192.31 9.91 6.93 12.87 129.71-80.2 1.98 10.89-90.1 9.9-25.74 7.15-9.45 29.48-13.33z" />
	<path fill="#2f2e41" d="m591.4 285.39 3.03-89.57s5.89.45 7.87 3.42 34.65 8.91 34.65 8.91l-5.94 92.09s24.75 73.27 15.84 77.23-24.75 2.97-24.75 2.97l-30.7-95.05ZM543.38 274l10.5-60.37-23.37 15.81 5.94 43.57-4.95 29.7s-18.81 82.19-12.87 85.16 12.87 0 12.87 0l11.88-83.18V274Z" />
	<path fill="#2f2e41" d="m537.44 227.46-6.93 1.98-2.97 39.6-4.95 34.66-23.76 42.58s11.88-7.92 16.83 14.85l26.17-45.56-4.39-88.1Z" />
	<path fill="#ffb7b7" d="M591.3 360.84a10.75 10.75 0 0 1 14.12-8.49l23.62-30 6.26 18.83-23.38 25.6a10.8 10.8 0 0 1-20.62-5.94Z" />
	<path fill="#e5e5e5" d="m631.51 350.24-8.92 10.89-11.88-20.79 4.95-8.91 15.85 18.81z" />
	<path fill="#2f2e41" d="m629.53 211.62 7.92-3.96s5.94 7.92 6.93 14.85 5.94 15.84 5.94 20.8 13.86 51.48 13.86 51.48l-31.68 64.36s-6.94-23.76-21.79-25.74l24.76-34.66L621.6 274l7.93-62.38Z" />
	<path fill="#cbcbcb" d="M800.92 597h-381a1 1 0 1 1 0-2h381a1 1 0 1 1 0 2Z" />
	<path fill="#fff" d="M365 212H0v-84h365v84Z" />
	<path d="M52.68 155.77a3.56 3.56 0 1 0 0 7.12h259.66a3.56 3.56 0 1 0 0-7.12H52.68ZM52.68 177.11a3.56 3.56 0 1 0-.02 7.12h164.16a3.56 3.56 0 1 0 0-7.12H52.68Z" />
	<path fill="#e5e5e5" d="M365 212H0v-84h365v84ZM6 206h353v-72H6v72Z" />
	<path fill="#fff" d="M365 340H0v-84h365v84Z" />
	<path fill="#e6e6e6" d="M52.68 283.77a3.56 3.56 0 1 0 0 7.12h259.66a3.56 3.56 0 1 0 0-7.12H52.68ZM52.68 305.11a3.56 3.56 0 1 0-.02 7.12h164.16a3.56 3.56 0 0 0 0-7.12H52.68Z" />
	<path fill="#e5e5e5" d="M365 340H0v-84h365v84ZM6 334h353v-72H6v72Z" />
	<path fill="#fff" d="M368 84H3V0h365v84Z" />
	<path d="M55.68 27.77a3.56 3.56 0 0 0 0 7.12h259.66a3.56 3.56 0 0 0 0-7.12H55.68ZM55.68 49.11a3.56 3.56 0 0 0-.02 7.12h164.16a3.56 3.56 0 1 0 0-7.12H55.68Z" />
	<path fill="#e5e5e5" d="M368 84H3V0h365v84ZM9 78h353V6H9v72Z" />
	<path fill="#f1f1f1" d="M739.25 597.46v-72.34s28.19 51.28 0 72.34Z" />
	<path fill="#f1f1f1" d="m740.99 597.44-53.29-48.92s56.85 13.92 53.29 48.92Z" />
	<circle cx="484.31" cy="347.85" r="18.93" />
	<path fill="#fff" d="M482.44 355.07c-.43 0-.84-.14-1.18-.4l-.02-.01-4.45-3.4a1.98 1.98 0 0 1 2.4-3.14l2.88 2.2 6.81-8.88a1.98 1.98 0 0 1 2.78-.36l-.05.06.05-.06c.86.66 1.03 1.9.36 2.77l-8 10.44c-.38.5-.96.78-1.58.78Z" />
	<circle cx="561.59" cy="166.85" r="27.1" fill="#ffb6b6" />
	<path fill="#2f2e41" d="M585.26 187.67s8.03-16.25 7.89-22.46c-.15-6.2-4.53-22.18-6.38-23.23s-21.81-11.19-27.22-8.14-14.93 13.47-25.2 16.29c-2.9.8-.37 15.71-.37 15.71L546 164.1s12.52-11.24 13.07-3.58c.54 7.65 12.15 4.46 12.15 4.46l.15 6.21 4.75.26 1.31-6.6s2.14 13.46-.62 20.46 8.45 2.36 8.45 2.36Z" />
</svg>
