<svg xmlns="http://www.w3.org/2000/svg" viewBox="0 0 567.17 517.31">
	<path fill="#3f3d56" d="M13.56 186.03 488.79 47.57l12.6 43.2L26.13 229.23z" />
	<path fill="#3f3d56" d="M70.33 384.48.28 144.07a7 7 0 0 1 4.77-8.68L468.76.29a7 7 0 0 1 8.68 4.75l62.06 213-1.92.55L475.52 5.6a5 5 0 0 0-6.2-3.4L5.6 137.3a5 5 0 0 0-3.4 6.2l70.05 240.42Z" />
	<path d="M436.86 219.02a6.51 6.51 0 0 1-6.24-4.68l-11.75-40.32a6.5 6.5 0 0 1 4.42-8.06l40.33-11.75a6.5 6.5 0 0 1 8.05 4.42l11.75 40.32a6.5 6.5 0 0 1-4.42 8.06l-40.32 11.75a6.48 6.48 0 0 1-1.82.26ZM69.25 144.81a11.7 11.7 0 0 0-.43-1.22 12 12 0 0 0-22.91 6.67 11.38 11.38 0 0 0 .29 1.26 12.02 12.02 0 0 0 11.53 8.64 11.75 11.75 0 0 0 3.35-.48 12.01 12.01 0 0 0 8.17-14.87Zm-8.73 12.95a10.01 10.01 0 0 1-12.4-6.8 11.44 11.44 0 0 1-.28-1.26 10 10 0 0 1 19.04-5.54 8.34 8.34 0 0 1 .45 1.21 10 10 0 0 1-6.81 12.4Z" />
	<path d="M39.81 153.38a11 11 0 0 1 4.21-12.06 11 11 0 1 0 5.82 19.97 11 11 0 0 1-10.03-7.9Z" />
	<path fill="#ccc" d="M350.68 202.94a6.04 6.04 0 0 0-7.45-4.2l-66.4 18.57-7.14 2h44.9l7.15-2 24.75-6.92a6.05 6.05 0 0 0 4.19-7.45ZM303.7 189.07a6.05 6.05 0 0 0-7.44-4.19l-99.62 27.86a6.07 6.07 0 0 0-4.37 6.57h25.79l7.16-2 74.3-20.78a6.06 6.06 0 0 0 4.19-7.46Z" />
	<path fill="#3f3d56" d="M560.17 217.31h-483a7 7 0 0 0-7 7v286a7 7 0 0 0 7 7h483a7 7 0 0 0 7-7v-286a7 7 0 0 0-7-7Zm5 293a5 5 0 0 1-5 5h-483a5 5 0 0 1-5-5v-286a5 5 0 0 1 5-5h483a5 5 0 0 1 5 5Z" />
	<path d="M124.17 256.31a12 12 0 1 1 12-12 12.01 12.01 0 0 1-12 12Zm0-22a10 10 0 1 0 10 10 10.01 10.01 0 0 0-10-10Z" />
	<path d="M105.51 244.31a11 11 0 0 1 7.42-10.4 11 11 0 1 0 0 20.8 11 11 0 0 1-7.42-10.4ZM172.81 386.09a9.01 9.01 0 0 1-9-9v-27a9 9 0 0 1 18 0v27a9.01 9.01 0 0 1-9 9ZM196.81 386.09a9.01 9.01 0 0 1-9-9v-27a9 9 0 0 1 18 0v27a9.01 9.01 0 0 1-9 9ZM220.81 386.09a9.01 9.01 0 0 1-9-9v-27a9 9 0 0 1 18 0v27a9.01 9.01 0 0 1-9 9ZM257.81 386.09a9.01 9.01 0 0 1-9-9v-27a9 9 0 0 1 18 0v27a9.01 9.01 0 0 1-9 9ZM281.81 386.09a9.01 9.01 0 0 1-9-9v-27a9 9 0 0 1 18 0v27a9.01 9.01 0 0 1-9 9ZM305.81 386.09a9.01 9.01 0 0 1-9-9v-27a9 9 0 0 1 18 0v27a9.01 9.01 0 0 1-9 9ZM342.81 386.09a9.01 9.01 0 0 1-9-9v-27a9 9 0 0 1 18 0v27a9.01 9.01 0 0 1-9 9ZM366.81 386.09a9.01 9.01 0 0 1-9-9v-27a9 9 0 0 1 18 0v27a9.01 9.01 0 0 1-9 9ZM390.81 386.09a9.01 9.01 0 0 1-9-9v-27a9 9 0 0 1 18 0v27a9.01 9.01 0 0 1-9 9ZM427.81 386.09a9.01 9.01 0 0 1-9-9v-27a9 9 0 0 1 18 0v27a9.01 9.01 0 0 1-9 9ZM451.81 386.09a9.01 9.01 0 0 1-9-9v-27a9 9 0 0 1 18 0v27a9.01 9.01 0 0 1-9 9ZM475.81 386.09a9.01 9.01 0 0 1-9-9v-27a9 9 0 0 1 18 0v27a9.01 9.01 0 0 1-9 9Z" />
	<path fill="#e6e6e6" d="M233.83 486.26H104.39a6.05 6.05 0 1 1 0-12.1h129.44a6.05 6.05 0 1 1 0 12.1ZM192.33 460.26h-46.44a6.05 6.05 0 1 1 0-12.1h46.44a6.05 6.05 0 1 1 0 12.1Z" />
	<path fill="#3f3d56" d="M71.81 277.09h493v2h-493z" />
</svg>
