<svg xmlns="http://www.w3.org/2000/svg" viewBox="0 0 1075.03 766.36">
	<ellipse cx="952.03" cy="736.36" fill="#3f3d56" rx="123" ry="30" />
	<path d="M521.34 102.9v397a17.84 17.84 0 0 1-17.84 17.84H342.32a17.8 17.8 0 0 1-17.84-17.83V102.9a17.84 17.84 0 0 1 17.84-17.84h24.12v3.1a14.69 14.69 0 0 0 14.7 14.68h81.96a14.69 14.69 0 0 0 14.7-14.69v-3.1h25.7a17.83 17.83 0 0 1 17.84 17.85Z" />
	<path fill="#3f3d56" d="M331.56 151.41h182.72v89H331.56z" />
	<path fill="#fff" d="M405.13 212.52c4.78 17.68 21.16 28.63 21.16 28.63s8.63-17.71 3.85-35.4-21.17-28.63-21.17-28.63-8.62 17.72-3.84 35.4Z" />
	<path d="M412.16 208.72c13.12 12.78 14.72 32.42 14.72 32.42s-19.67-1.08-32.8-13.85-14.72-32.42-14.72-32.42 19.67 1.07 32.8 13.85Z" />
	<path fill="#fff" d="M448.64 212.52c-4.78 17.68-21.17 28.63-21.17 28.63s-8.62-17.71-3.84-35.4 21.17-28.63 21.17-28.63 8.62 17.72 3.84 35.4Z" />
	<path d="M441.61 208.72c-13.12 12.78-14.73 32.42-14.73 32.42s19.68-1.08 32.8-13.85 14.73-32.42 14.73-32.42-19.67 1.07-32.8 13.85Z" />
	<path fill="#f0f0f0" d="M347.9 290.25h150.03v8.24H347.9zM347.9 303.51h150.03v8.24H347.9zM347.9 316.78h150.03v8.24H347.9zM347.9 330.05h150.03v8.24H347.9zM418.07 377.32l33.4 23.7-23.71 33.4-33.4-23.71z" />
	<path fill="#3f3d56" d="M427.45 443.03a9.45 9.45 0 1 1 9.45-9.45 9.46 9.46 0 0 1-9.45 9.45Zm0-17.33a7.88 7.88 0 1 0 7.88 7.88 7.88 7.88 0 0 0-7.88-7.88Z" />
	<path fill="#f2f2f2" d="M196.85 17.84v397a17.84 17.84 0 0 1-17.83 17.84H17.84A17.8 17.8 0 0 1 0 414.85V17.84A17.84 17.84 0 0 1 17.84 0h24.12v3.1a14.69 14.69 0 0 0 14.69 14.68h81.97A14.69 14.69 0 0 0 153.31 3.1V0h25.7a17.83 17.83 0 0 1 17.84 17.84Z" />
	<path fill="#3f3d56" d="M176.4 216.78H18.9V75.8h157.5Zm-155.93-1.57h154.36V77.38H20.47Z" />
	<path fill="#3f3d56" d="M19.16 77.18 20.2 76l155.94 139.4-1.06 1.18z" />
	<path fill="#3f3d56" d="M19.15 215.41 175.1 76.01l1.06 1.18L20.2 216.6zM19.68 257.73h155.94v1.58H19.68zM19.68 271.91h155.94v1.58H19.68zM19.68 286.09h155.94v1.58H19.68zM19.68 300.26h77.97v1.58H19.68zM19.68 314.44h77.97v1.58H19.68z" />
	<path fill="#f2f2f2" d="M845.03 17.84v397a17.84 17.84 0 0 1-17.84 17.84H666.01a17.8 17.8 0 0 1-17.83-17.83V17.84A17.84 17.84 0 0 1 666 0h24.13v3.1a14.69 14.69 0 0 0 14.69 14.68h81.97A14.69 14.69 0 0 0 801.48 3.1V0h25.71a17.83 17.83 0 0 1 17.84 17.84Z" />
	<path fill="#3f3d56" d="M669.43 203.39h155.94v1.58H669.43zM669.43 244.35h155.94v1.58H669.43zM669.43 285.3h155.94v1.58H669.43z" />
	<circle cx="743.24" cy="118" r="25.6" />
	<path d="M785.99 196.3h11.03v25.2h-11.03zM689.12 236.47h11.03v25.2h-11.03zM753.7 276.64h11.03v25.2H753.7z" />
	<path fill="#3f3d56" d="M746.6 146.69a31.5 31.5 0 1 1 31.5-31.5 31.54 31.54 0 0 1-31.5 31.5Zm0-61.43a29.93 29.93 0 1 0 29.93 29.92 29.96 29.96 0 0 0-29.93-29.92ZM216.6 209.54l1.54-1.27 63.2 76.54-1.55 1.27z" />
	<path fill="#3f3d56" d="M288.24 294.75c-5.24-3.04-12.5-6.18-18.21-7.12l9.52-3.4 5.14-8.72c-.15 5.8 1.56 13.52 3.55 19.24ZM562.95 284.82l63.18-76.56 1.54 1.28-63.18 76.55z" />
	<path fill="#3f3d56" d="M556.02 294.75c2-5.72 3.7-13.44 3.55-19.24l5.14 8.71 9.53 3.4c-5.72.95-12.98 4.1-18.22 7.13Z" />
	<path fill="#2f2e41" d="M1016.53 377.86s0 146-23 199l-53 119s-34-2-36-16l40-124 24-73 6-114Z" />
	<path fill="#2f2e41" d="m983.53 381.86-9 61 6 134 3 74s12 33 8 36l-8 6s-32-4-33-6-20-153-20-153-39-122-37-124 11-32 11-32Z" />
	<path fill="#2f2e41" d="m990.53 682.86 4 23s11 47 0 47-31-13-32-21 2-44 2-44Z" />
	<path fill="#2f2e41" d="M939.53 690.86s8 16 13 18 27.77 15.08 14.38 23.54-27.38.46-27.38.46l-46-25s6-25 15-27 31 10 31 10Z" />
	<circle cx="929.53" cy="120.86" r="36" fill="#ffb8b8" />
	<path fill="#ffb8b8" d="M959.53 123.86s7 46 14 52-15 27-25 26-21-23-21-23 3-29-2-37 34-18 34-18Z" />
	<path fill="#3f3d56" d="m951.53 182.86 16.98-15.68a64.3 64.3 0 0 0 20.02 16.68c13 7-25 79-25 79l-61-76s19.4-12.9 25.7-17.95Z" />
	<path fill="#3f3d56" d="M961.53 243.86s26.8-46.72 23.9-61.86c0 0 39.1 9.86 41.1 22.86s-19 60-19 60 17 119 7 120-110 2-112-3 2-20-4-25-13-2-10-10 16-18 12-24-5-4-4-8-2-57-2-57-21-58-16-62S909.76 182 909.76 182Z" />
	<path fill="#ffb8b8" d="M1041.53 399.86s-3 40-20 38 3-45 3-45ZM892.53 398.86s6 24 13 22v-28l-3-5Z" />
	<path fill="#2f2e41" d="M958.9 126.04a6.22 6.22 0 0 0-1.03-2.9 4.7 4.7 0 0 0-2.2-1.39 9.83 9.83 0 0 0-11.71 5.02c-.92 2.02-1.37 4.61-3.4 5.5-2.35 1.05-4.96-1.17-5.88-3.57s-.95-5.13-2.19-7.39c-1.46-2.68-4.41-4.26-7.4-4.89-2.47-.53-5.5-.8-6.62-3.07a6.08 6.08 0 0 1-.45-2.74 28.96 28.96 0 0 1 1.78-9.8c-9.8-1.95-18.5 7.6-28.5 7.76a7.53 7.53 0 0 1-3.67-.72c-2.22-1.18-3.18-3.8-3.85-6.23q-1.06-3.86-1.75-7.8l3.2 1.46a12.55 12.55 0 0 1-1.43-5.51 13.2 13.2 0 0 1 4.92.41l.23-5.73c2.48 3.13 7.4 2.03 11.12.58 7.18-2.8 14.32-5.83 21.85-7.45s15.6-1.73 22.73 1.2C952.14 81.87 957.91 88 963 94.3c2.82 3.5 5.54 7.17 7.07 11.39a27.6 27.6 0 0 1-.07 17.6c-1.63 5.13-4.68 11.34-8.79 14.9-1.43-3.63-1.63-8.27-2.3-12.15Z" />
	<path fill="#3f3d56" d="m890.53 192.86-13 3s-15 16-16 31-1 90-1 90l19 62s-2 14 0 14 3-3 3 1-5 0 0 4l10 8 16.71-22.16s1.29-8.84-1.71-10.84-3-3-2-6 3-4 2-6-4-5-4-7 0-4-1-5-8-25-8-25l4-78ZM1016.53 197.86l10 5s16 48 16 90 3 70 3 70 5 12 3 12-4 0-2 3 3 2 2 5-2-2-1 3 0 7-2 7-2 13-2 13l-24-9s4-5 3-7a9.96 9.96 0 0 1-1-4s5-1 0-3-3-2-2-8 4-5 1-6-21-94-21-94Z" />
	<circle cx="951.51" cy="183.18" r="3" fill="#2f2e41" />
	<circle cx="951.51" cy="193.18" r="3" fill="#2f2e41" />
</svg>
