<svg xmlns="http://www.w3.org/2000/svg" viewBox="0 0 1061 507.4">
	<path fill="#3f3d56" d="M828.8 76.23H568.61v-5.36H450.65v5.36H189.41a17.6 17.6 0 0 0-17.6 17.6v356.25a17.6 17.6 0 0 0 17.6 17.6h639.38a17.6 17.6 0 0 0 17.6-17.6V93.83a17.6 17.6 0 0 0-17.6-17.6Z" data-name="Path 765" />
	<path fill="#e6e6e6" d="M195.41 107.33H822.8v353.91H195.41z" data-name="Rectangle 125" />
	<path fill="#fff" d="M222.01 126.05H796.4v305.91H222.01z" data-name="Rectangle 130" />
	<circle cx="508.56" cy="91.25" r="6.43" data-name="Ellipse 120" />
	<path fill="#3f3d56" d="M864 454.81h-61.22v-4.41a.88.88 0 0 0-.88-.88h-20.99a.88.88 0 0 0-.88.88v4.41h-13.12v-4.41a.88.88 0 0 0-.87-.88h-21a.88.88 0 0 0-.87.88v4.41h-13.12v-4.41a.88.88 0 0 0-.87-.88h-21a.88.88 0 0 0-.87.88v4.41h-13.12v-4.41a.88.88 0 0 0-.88-.88h-20.99a.88.88 0 0 0-.87.88v4.41h-13.12v-4.41a.88.88 0 0 0-.88-.88h-21a.88.88 0 0 0-.87.88v4.41h-13.12v-4.41a.88.88 0 0 0-.87-.88H601.6a.88.88 0 0 0-.88.88v4.41H587.6v-4.41a.88.88 0 0 0-.88-.88H422.29a.88.88 0 0 0-.87.88v4.41h-13.12v-4.41a.88.88 0 0 0-.88-.88h-21a.88.88 0 0 0-.87.88v4.41h-13.12v-4.41a.88.88 0 0 0-.87-.88h-21a.88.88 0 0 0-.87.88v4.41h-13.12v-4.41a.88.88 0 0 0-.88-.88H314.7a.88.88 0 0 0-.87.88v4.41H300.7v-4.41a.88.88 0 0 0-.88-.88h-20.99a.88.88 0 0 0-.88.88v4.41h-13.12v-4.41a.88.88 0 0 0-.87-.88h-21a.88.88 0 0 0-.87.88v4.41h-13.12v-4.41a.88.88 0 0 0-.87-.88h-21a.88.88 0 0 0-.87.88v4.41h-40.24a21 21 0 0 0-20.99 21v9.49a21 21 0 0 0 21 20.99h698a21 21 0 0 0 21-21v-9.49a21 21 0 0 0-21-20.99Z" data-name="Path 766" />
	<path fill="#e6e6e6" d="M382.21 147.5h254v267h-254z" data-name="Rectangle 126" />
	<path fill="#e6e6e6" d="M0 505.4h1061v2H0z" data-name="Rectangle 128" />
	<path d="M957.96 435.53c14.37 15.43 15.12 38.1 15.12 38.1s-22.57-2.34-36.94-17.76-15.12-38.1-15.12-38.1 22.56 2.34 36.94 17.76Z" data-name="Path 776" />
	<path d="M1003.21 459.61c-15.42 14.38-38.1 15.12-38.1 15.12s2.34-22.56 17.77-36.94 38.1-15.12 38.1-15.12-2.34 22.57-17.77 36.94Z" data-name="Path 777" />
	<path fill="#e5e5e5" d="M999.38 505.4h-56.74a5.8 5.8 0 0 1-5.22-3.27l-12.35-25.4a5.8 5.8 0 0 1 5.22-8.33h81.44a5.8 5.8 0 0 1 5.22 8.34l-12.35 25.4a5.8 5.8 0 0 1-5.22 3.26Z" data-name="Path 778" />
	<path fill="#e5e5e5" d="M60.96 435.53c14.37 15.43 15.12 38.1 15.12 38.1s-22.57-2.34-36.95-17.76-15.11-38.1-15.11-38.1 22.56 2.34 36.94 17.76Z" data-name="Path 779" />
	<path fill="#e5e5e5" d="M93.38 505.4H36.64a5.8 5.8 0 0 1-5.22-3.27l-12.35-25.4a5.8 5.8 0 0 1 5.22-8.33h81.44a5.8 5.8 0 0 1 5.22 8.34l-12.35 25.4a5.8 5.8 0 0 1-5.22 3.26Z" data-name="Path 780" />
	<circle cx="539.86" cy="189.33" r="33.76" fill="#a0616a" data-name="Ellipse 127" />
	<path d="m462.19 415.05 21.8-137.23a52.03 52.03 0 0 1 65.97-41.78 51.88 51.88 0 0 1 36.57 59.46l-22.8 122.56Z" data-name="Path 803" />
	<path fill="#a0616a" d="M549.18 439.6a13.82 13.82 0 0 0 2.4-21.05l22.53-43.64-25.38 2.71-17.5 41.03a13.9 13.9 0 0 0 17.94 20.96Z" data-name="Path 804" />
	<path d="M554 410.86a6.2 6.2 0 0 1-3.33-1.59l-8.63-7.96a6.2 6.2 0 0 1-1.5-6.95l17.24-40.84-2.45-80.7a19.92 19.92 0 1 1 39.48 5.38l4.18 50.73a63.74 63.74 0 0 1-12.28 43.15l-26.87 36.33a6.2 6.2 0 0 1-4.4 2.48 6.12 6.12 0 0 1-1.44-.03Z" data-name="Path 805" />
	<path fill="#a0616a" d="M345.46 170.94a13.82 13.82 0 0 0 18.45 10.42l31.4 37.77 7.4-24.43-30.95-32.12a13.9 13.9 0 0 0-26.3 8.36Z" data-name="Path 806" />
	<path d="M370.06 186.6a6.2 6.2 0 0 1 2.75-2.46l10.7-4.83a6.2 6.2 0 0 1 6.98 1.32l30.9 31.8 75.27 29.21a19.92 19.92 0 1 1-20.35 34.26l-48.35-15.93a63.74 63.74 0 0 1-34.95-28.14l-22.97-38.91a6.2 6.2 0 0 1-.57-5.01 6.13 6.13 0 0 1 .59-1.32Z" data-name="Path 807" />
	<path d="m636.74 502.68-1.38 43.99-25.32 44 21.15-49.03Z" data-name="Path 808" opacity=".1" style="isolation:isolate" transform="translate(-69.5 -196.3)" />
	<path fill="#2f2e41" d="M517 172.41c3.48 4.12 9.37 5.28 14.8 5.76 11.04.97 27.1-.6 37.88-3.1.77 7.47-1.32 15.52 3.07 21.66a100.5 100.5 0 0 0 3.57-22.79c.13-3.3.08-6.72-1.26-9.76s-4.27-5.6-7.65-5.63a19.16 19.16 0 0 1 8.55-3.66l-10.68-5.36 2.74-2.82-19.33-1.18 5.6-3.56a121.44 121.44 0 0 0-25.44-.8c-3.94.29-8.06.85-11.25 3.13s-5.04 6.82-3.06 10.17a14.77 14.77 0 0 0-11.26 8.93c-1.42 3.6-1.29 7.62-.85 11.46a81.23 81.23 0 0 0 4.26 18.02" data-name="Path 696" />
	<path fill="#fff" d="m661.3 87.84-307.6 71.02a5.85 5.85 0 0 1-7-4.38l-17.62-76.3a5.85 5.85 0 0 1 4.38-7.02L641.06.15a5.85 5.85 0 0 1 7.01 4.38l17.62 76.3a5.85 5.85 0 0 1-4.39 7.01Z" data-name="Path 138" />
	<path fill="#e6e6e6" d="m661.3 87.84-307.6 71.02a5.85 5.85 0 0 1-7-4.38l-17.62-76.3a5.85 5.85 0 0 1 4.38-7.02L641.06.15a5.85 5.85 0 0 1 7.01 4.38l17.62 76.3a5.85 5.85 0 0 1-4.39 7.01ZM334 73.44a3.51 3.51 0 0 0-2.63 4.21l17.61 76.3a3.51 3.51 0 0 0 4.21 2.63l307.6-71.01a3.51 3.51 0 0 0 2.63-4.21l-17.62-76.3a3.51 3.51 0 0 0-4.2-2.63Z" data-name="Path 138" />
	<path fill="#e6e6e6" d="M440.72 73.2a3.97 3.97 0 1 0 1.77 7.75h.02l182.3-42.1a3.97 3.97 0 0 0-1.78-7.73Z" data-name="Path 139" />
	<path fill="#e6e6e6" d="M446.08 96.41a3.97 3.97 0 1 0 1.77 7.74h.01l78.45-18.11a3.97 3.97 0 0 0-1.77-7.74h-.01Z" data-name="Path 140" />
	<g data-name="Group 45">
		<circle cx="390.88" cy="100.82" r="23.81" data-name="Ellipse 18" />
		<path fill="#fff" d="M390.21 114.56a3.69 3.69 0 0 1-2.33-.22l-.04-.02-9.59-4.35a3.72 3.72 0 1 1 3.08-6.77l6.21 2.83 8.71-19.14a3.71 3.71 0 0 1 4.92-1.84l-.05.13.05-.13a3.72 3.72 0 0 1 1.84 4.92l-10.24 22.51a3.71 3.71 0 0 1-2.56 2.08Z" data-name="Path 395" />
	</g>
</svg>
