<svg xmlns="http://www.w3.org/2000/svg" viewBox="0 0 879.13 631.48">
	<path fill="#e6e6e6" d="M.27.37h644.72v412.91H.27z" data-name="Rectangle 338" />
	<path fill="#fff" d="M18.71 52.15h607.85v336.69H18.71z" data-name="Rectangle 339" />
	<path d="M0 0h644.72v27.39H0z" data-name="Rectangle 340" />
	<circle cx="20.36" cy="14" r="5.08" fill="#fff" data-name="Ellipse 513" />
	<circle cx="39.62" cy="14" r="5.08" fill="#fff" data-name="Ellipse 514" />
	<circle cx="58.89" cy="14" r="5.08" fill="#fff" data-name="Ellipse 515" />
	<path fill="#e6e6e6" d="M93.5 79.85h118.89v128.98H93.5z" data-name="Rectangle 341" />
	<path fill="#e6e6e6" d="M263.19 79.85h118.89v128.98H263.19z" data-name="Rectangle 342" />
	<path fill="#e6e6e6" d="M432.89 79.85h118.89v128.98H432.89z" data-name="Rectangle 343" />
	<path fill="#e6e6e6" d="M93.5 232.18h118.89v128.98H93.5z" data-name="Rectangle 344" />
	<path fill="#e6e6e6" d="M263.19 232.18h118.89v128.98H263.19z" data-name="Rectangle 345" />
	<path fill="#e6e6e6" d="M432.89 232.18h118.89v128.98H432.89z" data-name="Rectangle 346" />
	<path fill="#fff" d="m291.93 265.33 21.72-8.6 2.53 42.95s4.54 13.13 3.03 18.18c0 0 1 8.59-1.52 9.1s-9.6 1.51-10.1 1-.5-2.02-.5-2.02-5.06 3.54-5.56 7.58c0 0-21.22 6.57-21.72.5s10.6-11.1 10.6-11.1l8.6-13.14Z" data-name="Path 2643" />
	<path fill="#fff" d="m337.9 265.33 21.72-8.6 2.52 42.95s4.55 13.13 3.04 18.18c0 0 1 8.59-1.52 9.1s-9.6 1.51-10.1 1-.5-2.02-.5-2.02-5.06 3.54-5.56 7.58c0 0-21.22 6.57-21.72.5s10.6-11.1 10.6-11.1l8.6-13.14Z" data-name="Path 2644" />
	<path fill="#3f3d56" d="M340.02 99.51s-4.62 12.92.74 18.75l-4.47 15.35s15.87 47.63 11.34 54.28c0 0-16.93 8.46-50.8-3.03l13.75-53.36-1.96-22.53 2.72-10.58 6.05-.6s-3.63 13.6 3.02 15.72 13.14-15.38 13.14-15.38Z" data-name="Path 2645" />
	<path fill="#fff" d="m126.42 182.94 5.84 2.39 27.86-36.62 8.75 42.98 5.84-1.06c3.74-37.05 6.8-74.85 3.05-92.72l-21.62-.93-9.82 31.3-4.78 21.23Z" data-name="Path 2646" />
	<path fill="#fff" d="M480.68 97.61s-7.97 11.08-7.58 15.54 5.44 77.33 5.44 77.33l11.85.59-3.5-52.46 2.92-14.19 7.19 66.06 14.57.4-13.02-85.69-2.53-7.58Z" data-name="Path 2647" />
	<path fill="#3f3d56" d="M525.7 276.02c-2.11-2.54-5.75-3.91-9.24-4.65.1-.32-10.62-2.54-10.8-2.08l-4.04-3.22-12.42 6.45-6.98-4.75-3.24 1.15c.13-.57-10.06 1.2-10.06 1.2-1.95.06-4.43.18-7.22.4-9.75.75-10.5 26-10.5 26a39.85 39.85 0 0 1 14.12-2.96l2.63 30.2c13.55-1.16 27.77.2 42.5 3.5l6.91-23.74 16.09-6.25s-2.75-15.25-7.75-21.25Z" data-name="Path 2648" />
	<path fill="#fff" d="M180.44 261.64c-1.74-2.1-4.74-3.23-7.61-3.84.08-.26-8.75-2.08-8.9-1.7l-3.33-2.66-10.23 5.31-5.75-3.9-2.67.94c.1-.47-8.3.98-8.3.98a147 147 0 0 0-5.94.34c-8.03.61-8.65 21.42-8.65 21.42a32.84 32.84 0 0 1 11.63-2.44l2.17 60.92c11.17-.96 22.88.15 35.02 2.88l5.69-55.59 13.25-5.15s-2.26-12.57-6.38-17.51Z" data-name="Path 2649" />
	<path fill="#2f2e41" d="M749.45 277.85h57v-30.5a28.5 28.5 0 1 0-57 0Z" data-name="Path 2682" />
	<path fill="#ffb6b6" d="M724 617.2h-12.25l-5.84-47.3h18.1Z" data-name="Path 2683" />
	<path fill="#2f2e41" d="M727.13 613.2H703a15.39 15.39 0 0 0-15.39 15.38v.5h39.53Z" data-name="Path 2684" />
	<path fill="#ffb6b6" d="m870.56 600.83-10.68 6.03-28.32-38.31 15.75-8.9Z" data-name="Path 2685" />
	<path fill="#2f2e41" d="m871.31 595.81-21.02 11.87a15.39 15.39 0 0 0-5.83 20.96l.24.43 34.43-19.43Z" data-name="Path 2686" />
	<path fill="#2f2e41" d="m792.2 404.52.95 4.73s2.84 2.84 1.42 4.26-.95 8.04-.95 8.04c.8 12.08 16.58 79.94 19.4 93.2 0 0 21.76 14.18 38.79 42.1s17.5 35 17.5 35l-18.92 8.04-47.3-57.24s-13.25-8.04-17.98-15.14-34.06-80.41-34.06-80.41l-16.56 76.63s.95 27.9-3.31 45.89a192.52 192.52 0 0 0-4.73 34.53l-22.23-2.37s1.41-67.17 3.78-74.27c0 0-9.93-81.83 9.93-114.47l16.02-42.69 15.68-6.03Z" data-name="Path 2687" />
	<path fill="#ffb8b8" d="M778.24 226.3c-29.84.52-29.84 44.91 0 45.42 29.85-.51 29.85-44.9 0-45.41Z" data-name="Path 2688" />
	<path fill="#2f2e41" d="M755.27 247.83h5.08l1.38-3.45-.7 3.45h27.75l-.9-7.22 6.75 7.22h6.72v-3.91a23.04 23.04 0 1 0-46.07-.03v.03Z" data-name="Path 2689" />
	<path fill="#3f3d56" d="m747.47 284.98 56.4.45-11.92 120.92s-65.96-3.48-66-23.61l6.18-17.9Z" data-name="Path 2690" />
	<path fill="#ffb6b6" d="M806.29 418.04a9.38 9.38 0 0 1 2.7-14.12l-2.45-21.29L819.1 378l3.04 30.1a9.43 9.43 0 0 1-15.86 9.95Z" data-name="Path 2693" />
	<path fill="#3f3d56" d="m796.45 295.85 7.42-10.37s5.08-1.13 11.08 5.87 9.5 94.5 9.5 94.5l-22 5-13-62Z" data-name="Path 2694" />
	<path fill="#fff" d="m672.14 390.74 1.63 77.74 50.33 26.59 91.64-16.36L818 397.9l-58.1-20.46-87.76 13.3z" />
	<path fill="#cacaca" d="m723.96 495.91-50.98-26.94-1.66-78.92 88.65-13.43.2.06 58.64 20.66-2.28 82.04Zm-49.4-27.92 49.67 26.24 90.73-16.2 2.22-79.57-57.36-20.2-86.87 13.17Z" />
	<path fill="#cacaca" d="m722.97 411.82-.19-.08-50.94-20.25.59-1.5 50.74 20.18 94.72-13.07.22 1.6-95.14 13.12z" />
	<path fill="#cacaca" d="m722.27 411 1.61-.01 1.02 84.08-1.6.02zM716.54 407.79l-18.37-7.44 88.4-14.09 18.36 7.45-88.39 14.08zM671.82 414.76l.64-1.47 21.3 9.17-.64 1.47z" />
	<path d="m681.46 441.29.64-1.48 21.3 9.17-.64 1.48z" />
	<path fill="#fff" d="m392.14 498.74 1.63 77.74 50.33 26.59 91.64-16.36L538 505.9l-58.1-20.46-87.76 13.3z" />
	<path fill="#cacaca" d="m443.96 603.91-50.98-26.94-1.66-78.92 88.65-13.43.2.06 58.64 20.66-2.28 82.04Zm-49.4-27.92 49.67 26.24 90.73-16.2 2.22-79.57-57.36-20.2-86.87 13.17Z" />
	<path fill="#cacaca" d="m442.97 519.82-.19-.08-50.94-20.25.59-1.5 50.74 20.18 94.72-13.07.22 1.6-95.14 13.12z" />
	<path fill="#cacaca" d="m442.27 519 1.61-.01 1.02 84.08-1.6.02zM432.09 513.96l-13.92-5.61 88.4-14.09 13.91 5.62-88.39 14.08zM391.82 522.76l.64-1.47 21.3 9.17-.64 1.47z" />
	<path d="m401.46 549.29.64-1.48 21.3 9.17-.64 1.48zM479.56 509.4l1.9 90.24 58.42 30.87 106.39-19 2.61-93.8-67.44-23.75-101.88 15.44z" />
	<path fill="#3f3d56" d="m539.73 631.48-59.19-31.27-1.93-91.61L581.53 493l.22.08 68.08 23.97-2.65 95.25Zm-57.35-32.41 57.65 30.46 105.33-18.8 2.57-92.37-66.58-23.44-100.84 15.28Z" />
	<path fill="#3f3d56" d="m538.58 533.87-.23-.1-59.13-23.51.69-1.73 58.9 23.42 109.95-15.16.25 1.84-110.43 15.24z" />
	<path fill="#3f3d56" d="m537.76 532.92 1.87-.03 1.19 97.6-1.87.03zM526.89 527.11l-17.1-6.56L612.4 504.2l17.1 6.56-102.61 16.35zM479.2 537.29l.73-1.72 24.73 10.64-.74 1.72z" />
	<path fill="#fff" d="m490.39 568.08.74-1.72 24.72 10.65-.74 1.71z" />
	<path fill="#ffb6b6" d="M700.67 403.6a9.38 9.38 0 0 0 3.67-13.9l11.42-18.14-9.32-9.63-15.77 25.83a9.43 9.43 0 0 0 10 15.83Z" data-name="Path 2691" />
	<path fill="#3f3d56" d="m756.13 289.74-8.18-5.39s-6.31 1.42-13.03 14.33-33.8 70.68-33.8 70.68l11.13 11.3 29.7-45.31Z" data-name="Path 2692" />
</svg>
