<svg xmlns="http://www.w3.org/2000/svg" viewBox="0 0 767.93 810.14">
	<path fill="#f2f2f2" d="m563.83 780.04-47.78-30.5 62.24 17.82c39.1-37.35 67.74-89.1 67.74-89.1S541.31 614.3 476.8 631.38s-76.88 61.37-64.37 108.67c12.51 47.3 45.18 79.7 109.69 62.63 14.36-3.8 28.46-12.07 41.71-22.64Z" />
	<path fill="#fff" d="m511.3 739.7-3.18.85c-37.01 9.59-67.5 10.98-91.04 4.12l-1.02-.3.47-1.59.47-1.52c25.52 7.77 57.78 4.37 90.07-3.99 1.04-.26 2.1-.52 3.15-.81a443.9 443.9 0 0 0 40.28-13.03l3.06-1.15a651.84 651.84 0 0 0 50.3-21.73 649.56 649.56 0 0 0 44-23.05l.75-.44.82 1.38.02.01.83 1.4c-.06.03-.89.54-2.44 1.42a682 682 0 0 1-42.73 22.39l-2.93 1.4a663.84 663.84 0 0 1-37.59 16.52q-5.09 2.06-10.07 3.93c-1.02.4-2.05.8-3.06 1.17q-21.18 7.92-40.16 13.03Z" />
	<path fill="#fff" d="M605.1 703.66c-.41-1.02-.84-2.05-1.24-3.1a89.82 89.82 0 0 1-2.8-8.77 87.38 87.38 0 0 1-1.41-38.7l-3.05-1.33a90.61 90.61 0 0 0 1.31 40.87 92.94 92.94 0 0 0 3.01 9.34c.4 1.04.82 2.07 1.26 3.09a89.85 89.85 0 0 0 14.24 23.1l2.03-2.67a87.08 87.08 0 0 1-13.34-21.83ZM554.52 725.51q-.53-1.6-.96-3.23c-.1-.33-.2-.67-.28-1a87.84 87.84 0 0 1 17.97-79.34l-3.3-1.13a91.1 91.1 0 0 0-17.82 81.3c.12.44.23.88.37 1.32.3 1.1.62 2.17.96 3.25a90.62 90.62 0 0 0 28.71 42.34c.8-.75 1.6-1.5 2.38-2.27a87.24 87.24 0 0 1-28.03-41.24Z" />
	<path fill="#fff" d="M511.3 739.7a80.32 80.32 0 0 1-2.1-6.76 88.08 88.08 0 0 1 39.67-97.84c-1.46-.37-2.9-.75-4.36-1.09a91.3 91.3 0 0 0-38.45 99.76 67.8 67.8 0 0 0 1 3.5c.33 1.11.69 2.2 1.06 3.28a91.04 91.04 0 0 0 43.71 50.58c1.08-.64 2.13-1.32 3.2-2a87.8 87.8 0 0 1-43.73-49.42Z" />
	<path fill="#3f3d56" d="m448.08 804.25-236.3-95.11a57.66 57.66 0 0 1-31.92-74.94L420.61 36.1a57.66 57.66 0 0 1 74.94-31.93l236.29 95.1a57.66 57.66 0 0 1 31.92 74.95l-240.74 598.1a57.66 57.66 0 0 1-74.94 31.93Z" />
	<path fill="#fff" d="m722.52 114.8-26.3-10.59a9.55 9.55 0 0 0-12.42 5.3 19.53 19.53 0 0 1-25.39 10.81L529.78 68.54a19.53 19.53 0 0 1-10.82-25.39 9.55 9.55 0 0 0-5.29-12.41l-23.2-9.34a43.74 43.74 0 0 0-56.83 24.22L194.6 639.47a43.74 43.74 0 0 0 24.22 56.84l232.04 93.4a43.74 43.74 0 0 0 56.83-24.22l239.04-593.85a43.74 43.74 0 0 0-24.21-56.84Z" />
	<path fill="#fff" d="m632.54 92.44-72.57-29.21a2.8 2.8 0 1 1 2.09-5.19l72.57 29.22a2.8 2.8 0 1 1-2.09 5.18Z" />
	<circle cx="644.99" cy="94.44" r="2.24" fill="#fff" />
	<path fill="#3f3d56" d="M692.4 357.47a5.03 5.03 0 0 1-2.78-6.54l36.72-91.23a5.03 5.03 0 0 1 9.33 3.76l-36.72 91.23a5.03 5.03 0 0 1-6.54 2.78ZM374.3 151.13a5.03 5.03 0 0 1-2.78-6.55l8.34-20.73a5.03 5.03 0 1 1 9.33 3.76l-8.34 20.73a5.03 5.03 0 0 1-6.54 2.79ZM358.87 189.49a5.03 5.03 0 0 1-2.8-6.55l8.35-20.73a5.03 5.03 0 1 1 9.33 3.75l-8.34 20.74a5.03 5.03 0 0 1-6.54 2.79ZM580.58 277.54l-100.38-40.4a8.4 8.4 0 0 1-4.64-10.9l24.1-59.85a8.4 8.4 0 0 1 10.89-4.64l100.37 40.4a8.4 8.4 0 0 1 4.65 10.9l-24.1 59.85a8.4 8.4 0 0 1-10.89 4.64Zm-71.73-111.58a3.85 3.85 0 0 0-4.99 2.13l-24.09 59.85a3.85 3.85 0 0 0 2.13 4.99l100.37 40.4a3.85 3.85 0 0 0 5-2.13l24.09-59.84a3.85 3.85 0 0 0-2.13-5Z" />
	<path fill="#3f3d56" d="m581.18 239.46-77.5-31.2a5.67 5.67 0 0 1-3.53-5.46l1.46-36.3a5.66 5.66 0 0 1 7.75-5.02l102.55 41.08a5.66 5.66 0 0 1 3.16 7.32l.33.33-3.21 3.2-24.91 24.8a5.64 5.64 0 0 1-6.1 1.25ZM523 242.1l-34.47-13.87a3.45 3.45 0 0 1 2.58-6.4l34.46 13.86a3.45 3.45 0 0 1-2.58 6.4Z" />
	<circle cx="544.33" cy="222.18" r="8.44" fill="#fff" />
	<path fill="#3f3d56" d="M430.9 649.4 330.52 609a8.4 8.4 0 0 1-4.64-10.9l24.09-59.85a8.4 8.4 0 0 1 10.9-4.64l100.37 40.4a8.4 8.4 0 0 1 4.65 10.9l-24.1 59.85a8.4 8.4 0 0 1-10.89 4.64Zm-71.73-111.58a3.85 3.85 0 0 0-5 2.13L330.1 599.8a3.85 3.85 0 0 0 2.13 4.99l100.37 40.4a3.85 3.85 0 0 0 5-2.13l24.09-59.84a3.85 3.85 0 0 0-2.13-5Z" />
	<path fill="#3f3d56" d="m431.5 611.32-77.5-31.2a5.67 5.67 0 0 1-3.53-5.46l1.46-36.3a5.66 5.66 0 0 1 7.75-5.02l102.55 41.08a5.66 5.66 0 0 1 3.16 7.32l.33.33-3.21 3.2-24.92 24.8a5.64 5.64 0 0 1-6.1 1.25ZM373.31 613.96l-34.46-13.87a3.45 3.45 0 0 1 2.58-6.4l34.46 13.86a3.45 3.45 0 0 1-2.58 6.4Z" />
	<circle cx="394.65" cy="594.04" r="8.44" fill="#fff" />
	<circle cx="470.67" cy="405.55" r="92.27" />
	<path fill="#3f3d56" d="m505.69 463.45-100.38-40.4a8.4 8.4 0 0 1-4.65-10.9l24.1-59.85a8.4 8.4 0 0 1 10.89-4.64l100.38 40.4a8.4 8.4 0 0 1 4.64 10.9l-24.09 59.85a8.4 8.4 0 0 1-10.9 4.64Zm-71.73-111.58a3.85 3.85 0 0 0-5 2.13l-24.09 59.84a3.85 3.85 0 0 0 2.13 5l100.38 40.4a3.85 3.85 0 0 0 5-2.13l24.08-59.85a3.85 3.85 0 0 0-2.13-4.99Z" />
	<path fill="#3f3d56" d="m506.28 425.37-77.49-31.2a5.67 5.67 0 0 1-3.54-5.47l1.46-36.29a5.66 5.66 0 0 1 7.76-5.02L537 388.47a5.66 5.66 0 0 1 3.16 7.31l.34.34-3.22 3.2-24.91 24.8a5.64 5.64 0 0 1-6.1 1.25ZM448.1 428l-34.47-13.87a3.45 3.45 0 0 1 2.58-6.4l34.46 13.87a3.45 3.45 0 0 1-2.57 6.4Z" />
	<path fill="#9e616a" d="M221.32 473.1a12.07 12.07 0 0 0-14.14-11.96l-20.77-37.55-10.34 19.76 21.31 32.62a12.14 12.14 0 0 0 23.94-2.87Z" />
	<path fill="#cacaca" d="m207.9 321.45-21.37-1.5s-2.63-.35-9.87 11.12-32.05 69.68-32.05 69.68l43.47 63.09 14.12-14.06-25.24-50.76 24.19-33.98Z" />
	<path fill="#9e616a" d="M443.43 389.65a10.48 10.48 0 0 1-14.03-7.83l-36.86-5.43 12.9-14.44 33.02 7.37a10.54 10.54 0 0 1 4.97 20.33ZM301.77 793.35h15.75l7.49-60.74h-23.25l.01 60.74z" />
	<path fill="#2f2e41" d="M297.75 788.21h4.43l17.3-7.04 9.28 7.04a19.77 19.77 0 0 1 19.77 19.76v.65h-50.78Z" />
	<path fill="#9e616a" d="M206.77 793.35h15.75l7.49-60.74h-23.25l.01 60.74z" />
	<path fill="#2f2e41" d="M202.75 788.21h4.43l17.3-7.04 9.28 7.04a19.77 19.77 0 0 1 19.77 19.76v.65h-50.78ZM212.84 494.22l-10.41 62.75 3.5 201.69h25.62l39.36-213.35 28.31 209.84 25.76-1.11 12.86-211.81-11.55-54.07-113.45 6.06z" />
	<path fill="#cacaca" d="m306.97 307.63-27.42-4.04-5.83-15.14-38.63-.05-8.68 19.76-39.47 11.92 32.7 112.35s-18.02 41.75-13.59 41.93 6.62 6.52 3.53 9.85-9.3 1.2-6.2 6.27a23.62 23.62 0 0 1 3.5 9.03s130.8 27.93 123.55-8.08c-.9-4.48-11.83-66.5-11.83-66.5s9.52-10.52 5.45-14.7-1.92-48.4-1.92-48.4Z" />
	<path fill="#cacaca" d="m302.48 312.54 4.49-4.91 60.97 35.75 51.59 20.57 1 18-67-8-47.42-23.18-3.63-38.23z" />
	<path fill="#9e616a" d="M285.53 245.04a32.27 32.27 0 0 1-32.27 32.27 33.13 33.13 0 0 1-7.55-.88 32.29 32.29 0 1 1 39.82-31.4Z" />
	<path fill="#2f2e41" d="m261.9 271.21-23.18 4.47a15.02 15.02 0 0 1-6.62.28c-3.45-.91-5.76-4.1-7.53-7.2a68.08 68.08 0 0 1-7.24-47.8c.8-3.6 2.48-7.72 6.1-8.45 1.04-.21 2.22-.13 3.05-.8 1.23-1 .82-3.1-.38-4.12a8.16 8.16 0 0 0-4.42-1.44 11.19 11.19 0 0 1 8.27-3.94l-6.2-3.44c2.99-2.07 7-1.88 10.52-.99s6.92 2.41 10.54 2.75c4.54.43 9.02-1.03 13.55-1.6a35.54 35.54 0 0 1 34.34 17.1 15.43 15.43 0 0 1 2.28 6.42 7.4 7.4 0 0 1-2.31 6.2c-2.54 2.14-6.54 1.83-9 4.06-1.9 1.71-2.36 4.48-2.47 7.04s.01 5.22-1.08 7.53-3.95 4.05-6.24 2.9c-.1-3.17-3.74-5.4-6.84-4.75s-5.39 3.47-6.28 6.5-.62 6.29-.24 9.43.9 6.32.46 9.46" />
	<circle cx="465.83" cy="409.02" r="8.44" />
	<path fill="#cacaca" d="M648.48 810.14H1.2a1.2 1.2 0 0 1 0-2.39h647.3a1.2 1.2 0 0 1 0 2.39Z" />
</svg>
