<svg xmlns="http://www.w3.org/2000/svg" viewBox="0 0 888 710.81">
	<path fill="#ccc" d="M444.94 604.8a260.06 260.06 0 1 1 183.89-76.16 258.37 258.37 0 0 1-183.9 76.17Zm0-518.12c-142.3 0-258.07 115.77-258.07 258.06s115.77 258.07 258.07 258.07S703 487.04 703 344.74 587.23 86.68 444.94 86.68Z" />
	<path fill="#2f2e41" d="M541.5 381.8v262h-195v-262z" />
	<path fill="#3f3d56" d="M313 373.81h262v104H313zM313 489.81h262v104H313zM313 605.81h262v104H313z" />
	<path d="M313 417.9h262v16H313zM313 533.9h262v16H313zM313 649.9h262v16H313z" />
	<circle cx="524" cy="388.81" r="6" />
	<circle cx="545" cy="388.81" r="6" />
	<circle cx="566" cy="388.81" r="6" />
	<circle cx="524" cy="502.81" r="6" />
	<circle cx="545" cy="502.81" r="6" />
	<circle cx="566" cy="502.81" r="6" />
	<circle cx="524" cy="616.81" r="6" />
	<circle cx="545" cy="616.81" r="6" />
	<circle cx="566" cy="616.81" r="6" />
	<path fill="#3f3d56" d="M0 708.81h888v2H0z" />
	<path fill="#e6e6e6" d="M241.88 271.06v186a14.68 14.68 0 0 1-14.67 14.67h-72.28a14.68 14.68 0 0 1-14.68-14.67v-186a14.68 14.68 0 0 1 14.68-14.67h8.77a6.98 6.98 0 0 0 6.45 9.6h41.2a6.98 6.98 0 0 0 6.46-9.6h9.4a14.68 14.68 0 0 1 14.67 14.67Z" />
	<path fill="#fff" d="M145.06 291.91h92v128h-92z" />
	<path fill="#e6e6e6" d="M171.19 379.93h36.72v2.1h-36.72z" />
	<path d="M171.15 387.63h56.82v2.1h-56.82z" />
	<path fill="#e6e6e6" d="M171.15 394.89h44.59v2.1h-44.59zM171.15 402.15h26.23v2.1h-26.23zM171.15 409.41h39.34v2.1h-39.34zM154.53 379.32h4.2v4.2h-4.2z" />
	<path d="M154.53 386.58h4.2v4.2h-4.2z" />
	<path fill="#e6e6e6" d="M154.53 393.84h4.2v4.2h-4.2zM154.53 401.1h4.2v4.2h-4.2zM154.53 408.36h4.2v4.2h-4.2zM172.75 307.91h37v37h-37zM321.11.14h245.88v157.47H321.11z" />
	<path fill="#fff" d="M339.65 44.2h203.86v77.04H339.65z" />
	<path fill="#e6e6e6" d="M376.79 57.54h48.93v2.8h-48.93z" />
	<path d="M376.74 67.81h75.71v2.8h-75.71z" />
	<path fill="#e6e6e6" d="M376.74 77.48h59.41v2.8h-59.41zM376.74 87.15h34.95v2.8h-34.95zM376.74 96.82h52.42v2.8h-52.42zM354.6 56.74h5.59v5.59h-5.59z" />
	<path d="M354.6 66.41h5.59V72h-5.59z" />
	<path fill="#e6e6e6" d="M354.6 76.08h5.59v5.59h-5.59zM354.6 85.75h5.59v5.59h-5.59zM354.6 95.42h5.59v5.59h-5.59zM483.45 53.85h50.06v50.06h-50.06z" />
	<path d="M321.01 0h245.88v10.45H321.01z" />
	<circle cx="328.77" cy="5.34" r="2.1" fill="#fff" />
	<circle cx="336.12" cy="5.34" r="2.1" fill="#fff" />
	<circle cx="343.47" cy="5.34" r="2.1" fill="#fff" />
	<path fill="#e6e6e6" d="M671.65 294.81h60v31h-60zM671.65 405.81h60v31h-60z" />
	<circle cx="701.65" cy="365.81" r="50" fill="#e6e6e6" />
	<circle cx="701.65" cy="365.81" r="39" fill="#fff" />
	<path fill="#e2e2e2" d="M688.88 355.12h30.25v1.73h-30.25z" />
	<path d="M688.85 361.47h46.8v1.73h-46.8z" />
	<path fill="#e2e2e2" d="M688.85 367.45h36.73v1.73h-36.73zM688.85 373.43h21.6v1.73h-21.6zM688.85 379.41h32.41v1.73h-32.41zM675.16 354.62h3.46v3.46h-3.46z" />
	<path d="M675.16 360.6h3.46v3.46h-3.46z" />
	<path fill="#e2e2e2" d="M675.16 366.58h3.46v3.46h-3.46zM675.16 372.56h3.46v3.46h-3.46zM675.16 378.54h3.46V382h-3.46z" />
</svg>
