<svg xmlns="http://www.w3.org/2000/svg" viewBox="0 0 649.68 568.22">
	<path fill="#f2f2f2" d="m122.08 400.15-6.7 52.78-9.86-59.96C58.14 374.8 2.74 371.27 2.74 371.27S-9.5 485.76 30.87 533.64s82.93 40.6 118.04 11 49.48-70.32 9.12-118.2c-8.99-10.65-21.67-19.3-35.95-26.3Z" />
	<path fill="#fff" d="m108.94 460.9 1.99 2.37c22.98 27.55 36.4 52.85 40.03 75.58l.15.99-1.53.23-1.49.21c-3.65-24.76-19.48-50.77-39.52-74.8-.64-.79-1.29-1.58-1.96-2.35a416.61 416.61 0 0 0-29.42-31.08 611.76 611.76 0 0 0-38.62-33.96 609.65 609.65 0 0 0-37.21-28.07l-.68-.47.84-1.25v-.02l.86-1.26a640.06 640.06 0 0 1 38.33 28.77l2.36 1.92a623.08 623.08 0 0 1 29.1 25.26q3.79 3.49 7.38 6.97c.75.7 1.5 1.42 2.22 2.13q15.22 14.78 27.17 28.84Z" />
	<path fill="#fff" d="M40.7 395.79c-.69.76-1.4 1.54-2.13 2.3a84.3 84.3 0 0 1-6.3 5.9A82 82 0 0 1 0 420.7l.1 3.12a85.04 85.04 0 0 0 34.14-17.51 87.22 87.22 0 0 0 6.72-6.3c.72-.76 1.43-1.53 2.11-2.3a84.33 84.33 0 0 0 13.88-21.36l-3.07-.65a81.72 81.72 0 0 1-13.17 20.08ZM79.55 429.94q-1.15 1.09-2.36 2.1c-.23.23-.5.44-.74.65a82.44 82.44 0 0 1-74.51 16.59c.11 1.08.23 2.17.36 3.25a85.5 85.5 0 0 0 76.12-17.5l.98-.84c.8-.7 1.59-1.4 2.37-2.12a85.05 85.05 0 0 0 24.4-41.36l-2.88-1.11a81.87 81.87 0 0 1-23.74 40.34Z" />
	<path fill="#fff" d="M108.94 460.9a75.39 75.39 0 0 1-4.9 4.5 82.66 82.66 0 0 1-98.93 5.61c.27 1.39.53 2.77.83 4.14A85.69 85.69 0 0 0 106 467.74c.88-.74 1.75-1.49 2.57-2.27.81-.72 1.59-1.45 2.36-2.2a85.44 85.44 0 0 0 25.37-57.39c-.97-.66-1.97-1.27-2.98-1.9a82.4 82.4 0 0 1-24.38 56.93Z" />
	<path fill="#3f3d56" d="M372.87 134.32V49.24A49.24 49.24 0 0 0 323.63 0H143.4a49.24 49.24 0 0 0-49.24 49.24v56.5h-3.17v19.91h3.17v21.24h-3.17v30.52h3.17v13.28h-3.17v30.52h3.17v294.77a49.24 49.24 0 0 0 49.24 49.24h180.24a49.24 49.24 0 0 0 49.24-49.24v-321.1h3.1v-60.56Z" />
	<path fill="#fff" d="M325.62 12.81h-23.53a17.47 17.47 0 0 1-16.17 24.07H182.66a17.47 17.47 0 0 1-16.18-24.07h-21.97a36.77 36.77 0 0 0-36.78 36.77v466.06a36.77 36.77 0 0 0 36.78 36.77h181.11a36.77 36.77 0 0 0 36.77-36.77V49.58a36.77 36.77 0 0 0-36.77-36.77Z" />
	<path d="M330.18 175H139.95a5 5 0 0 1-5-5V92.82a5 5 0 0 1 5-5h190.23a5 5 0 0 1 5 5V170a5 5 0 0 1-5 5ZM312.06 211.53h-154a5.5 5.5 0 0 1 0-11h154a5.5 5.5 0 0 1 0 11Z" />
	<path fill="#e4e4e4" d="M312.06 239.53h-154a6 6 0 0 1 0-12h154a6 6 0 0 1 0 12ZM312.06 267.03h-154a6 6 0 0 1 0-12h154a6 6 0 0 1 0 12ZM330.18 406H139.95a5 5 0 0 1-5-5v-77.18a5 5 0 0 1 5-5h190.23a5 5 0 0 1 5 5V401a5 5 0 0 1-5 5ZM312.06 443.03h-154a6 6 0 0 1 0-12h154a6 6 0 0 1 0 12ZM312.06 470.53h-154a6 6 0 0 1 0-12h154a6 6 0 0 1 0 12ZM312.06 498.03h-154a6 6 0 0 1 0-12h154a6 6 0 0 1 0 12Z" />
	<path fill="#2f2e41" d="M484.9 146.34c-1.93-14.2-4.36-29.43-14.37-39.67a33.66 33.66 0 0 0-48.62.5c-7.29 7.77-10.5 18.69-10.8 29.34s2.08 21.17 4.71 31.5a97.1 97.1 0 0 0 40.52-7.98 65.29 65.29 0 0 1 9.72-3.81c3.37-.86 5.78 1.3 8.92 2.8l1.72-3.3c1.41 2.63 5.78 1.86 7.37-.67 1.58-2.53 1.24-5.76.83-8.71Z" />
	<path fill="#9e616a" d="m612.43 535.01-10.22 6.76-30.95-36.22 15.09-9.99 26.08 39.45z" />
	<path fill="#2f2e41" d="M621.6 543.2 588.62 565l-.27-.42a15.39 15.39 0 0 1 4.34-21.32l20.14-13.32Z" />
	<path fill="#9e616a" d="M480.43 553.12h-12.26l-5.83-47.29h18.09v47.29z" />
	<path fill="#2f2e41" d="M483.56 565h-39.54v-.5a15.39 15.39 0 0 1 15.4-15.39h24.14Z" />
	<path fill="#9e616a" d="m393.2 228.15-46.29-33.07a9 9 0 1 0-10.8 7.75c5.78 4.86 48.04 46.89 54.1 44.67 6.14-2.25 32.99-6.32 32.99-6.32l.74-25.5Z" />
	<path fill="#2f2e41" d="m429.57 288.3.44 58.19s10.01 86.2 13.7 100.76 18.7 81.94 18.7 81.94l24.38-3.93-15.7-88.1 4.75-73.01 27.36 73.18 69.48 72.63 17.61-14.21-60.48-88.88-18.47-72.81s2.3-37.66-18.4-52.17Z" />
	<circle cx="443.57" cy="133.66" r="26.72" fill="#9e616a" />
	<path fill="#2f2e41" d="m440.6 319.86 9.93-22.16 28.82 12.9-9.93 22.18z" />
	<path fill="#e4e4e4" d="M486.37 185.07c-3.15-6.27-4.68-14.01-11.4-16.04-4.52-1.37-22.86.68-27 3-6.86 3.85-.64 11.07-4.69 17.82l-13.22 22.04c-3.03 5.04-6.1 10.16-7.73 15.82-1.64 5.66-1.72 12 1.07 17.19 2.5 4.64 7.02 7.93 9.54 12.56 2.6 4.82-2.08 26.33-4.51 31.25l1.17.53a263.09 263.09 0 0 0 48.44-1.63c4-.5 8.13-1.16 11.42-3.47 4.84-3.41 6.75-9.6 7.95-15.4a129.68 129.68 0 0 0-11.04-83.67Z" />
	<path fill="#e4e4e4" d="M431.69 245.76c7.24-7.11 14.51-14.27 20.47-22.49s10.6-17.62 11.89-27.69a20.5 20.5 0 0 0-.64-9.62c-1.11-3.04-3.57-5.75-6.74-6.45-5.07-1.1-9.68 2.94-13.3 6.66l-32.02 32.94 20.4 26.84Z" />
	<path fill="#9e616a" d="M510.59 251.24c-2.25-6.14-6.32-33-6.32-33l-25.5-.74 12.47 30.74-34.02 47.62.18.3a9 9 0 1 0 7.55 9.55.62.62 0 0 0 .77-.13c3.79-4.75 47.12-48.2 44.87-54.34Z" />
	<path fill="#e4e4e4" d="M513.18 234.28c-2.34-9.87-4.7-19.8-8.64-29.16s-9.6-18.18-17.54-24.5a20.5 20.5 0 0 0-8.56-4.43c-3.18-.63-6.77.08-9 2.43-3.59 3.76-2.5 9.8-1.2 14.82l11.61 44.45 33.52-3.56Z" />
	<path fill="#2f2e41" d="M476.98 135.73c-.84-6.46-1.7-12.98-3.67-19.06-1.96-6.1-5.13-11.8-9.67-15.24-7.18-5.46-16.48-4.4-24.54-1.27-6.23 2.43-12.31 6.12-16.7 12.06-4.4 5.93-6.87 14.4-5.23 22.16l25.78-7.18-.94.79c5.57 3.14 9.8 9.64 11.07 17a28.72 28.72 0 0 1-4.53 21.04l17.58-7.35c3.62-1.51 7.49-3.25 9.63-7.13 2.49-4.5 1.91-10.45 1.22-15.82Z" />
	<path d="m350.82 177.62-17.19 25.8a4.47 4.47 0 0 1-3.76 2 4.48 4.48 0 0 1-4.13-2.75 4.13 4.13 0 0 1-.27-.86 4.51 4.51 0 0 1 .67-3.38l17.19-25.8a4.5 4.5 0 1 1 7.49 5Z" />
	<path fill="#3f3d56" d="m335.02 201.34-3.48 5.2-6.16 5.42a2.45 2.45 0 0 1-3.94-2.63l2.7-7.89 3.39-5.09ZM351.58 164.1l-8.62 7.59a2.45 2.45 0 0 0 .27 3.88l1.63 1.09-4.72 7.07a1 1 0 0 0 1.67 1.1l4.71-7.07 1.63 1.09a2.46 2.46 0 0 0 3.4-.67 2.47 2.47 0 0 0 .28-.58l3.7-10.88a2.45 2.45 0 0 0-3.95-2.62ZM648.48 567.1H1.2a1.2 1.2 0 0 1 0-2.37h647.3a1.2 1.2 0 0 1 0 2.38Z" />
	<path fill="#fff" d="M241.81 21.53h-27a2 2 0 0 1 0-4h27a2 2 0 0 1 0 4Z" />
	<circle cx="255.31" cy="19.53" r="2" fill="#fff" />
</svg>
