<svg xmlns="http://www.w3.org/2000/svg" viewBox="0 0 821.17 687.8">
	<path fill="#9e616a" d="M755.99 674.56h-12.26l-5.83-47.29H756l-.01 47.29z" />
	<path fill="#2f2e41" d="M759.12 686.44H719.6v-.5a15.39 15.39 0 0 1 15.39-15.39h24.14Z" />
	<path fill="#9e616a" d="M708.99 674.56h-12.26l-5.83-47.29H709l-.01 47.29z" />
	<path fill="#2f2e41" d="M712.12 686.44H672.6v-.5a15.39 15.39 0 0 1 15.39-15.39h24.14Z" />
	<path fill="#3f3d56" d="M179.33 684.61v-379.8a8.82 8.82 0 0 1 8.82-8.83h39.36a8.82 8.82 0 0 1 8.82 8.82v380.8Z" data-name="Path 1495" />
	<path fill="#3f3d56" d="M309.33 685.8v-302a8.82 8.82 0 0 1 8.82-8.82h39.36a8.82 8.82 0 0 1 8.82 8.82v301.35Z" data-name="Path 1496" />
	<path fill="#3f3d56" d="M78.33 327a3 3 0 0 1-2.23-5l131.6-146.8 129.52 72.74 130.3-224.5 132.72 109.24a3 3 0 1 1-3.81 4.64L469.15 32.56l-129.7 223.5-130.49-73.27L80.56 326a3 3 0 0 1-2.23 1Z" />
	<circle cx="77.83" cy="324" r="28" data-name="Ellipse 300" />
	<circle cx="207.83" cy="179" r="28" fill="#ccc" data-name="Ellipse 301" />
	<circle cx="337.83" cy="252" r="28" fill="#e6e6e6" data-name="Ellipse 302" />
	<circle cx="467.83" cy="28" r="28" data-name="Ellipse 303" />
	<circle cx="717.83" cy="236.53" r="28" data-name="Ellipse 304" />
	<path fill="#3f3d56" d="M707.93 454.66c10.48 1.26 37.28-8.3 38.73 6.24 13.8 40.6 13.39 196.26 13.39 196.26l-21 1s-16.78-123.68-24.72-150.13c-3.98 32.15-3.28 155.13-3.28 155.13l-19 1S675 559.44 674.9 528.7c-2.07-22.52 3-55.88.83-77.64a83.22 83.22 0 0 0 32.2 3.59Z" data-name="Path 1507" />
	<path fill="#3f3d56" d="M569.33 684.45V246.7c0-5.61 3.95-10.16 8.82-10.16h39.36c4.87 0 8.82 4.55 8.82 10.16v438.9Z" data-name="Path 1513" />
	<path fill="#9e616a" d="M672.28 336.86a130.66 130.66 0 0 0-15.3-24.17 38.32 38.32 0 0 1-3.4-4.64c-2.16-3.73-2.8-8.11-4.16-12.2-3.8-11.43-13.28-20.62-15.59-32.45-.84-4.3-7.93 8.2-6.07 13.53 3.33 9.65 3.76 19.87 8 29.19s9.22 18.26 12.88 27.79c2.08 5.4 3.74 11 6.8 16s7.8 9.19 13.55 9.94a33.45 33.45 0 0 1 1.63-10.68c1.25-3.94 3.47-8.58 1.66-12.31Z" data-name="Path 1508" />
	<path fill="#9e616a" d="M735.2 343.34a55.26 55.26 0 0 1 3.24-20.78c.92-2.55 2-5.14 1.91-7.85-.13-2.52-1.33-4.83-2.42-7.11-3.76-7.85-6.4-16.17-9-24.47l-5-15.65c-1.63-1.2 7.9-1.61 9.92 1.2 6.64 9.22 11.67 19.8 16.93 29.88a50.58 50.58 0 0 1 3.42 7.49 41.19 41.19 0 0 1 1.8 12.94c0 8.19-1.08 16.35-2.2 24.47-.7 5.09-1.64 10.63-5.49 14-4-5.12-8.02-10.12-13.12-14.12Z" data-name="Path 1509" />
	<circle cx="708.75" cy="314.48" r="20.75" fill="#9e616a" data-name="Ellipse 307" />
	<path fill="#2d293d" d="M691.88 293.78a3.6 3.6 0 0 1 .76-3.72c.52-.41 1.21-.56 1.77-.95a7.6 7.6 0 0 0 1.9-2.4 10.32 10.32 0 0 1 12.9-3.28c3.43 1.8 5.5 5.39 8.55 7.8 1.55 1.26 3.35 2.2 4.9 3.45a20.15 20.15 0 0 1 6.36 10.27 58.31 58.31 0 0 1 1.76 12.13 10.9 10.9 0 0 1-.14 3.68 10.32 10.32 0 0 1-1.4 2.85c-3.13 4.75-7.26 9.07-12.44 11.52s-11.48 2.85-16.58.28a2.85 2.85 0 0 1-1.27-1.01 3.66 3.66 0 0 1-.2-2.2 15.02 15.02 0 0 0-1.66-8.4c-.95-1.9-2.37-3.54-3.13-5.5a19.16 19.16 0 0 1-.9-6.82c-.08-5.99.32-11.94-1.18-17.7Z" data-name="Path 1512" />
	<path fill="#3f3d56" d="M49.33 685.05V473.71c0-2.71 3.95-4.9 8.82-4.9h39.36c4.87 0 8.82 2.2 8.82 4.9v211.9Z" data-name="Path 1514" />
	<path fill="#e6e6e6" d="M820.17 687.8H1a1 1 0 1 1 0-2h819.17a1 1 0 0 1 0 2Z" data-name="Path 944" />
	<path d="M439.33 684.3V187.55c0-6.37 3.95-11.54 8.82-11.54h39.36c4.87 0 8.82 5.17 8.82 11.54V685.6Z" data-name="Path 1515" />
	<circle cx="627.18" cy="265.37" r="9" fill="#a0616a" />
	<circle cx="727.18" cy="261.37" r="9" fill="#a0616a" />
	<path fill="#e6e6e6" d="M749.05 372.78c.88-.8 8.04-42.68 8-43.62-.11-5.16-15.85-11.05-19-9-2.97 1.93-8.15 24.12-11.48 28.16l-3.52-6.16h-28l-1.7 3.15c-3.67-2.21-6.98-4.25-8.16-4.93a5.3 5.3 0 0 0-1.3-.64 20.31 20.31 0 0 1-8-3.76c-2.3-1.77-12.98-20.31-15.84-19.82-3.23.54-14.13 9.96-14 19 1.37-.03 19.21 35.65 19.46 36.98 1.37 5.62 5.9 87.58 7.36 91.4 6.72-.65 1.41-1.81 7.92 0 7.01 1.95 14.41-.16 21.64-.94a83.11 83.11 0 0 1 9.06-.4c11 .05 26.7.66 37.35 3.39.06-6.98-6.07-22.08-8.34-28.67a19.25 19.25 0 0 1 .03-5.94c.3-2.41 6.15-55.54 8.52-58.2Z" />
</svg>
