<svg xmlns="http://www.w3.org/2000/svg" viewBox="0 0 643 447.57">
	<path fill="#3f3d56" d="M613.07 87.06H29.93A29.96 29.96 0 0 1 0 57.14V29.93A29.96 29.96 0 0 1 29.93 0h583.14A29.96 29.96 0 0 1 643 29.93v27.2a29.96 29.96 0 0 1-29.93 29.93ZM29.93 1.81A28.15 28.15 0 0 0 1.8 29.93v27.2a28.15 28.15 0 0 0 28.12 28.12h583.14a28.15 28.15 0 0 0 28.12-28.11V29.93A28.15 28.15 0 0 0 613.07 1.8Z" />
	<rect width="421.71" height="34.46" x="57.14" y="26.3" fill="#e6e6e6" rx="17.23" />
	<rect width="421.71" height="34.46" x="107.92" y="177.43" rx="17.23" />
	<rect width="421.71" height="34.46" x="107.92" y="287" fill="#e6e6e6" rx="17.23" />
	<rect width="421.71" height="34.46" x="107.92" y="396.58" fill="#e6e6e6" rx="17.23" />
	<path d="M586.31 62.15a2.71 2.71 0 0 1-3.78.66l-14.8-10.3a2.71 2.71 0 1 1 3.1-4.45l14.82 10.3a2.71 2.71 0 0 1 .66 3.79Z" />
	<path d="M569.5 50.44a19.27 19.27 0 1 1-4.73-26.83 19.29 19.29 0 0 1 4.73 26.83ZM541.88 31.1a14.45 14.45 0 1 0 20.13-3.55 14.47 14.47 0 0 0-20.13 3.55Z" />
	<path fill="#3f3d56" d="M596.3 228.33H46.7a.9.9 0 1 1 0-1.81h549.6a.9.9 0 1 1 0 1.81ZM596.3 337.95H46.7a.9.9 0 0 1 0-1.81h549.6a.9.9 0 0 1 0 1.81ZM596.3 447.57H46.7a.9.9 0 0 1 0-1.81h549.6a.9.9 0 1 1 0 1.81Z" />
</svg>
