<svg xmlns="http://www.w3.org/2000/svg" viewBox="0 0 846.14 772.41">
	<path fill="#3f3d56" d="m811.83 262.42-3.8-1.27 34.8-103.88a63.4 63.4 0 0 0-39.97-80.25L582.78 3.3a63.4 63.4 0 0 0-80.25 39.98l-190.9 569.85a63.4 63.4 0 0 0 39.98 80.26l220.07 73.72a63.4 63.4 0 0 0 80.25-39.98l131.33-392.04 3.8 1.27Z" data-name="Path 2389" />
	<path fill="#fff" d="m800.03 93.47-28.72-9.62a22.5 22.5 0 0 1-29.6 22.77L615.65 64.4a22.5 22.5 0 0 1-9.9-36l-26.83-8.99a47.35 47.35 0 0 0-59.93 29.86l-190.62 569a47.35 47.35 0 0 0 29.86 59.94l221.12 74.08a47.35 47.35 0 0 0 59.94-29.86l190.61-569.01a47.35 47.35 0 0 0-29.86-59.94Z" data-name="Path 2390" />
	<path fill="#3f3d56" d="m744.73 284.37-235.98-79.05a4.61 4.61 0 0 1-2.9-5.83l19.6-58.54a4.61 4.61 0 0 1 5.84-2.91l235.98 79.05a4.61 4.61 0 0 1 2.91 5.84l-19.61 58.54a4.61 4.61 0 0 1-5.83 2.9ZM530.7 139.8a2.77 2.77 0 0 0-3.5 1.74l-19.6 58.54a2.77 2.77 0 0 0 1.74 3.5l235.98 79.06a2.77 2.77 0 0 0 3.5-1.75l19.61-58.53a2.77 2.77 0 0 0-1.74-3.5Z" data-name="Path 2391" />
	<path fill="#3f3d56" d="m667.15 515.99-235.99-79.05a4.61 4.61 0 0 1-2.9-5.84l36.3-108.35a4.61 4.61 0 0 1 5.83-2.91l235.98 79.05a4.61 4.61 0 0 1 2.91 5.83l-36.3 108.36a4.61 4.61 0 0 1-5.83 2.9ZM469.8 321.59a2.77 2.77 0 0 0-3.5 1.74L430 431.7a2.77 2.77 0 0 0 1.75 3.5l235.98 79.05a2.77 2.77 0 0 0 3.5-1.74l36.3-108.36a2.77 2.77 0 0 0-1.74-3.5Z" data-name="Path 2392" />
	<path fill="#e6e6e6" d="m712.53 374.69-104.87-35.14a4.61 4.61 0 0 1-2.91-5.84l19.6-58.54a4.61 4.61 0 0 1 5.84-2.9l104.89 35.14a4.61 4.61 0 0 1 2.9 5.83l-19.6 58.54a4.61 4.61 0 0 1-5.85 2.9Zm-82.92-100.67a2.77 2.77 0 0 0-3.5 1.74L606.5 334.3a2.77 2.77 0 0 0 1.74 3.5l104.88 35.14a2.77 2.77 0 0 0 3.5-1.75l19.61-58.54a2.77 2.77 0 0 0-1.74-3.5Z" data-name="Path 2393" />
	<path fill="#e6e6e6" d="m488.61 613.66-104.88-35.13a4.61 4.61 0 0 1-2.9-5.84l36.59-109.23a4.61 4.61 0 0 1 5.83-2.9l104.88 35.13a4.61 4.61 0 0 1 2.91 5.83l-36.6 109.23a4.61 4.61 0 0 1-5.83 2.91ZM422.66 462.3a2.77 2.77 0 0 0-3.5 1.75l-36.59 109.23a2.77 2.77 0 0 0 1.75 3.5L489.2 611.9a2.77 2.77 0 0 0 3.5-1.74l36.59-109.23a2.77 2.77 0 0 0-1.74-3.5Z" data-name="Path 2394" />
	<path fill="#e6e6e6" d="m617.97 657-104.89-35.14a4.61 4.61 0 0 1-2.9-5.84l36.59-109.23a4.61 4.61 0 0 1 5.83-2.9l104.89 35.13a4.61 4.61 0 0 1 2.9 5.84L623.8 654.09a4.61 4.61 0 0 1-5.83 2.9Zm-65.95-151.36a2.77 2.77 0 0 0-3.5 1.74l-36.6 109.23a2.77 2.77 0 0 0 1.75 3.5l104.88 35.14a2.77 2.77 0 0 0 3.5-1.75l36.6-109.23a2.77 2.77 0 0 0-1.75-3.5Z" data-name="Path 2395" />
	<circle cx="492.45" cy="369.92" r="18.77" data-name="Ellipse 477" />
	<path fill="#e6e6e6" d="M537.53 371.83a3.13 3.13 0 1 0-1.98 5.93l139.87 46.85a3.13 3.13 0 1 0 1.98-5.93Z" data-name="Path 2396" />
	<path fill="#e6e6e6" d="M531.57 389.63a3.13 3.13 0 1 0-1.98 5.93l60.18 20.16a3.13 3.13 0 1 0 1.99-5.93Z" data-name="Path 2397" />
	<path fill="#e6e6e6" d="M467.27 399.74c-2.25-.76-4.54-.04-5.08 1.6s.84 3.58 3.1 4.34l192.97 64.64c2.26.76 4.54.04 5.09-1.6s-.84-3.58-3.1-4.34Z" data-name="Path 2398" />
	<path fill="#e6e6e6" d="M461.31 417.54c-2.26-.75-4.54-.04-5.09 1.6s.85 3.58 3.1 4.34l192.98 64.64c2.26.76 4.54.04 5.09-1.6s-.85-3.58-3.1-4.33Z" data-name="Path 2399" />
	<circle cx="557.44" cy="181.72" r="18.77" data-name="Ellipse 478" />
	<path fill="#e6e6e6" d="M602.53 183.62a3.13 3.13 0 1 0-2 5.94l139.88 46.85a3.13 3.13 0 1 0 1.99-5.93Z" data-name="Path 2400" />
	<path fill="#e6e6e6" d="M596.56 201.42a3.13 3.13 0 1 0-1.98 5.94l60.18 20.16a3.13 3.13 0 1 0 1.99-5.93Z" data-name="Path 2401" />
	<path fill="#e6e6e6" d="m583.09 331.33-98.4-32.96 36.6-32.35a4.99 4.99 0 0 1 8.19 2.75l4.15 20.44 26.58-23.5a6.24 6.24 0 0 1 10.25 3.44Zm-94.78-33.7 92.33 30.94-11.99-59.05a4.4 4.4 0 0 0-7.22-2.42l-28.97 25.61-4.79-23.57a3.14 3.14 0 0 0-5.16-1.73Z" data-name="Path 2402" />
	<path fill="#e6e6e6" d="M583.18 331.35 478.3 296.22a4.61 4.61 0 0 1-2.9-5.84l19.6-58.53a4.61 4.61 0 0 1 5.84-2.91l104.88 35.14a4.61 4.61 0 0 1 2.9 5.83l-19.6 58.54a4.61 4.61 0 0 1-5.84 2.9ZM500.25 230.7a2.77 2.77 0 0 0-3.5 1.74l-19.6 58.54a2.77 2.77 0 0 0 1.74 3.5l104.88 35.13a2.77 2.77 0 0 0 3.5-1.74l19.61-58.54a2.77 2.77 0 0 0-1.74-3.5Z" data-name="Path 2404" />
	<path fill="#e6e6e6" d="M438.05 490.57a3.13 3.13 0 1 0-1.99 5.93l60.19 20.16a3.13 3.13 0 0 0 1.99-5.93Z" data-name="Path 2405" />
	<path fill="#e6e6e6" d="M432.2 508.05a3.13 3.13 0 1 0-2 5.93l60.2 20.17a3.13 3.13 0 0 0 1.98-5.94Z" data-name="Path 2406" />
	<path fill="#e6e6e6" d="M603.16 626.98a3.13 3.13 0 0 0 2-5.93l-60.2-20.16a3.13 3.13 0 0 0-1.98 5.93Z" data-name="Path 2408" />
	<path fill="#e6e6e6" d="M609.02 609.5a3.13 3.13 0 1 0 1.99-5.93l-60.19-20.17a3.13 3.13 0 1 0-1.98 5.94ZM703.02 329.5a3.13 3.13 0 1 0 1.99-5.93l-60.19-20.17a3.13 3.13 0 1 0-1.98 5.94ZM698.02 343.5a3.13 3.13 0 1 0 1.99-5.93l-60.19-20.17a3.13 3.13 0 1 0-1.98 5.94Z" data-name="Path 2409" />
	<g data-name="Group 161">
		<circle cx="193.99" cy="277.2" r="31.83" fill="#9f616a" data-name="Ellipse 476" />
		<path fill="#2f2e41" d="M175.6 281.14c2.51-.15 4.98.7 7.48 1.03 8.97 1.2 18.3-5.31 20.27-14.14a10.85 10.85 0 0 1 1.04-3.38c1.38-2.25 4.52-2.68 7.11-2.16s5.05 1.73 7.69 1.87c4.07.21 7.98-2.3 10.15-5.75a19.49 19.49 0 0 0 2.5-11.77l-1.96 2.05a9.92 9.92 0 0 1-.88-5.39 6.25 6.25 0 0 0-5.93 1.52c-1.72.18-.42-3.2-1.7-4.36a2.96 2.96 0 0 0-2.08-.4c-3.66.04-6.63-2.76-9.51-5.01a40.42 40.42 0 0 0-17.07-7.79c-4.14-.8-8.54-.94-12.46.6a26.6 26.6 0 0 0-8.41 5.97c-6.14 5.9-11.58 12.84-14.13 20.97a35.3 35.3 0 0 0-.17 20.47c1.03 3.47 4.13 15.37 8.67 15.65 5.7.35 2.28-9.56 9.38-9.98Z" data-name="Path 2387" />
		<path fill="#a0616a" d="M131.51 532.04a14.64 14.64 0 0 0 2.16-22.34l5.68-126.77-28.92 3.25 1.68 124a14.72 14.72 0 0 0 19.4 21.87Z" data-name="Path 111" />
		<path fill="#a0616a" d="m184.26 746.63 16.46 2.9 16.26-62.1-21.56-4.27Z" data-name="Path 112" />
		<path fill="#2f2e41" d="m229.65 770.4-51.72-9.13 3.53-19.98 31.74 5.6a20.3 20.3 0 0 1 16.45 23.52Z" data-name="Path 113" />
		<path fill="#a0616a" d="M139.1 754.87h16.7l7.95-64.44h-24.66Z" data-name="Path 114" />
		<path fill="#2f2e41" d="M188 770.38h-52.5V750.1h32.22A20.29 20.29 0 0 1 188 770.38Z" data-name="Path 115" />
		<path fill="#2f2e41" d="M208.8 731.77a6.46 6.46 0 0 1-.78-.04l-19.66-1.62a6.65 6.65 0 0 1-5.83-7.38l.04-.34 19.53-96.32-12.27-64.7a2.22 2.22 0 0 0-4.39.22l-18.06 164.4a6.71 6.71 0 0 1-7.1 6.04l-18.53-.7a6.66 6.66 0 0 1-6.18-6.3l1.48-198.66 96.05-12L239.81 618l-.03.1-24.52 108.59a6.66 6.66 0 0 1-6.46 5.08Z" data-name="Path 116" />
		<path d="M200.25 541.49a27.4 27.4 0 0 1-14.8-4.23c-16.21-10.14-34.63-6.1-44.16-2.8a6.65 6.65 0 0 1-5.75-.66 6.56 6.56 0 0 1-3.03-4.84l-17.34-154.85c-2.9-25.95 12.72-50.34 37.16-58q1.38-.44 2.8-.82a53.93 53.93 0 0 1 44.94 7.8 54.8 54.8 0 0 1 23.4 40l14.6 155.89a6.55 6.55 0 0 1-2.09 5.46c-5.12 4.73-19.97 17.05-35.73 17.05Z" data-name="Path 117" />
		<path d="m147.46 407.31-39.12-4.3a7.8 7.8 0 0 1-6.69-9.72l9.96-37.95a21.64 21.64 0 1 1 43.03 4.61l-.02.25 1.48 39.08a7.8 7.8 0 0 1-8.64 8.03Z" data-name="Path 118" />
		<path fill="#a0616a" d="M237.9 526.62a14.64 14.64 0 0 0-.55-22.45l-9.64-126.52-28.33 6.37 16.63 123.22a14.72 14.72 0 0 0 21.9 19.38Z" data-name="Path 119" />
		<path d="M188.52 399.36a7.78 7.78 0 0 1-2.48-6l1.48-39.08a21.64 21.64 0 0 1 43-4.86l9.96 37.95a7.8 7.8 0 0 1-6.68 9.73l-39.12 4.3a7.78 7.78 0 0 1-6.16-2.05Z" data-name="Path 120" />
	</g>
	<path fill="#cacaca" d="M0 770.41h738.22v2H0z" data-name="Rectangle 256" />
</svg>
