<svg xmlns="http://www.w3.org/2000/svg" data-name="afcb9ff3-8250-4c7a-bd11-73381c22471b" viewBox="0 0 806 712.71">
	<path fill="#3f3d56" d="m770.3 711.77-1.08-.4c-.23-.1-23.7-9.09-34.7-29.48-11-20.4-5.61-44.95-5.56-45.2l.26-1.1 1.07.4c.23.08 23.7 9.07 34.7 29.47 11 20.39 5.61 44.94 5.56 45.19Zm-34.02-30.83c9.3 17.24 27.84 26.08 32.54 28.1.9-5.04 3.7-25.41-5.59-42.63-9.29-17.23-27.84-26.08-32.54-28.1-.9 5.04-3.7 25.4 5.59 42.63Z" />
	<path d="M742.92 674.74c19.76 11.88 27.37 35.5 27.37 35.5s-24.43 4.34-44.19-7.55-27.37-35.5-27.37-35.5 24.43-4.34 44.2 7.55Z" />
	<path fill="#ffb7b7" d="M424.8 381.96a12.52 12.52 0 0 1 18.45-2.87 11.92 11.92 0 0 1 1.21 1.15l49.21-7.16 2.74-37a10.73 10.73 0 0 1 21.41 1.57l-.02.2-4.8 51.93-.02.11a9.72 9.72 0 0 1-9.4 6.82l-57.87-1a11.71 11.71 0 0 1-.73 1 12.52 12.52 0 0 1-18.67.76q-.37-.38-.7-.8a12.56 12.56 0 0 1-.82-14.7ZM524.01 697.48h-14.04l-6.68-54.14h20.72v54.14z" />
	<path fill="#2f2e41" d="M527.59 711.08h-45.26v-.57a17.62 17.62 0 0 1 17.61-17.61h27.65Z" />
	<path fill="#ffb7b7" d="m622.08 684.75-13.28 4.53L585 640.2l19.61-6.68 17.47 51.23z" />
	<path fill="#2f2e41" d="m629.86 696.47-42.83 14.61-.19-.54a17.62 17.62 0 0 1 10.99-22.36l26.16-8.92ZM539.46 224.13s-13.97-4.62-22.95 13.84-22.95 38.75-22.95 38.75l7.98 1.85s2-12.92 6.99-14.77l-2 16.61s59.87 19.38 86.82-1.84l-1-6.46s3.99.92 3.99 6.46l3-2.77s-3-5.54-11.98-12.92c-5.9-4.84-7.92-14.06-8.62-19.83a23.1 23.1 0 0 0-5.97-13.06c-5.97-6.4-16.84-13.2-33.3-5.86Z" />
	<circle cx="544.61" cy="263.09" r="25.52" fill="#ffb7b7" />
	<path fill="#cbcbcb" d="m510.59 309.61-4.64-1.54s-9.28 3.86-9.28 10.82-1.54 34.8-1.54 34.8L516 356Z" />
	<path fill="#ffb7b7" d="M593.62 461.7a12.06 12.06 0 0 1-.27-15.75L580.32 336.9a9.72 9.72 0 0 1 19.42-1v.1l11.66 109.19a11.71 11.71 0 0 1 1.16 1.36 12.14 12.14 0 0 1-2.72 16.96l-.41.28a12.15 12.15 0 0 1-10.27 1.48 12 12 0 0 1-5.54-3.56Z" />
	<path fill="#cbcbcb" d="m581.7 353.68 20.87-2.31s-1.55-27.84-1.55-34.8-9.27-10.82-9.27-10.82l-4.64 1.54Z" />
	<path fill="#2f2e41" d="M513.68 392.3s-17.78 32.52-17.78 71.95-1.55 220.36-1.55 220.36 23.2 10.82 37.12-2.32l12.37-200.26 48.7 196.4s23.2 4.63 34.03-3.1l-20.88-136.85s-8.5-128.35-31.7-137.63-60.3-8.55-60.3-8.55ZM517.04 263.25c9.03-6.54 16.34-14.07 21.18-23.02 0 0 16.58 18.41 26.7 19.34s.93-22.1.93-22.1l-18.42-4.61-17.5 1.84-13.81 9.21Z" />
	<path fill="#cbcbcb" d="M570.13 301.1s.73-.39-43.3 1.22l-18.43 5.07-2.45.68s2.32 46.39 8.5 54.9 4.65 13.14 3.1 13.91-5.41-.77-3.1 3.1 5.42 1.54 2.33 3.86-4.64 10.82-4.64 10.82l68.04 9.28s2.32-30.15 8.5-45.62 7.73-21.65 7.73-21.65l-4.63-30.92Z" />
	<path fill="#3f3d56" d="M440.77 169.22h-3.92V62.04A62.04 62.04 0 0 0 374.82 0h-227.1A62.04 62.04 0 0 0 85.7 62.04v588.03a62.04 62.04 0 0 0 62.04 62.04h227.09a62.04 62.04 0 0 0 62.03-62.04V245.52h3.92Z" />
	<path fill="#fff" d="M423.65 62.47v587.17a46.29 46.29 0 0 1-46.25 46.33H149.14a46.3 46.3 0 0 1-46.33-46.26V62.47a46.3 46.3 0 0 1 46.27-46.33h27.74a22 22 0 0 0 20.38 30.32h130.1a22 22 0 0 0 20.38-30.32h29.64a46.29 46.29 0 0 1 46.33 46.25v.08Z" />
	<path fill="#e5e5e5" d="M423.65 149.34v-20h-30.27V19a46.19 46.19 0 0 0-16.06-2.86h-3.94v113.2h-105V46.46h-20v82.88h-88V16.14h-11.24a45.89 45.89 0 0 0-8.76.83v112.37h-37.57v20h37.57v46.26l-37.57 21.7v23.1l37.57-21.7v137.64h-37.57v20h37.57v199h-37.57v20h37.57v99.8a45.9 45.9 0 0 0 8.76.83h11.24V595.34h88v100.63h20V595.34h105v100.63h3.94a46.18 46.18 0 0 0 16.06-2.86v-97.77h30.27v-20h-30.27v-87h30v-20h-30v-92h30.27v-20h-30.27v-122h30.27v-20h-30.27v-65Zm-203.14 0-60.13 34.72v-34.72Zm-60.13 57.81 88-50.8v200h-88Zm0 368.2v-199h88v199Zm213 0h-105v-87h105Zm0-107h-105v-92h105Zm0-112h-105v-122h105Zm0-142h-105v-65h105Z" />
	<path d="M440.38 214.71c0 63.52-115 205-115 205s-115-141.48-115-205a115 115 0 0 1 230 0Z" />
	<path fill="#fff" d="M393.38 209.71a68 68 0 1 1-68-68 67.97 67.97 0 0 1 68 67.94Z" />
	<circle cx="325.15" cy="211.22" r="25.33" />
	<path d="M361.91 269.08a68.07 68.07 0 0 1-73.07 0 38 38 0 0 1 73.07 0Z" />
	<circle cx="325.38" cy="471.71" r="31" />
	<path fill="#cbcbcb" d="M805 712.71H1a1 1 0 0 1 0-2h804a1 1 0 0 1 0 2Z" />
</svg>
