<svg xmlns="http://www.w3.org/2000/svg" viewBox="0 0 596.38 544.04">
	<path fill="#f0f0f0" d="M553.48 419.95c27.14-18.18 46.62-50.49 42.14-82.84a150.5 150.5 0 0 1-92.28 46.48c-13.62 1.53-28.92 1.83-38.47 11.64-5.95 6.11-8.4 14.96-8.42 23.48-.02 8.53 2.14 16.89 4.28 25.14l-.48 2.07c32.63-1.62 66.1-7.78 93.23-25.97Z" />
	<path fill="#fff" d="M594.93 337.11a128.63 128.63 0 0 1-50.27 61.13 55.4 55.4 0 0 1-15.77 7.24 31.77 31.77 0 0 1-16.71-.43c-5.1-1.42-10.15-3.46-15.5-3.62a19.45 19.45 0 0 0-14.61 6.3c-4.76 4.9-7.46 11.24-9.89 17.51-2.7 6.98-5.38 14.26-10.99 19.47-.67.63.34 1.65 1.02 1.02 9.75-9.07 10.66-23.42 18.28-33.89 3.56-4.88 8.6-8.72 14.84-8.96 5.45-.21 10.65 1.89 15.8 3.37a33.9 33.9 0 0 0 16.33 1.03 51.2 51.2 0 0 0 16-6.6 124.8 124.8 0 0 0 29.76-25.2 130.91 130.91 0 0 0 23.1-38c.34-.86-1.05-1.22-1.39-.37Z" />
	<path fill="#fff" d="M552.27 393.97a19.3 19.3 0 0 0 24.66 4.03c.8-.48.09-1.74-.7-1.25a17.87 17.87 0 0 1-22.94-3.8c-.6-.7-1.61.32-1.02 1.02ZM514.66 406.11a37.2 37.2 0 0 1 11.66-24.47c.68-.63-.34-1.65-1.01-1.02a38.69 38.69 0 0 0-12.08 25.5c-.07.92 1.37.91 1.43 0ZM581.22 363.64a10.92 10.92 0 0 1-4.2-9.49c.08-.92-1.36-.91-1.43 0a12.24 12.24 0 0 0 4.6 10.5.74.74 0 0 0 1.03 0 .72.72 0 0 0 0-1.01Z" />
	<path fill="#f0f0f0" d="m501.52 279-.2 1.74a143.86 143.86 0 0 1-4.55 22.89c-.16.58-.32 1.17-.5 1.74a151.66 151.66 0 0 1-25.45 49.7 147.29 147.29 0 0 1-15 16.6c-7.49 7.1-16.17 14.2-20.73 23.1a25.27 25.27 0 0 0-1.29 2.86l23.96 47.56.32.24.87 1.95.9-.76.51-.43.34-.28.1-.1.3-.24q2.55-2.18 5.08-4.4l.02-.03c12.82-11.35 24.82-23.86 34.53-37.8.3-.42.6-.85.88-1.29a140.54 140.54 0 0 0 11.42-19.89 124.25 124.25 0 0 0 4.73-11.64 103.32 103.32 0 0 0 5.66-31.8c.42-21.6-6.08-43.09-20.77-58.55-.37-.4-.74-.78-1.13-1.17Z" />
	<path fill="#fff" d="M500.97 279.41a128.63 128.63 0 0 1-3.33 79.07 55.4 55.4 0 0 1-8.24 15.28 31.77 31.77 0 0 1-13.6 9.72c-4.93 1.94-10.19 3.35-14.56 6.45a19.45 19.45 0 0 0-7.87 13.82c-.84 6.78.81 13.46 2.66 19.94 2.04 7.18 4.28 14.62 2.94 22.15-.16.92 1.26 1.11 1.43.2 2.32-13.1-5.6-25.1-5.81-38.06-.1-6.04 1.62-12.15 6.45-16.09 4.22-3.45 9.65-4.9 14.65-6.82a33.9 33.9 0 0 0 13.65-9.01 51.21 51.21 0 0 0 8.8-14.9 124.8 124.8 0 0 0 8.6-38.05 130.91 130.91 0 0 0-4.44-44.24c-.24-.9-1.57-.34-1.33.54Z" />
	<path fill="#fff" d="M501.14 350.5a19.3 19.3 0 0 0 22.12-11.64c.34-.86-.98-1.43-1.32-.57a17.87 17.87 0 0 1-20.6 10.78c-.9-.2-1.1 1.22-.2 1.43ZM478.43 382.83a37.2 37.2 0 0 1-5.43-26.56c.16-.91-1.27-1.1-1.43-.2a38.69 38.69 0 0 0 5.7 27.63c.51.78 1.66-.1 1.16-.87ZM505.99 308.85a10.92 10.92 0 0 1-9.05-5.05c-.5-.78-1.65.09-1.15.87a12.24 12.24 0 0 0 10 5.6.74.74 0 0 0 .81-.6.72.72 0 0 0-.61-.82Z" />
	<path fill="#f0f0f0" d="M.35 481.05c2-21.01 14.39-42.01 34.16-49.4a97.25 97.25 0 0 0 1.92 66.74c3.31 8.22 7.84 17 5.2 25.45-1.65 5.26-5.93 9.37-10.77 12-4.84 2.63-10.25 3.97-15.6 5.29l-1.04.9C5.12 523-1.65 502.08.35 481.06Z" />
	<path fill="#fff" d="M34.72 432.04a83.13 83.13 0 0 0-19.31 47.36 35.8 35.8 0 0 0 .73 11.19 20.53 20.53 0 0 0 5.37 9.37c2.38 2.46 5.09 4.7 6.82 7.7a12.57 12.57 0 0 1 .91 10.24c-1.33 4.21-4.1 7.7-6.92 11-3.14 3.67-6.45 7.44-7.7 12.23-.14.58-1.04.31-.89-.27 2.16-8.33 10.05-13.25 13.66-20.8 1.68-3.52 2.31-7.57.54-11.19-1.56-3.16-4.35-5.48-6.78-7.95a21.9 21.9 0 0 1-5.6-8.97 33.1 33.1 0 0 1-1.15-11.12 80.65 80.65 0 0 1 5.18-24.66 84.6 84.6 0 0 1 14.5-24.8c.4-.47 1.02.22.64.67Z" />
	<path fill="#fff" d="M15.5 473.76a12.47 12.47 0 0 1-9.87-12.78.47.47 0 0 1 .93.02 11.55 11.55 0 0 0 9.2 11.87c.59.12.32 1.01-.26.9ZM20.15 498.87a24.04 24.04 0 0 0 10.33-14.14c.15-.58 1.04-.32.9.26a25 25 0 0 1-10.8 14.7c-.5.32-.94-.5-.43-.82ZM23.85 447.99a7.06 7.06 0 0 0 6.68-.53c.5-.33.94.49.44.81a7.91 7.91 0 0 1-7.38.6.48.48 0 0 1-.31-.57.47.47 0 0 1 .57-.31Z" />
	<path fill="#f0f0f0" d="m92.45 467.3-.92.65c-4.13 2.88-4.01 6.1-7.62 9.62l-.84.81a98.01 98.01 0 0 0-20.44 29.74 95.18 95.18 0 0 0-4.82 13.63c-1.74 6.44-3.12 13.56-6.77 18.88a16.33 16.33 0 0 1-1.23 1.61l-34.4.99-.24-.1-1.37.1.15-.75.1-.42.05-.28.02-.09.05-.24q.45-2.12.94-4.25v-.01a139.95 139.95 0 0 1 10.9-31.25c.14-.3.3-.6.46-.89a90.82 90.82 0 0 1 7.8-12.6 80.3 80.3 0 0 1 5.17-6.27 66.77 66.77 0 0 1 16.34-12.99c12.15-6.87 22.36-9.77 35.66-6.17l1.01.28Z" />
	<path fill="#fff" d="M92.39 467.74c-16.86 3.85-28.59 13.1-39.93 26.18a35.8 35.8 0 0 0-6.16 9.38 20.53 20.53 0 0 0-1.35 10.72c.41 3.4 1.23 6.82.8 10.25a12.57 12.57 0 0 1-5.43 8.73c-3.6 2.55-7.9 3.67-12.15 4.6-4.72 1.05-9.63 2.07-13.5 5.14-.47.37-1.03-.38-.56-.75 6.74-5.35 16-4.53 23.43-8.39 3.46-1.8 6.4-4.65 7.16-8.6.67-3.47-.17-7-.62-10.43a21.9 21.9 0 0 1 .93-10.53 33.1 33.1 0 0 1 5.77-9.58 80.65 80.65 0 0 1 19-16.57c8.13-5.17 13.11-8.93 22.51-11.07.58-.14.68.79.1.92Z" />
	<path fill="#fff" d="M55.92 489.48a12.47 12.47 0 0 1-.18-16.15c.39-.46 1.12.12.73.58a11.55 11.55 0 0 0 .2 15.02c.4.45-.36 1-.75.55ZM44.51 512.33a24.04 24.04 0 0 0 16.77-5.08c.47-.37 1.02.38.55.75a25 25 0 0 1-17.46 5.25c-.6-.05-.45-.97.14-.92ZM78.11 473.93a7.06 7.06 0 0 0 5.65 3.6c.6.04.46.96-.14.91a7.91 7.91 0 0 1-6.26-3.96.48.48 0 0 1 .1-.65.47.47 0 0 1 .65.1ZM429.48 2h-23.53a17.47 17.47 0 0 1-16.18 24.07H286.5A17.47 17.47 0 0 1 270.32 2h-21.97a36.78 36.78 0 0 0-36.78 36.78v466.1a36.78 36.78 0 0 0 36.78 36.77h181.13a36.78 36.78 0 0 0 36.77-36.77V38.78A36.78 36.78 0 0 0 429.48 2Z" />
	<path fill="#e4e4e4" d="M429.48 543.65H248.35a38.82 38.82 0 0 1-38.78-38.77V38.78A38.82 38.82 0 0 1 248.35 0h24.95l-1.13 2.76a15.47 15.47 0 0 0 14.33 21.31h103.27A15.47 15.47 0 0 0 404.1 2.76L402.97 0h26.5a38.82 38.82 0 0 1 38.79 38.78v466.1a38.82 38.82 0 0 1-38.78 38.77ZM248.35 4a34.82 34.82 0 0 0-34.78 34.78v466.1a34.82 34.82 0 0 0 34.78 34.77h181.13a34.81 34.81 0 0 0 34.78-34.77V38.78A34.82 34.82 0 0 0 429.48 4h-20.79a19.47 19.47 0 0 1-18.92 24.07H286.5A19.48 19.48 0 0 1 267.58 4Z" />
	<path d="M430.84 73.63h-54.62a2.32 2.32 0 1 1 0-4.63h54.62a2.32 2.32 0 1 1 0 4.63ZM430.84 84.03h-54.62a2.32 2.32 0 1 1 0-4.64h54.62a2.32 2.32 0 1 1 0 4.64ZM430.84 94.42h-54.62a2.32 2.32 0 1 1 0-4.63h54.62a2.32 2.32 0 1 1 0 4.63Z" />
	<path fill="#ffb6b6" d="M154.57 533.53h9.15l4.36-35.3h-13.51v35.3z" />
	<path fill="#2f2e41" d="M152.24 530.55h18.02a11.49 11.49 0 0 1 11.49 11.48v.37h-29.51Z" />
	<path fill="#ffb6b6" d="m118.79 525.02 8.63 3.03 15.83-31.85-12.74-4.48-11.72 33.3z" />
	<path fill="#2f2e41" d="m117.58 521.42 17 5.98a11.49 11.49 0 0 1 7.02 14.65l-.12.36-27.84-9.8ZM113.35 328.35l-5.54 6.03 22.4 93.23 23.01 90.92h18.39l-10.58-86.76v-89.23l-47.68-14.19z" />
	<path fill="#2f2e41" d="m170.6 335.82 2.42 9.03-12.95 80.52-18.41 85.33h-20.83l15.64-104.62 19.12-77.01 15.01 6.75z" />
	<path fill="#3f3d56" d="m182.05 202.05-8.1-14.54-19.21-3.15a48.55 48.55 0 0 0-35.91 42.22l-10.42 106.7s53.31 24.54 64.61 10.73l15.72-121.12a23.94 23.94 0 0 0-6.69-20.84Z" />
	<circle cx="168.4" cy="159.26" r="20.39" fill="#ffb6b6" />
	<path fill="#2f2e41" d="M195.18 148.14a5.05 5.05 0 0 1-2.99-2.3 4.88 4.88 0 0 1-.02-4.97 7.38 7.38 0 0 0-6.12-.31 6.97 6.97 0 0 0 2.36-5.89l-7.34 2.49a5.4 5.4 0 0 0 1.85-5.96c-2 2.86-6.17 3.24-9.56 2.4-3.39-.86-6.52-2.65-9.97-3.2a14.16 14.16 0 0 0-16.29 12.76 5.3 5.3 0 0 0-4.14 3.03 11.37 11.37 0 0 0-.98 5.23 28 28 0 0 0 11.23 22.03l1.13-.4a9.02 9.02 0 0 1 8.09-9.47c2.99-.19 6.52 1 8.65-1.1 1.96-1.92 1.26-5.36 2.85-7.6 1.39-1.93 4.14-2.39 6.48-1.92 2.34.46 4.47 1.65 6.74 2.37 2.27.73 4.93.93 6.89-.44a6.98 6.98 0 0 0 2.6-5.38 10.05 10.05 0 0 0 0-1.25 5.42 5.42 0 0 1-1.46-.12Z" />
	<path fill="#fff" d="M59.07 338.52h209.96v60.8H59.07z" />
	<path fill="#e4e4e4" d="M270.94 401.23H57.16v-64.62h213.78Zm-209.97-3.81h206.15v-56.99H60.97Z" />
	<path d="M228.24 359.43H99.85a2.72 2.72 0 1 1 0-5.44h128.4a2.72 2.72 0 1 1 0 5.44ZM228.24 371.65H99.85a2.72 2.72 0 0 1 0-5.45h128.4a2.72 2.72 0 0 1 0 5.45ZM176.27 383.86H99.85a2.72 2.72 0 1 1 0-5.44h76.42a2.72 2.72 0 1 1 0 5.44Z" />
	<path fill="#ffb6b6" d="M184.22 346.12a7.5 7.5 0 0 1 .4-11.5l-8.6-25.26 13.42 3.5 6.1 23.45a7.55 7.55 0 0 1-11.32 9.81Z" />
	<path fill="#3f3d56" d="m178.28 329.29-13.9-51.42-1.23-62.63a11.84 11.84 0 0 1 8.27-11.57 11.91 11.91 0 0 1 15.54 11.88l-2.24 49.28 11.03 58.84Z" />
	<path fill="#ffb6b6" d="M133.98 347.61a7.5 7.5 0 0 1 .4-11.5l-8.6-25.25 13.42 3.5 6.1 23.44a7.55 7.55 0 0 1-11.32 9.81Z" />
	<path fill="#3f3d56" d="m125.93 326.89-5.95-52.86 8.31-62.16a11.91 11.91 0 1 1 23.49 3.92l-9.7 48.37 1.97 59.83Z" />
	<path fill="#fff" d="M580 511.54H258.56v-73.97H580Z" />
	<path fill="#e6e6e6" d="M304.96 462.03a3.13 3.13 0 0 0 0 6.27h228.66a3.13 3.13 0 0 0 0-6.27ZM304.96 480.82a3.13 3.13 0 0 0-.01 6.27h144.56a3.13 3.13 0 1 0 0-6.27Z" />
	<path fill="#e5e5e5" d="M580 511.54H258.56v-73.97H580Zm-316.14-5.28H574.7v-63.4H263.86Z" />
	<path fill="#f0f0f0" d="M73.51 298.8a13.42 13.42 0 1 1 13.43-13.42A13.42 13.42 0 0 1 73.5 298.8ZM134.75 108.61a14.81 14.81 0 1 1 14.81-14.81 14.81 14.81 0 0 1-14.81 14.81ZM516.8 214.48a12.74 12.74 0 1 1 12.74-12.74 12.74 12.74 0 0 1-12.74 12.74Z" />
	<path fill="#fff" d="M240.9 133.28h195.25v147.45H240.9z" />
	<path fill="#e4e4e4" d="M438.71 283.28H238.34V130.72h200.37Zm-195.25-5.11H433.6V135.83H243.46Z" />
	<path fill="#f0f0f0" d="M433.94 136.29H244.22l189.72 143v-143z" />
	<path d="M543.74 542.46a28.74 28.74 0 1 1 28.73-28.74 28.74 28.74 0 0 1-28.73 28.74Z" />
	<path fill="#fff" d="M555.08 510.89h-8.5v-8.5a2.83 2.83 0 0 0-5.68 0v8.5h-8.5a2.83 2.83 0 0 0 0 5.67h8.5v8.5a2.83 2.83 0 0 0 5.67 0v-8.5h8.5a2.83 2.83 0 1 0 0-5.67Z" />
	<path fill="#cacaca" d="M578.8 544.04H1.5a1.2 1.2 0 0 1 0-2.38h577.3a1.2 1.2 0 0 1 0 2.38Z" />
</svg>
