<svg xmlns="http://www.w3.org/2000/svg" viewBox="0 0 980 489.48">
	<path d="M207.06 0a205.98 205.98 0 0 0-77.68 15.07l-3 1.23A206.78 206.78 0 0 0 0 207.06V433a9.01 9.01 0 0 0 9 9l.18.02c173.47 31.5 342.1 47.46 501.37 47.46l7.16-.01c156.55-.48 309-16.44 453.08-47.45l.21-.02a9.01 9.01 0 0 0 9-9V9a9.01 9.01 0 0 0-9-9Z" />
	<path fill="#3f3d56" d="M745.8 180.2a5.95 5.95 0 0 0 0 11.88h149.09a5.95 5.95 0 1 0 .19-11.89h-.2Z" data-name="Path 40" />
	<path fill="#fff" d="M928.7 178.54a1.17 1.17 0 0 0 0 1.65l5.02 5.02h-12.39a1.17 1.17 0 1 0 0 2.34h12.39l-5.03 5.03a1.17 1.17 0 1 0 1.66 1.65l7.02-7.02a1.17 1.17 0 0 0 0-1.65l-7.02-7.02a1.17 1.17 0 0 0-1.66 0ZM711.93 178.54a1.17 1.17 0 0 1 0 1.65l-5.03 5.02h12.39a1.17 1.17 0 1 1 0 2.34H706.9l5.03 5.03a1.17 1.17 0 0 1-1.66 1.65l-7.02-7.02a1.17 1.17 0 0 1 0-1.65l7.02-7.02a1.17 1.17 0 0 1 1.66 0Z" />
	<g fill="#fff" opacity=".4">
		<circle cx="751.82" cy="50.39" r="6.39" />
		<circle cx="778.44" cy="50.39" r="6.39" />
		<circle cx="805.07" cy="50.39" r="6.39" />
		<circle cx="831.69" cy="50.39" r="6.39" />
		<circle cx="858.32" cy="50.39" r="6.39" />
		<circle cx="884.94" cy="50.39" r="6.39" />
		<circle cx="911.57" cy="50.39" r="6.39" />
		<circle cx="751.82" cy="70.62" r="6.39" />
		<circle cx="778.44" cy="70.62" r="6.39" />
		<circle cx="805.07" cy="70.62" r="6.39" />
		<circle cx="831.69" cy="70.62" r="6.39" />
		<circle cx="858.32" cy="70.62" r="6.39" />
		<circle cx="884.94" cy="70.62" r="6.39" />
		<circle cx="911.57" cy="70.62" r="6.39" />
		<circle cx="751.82" cy="90.86" r="6.39" />
		<circle cx="778.44" cy="90.86" r="6.39" />
		<circle cx="805.07" cy="90.86" r="6.39" />
		<circle cx="831.69" cy="90.86" r="6.39" />
		<circle cx="858.32" cy="90.86" r="6.39" />
		<circle cx="884.94" cy="90.86" r="6.39" />
		<circle cx="911.57" cy="90.86" r="6.39" />
		<circle cx="751.82" cy="111.09" r="6.39" />
		<circle cx="778.44" cy="111.09" r="6.39" />
		<circle cx="751.82" cy="131.33" r="6.39" />
		<circle cx="778.44" cy="131.33" r="6.39" />
		<circle cx="805.07" cy="131.33" r="6.39" />
		<circle cx="805.07" cy="111.09" r="6.39" />
		<circle cx="831.69" cy="111.09" r="6.39" />
		<circle cx="858.32" cy="111.09" r="6.39" />
		<circle cx="884.94" cy="111.09" r="6.39" />
		<circle cx="911.57" cy="111.09" r="6.39" />
	</g>
	<path fill="#3f3d56" d="M660.16 375.46a35.27 35.27 0 1 1 35.27-35.27 35.31 35.31 0 0 1-35.27 35.27Zm0-68.55a33.27 33.27 0 1 0 33.27 33.28 33.31 33.31 0 0 0-33.27-33.28Z" />
	<path fill="#fff" d="M673.68 336.8h-10.14v-10.14a3.38 3.38 0 0 0-6.76 0v10.15h-10.15a3.38 3.38 0 0 0 0 6.76h10.15v10.14a3.38 3.38 0 0 0 6.76 0v-10.14h10.14a3.38 3.38 0 1 0 0-6.76Z" />
	<g fill="#fff" opacity=".4">
		<circle cx="54.02" cy="374.77" r="5.02" />
		<circle cx="54.02" cy="353.83" r="5.02" />
		<circle cx="54.02" cy="332.9" r="5.02" />
		<circle cx="54.02" cy="311.97" r="5.02" />
		<circle cx="54.02" cy="291.03" r="5.02" />
		<circle cx="54.02" cy="270.1" r="5.02" />
		<circle cx="54.02" cy="249.17" r="5.02" />
		<circle cx="69.93" cy="374.77" r="5.02" />
		<circle cx="69.93" cy="353.83" r="5.02" />
		<circle cx="69.93" cy="332.9" r="5.02" />
		<circle cx="69.93" cy="311.97" r="5.02" />
		<circle cx="69.93" cy="291.03" r="5.02" />
		<circle cx="69.93" cy="270.1" r="5.02" />
		<circle cx="69.93" cy="249.17" r="5.02" />
		<circle cx="85.84" cy="374.77" r="5.02" />
		<circle cx="85.84" cy="353.83" r="5.02" />
		<circle cx="85.84" cy="332.9" r="5.02" />
		<circle cx="85.84" cy="311.97" r="5.02" />
		<circle cx="85.84" cy="291.03" r="5.02" />
		<circle cx="85.84" cy="270.1" r="5.02" />
		<circle cx="85.84" cy="249.17" r="5.02" />
		<circle cx="101.75" cy="374.77" r="5.02" />
		<circle cx="101.75" cy="353.83" r="5.02" />
		<circle cx="117.66" cy="374.77" r="5.02" />
		<circle cx="117.66" cy="353.83" r="5.02" />
		<circle cx="117.66" cy="332.9" r="5.02" />
		<circle cx="101.75" cy="332.9" r="5.02" />
		<circle cx="101.75" cy="311.97" r="5.02" />
		<circle cx="101.75" cy="291.03" r="5.02" />
		<circle cx="101.75" cy="270.1" r="5.02" />
		<circle cx="101.75" cy="249.17" r="5.02" />
	</g>
	<path fill="#3f3d56" d="M497.4 33H163.68a6.19 6.19 0 0 0-6.19 6.18v285.39a6.19 6.19 0 0 0 6.19 6.18H497.4a6.19 6.19 0 0 0 6.18-6.18V39.18a6.19 6.19 0 0 0-6.18-6.18Zm3.71 291.57a3.72 3.72 0 0 1-3.7 3.71H163.67a3.71 3.71 0 0 1-3.7-3.71V39.18a3.71 3.71 0 0 1 3.7-3.71H497.4a3.72 3.72 0 0 1 3.7 3.71Z" />
	<path fill="#fff" d="M240.7 280c0 .45 0 .89-.03 1.31a25.17 25.17 0 0 1-50.28 0c-.03-.42-.04-.86-.04-1.3a25.18 25.18 0 1 1 50.35 0Z" />
	<path fill="#3f3d56" d="M471.48 263.22H273.66a4.2 4.2 0 0 0 0 8.4h197.81a4.2 4.2 0 0 0 0-8.4Z" />
	<path fill="#fff" d="M358.78 288.4h-85.12a4.2 4.2 0 0 0 0 8.38h85.12a4.2 4.2 0 1 0 0-8.38ZM576.7 233.58H242.96a8.56 8.56 0 0 1-8.55-8.55V78.57a8.56 8.56 0 0 1 8.55-8.55H576.7a8.56 8.56 0 0 1 8.55 8.55v146.46a8.56 8.56 0 0 1-8.55 8.55ZM242.96 73.02a5.56 5.56 0 0 0-5.55 5.55v146.46a5.56 5.56 0 0 0 5.55 5.55H576.7a5.56 5.56 0 0 0 5.55-5.55V78.57a5.56 5.56 0 0 0-5.55-5.55Z" />
	<path fill="#fff" d="M310.92 123.44a4.2 4.2 0 1 0 0 8.4h197.81a4.2 4.2 0 1 0 0-8.4ZM310.92 147.75a4.2 4.2 0 0 0 0 8.4h197.81a4.2 4.2 0 0 0 0-8.4ZM310.92 171.77a4.2 4.2 0 0 0 0 8.4h85.12a4.2 4.2 0 0 0 0-8.4ZM631.72 295.63l-33.52-47.3 10.85 2.26a1.5 1.5 0 1 0 .62-2.94l-16.17-3.37-2.19 16.37a1.5 1.5 0 1 0 2.98.4l1.46-11 33.53 47.32a1.5 1.5 0 1 0 2.44-1.74Z" />
	<path fill="#3f3d56" d="M449.67 433.32H211.4a4.42 4.42 0 0 1-4.41-4.41v-59.1a4.42 4.42 0 0 1 4.4-4.42h238.27a4.42 4.42 0 0 1 4.4 4.42v59.1a4.42 4.42 0 0 1-4.4 4.41ZM211.4 367.16a2.65 2.65 0 0 0-2.65 2.65v59.1a2.65 2.65 0 0 0 2.65 2.65h238.26a2.65 2.65 0 0 0 2.64-2.65v-59.1a2.65 2.65 0 0 0-2.64-2.65Z" />
	<circle cx="248.43" cy="397.09" r="17.97" fill="#fff" />
	<path fill="#fff" d="M289.94 385.1a3 3 0 1 0 0 6h141.21a3 3 0 1 0 0-6ZM289.94 403.08a3 3 0 1 0 0 6h60.76a3 3 0 1 0 0-6Z" />
	<path fill="#3f3d56" d="M764.02 222.76h105.9a4.42 4.42 0 0 1 4.4 4.4v110.29a4.42 4.42 0 0 1-4.4 4.41h-105.9a4.42 4.42 0 0 1-4.4-4.41V227.17a4.42 4.42 0 0 1 4.4-4.41Zm105.9 117.34a2.65 2.65 0 0 0 2.64-2.65V227.17a2.65 2.65 0 0 0-2.64-2.65h-105.9a2.65 2.65 0 0 0-2.64 2.65v110.28a2.65 2.65 0 0 0 2.64 2.65Z" />
	<path fill="#fff" d="M847.35 319.12a3 3 0 0 0 0-6H786.6a3 3 0 0 0 0 6ZM847.35 301.47a3 3 0 1 0 0-5.99H786.6a3 3 0 1 0 0 6ZM816.97 245.5a18.86 18.86 0 1 1-18.85 18.85 18.88 18.88 0 0 1 18.85-18.85Z" />
</svg>
