<svg xmlns="http://www.w3.org/2000/svg" viewBox="0 0 776.06 538.35">
	<path fill="#2f2e41" d="M292.46 105.1c-5.9-21.54 41.76-40.02 54.28-22.67 1.74-2.46 8.17-3.96 11.13-3.2 2.95.75 5.43 2.64 7.85 4.47 3.33 2.56 6.78 5.21 8.83 8.89 2.05 3.66 2.37 8.66-.4 11.84-2.2 2.52-8.67 4.16-11.97 4.82-2.3.47-4.24.85-5.9 1.12a11.29 11.29 0 0 1-1.97-7.46 9.16 9.16 0 0 0-4 6.72c-.04.56 18.6 69.18 18.6 69.18a40.67 40.67 0 0 1-7.03 3.16 88.5 88.5 0 0 1-10.98-23.92 76.64 76.64 0 0 0 .22 17.03c.36 3.13.9 6.28 1.6 9.43-22.16 4.78-55.49 3.21-69.99-17.13v-.26c-.11-3.8-5.3-4.75-6.7-1.2-.35.9-.67 1.67-.96 2.29-4.22-15.1 1.24-32.59 17.4-63.1Z" />
	<path fill="#ffb6b6" d="M593.67 275.99a14.73 14.73 0 0 1-22.43.1l-69.98 22.17-10.89-17.85 83.31-25.72a14.7 14.7 0 0 1 20 21.3Z" />
	<path d="M345.84 220.6s31-34.86 44.5-20.05c13.5 14.8 55.6 79.7 55.6 79.7l98.32-20.75 9.5 25.95-111.62 36.17a20.98 20.98 0 0 1-23.02-7.06l-73.28-93.96Z" />
	<path fill="#2f2e41" d="M413.15 538.35H259.44l-.14-1.2-.09-.8-1.32-11.2-1.87-15.95-.72-6.13-.14-.92c-.63-3.99-.99-8-1.12-12-.19-5.5.06-10.99.65-16.41v-.03a150.42 150.42 0 0 1 3.54-19.57 195.06 195.06 0 0 1 8.16-24.97l.53-1.31.01-.01c8.7-21.21 18.58-35.7 18.58-35.7h111.98s5.18 22.73 7.75 41.5c.41 2.97.75 5.83 1 8.49.45 4.91.58 9.13.19 12-.24 1.78-.68 3.04-1.36 3.62-6.16 5.26.89 16.42.89 16.42s5.28 8.07.68 12.61a6.26 6.26 0 0 0-1.68 3.36c-.4 2.15-.05 4.65.5 6.86a35.46 35.46 0 0 0 2.04 5.83l.78 6.17.76 5.94 1.29 10.2.39 1.8 2.01 9.4.17.8.25 1.2Z" />
	<path d="m335.5 172.91-46.99 4.19-8.66 26.95-9.44 1.37a24.96 24.96 0 0 0-19.47 34.3l8.31 19.94s-12.2 37.66 2.78 53.48l6.38 69.69-14.38 45.94 168.13 5.43-28.64-57.63-.85-35.78s18.3-64.67 1.34-85.24l-6.62-58.51-34.5-5.17-17.38-18.96Z" />
	<circle cx="329.5" cy="129.56" r="38.83" fill="#ffb6b6" transform="rotate(-76.95 329.5 129.56)" />
	<path fill="#2f2e41" d="M271.27 108.13c-5.9-21.54 41.76-40.02 54.28-22.67 1.74-2.47 8.17-3.97 11.13-3.2 2.95.75 5.43 2.64 7.85 4.47 3.33 2.56 6.78 5.2 8.83 8.89 2.05 3.66 2.37 8.65-.4 11.83-2.2 2.53-8.67 4.17-11.97 4.83-2.3.47-4.24.85-5.9 1.12a11.29 11.29 0 0 1-1.97-7.46 9.16 9.16 0 0 0-4 6.72c-.04.56 18.6 69.17 18.6 69.17a40.67 40.67 0 0 1-7.03 3.17 88.5 88.5 0 0 1-10.98-23.92 76.64 76.64 0 0 0 .21 17.03c.37 3.13.91 6.28 1.6 9.43-22.15 4.78-55.48 3.2-69.98-17.14v-.25c-.11-3.8-5.3-4.75-6.7-1.2-.35.9-.67 1.67-.96 2.29-4.22-15.1 1.24-32.6 17.4-63.1Z" />
	<path fill="#3f3d56" d="M603.16 537.15h-522l-81 1 568.06-33.91a32.97 32.97 0 0 1 34.94 32.91Z" />
	<path fill="#3f3d56" d="M731 536.35v2H0V0h2v536.35h729z" />
	<path d="M652.78 124.52H519.73a5.56 5.56 0 1 1 0-11.09h133.05c3.07 0 5.57 2.49 5.57 5.54s-2.5 5.55-5.57 5.55Z" />
	<path fill="#3f3d56" d="M586.2 142.4a1.46 1.46 0 0 0-2.7 0c-3.47 8.55-8.41 18.13-13.79 25.45-.86 1.17.33 2.74 1.7 2.24l11.51-4.16v71.28h3.86v-71.28l11.52 4.16c1.36.5 2.55-1.07 1.69-2.24-5.37-7.32-10.31-16.9-13.78-25.45Z" />
	<path fill="#f2f2f2" d="M772.63 165.27H690.6c-1.9 0-3.43-1.54-3.43-3.42s1.53-3.42 3.43-3.42h82.03a3.42 3.42 0 1 1 0 6.84ZM731.58 176.3a.9.9 0 0 0-1.67 0c-2.14 5.26-5.18 11.17-8.5 15.68-.53.72.2 1.69 1.05 1.38l7.1-2.56v43.94h2.37V190.8l7.1 2.56c.85.3 1.58-.66 1.05-1.38-3.31-4.51-6.36-10.42-8.5-15.69Z" />
	<circle cx="731.62" cy="259.33" r="17.82" fill="#f2f2f2" />
	<path fill="#f2f2f2" d="M509.63 64.27H427.6c-1.9 0-3.43-1.54-3.43-3.42s1.53-3.42 3.43-3.42h82.03a3.42 3.42 0 1 1 0 6.84ZM468.58 75.3a.9.9 0 0 0-1.67 0c-2.14 5.26-5.18 11.17-8.5 15.68-.53.72.2 1.69 1.05 1.38l7.1-2.56v43.94h2.37V89.8l7.1 2.56c.85.3 1.58-.66 1.05-1.38-3.31-4.51-6.36-10.42-8.5-15.69Z" />
	<circle cx="468.62" cy="158.33" r="17.82" fill="#f2f2f2" />
	<path fill="#ffb6b6" d="M261.97 503.7a14.73 14.73 0 0 0-7.1-21.27l-1.48-73.39-20.4-4.58 2.4 87.15a14.7 14.7 0 0 0 26.58 12.1Z" />
	<path d="M276.16 214.15s-25-6-33 11-8.68 90.98-8.68 90.98l-4.32 150.02 31.71-1.4 25.29-184.6-11-66Z" />
	<path fill="#ccc" d="M264.94 525.84c.56.71 1.42 1.12 2.32 1.11H429.6a2.99 2.99 0 0 0 2.92-3.6L430 511.38a3 3 0 0 0-2.92-2.37H269.77a3 3 0 0 0-2.92 2.37l-2.52 11.97c-.18.88.04 1.8.6 2.5Z" />
	<path fill="#e6e6e6" d="M202.79 257.88v187.26a9 9 0 0 0 9 9h277.5a9 9 0 0 0 9-9V257.88a9.01 9.01 0 0 0-9-8.99h-277.5a9.01 9.01 0 0 0-9 9Z" />
	<path fill="#ccc" d="M385.24 414.1a3.26 3.26 0 0 0-1.03-.16h-64.92a3.47 3.47 0 0 0-3.47 3.46v102.56h71.85V417.4c0-1.51-.98-2.85-2.43-3.3Zm-26.04 50.44a7.67 7.67 0 0 1-15.34 0v-11.9a7.67 7.67 0 0 1 15.34 0v11.9Z" />
</svg>
