<svg xmlns="http://www.w3.org/2000/svg" viewBox="0 0 809.68 462.58">
	<path fill="#f0f0f0" d="M133.09 210.33v-130a7 7 0 1 1 14 0v130a7 7 0 0 1-14 0ZM116.34 210.33v-130a7 7 0 1 1 14 0v130a7 7 0 0 1-14 0ZM99.59 210.33v-130a7 7 0 1 1 14 0v130a7 7 0 0 1-14 0Z" />
	<path fill="#e6e6e6" d="M732 417.96a24.44 24.44 0 0 1-8.28-1.43l-.4-.15.18-.9c-4.75-9.6-3.09-22.76 4.25-33.57 6.68-9.83 16.83-16.98 25.79-23.29a6.97 6.97 0 0 1 10.85 7.03l-3.2 16.44c-2.32 11.85-5.07 23.07-13.22 30.07a24.9 24.9 0 0 1-15.98 5.8ZM752.97 446.36a18.62 18.62 0 0 1-15.56-8.56l-.24-.37.56-.48c1.43-7.82 8.17-14.79 17.22-17.78 8.22-2.73 17.3-2.28 25.31-1.89a5.35 5.35 0 0 1 3.32 9.31l-9 8.14c-6.55 5.9-13.08 11.24-20.95 11.62l-.66.01Z" />
	<path fill="#f2f2f2" d="M725.01 455.05c-1.33-9.9-2.7-19.93-1.76-29.95.83-8.89 3.48-17.57 8.88-24.7a40.52 40.52 0 0 1 10.31-9.54c1.03-.67 1.98 1 .96 1.66a38.87 38.87 0 0 0-15.12 18.64c-3.29 8.56-3.81 17.88-3.25 26.97a231.9 231.9 0 0 0 1.8 16.41 1 1 0 0 1-.65 1.19.95.95 0 0 1-1.17-.68Z" />
	<path fill="#f2f2f2" d="M721.25 460.75c6.4-11.58 13.83-24.46 27.1-28.57a29.61 29.61 0 0 1 11.4-1.2c1.21.1.9 2.01-.3 1.9a27.63 27.63 0 0 0-18.19 4.92c-5.13 3.57-9.12 8.53-12.5 13.8-2.07 3.22-3.93 6.58-5.78 9.93-.6 1.08-2.33.3-1.73-.78Z" />
	<path fill="#cacaca" d="m718.37 460.58 6.47.15-38.98-208.24-6.47 1.22 10.18 54.02h-32.8l10.19-54.02-6.47-1.22-38.65 208.24 6.14-.15 20.32-107.85h49.75Zm-68.56-115.85 5.46-29h35.8l5.47 29Z" />
	<path fill="#f0f0f0" d="M436.09 213.64v-68.38c0-2.03 3.14-3.68 7-3.68s7 1.65 7 3.68v68.38c0 2.03-3.14 3.69-7 3.69s-7-1.66-7-3.69ZM419.34 213.64v-68.38c0-2.03 3.14-3.68 7-3.68s7 1.65 7 3.68v68.38c0 2.03-3.14 3.69-7 3.69s-7-1.66-7-3.69ZM402.59 213.64v-68.38c0-2.03 3.14-3.68 7-3.68s7 1.65 7 3.68v68.38c0 2.03-3.14 3.69-7 3.69s-7-1.66-7-3.69Z" />
	<path fill="#ccc" d="M543.5 163.35a1.5 1.5 0 0 0-.65-1.02l-52.78-34.84a3.95 3.95 0 0 0 1.9-1.66 4.01 4.01 0 0 0-1.47-5.47l-4.33-2.5a4.01 4.01 0 0 0-5.46 1.47 3.94 3.94 0 0 0-.5 1.64l-38.1-25.15a23.06 23.06 0 0 0-14.27-13.15v-11.1h-14v11.1a23 23 0 0 0-16 21.9v3h14a9 9 0 0 0 18 0h14v-3a23.12 23.12 0 0 0-.4-4.28l96.36 63.62-40.03 48.67h-.93c-3.2 0-6.3.07-9.24.2a3.96 3.96 0 0 0 .23-1.54 4.01 4.01 0 0 0-4.2-3.79l-5 .26a4.01 4.01 0 0 0-3.78 4.2 3.93 3.93 0 0 0 .54 1.78c-8.83.94-14.55 2.23-14.55 2.89 0 1.08 15.36.05 34.59 0a1.5 1.5 0 0 0 2.57.45l.37-.45c19.17.05 34.47 1.07 34.47 0 0-1.02-13.6-3.54-31.23-3.95l39.57-48.1a1.5 1.5 0 0 0 .32-1.18Z" />
	<path fill="#e4e4e4" d="M544.95 461.08H421.73a9.4 9.4 0 0 1-9.4-9.4V249.48a8.4 8.4 0 0 0-8.38-8.4H115.73a8.4 8.4 0 0 0-8.4 8.4v202.22a9.4 9.4 0 0 1-9.38 9.39h-4.22a9.4 9.4 0 0 1-9.4-9.4v-213.1a22.53 22.53 0 0 1 22.5-22.5h425a22.53 22.53 0 0 1 22.5 22.5v213.1a9.4 9.4 0 0 1-9.38 9.4Z" />
	<path fill="#fff" d="M412.84 268.58h141v6h-141zM412.84 349.58h141v6h-141z" />
	<path fill="#e6e6e6" d="m296.12 215.09-4.05-1.7-2.78-20.32h-37.02l-3.01 20.23-3.63 1.81a.86.86 0 0 0 .38 1.63h49.78a.86.86 0 0 0 .33-1.65Z" />
	<path fill="#ccc" d="M361.9 195.77H180.07a3.6 3.6 0 0 1-3.6-3.6v-25.65H365.5v25.65a3.6 3.6 0 0 1-3.6 3.6Z" />
	<path fill="#3f3d56" d="M365.7 178.64H176.3V68.92a4.35 4.35 0 0 1 4.34-4.34h180.71a4.35 4.35 0 0 1 4.34 4.34Z" />
	<path fill="#fff" d="M354.38 170.68H187.61a3.35 3.35 0 0 1-3.35-3.35V75.9a3.35 3.35 0 0 1 3.35-3.35h166.77a3.35 3.35 0 0 1 3.35 3.35v91.44a3.35 3.35 0 0 1-3.35 3.35Z" />
	<path fill="#9e616a" d="M541.34 83.04a11.03 11.03 0 0 1 12.6 11.28l36.56 14.07-16.57 11.84-32.18-15.18a11.09 11.09 0 0 1-.41-22.01Z" />
	<path fill="#e4e4e4" d="m680.18 76.13 6.18 11.25a32.3 32.3 0 0 1-10.96 18.2c-9.47 8-59 37.74-59 37.74l-62.5-31.38 10.93-14.53 49.08 16.44a160.77 160.77 0 0 1 64.16-37.09Z" />
	<ellipse cx="668.67" cy="246.34" fill="#cacaca" rx="48.79" ry="15.9" />
	<path fill="#9e616a" d="m559.22 447.11-12.96-3.59 7.65-51.67 19.12 5.28-13.81 49.98z" />
	<path fill="#2f2e41" d="m559.05 460.58-41.78-11.55.15-.53a16.87 16.87 0 0 1 20.75-11.76l25.52 7.05Z" />
	<path fill="#9e616a" d="m521.65 447.27-12.29-5.43 15.09-50.01 18.15 8.01-20.95 47.43z" />
	<path fill="#2f2e41" d="m519.53 460.58-39.65-17.51.22-.5a16.87 16.87 0 0 1 22.24-8.62l24.22 10.7ZM706.65 207.47s6.51 20.19-33.48 45.73l-51.5 51.32-53.5 128-31.78-14.24 6.23-16.63 4.18-11.16 2.14-5.71 2.3-6.12 34-90.8 28.58-50.01.83-27.15 7.02-19.13 50.99-18.1Z" />
	<path fill="#2f2e41" d="M680.65 208.47s6.51 20.19-33.48 45.73l-51.5 51.32-53.5 128-31.78-14.24 6.23-16.63 4.18-11.16 2.14-5.71 2.3-6.12 34-90.8 9.57-16.74a305.08 305.08 0 0 1 45.65-60.81l9.38-9.7 1-15 21.82-12.13Z" />
	<path fill="#e4e4e4" d="m649.84 109.61 16-34 27.92-3.8s21.8 27.77 16.08 66.8c-2.15 14.64-3.9 29.21-4 42-.03 3.4 2.95 4.92 3 8 .05 3.02-5.65 7.95-4 10a17.53 17.53 0 0 1 4 10c-1.98 4.72-61.96-20.83-87.17-17.04Z" />
	<circle cx="862.95" cy="260.49" r="25.25" fill="#9e616a" transform="rotate(-59.27 573.14 322.66)" />
	<path fill="#2f2e41" d="m683.93 32.71-.19 2.54a13.2 13.2 0 0 0 2.2 7.68c1.41 2.4-.27 16.82-.27 16.82 41.36-28.83 8.68-57.8-4.1-55.23.26-3.66-10.17-2.21-10.17-2.21-3.97-6.19-12.68 2.02-12.68 2.02l1.68-2.82c-6.76 1.72-13.44 22.61-13.44 22.61 2.29 9.02 37.24 4.93 36.97 8.6Z" />
	<path fill="#ccc" d="M523.45 122.99a231.85 231.85 0 0 0 33.33-62.2 5.96 5.96 0 0 0-2.82-7.16l-48.64-26.07a5.88 5.88 0 0 0-5.16-.2 5.98 5.98 0 0 0-3.4 3.98 141.63 141.63 0 0 1-31.07 57.99 5.98 5.98 0 0 0-1.44 5.04 5.88 5.88 0 0 0 3.03 4.18l48.65 26.07a5.96 5.96 0 0 0 7.52-1.63Z" />
	<path fill="#fff" d="M520.13 120.5a1.8 1.8 0 0 1-2.24.46l-48.65-26.07a1.72 1.72 0 0 1-.9-1.24 1.82 1.82 0 0 1 .45-1.56 145.8 145.8 0 0 0 31.98-59.7 1.83 1.83 0 0 1 1.05-1.23 1.73 1.73 0 0 1 1.54.06L552 57.3a1.8 1.8 0 0 1 .86 2.12 227.7 227.7 0 0 1-32.73 61.08Z" />
	<path d="m503.11 55.99 33.56 19.66c3.34 1.96 6.36-3.23 3.03-5.18L506.14 50.8c-3.34-1.95-6.36 3.23-3.03 5.19ZM497.11 66.99l33.56 19.66c3.34 1.96 6.36-3.23 3.03-5.18L500.14 61.8c-3.34-1.95-6.36 3.23-3.03 5.19ZM490.11 78.99l33.56 19.66c3.34 1.96 6.36-3.23 3.03-5.18L493.14 73.8c-3.34-1.95-6.36 3.23-3.03 5.19ZM483.11 88.99l33.56 19.66c3.34 1.96 6.36-3.23 3.03-5.18L486.14 83.8c-3.34-1.95-6.36 3.23-3.03 5.19ZM636.07 204.66l12.6 28.33a4.47 4.47 0 0 1-.32 4.24 4.48 4.48 0 0 1-4.54 2.02 4.13 4.13 0 0 1-.87-.23 4.51 4.51 0 0 1-2.5-2.37l-12.6-28.33a4.5 4.5 0 1 1 8.23-3.66Z" />
	<path fill="#3f3d56" d="m647.65 230.7 2.52 5.72 1.3 8.1a2.45 2.45 0 0 1-4.33 1.93l-5.23-6.5-2.48-5.59ZM625.05 196.78l1.8 11.34a2.45 2.45 0 0 0 3.42 1.86l1.79-.8 3.45 7.77a1 1 0 0 0 1.83-.81l-3.45-7.77 1.79-.8a2.46 2.46 0 0 0 1.25-3.23 2.47 2.47 0 0 0-.34-.55l-7.21-8.93a2.45 2.45 0 0 0-4.33 1.92Z" />
	<path fill="#9e616a" d="M630.27 217.25a11.03 11.03 0 0 1 14.67-8.4l24.87-30.28 6.02 19.45-24.54 25.77a11.09 11.09 0 0 1-21.02-6.54Z" />
	<path fill="#e4e4e4" d="m661.58 215.28-10.96-15.82 31.1-41.46-16.02-34.33 1.17-40.84 13.24-2.44.16.08a32.54 32.54 0 0 1 14.1 16.42c3.3 8.26 10.68 39.25 14.78 57a20.68 20.68 0 0 1-5.56 19.38Z" />
	<path fill="#ffb6b6" d="M353.21 138.85a14.72 14.72 0 0 0-.09 2.31l-56.07 40.8-15.4-6.82-13.33 21.9 26.1 14.72a11.19 11.19 0 0 0 13.3-1.74l56.44-55.12a14.68 14.68 0 1 0-10.95-16.05Z" />
	<path d="m295.24 183.45-16.36 27.24a6.3 6.3 0 0 1-9.38 1.63L245 192.22a17.47 17.47 0 0 1 18.07-29.92l29.17 12.1a6.3 6.3 0 0 1 2.99 9.05Z" />
	<path fill="#cacaca" d="M257.22 420.28h-32.05v-53.12h32.05z" />
	<path fill="#cacaca" d="m251.5 401.33 4.12-6.07 76.92 52.2-4.11 6.07zM149.85 447.47l76.92-52.2 4.12 6.07-76.92 52.2z" />
	<circle cx="330.49" cy="450.5" r="10.07" fill="#cacaca" />
	<circle cx="240.74" cy="450.5" r="10.07" fill="#cacaca" />
	<circle cx="151.91" cy="450.5" r="10.07" fill="#cacaca" />
	<path fill="#cacaca" d="M237.08 398.3h7.33v52.2h-7.33zM248.07 390.98h-13.74v-70.52h13.74z" />
	<path fill="#3f3d56" d="M201.82 331.45v-16.48a11.46 11.46 0 0 1 11.45-11.45h61.36a11.46 11.46 0 0 1 11.44 11.45v16.48a11.46 11.46 0 0 1-11.44 11.45h-61.36a11.46 11.46 0 0 1-11.45-11.45Z" />
	<path fill="#ffb8b8" d="M312.64 444.13h16.97l8.07-44.01h-25.04v44.01z" />
	<path fill="#2f2e41" d="M308.31 460.58h54.72v-.7a21.3 21.3 0 0 0-21.3-21.3h-33.42ZM338.02 416.84l33.83-75.86a27.8 27.8 0 0 0-12.2-35.7l-73.38-39.34-33.49-2.85-30.88-2.8-.23.37c-.28.48-6.92 11.95-2.43 24.53 3.4 9.54 12.26 17 26.32 22.15 32.83 12.04 70.74 22.32 85.52 26.18a4.78 4.78 0 0 1 3.06 2.44 4.84 4.84 0 0 1 .27 3.87L303 410.44a6.23 6.23 0 0 0 5.27 8.35l23.48 1.71q.3.03.6.03a6.22 6.22 0 0 0 5.68-3.7Z" />
	<path fill="#ffb8b8" d="M301.57 444.13h16.97l8.07-44.01h-25.04v44.01z" />
	<path fill="#2f2e41" d="M297.24 460.58h54.72v-.7a21.3 21.3 0 0 0-21.3-21.3h-33.42ZM325.56 420.99l33.83-75.86a27.8 27.8 0 0 0-12.2-35.69l-73.38-39.35-33.48-2.85-24.2-2.1v-.33c-.28.49-6.92 11.96-2.43 24.53 3.4 9.54 5.34 17 19.4 22.15 32.83 12.04 70.75 22.32 85.53 26.19a4.78 4.78 0 0 1 3.06 2.43 4.84 4.84 0 0 1 .27 3.88l-31.43 70.6a6.23 6.23 0 0 0 5.27 8.35l23.49 1.71q.3.03.6.03a6.22 6.22 0 0 0 5.67-3.7Z" />
	<circle cx="466.43" cy="305.08" r="34" fill="#ffb8b8" transform="rotate(-76.62 230.44 319.24)" />
	<path fill="#ccc" d="M388.45 216.99a231.85 231.85 0 0 0 33.33-62.2 5.96 5.96 0 0 0-2.82-7.16l-48.64-26.07a5.88 5.88 0 0 0-5.16-.2 5.98 5.98 0 0 0-3.4 3.98 141.63 141.63 0 0 1-31.07 57.99 5.98 5.98 0 0 0-1.44 5.04 5.88 5.88 0 0 0 3.03 4.18l48.65 26.07a5.96 5.96 0 0 0 7.52-1.63Z" />
	<path fill="#fff" d="M385.13 214.5a1.8 1.8 0 0 1-2.24.46l-48.65-26.07a1.72 1.72 0 0 1-.9-1.24 1.82 1.82 0 0 1 .45-1.56 145.8 145.8 0 0 0 31.98-59.7 1.83 1.83 0 0 1 1.05-1.23 1.73 1.73 0 0 1 1.54.06L417 151.3a1.8 1.8 0 0 1 .86 2.12 227.7 227.7 0 0 1-32.73 61.08Z" />
	<path fill="#ccc" d="m368.11 149.99 33.56 19.66c3.34 1.96 6.36-3.23 3.03-5.18l-33.56-19.67c-3.34-1.95-6.36 3.23-3.03 5.19ZM362.11 160.99l33.56 19.66c3.34 1.96 6.36-3.23 3.03-5.18l-33.56-19.67c-3.34-1.95-6.36 3.23-3.03 5.19ZM357.4 171.94l30.51 18.12c3.04 1.8 6.29-1.93 3.26-3.73l-30.52-18.11c-3.03-1.8-6.28 1.92-3.25 3.72ZM348.11 182.99l33.56 19.66c3.34 1.96 6.36-3.23 3.03-5.18l-33.56-19.67c-3.34-1.95-6.36 3.23-3.03 5.19Z" />
	<path d="m290.87 268.7-67.27-.4-.02-.49c-1.28-33.75 2.84-64.33 12.61-93.47l.44-3.4c1.66-13.04 2.99-23.4 15.39-27.25a8.81 8.81 0 0 1-1.75-4.73 8.61 8.61 0 0 1 2.14-6.3 8.28 8.28 0 0 1 5.75-2.81l23.95-.82a5.6 5.6 0 0 1 3.48 1.18 9.56 9.56 0 0 1 2.78 12.08c-.28.56-.4.82-.43.93.85 4.46 3.38 9.76 6.05 15.36 3.83 8.03 8.16 17.13 9.28 26.86a49.13 49.13 0 0 1-.74 15.75 31.04 31.04 0 0 0-.34 8.45c.21 4.19.42 8.13-1.94 11.95-.6 1.04-1.3 2.14-2.1 3.36l-3.33 7.95Z" />
	<path fill="#3f3d56" d="M189.92 315.93V178.47a16.91 16.91 0 0 1 16.9-16.9h4.66a16.91 16.91 0 0 1 16.9 16.9v137.46a16.91 16.91 0 0 1-16.9 16.9h-4.67a16.91 16.91 0 0 1-16.9-16.9Z" />
	<path fill="#ffb6b6" d="M370.32 192.19a14.72 14.72 0 0 0-1.3 1.92l-69.16 5.05-9.48-13.92-22.88 11.56 14.4 26.28a11.19 11.19 0 0 0 12.22 5.55l77.03-17.03a14.68 14.68 0 1 0-.83-19.41Z" />
	<path d="m297.54 199.47-28.28 14.5a6.3 6.3 0 0 1-8.83-3.57l-10.18-30a17.46 17.46 0 0 1 7.61-23.43c-12.53 6.43 13.57-11.84 23.53 7.56l18.39 25.68a6.3 6.3 0 0 1-2.24 9.26Z" />
	<path fill="#2f2e41" d="M255.91 119.44c-2.04 0-4.3-.99-6.85-2.99a43.51 43.51 0 0 1-13.26-51.02C237.65 61 241.1 55 247.1 51.48c4.29-2.53 9.34-3.45 13.74-4.1 3.8-.58 7.66-1.03 11.45-1.35 4.53-.39 9.77-.65 14.55 1.16 3.5 1.33 6.47 3.68 9.35 5.95 1 .8 2.05 1.61 3.09 2.37a22.7 22.7 0 0 0 8.52 4.14 4.67 4.67 0 0 1 3.13 2.3 4.75 4.75 0 0 1 .33 3.92c-.45 1.26-.85 2.4-.03 3.63a3.24 3.24 0 0 0 2.7 1.38 1.68 1.68 0 0 1 1.42.74 1.7 1.7 0 0 1 .19 1.59l-.13.33a2.18 2.18 0 0 1 1.7 1.11 2.23 2.23 0 0 1-.41 2.77 22.4 22.4 0 0 1-10.92 5.71 21.82 21.82 0 0 1-8.5-.02l-.45-.08.05-.5c-11.34-4.05-21.58 2.82-27.42 10.67l-.84-.54a2.42 2.42 0 0 0 .1-1.9 2.94 2.94 0 0 0-1.45-1.71 3.8 3.8 0 0 0-4.14.82 5.65 5.65 0 0 0-1.55 4.29 15.34 15.34 0 0 0 1.25 4.8c.27.73.56 1.49.79 2.25a18.31 18.31 0 0 1-.97 13.03c-.88 1.86-2.48 4.23-5.08 4.97a6.07 6.07 0 0 1-1.66.23Z" />
	<path fill="#cacaca" d="M808.48 462.58H1.2a1.2 1.2 0 0 1 0-2.38h807.3a1.2 1.2 0 0 1 0 2.38Z" />
</svg>
