<svg xmlns="http://www.w3.org/2000/svg" viewBox="0 0 1104 580.7">
	<path d="M0 9.63h1104v560H0z" />
	<path fill="#3f3d56" d="M498.98 133.76v65.68a2.3 2.3 0 0 1-2.3 2.29h-1.62v342.15a35.7 35.7 0 0 1-35.7 35.7h-213.8a35.7 35.7 0 0 1-35.68-35.7V213.73h-1.18a1.62 1.62 0 0 1-1.62-1.61v-37.38a1.62 1.62 0 0 1 1.62-1.62h1.18v-14.08h-1.2a1.7 1.7 0 0 1-1.68-1.7v-36.87a1.7 1.7 0 0 1 1.68-1.69h1.2V99.56h-1.22a1.5 1.5 0 0 1-1.5-1.5V77.94a1.5 1.5 0 0 1 1.5-1.51h1.22V35.69A35.7 35.7 0 0 1 245.56 0h213.79a35.7 35.7 0 0 1 35.7 35.69v95.78h1.62a2.3 2.3 0 0 1 2.3 2.29Z" />
	<path d="m948.7 9.63-472.68 324.5-32.26-46.99L848 9.63h100.7zM1104 9.63v46.99L439.02 513.13l-32.26-46.99L1071.75 9.63H1104zM1104 147.95v69.13L590.46 569.63H489.75L1104 147.95z" opacity=".1" />
	<path fill="#3f3d56" d="M30.17 578.66H1070v2H30.17z" />
	<path fill="#f0f0f0" d="m797.25 386.19 42.4 30.1-30.1 42.4-42.4-30.1z" />
	<path fill="#3f3d56" d="M809.17 469.62a12 12 0 1 1 12-12 12.01 12.01 0 0 1-12 12Zm0-22a10 10 0 1 0 10 10 10.01 10.01 0 0 0-10-10Z" />
	<path fill="#f0f0f0" d="M570.17 100.62a12 12 0 1 1 12-12 12.01 12.01 0 0 1-12 12Zm0-22a10 10 0 1 0 10 10 10.01 10.01 0 0 0-10-10Z" />
	<path fill="#3f3d56" d="M137.15 506.09h2v74.41h-2z" />
	<circle cx="138.15" cy="506.09" r="10.52" fill="#3f3d56" />
	<path fill="#3f3d56" d="M138.15 551.96s-1.5-32.34-32.32-28.58" />
	<rect width="39.82" height="8.09" x="325.48" y="18.31" fill="#e6e8ec" rx="2.54" />
	<circle cx="375.91" cy="22.35" r="4.59" fill="#e6e8ec" />
	<path d="M477.96 42.75v504.09a22.65 22.65 0 0 1-22.65 22.64H250.66a22.61 22.61 0 0 1-22.65-22.64V42.75a22.65 22.65 0 0 1 22.65-22.65h30.63v3.93a18.65 18.65 0 0 0 18.65 18.65h104.08a18.65 18.65 0 0 0 18.65-18.65V20.1h32.64a22.64 22.64 0 0 1 22.65 22.65Z" />
	<path fill="#3f3d56" d="M238 168.63h232v113H238zM238 356.63h232v113H238z" />
	<circle cx="446" cy="81.63" r="20" fill="#fff" />
	<path fill="#3f3d56" d="M455 80.99h-8.36v-8.36h-1.28v8.36H437v1.28h8.36v8.36h1.28v-8.36H455v-1.28z" />
	<path fill="#fff" d="M331.4 246.22c6.08 22.45 26.88 36.35 26.88 36.35s10.96-22.49 4.89-44.94-26.88-36.35-26.88-36.35-10.95 22.5-4.88 44.94Z" />
	<path d="M340.33 241.4c16.67 16.22 18.7 41.16 18.7 41.16s-24.98-1.37-41.65-17.59-18.7-41.16-18.7-41.16 24.99 1.36 41.65 17.59Z" />
	<path fill="#fff" d="M331.4 434.22c6.08 22.45 26.88 36.35 26.88 36.35s10.96-22.49 4.89-44.94-26.88-36.35-26.88-36.35-10.95 22.5-4.88 44.94Z" />
	<path d="M340.33 429.4c16.67 16.22 18.7 41.16 18.7 41.16s-24.98-1.37-41.65-17.59-18.7-41.16-18.7-41.16 24.99 1.36 41.65 17.59Z" />
	<path fill="#fff" d="M386.66 434.22c-6.08 22.45-26.88 36.35-26.88 36.35s-10.95-22.49-4.88-44.94 26.88-36.35 26.88-36.35 10.95 22.5 4.88 44.94Z" />
	<path d="M377.73 429.4c-16.66 16.22-18.7 41.16-18.7 41.16s24.99-1.37 41.65-17.59 18.7-41.16 18.7-41.16-24.98 1.36-41.65 17.59Z" />
	<path fill="#3f3d56" d="M976 120.91h-19.74v-19.74H976Zm-18.22-1.52h16.7v-16.7h-16.7Z" />
	<path fill="#f0f0f0" d="m987.64 568-13.46-14.44 14.43-13.47 13.47 14.44Zm-11.31-14.37 11.39 12.22 12.21-11.4-11.39-12.21Z" />
	<circle cx="137.31" cy="101.31" r="10.08" fill="#f0f0f0" />
	<path fill="#2f2e41" d="M137.31 130.42a29.12 29.12 0 1 1 29.12-29.11 29.15 29.15 0 0 1-29.12 29.11Zm0-55.99a26.88 26.88 0 1 0 26.88 26.88 26.9 26.9 0 0 0-26.88-26.88Z" />
	<path fill="#f0f0f0" d="M646 214.63h328v27H646zM687.5 277.63h245v10.46h-245zM687.5 294.48h245v10.46h-245zM687.5 311.33h245v10.46h-245zM687.5 328.17h245v10.46h-245z" />
</svg>
