<svg xmlns="http://www.w3.org/2000/svg" viewBox="0 0 721.11 582.53">
	<path fill="#3f3d56" d="m480.2 582.53-.16-.01-239.12-22.21L23.5 580.5a21.5 21.5 0 0 1-23.4-19.42q-.09-1-.09-1.99V41.97a21.4 21.4 0 0 1 19.51-21.4L240.92 0l.16.01 239.11 22.22 217.44-20.2a21.5 21.5 0 0 1 23.39 19.42q.1.99.1 1.98v517.13a21.4 21.4 0 0 1-19.52 21.4Z" />
	<path fill="#fff" d="M333.32 191.31a1796.6 1796.6 0 0 0-144.74-95l-2.5-1.47v99.46h151.35ZM189.39 191v-90.37c47.33 28 93.68 58.38 137.87 90.37Zm378.18 204.73q-30.02-31.22-61.6-61.01-8.71-8.22-17.53-16.31-53.79-49.42-111.11-94l-.45-.34h-190.8v174.46h384.19Zm-378.18-.5V227.38h186.36q55.27 43 107.56 90.81 9.08 8.3 18.03 16.73 31.3 29.42 61.15 60.3Zm378.18.5q-30.02-31.22-61.6-61.01-8.71-8.22-17.53-16.31-53.79-49.42-111.11-94l-.45-.34h-190.8v174.46h384.19Zm-378.18-.5V227.38h186.36q55.27 43 107.56 90.81 9.08 8.3 18.03 16.73 31.3 29.42 61.15 60.3ZM333.32 191.3a1796.6 1796.6 0 0 0-144.74-95l-2.5-1.47v99.46h151.35ZM189.39 191v-90.37c47.33 28 93.68 58.38 137.87 90.37Zm143.93.31a1796.6 1796.6 0 0 0-144.74-95l-2.5-1.47v99.46h151.35ZM189.39 191v-90.37c47.33 28 93.68 58.38 137.87 90.37Zm378.18 204.73q-30.02-31.22-61.6-61.01-8.71-8.22-17.53-16.31-53.79-49.42-111.11-94l-.45-.34h-190.8v174.46h384.19Zm-378.18-.5V227.38h186.36q55.27 43 107.56 90.81 9.08 8.3 18.03 16.73 31.3 29.42 61.15 60.3Zm-167 33.07v3.3H153v47.96H22.4v3.31h133.93V428.3Zm163.7 84.34v33.51l3.3-.3v-29.9h509.34v-3.31Zm512.64-81.03v-3.31H186.09v54.57h512.64v-3.3H189.39V431.6ZM389.86 191A1613.8 1613.8 0 0 0 189.39 58.9V25.42l-3.3.3v33.75l2.54 2.8A1610.49 1610.49 0 0 1 388.3 193.96l.45.34h309.99V191Zm-236.85 0H22.4v3.3h133.93V28.5l-3.3.3Zm545.72 33.07H426.2l3.56 2.93q50.33 41.41 98.83 87.84 6.9 6.6 13.75 13.3 34.08 33.3 66.83 68.78l2.73 1.61h86.82v-3.3H612.1q-32.4-35.13-66.2-68.22-6.75-6.62-13.56-13.15-47.45-45.53-96.93-86.48h263.3ZM22.39 512.64v3.3H153v33.28l3.3-.3v-36.28Zm0-288.57v3.3H153v167.86H22.4v3.3h133.93V224.07Zm310.93-32.76a1796.6 1796.6 0 0 0-144.74-95l-2.5-1.47v99.46h151.35ZM189.39 191v-90.37c47.33 28 93.68 58.38 137.87 90.37Zm378.18 204.73q-30.02-31.22-61.6-61.01-8.71-8.22-17.53-16.31-53.79-49.42-111.11-94l-.45-.34h-190.8v174.46h384.19Zm-378.18-.5V227.38h186.36q55.27 43 107.56 90.81 9.08 8.3 18.03 16.73 31.3 29.42 61.15 60.3ZM333.32 191.3a1796.6 1796.6 0 0 0-144.74-95l-2.5-1.47v99.46h151.35ZM189.39 191v-90.37c47.33 28 93.68 58.38 137.87 90.37Zm378.18 204.73q-30.02-31.22-61.6-61.01-8.71-8.22-17.53-16.31-53.79-49.42-111.11-94l-.45-.34h-190.8v174.46h384.19Zm-378.18-.5V227.38h186.36q55.27 43 107.56 90.81 9.08 8.3 18.03 16.73 31.3 29.42 61.15 60.3Z" />
	<path d="M369.34 217.65c0 41.88-75.84 135.18-75.84 135.18s-75.83-93.3-75.83-135.18a75.83 75.83 0 0 1 151.67 0Z" />
	<path fill="#fff" d="M567.61 373.08a34.67 34.67 0 1 1-34.66-34.67 34.65 34.65 0 0 1 34.66 34.67Z" style="isolation:isolate" transform="translate(-239.44 -158.73)" />
	<circle cx="293.5" cy="387.11" r="20.44" />
	<circle cx="489.36" cy="100.27" r="30.22" fill="#ff6584" />
	<path fill="#fff" d="M584.14 193.4H435.87a3.02 3.02 0 0 1-.55-.03L505.44 71.9a4.91 4.91 0 0 1 8.55 0l47.06 81.51 2.26 3.9Z" />
	<path d="M584.14 193.41h-50.62l24.85-36.1 1.79-2.6.89-1.3 2.26 3.9 20.83 36.1z" opacity=".2" style="isolation:isolate" />
	<path fill="#fff" d="M666.7 193.4H538.45l24.85-36.09 1.78-2.6 32.39-47.04c2.12-3.08 7.23-3.27 9.72-.58a5.85 5.85 0 0 1 .47.58Z" />
	<circle cx="676.21" cy="349.33" r="15.3" fill="#fff" />
	<path fill="#cbcbcb" d="M677.69 395.41h-3.14l1.43-48.38 1.71 48.38z" />
	<path fill="#cbcbcb" d="m676.26 356.2 3.36-4.65-3.41 5.8-.37-.64.42-.51zM675.89 360.9l-3.37-4.65 3.41 5.8.37-.64-.41-.51z" />
	<circle cx="632.72" cy="327.36" r="22.59" fill="#fff" />
	<path fill="#cbcbcb" d="M634.89 395.41h-4.62l2.11-71.45 2.51 71.45z" />
	<path fill="#cbcbcb" d="m632.78 337.5 4.97-6.87-5.03 8.57-.55-.95.61-.75zM632.24 344.44l-4.97-6.87 5.04 8.57.54-.95-.61-.75z" />
	<circle cx="108.21" cy="349.33" r="15.3" fill="#fff" />
	<path fill="#cbcbcb" d="M109.69 395.41h-3.14l1.43-48.38 1.71 48.38z" />
	<path fill="#cbcbcb" d="m108.26 356.2 3.36-4.65-3.41 5.8-.37-.64.42-.51zM107.89 360.9l-3.37-4.65 3.41 5.8.37-.64-.41-.51z" />
	<circle cx="64.72" cy="327.36" r="22.59" fill="#fff" />
	<path fill="#cbcbcb" d="M66.89 395.41h-4.62l2.11-71.45 2.51 71.45z" />
	<path fill="#cbcbcb" d="m64.78 337.5 4.97-6.87-5.03 8.57-.55-.95.61-.75zM64.24 344.44l-4.97-6.87 5.04 8.57.54-.95-.61-.75z" />
</svg>
