<svg xmlns="http://www.w3.org/2000/svg" viewBox="0 0 692 499.88">
	<path fill="#ccc" d="M691 496.04H1a1 1 0 0 1 0-2h690a1 1 0 0 1 0 2Z" />
	<path fill="#ccc" d="M622.7 321.64h-406a6.5 6.5 0 1 0 0 13h11.5v155.5a6.5 6.5 0 0 0 13 0l.1-155.5h355.9v155.5a6.5 6.5 0 0 0 13 0V338.07l1.9-3.43h10.6a6.5 6.5 0 1 0 0-13Z" />
	<path fill="#3f3d56" d="M441.8 325.04H318.8a9 9 0 0 1-8.98-8.98v-67.7a9 9 0 0 1 8.98-8.99H441.8a9 9 0 0 1 8.99 8.98v67.71a9 9 0 0 1-8.99 8.98Z" />
	<path fill="#fff" d="M441.8 246.28H318.8a2.07 2.07 0 0 0-2.07 2.07v67.71a2.07 2.07 0 0 0 2.07 2.07H441.8a2.07 2.07 0 0 0 2.07-2.07v-67.7a2.07 2.07 0 0 0-2.07-2.08Z" />
	<path fill="#2f2e41" d="M390.8 294.22s-14.73-3.4-22.83 2.83 10.3 20.35 10.3 20.35Z" />
	<circle cx="381.02" cy="273.92" r="13.89" fill="#a0616a" />
	<path fill="#2f2e41" d="M370.29 254.43a9.9 9.9 0 0 1 9.12-4.86 19.4 19.4 0 0 1 5.52 1.55l9.08 3.54c2.35.92 4.92 2.04 5.94 4.34.94 2.15.24 4.62-.48 6.85l-3.4 10.59a32.25 32.25 0 0 0-1.92-7 10.83 10.83 0 0 0-4.7-5.36c-2.36-1.21-5.14-1.19-7.79-1.06-3.75.18-7.82.66-10.49 3.3a10.9 10.9 0 0 0-2.76 5.4 32.5 32.5 0 0 0-.58 6.11 50.67 50.67 0 0 1-3.87-8.3 20.52 20.52 0 0 1-1.44-6.7 9.44 9.44 0 0 1 2.17-6.4 6.2 6.2 0 0 1 6.23-1.96Z" />
	<path d="M414.18 306.26a2.47 2.47 0 0 0-2.07-1.79.86.86 0 0 0-.1-.06l-20.73-11.62a2.64 2.64 0 0 0-3.53.91l-5.67 9.18-8.54-8.54-.13-.13a2.64 2.64 0 0 0-3.38-.3L353 305.84l-.09.01a3.63 3.63 0 0 0-3.03 3.4l-.44 8.88h68.04Z" />
	<path fill="#3f3d56" d="M452.16 316.75h-13.13a1.38 1.38 0 0 0-1.38-1.38h-4.15a1.38 1.38 0 0 0-1.38 1.38h-4.14a1.38 1.38 0 0 0-1.39-1.38h-4.14a1.38 1.38 0 0 0-1.38 1.38h-4.15a1.38 1.38 0 0 0-1.38-1.38h-4.15a1.38 1.38 0 0 0-1.38 1.38h-4.14a1.38 1.38 0 0 0-1.38-1.38h-4.15a1.38 1.38 0 0 0-1.38 1.38h-4.15a1.38 1.38 0 0 0-1.38-1.38h-4.15a1.38 1.38 0 0 0-1.38 1.38h-4.14a1.38 1.38 0 0 0-1.38-1.38h-4.15a1.38 1.38 0 0 0-1.38 1.38h-4.15a1.38 1.38 0 0 0-1.38-1.38h-4.14a1.38 1.38 0 0 0-1.39 1.38h-4.14a1.38 1.38 0 0 0-1.38-1.38h-4.15a1.38 1.38 0 0 0-1.38 1.38h-4.15a1.38 1.38 0 0 0-1.38-1.38h-4.14a1.38 1.38 0 0 0-1.39 1.38h-4.14a1.38 1.38 0 0 0-1.38-1.38H334a1.38 1.38 0 0 0-1.38 1.38h-4.14a1.38 1.38 0 0 0-1.39-1.38h-4.14a1.38 1.38 0 0 0-1.38 1.38h-13.13a4.15 4.15 0 0 0 0 8.3h143.7a4.15 4.15 0 0 0 0-8.3Z" />
	<path fill="#f2f2f2" d="M287.08 292.68v27.52h-68.96a13.77 13.77 0 1 1 0-27.52Z" />
	<path d="M288.77 320a1.06 1.06 0 0 1-1.06 1.05H216.9a14.5 14.5 0 1 1 0-29h70.82a1.06 1.06 0 0 1 0 2.11H216.9a12.39 12.39 0 0 0 0 24.77h70.82a1.06 1.06 0 0 1 1.06 1.06Z" />
	<path fill="#ccc" d="M287.08 299.03h-74.1a.21.21 0 1 1 0-.42h74.1a.21.21 0 0 1 0 .42ZM287.08 304.11h-74.1a.21.21 0 1 1 0-.42h74.1a.21.21 0 0 1 0 .42ZM287.08 309.2h-74.1a.21.21 0 1 1 0-.43h74.1a.21.21 0 0 1 0 .42ZM287.08 314.28h-74.1a.21.21 0 1 1 0-.43h74.1a.21.21 0 0 1 0 .43Z" />
	<path fill="#f2f2f2" d="M274.08 263.68v27.52h-68.96a13.77 13.77 0 1 1 0-27.52Z" />
	<path fill="#3f3d56" d="M275.77 291a1.06 1.06 0 0 1-1.06 1.05H203.9a14.5 14.5 0 1 1 0-29h70.82a1.06 1.06 0 0 1 0 2.11H203.9a12.39 12.39 0 0 0 0 24.77h70.82a1.06 1.06 0 0 1 1.06 1.06Z" />
	<path fill="#ccc" d="M274.08 270.03h-74.1a.21.21 0 1 1 0-.42h74.1a.21.21 0 0 1 0 .42ZM274.08 275.11h-74.1a.21.21 0 1 1 0-.42h74.1a.21.21 0 0 1 0 .42ZM274.08 280.2h-74.1a.21.21 0 1 1 0-.43h74.1a.21.21 0 0 1 0 .42ZM274.08 285.28h-74.1a.21.21 0 1 1 0-.43h74.1a.21.21 0 0 1 0 .43ZM354.3 418.04v-24a4 4 0 0 0-4-4h-91a4 4 0 0 0-4 4v24ZM255.3 427.04h99v31h-99zM255.3 467.04v24a4 4 0 0 0 4 4h91a4 4 0 0 0 4-4v-24Z" />
	<circle cx="304.3" cy="405.04" r="3" fill="#fff" />
	<circle cx="304.3" cy="445.04" r="3" fill="#fff" />
	<circle cx="304.46" cy="484.2" r="3" fill="#fff" />
	<path fill="#f2f2f2" d="M343.08 362.68v27.52h-68.96a13.77 13.77 0 1 1 0-27.52Z" />
	<path fill="#3f3d56" d="M344.77 390a1.06 1.06 0 0 1-1.06 1.05H272.9a14.5 14.5 0 1 1 0-29h70.82a1.06 1.06 0 0 1 0 2.11H272.9a12.39 12.39 0 0 0 0 24.77h70.82a1.06 1.06 0 0 1 1.06 1.06Z" />
	<path fill="#ccc" d="M343.08 369.03h-74.1a.21.21 0 1 1 0-.42h74.1a.21.21 0 0 1 0 .42ZM343.08 374.11h-74.1a.21.21 0 1 1 0-.42h74.1a.21.21 0 0 1 0 .42ZM343.08 379.2h-74.1a.21.21 0 1 1 0-.43h74.1a.21.21 0 0 1 0 .42ZM343.08 384.28h-74.1a.21.21 0 1 1 0-.43h74.1a.21.21 0 0 1 0 .43Z" />
	<path fill="#e6e6e6" d="M250.11 183.02V7.52A7.53 7.53 0 0 1 257.63 0h138.73a7.53 7.53 0 0 1 7.52 7.52v175.5a7.53 7.53 0 0 1-7.52 7.52H257.63a7.53 7.53 0 0 1-7.52-7.52Zm7.52-181.35a5.86 5.86 0 0 0-5.85 5.85v175.5a5.86 5.86 0 0 0 5.85 5.85h138.73a5.86 5.86 0 0 0 5.85-5.85V7.52a5.86 5.86 0 0 0-5.85-5.85Z" />
	<path d="M334.78 80.6V44.56a3.76 3.76 0 0 1 3.76-3.76h30.53a3.76 3.76 0 0 1 3.76 3.76V80.6a3.76 3.76 0 0 1-3.76 3.76h-30.53a3.76 3.76 0 0 1-3.76-3.76Z" />
	<path fill="#ccc" d="M275.44 97.31V61.28a3.76 3.76 0 0 1 3.76-3.76h30.54a3.76 3.76 0 0 1 3.76 3.76V97.3a3.76 3.76 0 0 1-3.76 3.76H279.2a3.76 3.76 0 0 1-3.76-3.76Z" />
	<path fill="#ff6584" d="M323.08 148.3v-36.05a3.76 3.76 0 0 1 3.76-3.76h30.53a3.76 3.76 0 0 1 3.76 3.76v36.04a3.76 3.76 0 0 1-3.76 3.76h-30.53a3.76 3.76 0 0 1-3.76-3.76Z" />
	<path fill="#3f3d56" d="M505.56 313.04h-31.42a1.94 1.94 0 0 0-.86.2l-7.93 3.97a1.45 1.45 0 0 0 0 2.66l7.93 3.97a1.94 1.94 0 0 0 .86.2h31.42a1.65 1.65 0 0 0 1.74-1.53v-7.94a1.65 1.65 0 0 0-1.74-1.53Z" />
	<path d="M507.3 314.57v7.94a1.65 1.65 0 0 1-1.74 1.53h-6.26v-11h6.26a1.65 1.65 0 0 1 1.74 1.53Z" />
	<path fill="#ffb8b8" d="M505.33 253.64a11 11 0 0 1 14.89 6.92 10.59 10.59 0 0 1 .32 1.43l43.94 21.8 10.16-6.75 12.66 14.57-15.53 12.6a11.15 11.15 0 0 1-13.3.52l-44.58-30.83a10.51 10.51 0 0 1-1.02.37 11 11 0 0 1-14-8.56 10.7 10.7 0 0 1-.17-1.34 11.04 11.04 0 0 1 6.63-10.73Z" />
	<path fill="#3f3d56" d="M596.84 387.8h-48c0 1.37-49.49 2.5-49.49 2.5a12.86 12.86 0 0 0-2.1 2 12.41 12.41 0 0 0-2.9 8v2a12.5 12.5 0 0 0 12.5 12.5h90a12.51 12.51 0 0 0 12.5-12.5v-2a12.52 12.52 0 0 0-12.5-12.5Z" />
	<path fill="#3f3d56" d="M557.62 498.3h-13v-84h13z" />
	<path fill="#3f3d56" d="M507.62 497.84c0 1.4 19.7.54 44 .54s44 .86 44-.54-19.7-12.54-44-12.54-44 11.13-44 12.54Z" />
	<path fill="#ffb8b8" d="M519.35 487.99h-12.26l-5.83-31.79h18.1l-.01 31.79z" />
	<path fill="#2f2e41" d="M522.48 499.88h-39.53v-.5a15.39 15.39 0 0 1 15.39-15.4l24.14.01ZM501.02 468.27l-24.44-54.8a20.09 20.09 0 0 1 8.81-25.79l53.02-28.42 24.19-2.06 22.31-2.03.16.27c.21.35 5 8.64 1.76 17.72-2.46 6.9-8.85 12.28-19.01 16-23.72 8.7-51.11 16.13-61.79 18.92a3.45 3.45 0 0 0-2.21 1.76 3.5 3.5 0 0 0-.2 2.8l22.7 51.02a4.5 4.5 0 0 1-3.8 6.03l-16.97 1.23q-.21.02-.43.02a4.5 4.5 0 0 1-4.1-2.67Z" />
	<path fill="#ffb8b8" d="M525.35 487.99h-12.26l-5.83-31.79h18.1l-.01 31.79z" />
	<path fill="#2f2e41" d="M528.48 499.88h-39.53v-.5a15.39 15.39 0 0 1 15.39-15.4l24.14.01ZM508.02 471.27l-24.44-54.8a20.09 20.09 0 0 1 8.81-25.79l53.02-28.42 24.19-2.06 22.31-2.03.16.27c.21.35 5 8.64 1.76 17.72-2.46 6.9-8.85 12.28-19.01 16-23.72 8.7-51.11 16.13-61.79 18.92a3.45 3.45 0 0 0-2.21 1.76 3.5 3.5 0 0 0-.2 2.8l22.7 51.02a4.5 4.5 0 0 1-3.8 6.03l-16.97 1.23q-.21.02-.43.02a4.5 4.5 0 0 1-4.1-2.67Z" />
	<path fill="#ccc" d="M495.83 303.84a167.5 167.5 0 0 1-24.07-44.93 4.3 4.3 0 0 1 2.03-5.18l35.15-18.83a4.25 4.25 0 0 1 3.72-.15 4.32 4.32 0 0 1 2.46 2.88 102.33 102.33 0 0 0 22.45 41.9 4.32 4.32 0 0 1 1.04 3.64 4.25 4.25 0 0 1-2.2 3.02l-35.14 18.83a4.3 4.3 0 0 1-5.44-1.18Z" />
	<path fill="#fff" d="M498.23 302.04a1.3 1.3 0 0 0 1.62.34L535 283.55a1.25 1.25 0 0 0 .65-.9 1.32 1.32 0 0 0-.32-1.13 105.34 105.34 0 0 1-23.1-43.12 1.32 1.32 0 0 0-.77-.9 1.25 1.25 0 0 0-1.1.05l-35.15 18.83a1.3 1.3 0 0 0-.62 1.53 164.5 164.5 0 0 0 23.64 44.13Z" />
	<path d="m612.6 298.82-27.53 10.46-6.72-18.67a11.17 11.17 0 0 1 5-13.5 11.17 11.17 0 0 1 14.26 2.79Z" />
	<path d="M542.58 372.78a5 5 0 0 1-2.08-3.55c-3.53-32.9-1.07-58.66 7.5-78.73a25 25 0 0 1 16.57-14.18l22.25-1.13.12.06a26 26 0 0 1 14.22 27.59c-7.16 18.86-13.15 38.5-8.58 54.34a5.12 5.12 0 0 1-.49 3.99 4.88 4.88 0 0 1-3.11 2.3l-42.38 10.09a4.96 4.96 0 0 1-4.02-.78Z" />
	<circle cx="579.4" cy="242.32" r="24.56" fill="#ffb8b8" />
	<path fill="#ccc" d="m511.24 261.78-19.14 8.45a3 3 0 0 1-3.95-1.54l-.48-1.07a3 3 0 0 1 1.54-3.96l19.14-8.45a3 3 0 0 1 3.95 1.54l.48 1.07a3 3 0 0 1-1.54 3.96ZM518.24 274.78l-19.14 8.45a3 3 0 0 1-3.95-1.54l-.48-1.07a3 3 0 0 1 1.54-3.96l19.14-8.45a3 3 0 0 1 3.95 1.54l.48 1.07a3 3 0 0 1-1.54 3.96Z" />
	<path fill="#ffb8b8" d="m533 325.55-42.67-33.66a10.52 10.52 0 0 1-1.04.3 11.03 11.03 0 0 1-8.81-1.69 10.91 10.91 0 0 1-4.63-7.73 11.02 11.02 0 0 1 7.2-11.64 11 11 0 0 1 14.44 7.84 10.57 10.57 0 0 1 .22 1.45l42.49 24.5 10.57-6.08 11.7 15.33-16.4 11.7a10.94 10.94 0 0 1-13.06-.32Z" />
	<path d="m567.69 318.95-24.35-16.56 11.44-16.2a11.17 11.17 0 0 1 13.93-3.65 11.17 11.17 0 0 1 5.9 13.29Z" />
	<path fill="#2f2e41" d="M570.4 238.67c-6.32 4.32-14.61 8.76-21.06 4.16-4.23-3.03-5.57-8.62-3.85-13.53 3.09-8.83 11.57-12.71 19.68-15.7 10.55-3.87 22.03-6.95 32.91-4.17s20.5 13.3 18.54 24.37c-1.58 8.9-9.97 16.3-8.78 25.25 1.2 9.01 11.34 13.75 20.29 15.36s18.96 2.13 25.39 8.56c8.2 8.2 6.15 22.85-1.57 31.51s-19.36 12.58-30.65 15.25c-14.96 3.53-31.13 5.39-45.33-.48s-25.26-21.65-21.14-36.46c1.73-6.25 5.83-11.54 9.78-16.68s7.97-10.53 9.48-16.84c1.25-5.26.32-11.37-3.16-15.31a4.44 4.44 0 0 1-.6-5.2Z" />
	<path fill="#e6e6e6" d="M109.07 358a39.06 39.06 0 0 1-37.72-6.65C58.14 340.26 54 322 50.63 305.08l-9.97-50.04 20.87 14.37c15 10.34 30.36 21 40.75 35.98s14.93 35.4 6.58 51.6" />
	<path fill="#f2f2f2" d="M107.29 418.58c2.11-15.39 4.28-30.98 2.8-46.53-1.32-13.81-5.53-27.3-14.1-38.36a63.82 63.82 0 0 0-16.38-14.84c-1.64-1.03-3.15 1.56-1.52 2.6a60.67 60.67 0 0 1 24 28.95c5.23 13.29 6.07 27.77 5.17 41.9-.55 8.53-1.7 17-2.86 25.48a1.55 1.55 0 0 0 1.04 1.84 1.5 1.5 0 0 0 1.85-1.04Z" />
	<path fill="#e6e6e6" d="M86.94 391.35a28.76 28.76 0 0 1-25.05 12.93c-12.69-.6-23.26-9.45-32.78-17.86L.96 361.56l18.63-.89c13.4-.64 27.15-1.24 39.9 2.9s24.54 14.07 26.88 27.28" />
	<path fill="#f2f2f2" d="M113.26 427.42c-10.17-17.99-21.96-37.98-43.04-44.37a48.02 48.02 0 0 0-18.1-1.87c-1.92.16-1.44 3.12.48 2.96a44.61 44.61 0 0 1 28.89 7.64c8.14 5.55 14.48 13.25 19.85 21.43 3.29 5 6.23 10.22 9.18 15.43.94 1.67 3.69.47 2.74-1.22Z" />
	<path fill="#f2f2f2" d="M129.55 446.36a21.77 21.77 0 0 0-13.34-18.24v-10.4H98.76v10.73a21.76 21.76 0 0 0-12.61 17.9l-4.1 47.7h51.6Z" />
</svg>
