<svg xmlns="http://www.w3.org/2000/svg" viewBox="0 0 704 745.19">
	<path d="m96.7 583.85-8.4-33.07a429.46 429.46 0 0 0-45.56-16.35l-1.06 15.37-4.29-16.93c-19.2-5.48-32.27-7.9-32.27-7.9s17.65 67.1 54.67 118.4l43.12 7.57-33.5 4.83a173.75 173.75 0 0 0 14.98 15.88c53.85 49.97 113.81 72.9 133.94 51.2s-7.2-79.78-61.03-129.75c-16.7-15.5-37.66-27.92-58.65-37.7Z" />
	<path d="m176.44 547.93 9.92-32.65a429.46 429.46 0 0 0-30.56-37.54l-8.85 12.6 5.08-16.7c-13.6-14.63-23.54-23.45-23.54-23.45s-19.58 66.56-14.4 129.6l33 28.78-31.18-13.18a173.75 173.75 0 0 0 4.62 21.34c20.26 70.6 59.74 121.23 88.2 113.07s35.07-72.02 14.81-142.63c-6.28-21.89-17.8-43.37-30.71-62.59Z" />
	<ellipse cx="352" cy="727.19" fill="#3f3d56" rx="352" ry="18" />
	<path fill="#3f3d56" d="M557.65 172.95h-4V63.4A63.4 63.4 0 0 0 490.25 0H258.17a63.4 63.4 0 0 0-63.4 63.4v600.98a63.4 63.4 0 0 0 63.4 63.4h232.08a63.4 63.4 0 0 0 63.4-63.4V250.92h4Z" />
	<path fill="#fff" d="M540.16 63.84v600.1a47.35 47.35 0 0 1-47.35 47.34h-233.2a47.35 47.35 0 0 1-47.35-47.35V63.84a47.35 47.35 0 0 1 47.35-47.35h28.29a22.5 22.5 0 0 0 20.83 31h132.96a22.5 22.5 0 0 0 20.83-31h30.29a47.35 47.35 0 0 1 47.35 47.35Z" />
	<path fill="#e6e6e6" d="M540.16 535v128.93a47.35 47.35 0 0 1-47.35 47.35h-233.2a47.35 47.35 0 0 1-47.35-47.35V547.57A222.97 222.97 0 0 1 540.16 535Z" />
	<path fill="#e6e6e6" d="M322.17 511.17h-9.42l3.14-184.11h3.14l3.14 184.11z" />
	<path fill="#e6e6e6" d="m330.03 211.16 15.21-23.52a352.5 352.5 0 0 0-15.6-36.53l-9.84 7.94 7.79-12.04a316.7 316.7 0 0 0-13.27-23.82s-30.51 48.09-40.7 99l19.52 30.16-21.61-17.45a142.61 142.61 0 0 0-1.19 17.88c0 60.3 19.69 109.17 43.98 109.17s43.98-48.88 43.98-109.17c0-18.69-4.23-38.25-10.06-56.33ZM267.48 524.17h-4.57l1.52-89.29h1.53l1.52 89.29z" />
	<path fill="#e6e6e6" d="m271.29 378.66 7.38-11.4a170.96 170.96 0 0 0-7.57-17.72l-4.77 3.86 3.77-5.84c-3.6-7.09-6.43-11.56-6.43-11.56s-14.8 23.32-19.74 48.01l9.47 14.64-10.49-8.47a69.17 69.17 0 0 0-.57 8.67c0 29.24 9.55 52.95 21.33 52.95S285 428.1 285 398.85c0-9.06-2.05-18.55-4.88-27.32ZM386.48 524.17h-4.57l1.52-89.29h1.53l1.52 89.29z" />
	<path fill="#e6e6e6" d="m390.29 378.66 7.38-11.4a170.96 170.96 0 0 0-7.57-17.72l-4.77 3.86 3.77-5.84c-3.6-7.09-6.43-11.56-6.43-11.56s-14.8 23.32-19.74 48.01l9.47 14.64-10.49-8.47a69.17 69.17 0 0 0-.57 8.67c0 29.24 9.55 52.95 21.33 52.95S404 428.1 404 398.85c0-9.06-2.05-18.55-4.88-27.32Z" />
	<circle cx="264" cy="186.19" r="42" fill="#e6e6e6" />
	<path fill="#2f2e41" d="m415.87 234.17 76.66 1.91 10.32-91.41h-86.98v89.5z" />
	<path fill="#ffb8b8" d="m396.77 162.56-21.15-81.08s5.85-38.92 19.98-38.28-3.67 38.05-3.67 38.05l23.94 70.04Z" />
	<path fill="#2f2e41" d="m438.22 365.7 3.32 33.12s-104.32 71.2-104.32 101-3.3 124.18-3.3 124.18l38.07 1.66 3.32-44.7s8.28-49.68 3.3-67.9l54.65-41.39S416.7 491.54 420 526.31s-4.97 102.66-4.97 102.66l39.74 3.3s4.97-36.42 6.62-39.73 9.94-62.92 1.66-79.47l67.89-79.48s23.18-29.8 0-59.6l-13.25-6.63Z" />
	<path fill="#2f2e41" d="m335.57 617.38-3.31 21.52-21.53 51.33s-36.42 18.21-9.93 21.52 36.42-3.3 41.4-11.59 14.9-21.52 14.9-21.52l-1.66 34.77h8.28l13.57-47.5a29.95 29.95 0 0 0-5.1-26.76l-.2-.25c-6.62-8.28-3.3-19.87-3.3-19.87ZM418.36 617.38l-3.32 21.52-21.52 51.33s-36.43 18.21-9.93 21.52 36.42-3.3 41.39-11.59 14.9-21.52 14.9-21.52l-1.66 34.77h8.28l13.57-47.5a29.95 29.95 0 0 0-5.1-26.76l-.19-.25c-6.62-8.28-3.31-19.87-3.31-19.87Z" />
	<circle cx="458.09" cy="162.05" r="33.11" fill="#ffb8b8" />
	<path fill="#ffb8b8" d="m456.44 190.2 14.9 34.77 29.8-23.18s-18.21-24.84-18.21-28.15Z" />
	<path d="m459.75 210.07 7.06 4.34s22.83-12.1 28.58-20.64c0 0 20.65-6.88 28.93 9.67s-4.97 130.8-4.97 130.8 8.28 11.6 6.63 16.56 4.97 13.25 4.97 13.25v9.93s-94.38 1.66-94.38-6.62v-26.49l-9.94-3.31s-9.93 21.52-13.24 19.87-19.87-14.9-19.87-14.9 26.5-87.76 41.4-102.66l18.2-31.46Z" />
	<path d="M456.44 211.72s-3.31-6.62-8.28-8.28-29.8-36.42-29.8-36.42l3.3-18.21-33.1-4.97s1.65 18.21 8.27 29.8 43.05 71.2 43.05 71.2l18.21-33.12Z" />
	<path fill="#ffb8b8" d="m482.1 343.35-19.87 59.61s-41.4 46.36-18.21 46.36 34.77-41.4 34.77-41.4l28.15-59.6Z" />
	<path fill="#2f2e41" d="M418.4 162.54c26.53-10.64 52.67-12.9 78.14 0V141.1a13.96 13.96 0 0 0-13.96-13.96h-53.15a11.02 11.02 0 0 0-11.03 11.03Z" />
	<path d="M502.8 208.41s15.1-12.8 23.28 1.88 3.2 77.6 1.55 85.88-13.24 59.6-13.24 59.6l-39.74-8.28s-3.31-23.18 6.62-21.52Z" />
	<path fill="#2f2e41" d="M519.28 194.18c-7.48-4.1-10.96-13.31-11.2-21.84-.25-8.52 1.82-16.96 1.98-25.49a19.7 19.7 0 0 0-.44-5.2 20 20 0 0 0-2.86-5.91c-9.72-14.9-26.62-25.37-44.42-25.54a19.73 19.73 0 0 0-7.51 1.38c-1.85.74-2.45.65-2.8 2.91a18.8 18.8 0 0 0-12.9.41 43.67 43.67 0 0 0-11.3 6.72 50.91 50.91 0 0 0-5.7 4.94c-9.4 9.75-11.57 24.77-8.85 38.03.89 4.31-3.36 8.48-6.88 11.13s-7.58 5.08-9.3 9.13c-1.67 3.9-.75 8.35-1.09 12.57a21.5 21.5 0 0 1-13.72 18.07 6.62 6.62 0 0 0 6.39 2.25 15.72 15.72 0 0 0 6.65-3.17 39.58 39.58 0 0 0 14.76-21.9c1.03 4.7.63 9.55.6 14.36a40.1 40.1 0 0 1-2.92 15.68 22.96 22.96 0 0 1-10.57 11.64c4.62 2.26 9.7.62 13.61-2.71s6.22-8.17 7.83-13.05a65.03 65.03 0 0 0 3.13-24.68 35.24 35.24 0 0 1 4.43 24.03 36.73 36.73 0 0 1-12.46 21.62 71.56 71.56 0 0 0 32.75-8.25 18.54 18.54 0 0 0 6.72-5.17c3.25-4.51 2.48-10.66 1.57-16.15-.72-4.33 4.7-10.6 1.6-13.71a5.14 5.14 0 0 0-3.46-1.49c-9.45-.9-18.2-5.65-23.25-13.7-3.53-5.64-5.87-12.08-5.87-18.1a32.93 32.93 0 1 1 64.38 9.77 66.08 66.08 0 0 0-2.4 11.17 87.68 87.68 0 0 1-2.67 12.98c-2.35 8.17-6.32 16.51-13.68 20.78 2.47 1.35 5.33 1.41 8.13 1.72 9.24 1.02 18.95.8 27.31-3.26s15-12.7 14.4-21.97Z" />
	<path d="m490.38 252.29-8.64 71.13.36-67.82 8.28-3.31zM518.77 336.29l-3.55 21.97 8.27 3.31-4.72-25.28z" opacity=".2" />
</svg>
