<svg xmlns="http://www.w3.org/2000/svg" viewBox="0 0 682.16 538.25">
	<path fill="#ffb8b8" d="m188.86 526.39 12.18-1.39.47-47.64-17.98 2.04 5.33 46.99z" />
	<path fill="#2f2e41" d="m225.82 533.65-38.28 4.34-1.68-14.79 23.49-2.67a14.89 14.89 0 0 1 16.47 13.12Z" />
	<path fill="#ffb8b8" d="M63.58 525.62h12.26l5.83-47.29-18.09.01v47.28z" />
	<path fill="#2f2e41" d="M99.49 537H60.96v-14.88H84.6a14.89 14.89 0 0 1 14.89 14.89ZM151.54 314.16l7 22.76 38 82.24 10 78-23 1-14-72-48-52-42 136-19-2s16-176 38-194c0 0 36-17 53 0Z" />
	<circle cx="120.49" cy="191.35" r="24.56" fill="#ffb8b8" />
	<path fill="#ccc" d="M154.04 318.66s3-102-39-95-24.5 105.5-24.5 105.5 9 18 31-2 32.5-8.5 32.5-8.5Z" />
	<path d="m96.04 266.66 9.89 37.88 15.05 15.06-20.94-6.94-4-46z" opacity=".2" style="isolation:isolate" />
	<path fill="#ffb8b8" d="M154.35 361.8a10.06 10.06 0 0 1-5.27-14.5l-23.36-27.04 18.41-2.4 19.36 26.05a10.11 10.11 0 0 1-9.14 17.88Z" />
	<path fill="#ccc" d="m125.91 244.43 2.63 51.73 31 40-13 10-42-42s-15-51-4-66c4.13-5.63 8.68-7.18 12.75-6.91a13.78 13.78 0 0 1 12.62 13.18Z" />
	<path fill="#2f2e41" d="M117.57 217.16a1.01 1.01 0 0 0-.14-1.62 14.28 14.28 0 0 1 1.37-25.04c7.23-3.44 17.01-.76 22.35-7.38a12.4 12.4 0 0 0 2.3-10.08c-1.15-6.24-5.85-10.89-11.1-14.07a40.43 40.43 0 0 0-61.1 39.14c.68 6.01 2.54 12.76-1.04 17.64-3.15 4.3-9.09 5.1-14.3 6.17-11.2 2.3-22 7.57-29.6 16.1s-11.64 20.52-9.35 31.71 11.48 21.03 22.77 22.77c9.19 1.4 18.68-2.5 25.43-8.9s11.02-15.03 13.7-23.93c3.2-10.57 4.46-21.95 10.23-31.36 5.64-9.21 17.8-15.81 27.33-11.02a1.02 1.02 0 0 0 1.15-.13Z" />
	<path fill="#3f3d56" d="M308 538.25H1a1 1 0 0 1 0-2h307a1 1 0 0 1 0 2ZM618.13 197.78a113.46 113.46 0 1 1-7.18-39.95l.72 2v.01q1.57 4.44 2.77 9.04a114.23 114.23 0 0 1 3.69 28.9Z" />
	<path d="M491.41 120.72a38.32 38.32 0 0 0-33.64-1.38c-4.7 2.05-9.66 5.72-11.23 12.35 6.35-3.74 14.57 2.17 16.2 11.67l-.38.1c-.87 6.58 1.06 13.74 4.79 17.82a12.53 12.53 0 0 1 6.01-8.92c2.74-1.8 5.77-3.11 7.86-6.2 2.48-3.68 3.1-9.04 4.1-13.93s2.85-10.15 6.3-11.51Z" />
	<path d="M455.89 176.67c-1.76 2.64-4.1 4.3-6.22 6.36a14.3 14.3 0 0 0-4.51 8.45c-.27 2.3.14 4.63.09 6.95-.06 2.33-.84 4.94-2.42 5.52-2.49.9-4.4-3.73-6.96-4.06-2.03-.25-3.87 2.95-3.28 5.73s3.37 4.01 4.96 2.2c1.44 2.42.42 6.8-1.74 7.54l-.68 4.57c-5.47-3.83-11-7.72-15.65-13.32a40.43 40.43 0 0 1-9.21-21.78c-.6-6.44.29-13.8-2.67-18.77-2.36-3.96-6.42-4.84-10.08-4.59-.67.05-1.34.12-2 .2a112.97 112.97 0 0 1 8.17-18.72 8.01 8.01 0 0 0 2.05-1.27c3.4-2.89 4.92-8.73 7.68-12.77q.26-.4.55-.77c2.82-3.68 6.6-5.58 10.26-7.34 8.09-3.93 16.41-7.91 24.96-7.37l-2.43.24-8.52 23.83-1.3 3.66c-1.62 4.52-3.28 9.33-3.03 14.39.14 3 1.18 6.2 3.16 7.22 1.85.95 3.87-.21 5.65-1.37l2.26-1.45c2.7-1.75 5.7-3.54 8.57-2.37 2.62 1.07 4.56 4.63 4.93 8.47a16.92 16.92 0 0 1-2.6 10.62ZM472 230.91l-23.74-14.61.14-.35c-4.93 1.88-6.97 10.62-6.15 17.77s3.57 13.55 4.96 20.52a54.45 54.45 0 0 1-2.05 28.57 234 234 0 0 0 27.48-37.88 20.26 20.26 0 0 0 2.5-5.51 8.77 8.77 0 0 0-.59-6.24 6.95 6.95 0 0 0-2.55-2.27Z" />
	<path d="M440.77 142.27a8.75 8.75 0 0 0-.4 6.36 7.05 7.05 0 0 0 3.94 3.65l4.37 2.17c1.46.72 3.02 1.45 4.5.86 1.8-.72 3.04-3.52 2.72-6.13-.35-2.77-2.1-4.67-3.7-6.3l-6.79-6.8-1.27 1.55a17 17 0 0 0-3.37 4.64ZM594.69 171.88l5.9 1.4c-.34 6.64-3.64 12.79-8.05 15.01-1.84.93-3.9 1.27-5.41 3-1.38 1.58-2.08 4.03-2.72 6.37l-3.37 12.26c-1.2 4.4-2.75 9.3-5.89 10.88-2.69 1.37-5.77-.3-7.84-3.1-2.06-2.8-3.33-6.56-4.55-10.23.07 4-1.78 7.92-4.42 9.3-2.64 1.4-5.85.14-7.61-2.96-1.27-2.23-1.8-5.17-3.04-7.43-1.25-2.25-3.85-3.55-5.21-1.43-.9 1.4-.78 3.57-1.23 5.36a5.82 5.82 0 0 1-4.86 4.67 8.1 8.1 0 0 1-5.82-2.66 26.36 26.36 0 0 1-7.22-14.57 17.39 17.39 0 0 1 .2-7.97c.78-2.47 2.66-4.37 4.54-3.9 1.23-2.6-1.2-6.06-3.4-5.75-2.19.3-3.9 2.66-5.71 4.46-1.8 1.81-4.3 3.13-6.12 1.33a2.48 2.48 0 0 1-2.32 2.63h-.2a9 9 0 0 1-3.28-1.74c-4.14-2.58-9.4-.86-12.35 4.02 1.85-7.83 4.54-16.81 10.2-18.65 2.3-.76 4.82-.14 7-1.44 3.87-2.32 4.65-11.07 1.31-14.68.43 3.41.35 7.4-1.45 9.73-1.8 2.34-5.59.81-5.36-2.64a2.31 2.31 0 0 1-4.3.92c-1.2-1.83-1.1-4.82-.25-7a16.49 16.49 0 0 1 3.7-5.26c3.01-3.23 6.07-6.5 9.56-8.53 3.5-2.03 7.53-2.71 11.04-.7 1.84 1.07 3.47 2.85 5.35 3.79a3.97 3.97 0 0 0 5.47-1.28l.06-.1c1.4-2.47.74-6.12 1.26-9.2.94-5.44 6.37-7.98 9.39-4.4-2.25-.57-4.58 2.1-4.86 5.33-.29 3.23 1.34 6.49 3.53 7.47 3.66 1.62 7.25-2.47 10.03-6.25q4.34-5.94 8.7-11.87a14.35 14.35 0 0 1 1.55-1.9 5 5 0 0 1 6.83-.13c2.93 2.4 4.3 7.3 6.71 10.67 3.5 4.9 8.72 6.1 13.58 7.05l10.87 2.13a112.69 112.69 0 0 1 6.32 13.94 38.21 38.21 0 0 0-16.26 14.05ZM606.4 248.23a113.76 113.76 0 0 1-9.45 15.82c-2.29-.97-4.74.77-6.88 2.4-2.23 1.72-4.92 3.39-7.2 1.83-2.35-1.6-3.1-6.07-2.36-9.62a25.63 25.63 0 0 1 4.39-9.04c1.9-2.84 3.94-5.8 6.58-6.9 2.66-1.1 6.06.46 6.84 4.23l1.88-.06c-1.06-1.45-.5-4.44.91-4.97 1.63-.62 3.05 1.62 4.01 3.6.43.9.87 1.8 1.28 2.71Z" />
	<path d="M534.47 221.43c-4.04.25-7.24-4.72-9.36-9.6s-4.07-10.49-7.71-12.97c-2.08-1.43-4.46-1.62-6.71-2.31a8.31 8.31 0 0 1-5.7-5.02l-2.56-1.03a38.46 38.46 0 0 0-9.73 6.93 21.73 21.73 0 0 0-5.8 12.67c-.48 5.12 1.33 10.84 4.7 12.76 2.67 1.52 5.77.57 8.48 1.96 3.37 1.74 5.37 6.8 6.13 11.79s.57 10.18 1.11 15.22 2.04 10.3 5.14 12.9c3.87 3.23 9.55.54 11.3-5.35.84-2.9.82-6.16 1.45-9.16 1.13-5.28 4.16-9.2 6.56-13.54s4.3-10.22 2.7-15.25ZM494.57 169.5a10.77 10.77 0 0 1 1.05 1.12 3.67 3.67 0 0 1-.06 3.79 3.52 3.52 0 0 0 2.52-1.29 16.21 16.21 0 0 0 1.94-2.72 2.97 2.97 0 0 0 .57-2.38c-.2-.54-.65-.77-.96-1.18a8.06 8.06 0 0 1-.89-2.57 4.63 4.63 0 0 0-3.36-3.54l.2.04a1.92 1.92 0 0 0-.9 2.04c.13.8.64 1.45.59 2.26-.07 1.16-1.23 1.7-1.3 2.86a2.22 2.22 0 0 0 .6 1.57ZM487.66 149.77h.01a3.24 3.24 0 0 0 .35-.37Z" />
	<path d="M488.87 155.22a3.52 3.52 0 0 0 1.1-3.49c-.3-1.32-1.34-2.2-2.3-1.96a2.33 2.33 0 0 1-2.17.63c-.59-.15-1.24-.54-1.75-.1a2.66 2.66 0 0 0-.6 1.17l-.57 1.75a1.1 1.1 0 0 0-.07.67.56.56 0 0 0 .43.34l3.42 1a2.95 2.95 0 0 0 2.5-.01ZM574.94 230.48l-1.58-2.6a8.65 8.65 0 0 0-2.09-2.6 1.85 1.85 0 0 0-2.6.22l-.02.04.06.49a11.13 11.13 0 0 1 2.78 5.42c.12.88.07 1.8.18 2.68a3.13 3.13 0 0 0 .98 2.18c.83.56 1.8-.26 2.4-1.26a4.34 4.34 0 0 0 .66-2.76 4.84 4.84 0 0 0-.77-1.81ZM583.2 231.6a5.97 5.97 0 0 0-.19-2.4 5.29 5.29 0 0 1 .8-3 9.75 9.75 0 0 0 1.26-2.76 2.3 2.3 0 0 0-.06-1.34c-.17-.4-.6-.57-.84-.26l.52.33a4.72 4.72 0 0 0-2.1.1 2.6 2.6 0 0 0-1.6 1.8 11.13 11.13 0 0 1-.42 1.87c-.3.63-.9.85-1.28 1.4a3.36 3.36 0 0 0 .05 3.2 3.73 3.73 0 0 0 2.1 1.65c.64.23 1.48.24 1.77-.59ZM597.93 236.04a7.24 7.24 0 0 0 .91 1.68c.7.7 1.66.27 2.52.1a4.35 4.35 0 0 1 4.14 1.66 10.54 10.54 0 0 0-6.06-7.56 17.81 17.81 0 0 0-6.24-.98l-.36.1c.92 2.68 3.82 2.62 5.09 5ZM535.57 241.54l.11-.2ZM533.34 245.86a19.84 19.84 0 0 0-1.26 2.75 23.96 23.96 0 0 0-.9 4.71c-.12.91-.15 2.07.42 2.51a.8.8 0 0 0 1.05-.14 4.17 4.17 0 0 0 .77-1.14 26.2 26.2 0 0 0 2.58-6.13 10.67 10.67 0 0 0-.42-6.87l-2.24 4.3ZM511.79 130.68a2.54 2.54 0 0 0 2.74.53 9.05 9.05 0 0 0 2.58-1.7 6.07 6.07 0 0 0 1.56-1.7 3.46 3.46 0 0 0 .32-2.64 2.68 2.68 0 0 0-2.04-1.61l-3.8-1.13.92-.82c-.94-.51-1.98.43-2.57 1.59a8.58 8.58 0 0 0-.78 2.4 6.17 6.17 0 0 0 1.07 5.08ZM534.13 123.18a2.1 2.1 0 0 0 2.85.23 3.18 3.18 0 0 0 1.26-2.27c.1-1-.4-2.1-1.1-2.19l.16-.93c-1.36-.25-3.02-.3-3.75 1.35a3.86 3.86 0 0 0 .58 3.8Z" />
	<ellipse cx="442.07" cy="178.89" fill="#e6e6e6" rx="8.45" ry="11.33" />
	<ellipse cx="854.01" cy="506.28" fill="#e6e6e6" rx="7.56" ry="5.26" transform="rotate(-14.91 33.54 1405.02)" />
	<ellipse cx="804.61" cy="507.2" fill="#e6e6e6" rx="7.56" ry="5.26" transform="rotate(-14.91 -15.85 1405.92)" />
	<ellipse cx="862.79" cy="465.18" fill="#e6e6e6" rx="7.56" ry="5.26" transform="rotate(-14.91 42.32 1363.92)" />
	<ellipse cx="878.12" cy="448.05" fill="#e6e6e6" rx="3.32" ry="4.78" transform="rotate(-7.07 -715.78 2453.96)" />
	<ellipse cx="881.81" cy="417.05" fill="#e6e6e6" rx="3.32" ry="4.78" transform="rotate(-7.07 -712.09 2422.95)" />
	<ellipse cx="832.02" cy="476.65" fill="#e6e6e6" rx="3.32" ry="4.78" transform="rotate(-7.07 -761.88 2482.56)" />
	<ellipse cx="856.99" cy="485.69" fill="#e6e6e6" rx="3.32" ry="4.78" transform="rotate(-7.07 -736.9 2491.6)" />
	<ellipse cx="826.67" cy="511.29" fill="#e6e6e6" rx="3.32" ry="4.78" transform="rotate(-7.07 -767.23 2517.2)" />
	<ellipse cx="608.48" cy="464.8" fill="#e6e6e6" rx="7.56" ry="5.26" transform="rotate(-14.91 -211.99 1363.54)" />
	<ellipse cx="559.08" cy="465.71" fill="#e6e6e6" rx="7.56" ry="5.26" transform="rotate(-14.91 -261.38 1364.45)" />
	<ellipse cx="617.26" cy="423.7" fill="#e6e6e6" rx="7.56" ry="5.26" transform="rotate(-14.91 -203.2 1322.43)" />
	<ellipse cx="632.59" cy="406.57" fill="#e6e6e6" rx="3.32" ry="4.78" transform="rotate(-7.07 -961.3 2412.48)" />
	<ellipse cx="636.28" cy="375.57" fill="#e6e6e6" rx="3.32" ry="4.78" transform="rotate(-7.07 -957.62 2381.47)" />
	<ellipse cx="586.49" cy="435.17" fill="#e6e6e6" rx="3.32" ry="4.78" transform="rotate(-7.07 -1007.41 2441.07)" />
	<ellipse cx="611.46" cy="444.21" fill="#e6e6e6" rx="3.32" ry="4.78" transform="rotate(-7.07 -982.44 2450.11)" />
	<ellipse cx="581.14" cy="469.81" fill="#e6e6e6" rx="3.32" ry="4.78" transform="rotate(-7.07 -1012.76 2475.72)" />
	<ellipse cx="908.59" cy="274.86" fill="#e6e6e6" rx="7.56" ry="5.26" transform="rotate(-14.91 88.12 1173.6)" />
	<ellipse cx="859.19" cy="275.78" fill="#e6e6e6" rx="7.56" ry="5.26" transform="rotate(-14.91 38.72 1174.52)" />
	<ellipse cx="917.36" cy="233.77" fill="#e6e6e6" rx="7.56" ry="5.26" transform="rotate(-14.91 96.9 1132.5)" />
	<ellipse cx="932.7" cy="216.64" fill="#e6e6e6" rx="3.32" ry="4.78" transform="rotate(-7.07 -661.2 2222.54)" />
	<ellipse cx="936.38" cy="185.63" fill="#e6e6e6" rx="3.32" ry="4.78" transform="rotate(-7.07 -657.51 2191.53)" />
	<ellipse cx="886.59" cy="245.24" fill="#e6e6e6" rx="3.32" ry="4.78" transform="rotate(-7.07 -707.3 2251.14)" />
	<ellipse cx="911.56" cy="254.27" fill="#e6e6e6" rx="3.32" ry="4.78" transform="rotate(-7.07 -682.33 2260.18)" />
	<ellipse cx="881.24" cy="279.88" fill="#e6e6e6" rx="3.32" ry="4.78" transform="rotate(-7.07 -712.65 2285.78)" />
	<path fill="#3f3d56" d="M336.07 296.03c-8.08 0-13.34-2-15.66-6-4.59-7.87 3.1-21.68 22.83-41.05l1.65 1.68c-18.33 18-26.3 31.56-22.44 38.18 2.44 4.2 9.71 5.7 21.02 4.34 11.23-1.34 26.11-5.33 44.23-11.87 37.3-13.46 84.1-36.17 131.77-63.94 47.67-27.77 90.51-57.28 120.62-83.09a336.47 336.47 0 0 0 15.6-14.17 155.35 155.35 0 0 0 16.55-18.44c6.75-9.17 9.03-16.23 6.6-20.42-4.09-7-21.22-6.35-48.25 1.85l-.68-2.26c29-8.8 46.15-9.06 50.97-.78 3 5.14.73 12.88-6.74 23.01a157.69 157.69 0 0 1-16.8 18.73c-4.6 4.49-9.89 9.29-15.7 14.28-30.22 25.9-73.18 55.5-120.98 83.33-47.8 27.84-94.73 50.61-132.16 64.12-18.29 6.6-33.34 10.64-44.75 12a65.23 65.23 0 0 1-7.68.5Z" />
</svg>
