<svg xmlns="http://www.w3.org/2000/svg" viewBox="0 0 405.67 457.18">
	<path fill="#ffb6b6" d="M155.53 280c2.3 4.46 1.88 9.26-.96 10.73-2.84 1.47-7.02-.96-9.32-5.42-1.01-1.96-1.5-3.98-1.48-5.75l-9.53-19.03 9.02-4.29 8.44 19.22a12.57 12.57 0 0 1 3.83 4.53ZM84.61 451.72h8.12l3.87-31.35h-12l.01 31.35z" />
	<path fill="#2f2e41" d="M112.45 451.53c.25.43.38 1.8.38 2.3a2.76 2.76 0 0 1-2.75 2.76H84.9a1.88 1.88 0 0 1-1.88-1.88v-1.05s-1.25-3.15 1.32-7.03c0 0 3.18 3.04 7.94-1.72l1.4-2.55 10.17 7.44 5.63.69c1.23.15 2.32-.02 2.96 1.04Z" />
	<path fill="#ffb6b6" d="M46.48 451.72h8.13l3.86-31.35H46.48v31.35z" />
	<path fill="#2f2e41" d="M74.32 451.53c.26.43.39 1.8.39 2.3a2.76 2.76 0 0 1-2.76 2.76H46.8a1.88 1.88 0 0 1-1.89-1.88v-1.05s-1.24-3.15 1.32-7.03c0 0 3.19 3.04 7.95-1.72l1.4-2.55 10.16 7.44 5.63.69c1.24.15 2.33-.02 2.96 1.04ZM34.98 266.78l-3.42 20.92 10.65 67.71 2.66 81.78h14.38l7.3-77.22-.76-50.97 17.12 128.95h14.94l1.41-161.66-64.28-9.51z" />
	<path d="M52.86 158.37h26.92l23.29 13.7c-3.63-.93-6.43 32.7-6.52 62.42-.01 1.97-1.97 4.24-1.95 6.17.02 1.66 2 2.99 2.04 4.6.03 1.5.07 2.99.12 4.44.04 1.2-2.21 2.8-2.16 3.96.07 1.48 2.45 2.5 2.54 3.9.54 8.57 1.47 15.35 2.88 18.73 0 0-60.1 16.73-64.66-9.13 0 0 .26-9.3.22-22.14 0-1.14-.97-2.17-.98-3.36 0-.89.95-1.92.94-2.83 0-.75-.93-1.4-.94-2.17 0-.46.9-1 .9-1.47-.37-24.41-2-55.18-7.75-63.13l25.1-13.7Z" />
	<path d="M79.48 158.37s17.45 6.34 22.98 11.39c2.94 2.68 22.67 53.27 22.67 53.27l27.4 47.72-14.25 5.4-29.13-43.99-12.93-28.9-16.74-44.9Z" />
	<path fill="#ffb6b6" d="M43.3 281.8c2.55 4.33 2.37 9.15-.38 10.77-2.76 1.62-7.05-.58-9.6-4.9a12.57 12.57 0 0 1-1.79-5.67l-10.55-18.48 8.78-4.77 9.47 18.73c1.5.94 2.96 2.42 4.07 4.32Z" />
	<path d="m49.05 181.95-7.6-17.5s-17.88 5.71-17.88 14.08c0 0-10.65 63.9-9.13 79.88l9.89 17.5 14.07-11.03-8.75-20.16 19.4-62.77Z" />
	<path fill="#2f2e41" d="m33.41 295.63 8.97-17.82 10.48 14.45-9.43 9.13-10.02-5.76z" />
	<circle cx="66.06" cy="135.93" r="17.41" fill="#ffb6b6" />
	<path fill="#2f2e41" d="M79.64 116.48c-3.03-.97-4.46-4.57-7.23-6.13-3.06-1.72-6.72-2.8-10.1-1.82-2.06.6-3.87 1.92-5.94 2.52-.36.1-.74.17-1.13.2a6.83 6.83 0 0 0-5.26 3.5l-.03.05c-.65 1.12-1.58 2.04-2.4 3.04a20.55 20.55 0 0 0-4.6 13.12c.03 5.08 1.98 10.13 5.38 13.91l.87-.4 6.3 5.44c-1.15-4.12-2.3-8.39-1.7-12.62.61-4.23 3.46-8.45 7.65-9.27 1.6-.31 3.27-.12 4.8-.61 1.55-.5 2.97-2.08 2.44-3.6.95 2.51 4.51 2.37 6.96 3.5 5.49 2.52 3.48-1.38 8.24 2.33 1.6-8.91 7.77-9.3-4.25-13.16Z" />
	<path fill="#ccc" d="M0 455.99c0 .66.53 1.19 1.19 1.19h403.29c.66 0 1.19-.53 1.19-1.2 0-.65-.53-1.18-1.19-1.18H1.19c-.66 0-1.19.53-1.19 1.19Z" />
	<path fill="#3f3d56" d="M351.72 457.18H175.3a39.06 39.06 0 0 1-39.02-39.02V39.01A39.06 39.06 0 0 1 175.3 0h176.42a39.06 39.06 0 0 1 39.01 39.01v379.15a39.06 39.06 0 0 1-39 39.02Z" />
	<path fill="#3f3d56" d="M390.73 139.46c-.9 0-1.65.74-1.65 1.65v52.82a1.65 1.65 0 0 0 3.3 0V141.1c0-.9-.73-1.65-1.65-1.65Z" />
	<path fill="#fff" d="M387.02 39.01v379.15a35.3 35.3 0 0 1-33 35.22l-.83.05-1.47.03-5.13-.38c-3.36-.25-8.23-.62-14.31-1.1l-5.78-.47-13.25-1.1-5.86-.5a3229.3 3229.3 0 0 1-40.03-3.69l-1.65-.16c-8.63-.85-125.71-23.48-125.71-27.9V39a35.3 35.3 0 0 1 35.3-35.3h21.08a6.44 6.44 0 0 1 6.36 5.98 7.17 7.17 0 0 0 7.23 6.4h107.08a7.17 7.17 0 0 0 7.23-6.4c.29-3.36 3-5.98 6.36-5.98h21.08a35.3 35.3 0 0 1 35.3 35.3Z" />
	<path fill="#3f3d56" d="M135.46 99.85c-.91 0-1.65.74-1.65 1.65v13.2a1.65 1.65 0 0 0 3.3 0v-13.2c0-.9-.74-1.65-1.65-1.65ZM135.46 139.46c-.91 0-1.65.74-1.65 1.65v25.59a1.65 1.65 0 0 0 3.3 0V141.1c0-.9-.74-1.65-1.65-1.65ZM135.46 175.77c-.91 0-1.65.74-1.65 1.65v25.59a1.65 1.65 0 0 0 3.3 0v-25.59c0-.9-.74-1.65-1.65-1.65Z" />
	<rect width="32.18" height="4.13" x="163.93" y="9.49" fill="#e6e6e6" rx=".31" ry=".31" />
	<circle cx="335.86" cy="10.32" r="3.3" fill="#e6e6e6" />
	<circle cx="344.93" cy="10.32" r="3.3" fill="#e6e6e6" />
	<circle cx="354.01" cy="10.32" r="3.3" fill="#e6e6e6" />
	<path fill="#e6e6e6" d="M333.51 95.16h-140a4 4 0 0 1 0-8h140a4 4 0 0 1 0 8ZM357.05 411.66h-52a4 4 0 0 1 0-8h52a4 4 0 0 1 0 8ZM218.05 411.66h-52a4 4 0 0 1 0-8h52a4 4 0 0 1 0 8Z" />
	<path fill="#3f3d56" d="M165.97 105.91h195.08v1H165.97z" />
	<path fill="#e6e6e6" d="M333.51 156.16h-140a4 4 0 0 1 0-8h140a4 4 0 0 1 0 8Z" />
	<path fill="#3f3d56" d="M165.97 166.91h195.08v1H165.97z" />
	<path fill="#e6e6e6" d="M333.51 217.16h-140a4 4 0 0 1 0-8h140a4 4 0 0 1 0 8Z" />
	<path fill="#3f3d56" d="M165.97 227.91h195.08v1H165.97zM165.97 279.91h195.08v1H165.97zM165.97 331.91h195.08v1H165.97z" />
	<circle cx="264.88" cy="310.49" r="58" />
</svg>
