<svg xmlns="http://www.w3.org/2000/svg" viewBox="0 0 966 727.78">
	<path fill="#3f3d56" d="M727 172.95h-4V63.4A63.4 63.4 0 0 0 659.6 0H427.5a63.4 63.4 0 0 0-63.4 63.4v600.98a63.4 63.4 0 0 0 63.4 63.4h232.1a63.4 63.4 0 0 0 63.4-63.4V250.92h4Z" />
	<path fill="#fff" d="M662.15 16.5h-30.3a22.5 22.5 0 0 1-20.82 30.99H478.07a22.5 22.5 0 0 1-20.83-31h-28.3a47.35 47.35 0 0 0-47.34 47.35v600.1a47.35 47.35 0 0 0 47.35 47.34h233.2a47.35 47.35 0 0 0 47.35-47.34V63.84a47.35 47.35 0 0 0-47.35-47.35Z" />
	<ellipse cx="593.86" cy="272.71" fill="#e6e6e6" rx="42" ry="4" />
	<path d="M966 99.87H579.35V226.8h14.64V260l33.2-33.2H966V99.87z" />
	<path fill="#fff" d="M622.38 142.85H798.2v5.34H622.38zM622.38 161.31h306.44v5.34H622.38zM622.38 179.77h306.14v5.34H622.38z" />
	<path d="M867.22 482.71H558.58v101.32h11.69v26.5l26.5-26.5h270.45V482.71z" />
	<path fill="#fff" d="M592.93 517.02h140.35v4.26H592.93zM592.93 531.75h244.61v4.26H592.93zM592.93 546.49H837.3v4.26H592.93z" />
	<ellipse cx="570.16" cy="620.67" fill="#e6e6e6" rx="33.53" ry="3.19" />
	<ellipse cx="477.86" cy="420.71" fill="#e6e6e6" rx="42" ry="4" />
	<path d="M220.44 298.89h271.9v89.27h-10.3v23.34l-23.34-23.34H220.44v-89.27z" />
	<path fill="#fff" d="M248.64 328.44h123.64v3.75H248.64zM248.64 341.42h215.5v3.75h-215.5zM248.64 354.4h215.29v3.75H248.64z" />
	<path fill="#a0616a" d="M87.98 516.63a9.79 9.79 0 1 0 16.93-9.83 10.54 10.54 0 0 0-.92-1.31l8.24-58.69.24-1.76 1.67-11.97.25-1.73-.91.04-15.95.73-4.28.2-.54 10.92-3.03 61.42a9.78 9.78 0 0 0-1.7 11.98Z" />
	<path fill="#ccc" d="m112.42 445.58-20.25-1.86a4 4 0 0 1-3.61-4.33l3.76-42.13a15.36 15.36 0 1 1 30.5 3.6l-6.08 41.32a4 4 0 0 1-3.95 3.41 4 4 0 0 1-.37-.01Z" />
	<path fill="#ccc" d="M97.07 411.54a28.21 28.21 0 0 1 10.38-32.47c7.64-5.23 18.1-7.1 29.35 6.3 22.51 26.8 28.41 56.28 28.41 56.28l-46.1 7.5S103.43 430 97.07 411.55Z" />
	<path fill="#a0616a" d="M171.64 713.46h13.14l6.25-50.7-19.4.01.01 50.69z" />
	<path fill="#2f2e41" d="M210.13 725.67h-41.31v-15.96h28.56a12.75 12.75 0 0 1 12.75 12.74v3.22Z" />
	<path fill="#a0616a" d="m63.57 702 12.48 4.13 21.85-46.18-18.42-6.09L63.57 702z" />
	<path fill="#2f2e41" d="m96.29 725.67-39.23-12.96 5.01-15.16 27.12 8.96a12.75 12.75 0 0 1 8.1 16.1l-1 3.06Z" />
	<circle cx="243.01" cy="425.55" r="26.33" fill="#a0616a" transform="rotate(-28.66 15.99 611.48)" />
	<path fill="#2f2e41" d="m149.07 699.35-12.21-80.57a3.75 3.75 0 0 0-7.36-.32l-18.59 76.78a4.86 4.86 0 0 1-5.45 3.63l-51.28-8.24a4.82 4.82 0 0 1-3.85-6.17l66.86-220.42a3.75 3.75 0 0 0 .07-1.94l-2.23-9.64a4.8 4.8 0 0 1 2.5-5.38c9.1-4.64 32.15-14.3 49.56-3.72a4.88 4.88 0 0 1 2.23 3.14l52.23 245.48a4.82 4.82 0 0 1-4.29 5.81l-63 5.64-.42.02a4.83 4.83 0 0 1-4.77-4.1ZM108.55 320.84a19.92 19.92 0 0 0 5.2-4.53 6.76 6.76 0 0 0 1.04-6.54c-1.33-2.93-5.28-3.86-8.34-2.86s-5.43 3.4-7.67 5.72c-1.97 2.04-4 4.17-4.94 6.85s-.45 6.08 1.87 7.7c2.29 1.6 5.57.95 7.77-.77s3.55-4.25 4.85-6.72Z" />
	<path fill="#2f2e41" d="M99.63 313.33c-.15-7.42-8.6-12.74-15.9-11.42s-12.92 7.54-15.74 14.4c-5.93 14.52-1.48 31.08 4.25 45.68s12.8 29.42 11.96 45.07a47.1 47.1 0 0 1-27.35 39.68c8.24 3.73 18.1-.13 25.02-5.95 15.38-12.94 21.32-35.97 14.11-54.73-3.56-9.25-9.82-17.17-14.72-25.79s-8.48-18.78-5.95-28.37 13.27-17.35 22.46-13.63Z" />
	<path fill="#2f2e41" d="M127.59 351.13c-2.3-3.88-4.61-8.98-.42-12.37a8.65 8.65 0 0 1 6.49-1.71c4.73.57 9.88.8 14.46-.91a13.56 13.56 0 0 0 7.86-7.07c2.37-5.6-.6-12.4-5.53-15.95a18.65 18.65 0 0 0-20.65-.36c-6.4-2.83-14.17-1.57-19.98 2.32s-9.8 10.12-11.96 16.78a32.39 32.39 0 0 0-.99 17.81 26.47 26.47 0 0 0 16.43 18.1 9.53 9.53 0 0 0 9.41-1.4s3.63-3.17 4.77-6.98c.87-2.94 1.34-6.2.1-8.26Z" />
	<path fill="#a0616a" d="M205.7 374.62a11.28 11.28 0 0 0-.25 1.76l-46.05 26.57-11.2-6.44-11.93 15.62 18.7 13.34a8.58 8.58 0 0 0 10.3-.25l47.49-37.47a11.25 11.25 0 1 0-7.05-13.13Z" />
	<path fill="#ccc" d="m157.86 404.21-14.89 19.3a4.82 4.82 0 0 1-7.3.4l-16.85-17.5a13.4 13.4 0 0 1 16.44-21.18l21.13 11.82a4.82 4.82 0 0 1 1.47 7.16ZM309.27 727.78H1.25a1.25 1.25 0 0 1 0-2.5h308.02a1.25 1.25 0 0 1 0 2.5Z" />
</svg>
