<svg xmlns="http://www.w3.org/2000/svg" viewBox="0 0 1019.48 436.68">
	<path fill="#ffb9b9" d="M223.77 243.61a9.75 9.75 0 1 0-19.4 1.29l-28.02 36.68a13.58 13.58 0 0 0 1.83 14.92l2.2 2.56 10.08-2.02 11.43-10.08-1.34-11.43 14.11-22.18-.01-.02a9.74 9.74 0 0 0 9.12-9.72Z" />
	<path fill="#ffb8b8" d="m30.04 422.97-4.57-16.99 63.33-25.71 6.75 25.06-65.51 17.64z" />
	<path fill="#2f2e41" d="M14.74 431.73 0 376.97l.7-.19a22.08 22.08 0 0 1 27.05 15.58l9 33.45Z" />
	<path fill="#ffb8b8" d="m117.28 420.25-14.23-10.34 33.14-59.79 20.99 15.27-39.9 54.86z" />
	<path fill="#2f2e41" d="M110.88 436.68 65 403.33l.42-.58a22.08 22.08 0 0 1 30.84-4.87l28.01 20.37ZM238.2 336.7l-35.8-34.77a18.08 18.08 0 0 0-23.67-1.32l-67.59 75.08 6.05 9.41 64.54-43.69 43.69 57.14 41.68-20.84Z" />
	<path fill="#ffb9b9" d="m222.73 344.1-26.22-2.02-18.98-4.6a9.75 9.75 0 1 0-1.85 12.66l11.42 4.71 49.08 16.81 6.05-4.7Z" />
	<path fill="#2f2e41" d="m285.92 416.7-14.79 9.41h-17.48l-81.33-30.25-118.99 21.51-3.36-25.54 108.9-47.73 95.46 31.59 31.59 41.01z" />
	<circle cx="254.33" cy="227.13" r="26.22" fill="#ffb9b9" />
	<path fill="#ccc" d="M322.16 331.8a150.63 150.63 0 0 1-7.39 46.6l-1.96 6.03-9.41 43.02-10.09 2.7-7.39-9.42-14.79-10.75-10.75-17.48-9.23-15.37-2.87-4.8-10.09-50.41-38.31-21.52-12.78-2.01 2.7-7.4 11.42-15.46 11.43-1.34 3.36-2.7 2.69 1.35 14.82 5.71 48.06-20.3 7.03 1.15 24.2 20.17a150.5 150.5 0 0 1 9.35 52.23Z" />
	<path d="m314.83 325.95-25.55 16.8-38.13 34.38-2.87-4.8-8.07-40.33h2.02l20.84-38.32 51.76 32.27z" opacity=".1" style="isolation:isolate" />
	<path fill="#ccc" d="m263.07 289.65-20.84 38.32-12.1 13.44-10.76 2.69 28.91 31.59 41-36.97 25.55-16.8-51.76-32.27z" />
	<path fill="#2f2e41" d="m233.93 207.64-2.84 1.1a3.97 3.97 0 0 1-1.06-5.51l.05-.07-5.25-.25a39.64 39.64 0 0 1 59.17-4.77c.24-.82 2.85.78 3.91 2.4.36-1.33 2.8 5.14 3.67 9.72.4-1.53 1.93.93.59 3.3.85-.13 1.24 2.05.58 3.27.93-.44.77 2.17-.24 3.91 1.33-.12-.11 27.33-20.11 25.33-1.4-6.4-1-6-2.64-14.22a36.3 36.3 0 0 0-2.44-2.29l-4.51-3.98c-5.25-4.63-10.02-10.35-17.01-12.08-4.8-1.2-7.84-1.46-5.22-6.87-2.37.98-4.58 2.45-6.96 3.37.03-.76.36-1.6.31-2.36Z" />
	<circle cx="267.43" cy="230.16" r="4.71" fill="#ffb9b9" />
	<path fill="#e6e6e6" d="M137.51 351.38h21.61v21.61h-21.61z" style="isolation:isolate" transform="rotate(-86.19 -20.61 294.59)" />
	<path fill="#ccc" d="m34.09 130.47 26.18 1.75-1.75 26.18-26.18-1.75Zm24.96 2.8-23.9-1.58-1.6 23.9 23.91 1.6Z" />
	<path fill="#e6e6e6" d="M241.01 288.77h21.61v21.61h-21.61z" style="isolation:isolate" transform="rotate(-12.13 -883.76 608.6)" />
	<path fill="#ccc" d="m155.02 44.85 5.51 25.66-25.65 5.5-5.51-25.65Zm4.16 24.78-5.04-23.42-23.42 5.03 5.03 23.42Z" />
	<path fill="#e6e6e6" d="M226.6 392.67h21.61v21.61H226.6z" style="isolation:isolate" transform="rotate(-43.13 -100.82 401.84)" />
	<path fill="#ccc" d="m163.56 154.34-19.15 17.94-17.94-19.16 19.15-17.93Zm-19.1 16.32 17.48-16.38-16.37-17.48-17.5 16.38Z" />
	<path fill="#3f3d56" d="M963.28 0H323.89a17.6 17.6 0 0 0-17.6 17.6v356.25a17.6 17.6 0 0 0 17.6 17.6h639.39a17.6 17.6 0 0 0 17.6-17.6V17.6A17.6 17.6 0 0 0 963.28 0Z" />
	<path fill="#fff" d="M329.89 31.1h627.39v353.91H329.89z" />
	<circle cx="643.05" cy="15.01" r="6.43" fill="#fff" />
	<path fill="#f2f2f2" d="M777.86 385.02H329.89V31.1l447.97 353.92z" style="isolation:isolate" />
	<circle cx="428.06" cy="298.22" r="60.31" />
	<path fill="#3f3d56" d="M441.48 343.55a75.02 75.02 0 1 1 75.02-75.02 75.02 75.02 0 0 1-75.02 75.02Zm0-149.05a74.04 74.04 0 1 0 74.04 74.03 74.04 74.04 0 0 0-74.04-74.03ZM753.44 214.97h58.61v12.25h-58.61zM697.99 148.63h169.5v5.25h-169.5zM697.99 169.25h169.5v5.25h-169.5zM697.99 189.87h169.5v5.25h-169.5z" />
	<path d="M888.4 52.28h24.49v24.49H888.4z" />
	<path fill="#ccc" d="M924.26 88.14h-29.74V58.4h29.74Zm-28.44-1.29h27.15V59.7h-27.15Z" />
	<path fill="#3f3d56" d="M998.5 378.58h-61.24v-4.41a.87.87 0 0 0-.87-.88h-21a.87.87 0 0 0-.87.88v4.41H901.4v-4.41a.87.87 0 0 0-.88-.88h-20.99a.87.87 0 0 0-.87.88v4.41h-13.12v-4.41a.87.87 0 0 0-.88-.88h-21a.87.87 0 0 0-.87.88v4.41h-13.12v-4.41a.87.87 0 0 0-.87-.88h-21a.87.87 0 0 0-.87.88v4.41h-13.12v-4.41a.87.87 0 0 0-.87-.88h-21a.87.87 0 0 0-.87.88v4.41h-13.12v-4.41a.87.87 0 0 0-.88-.88h-20.99a.87.87 0 0 0-.87.88v4.41h-13.13v-4.41a.87.87 0 0 0-.87-.88H556.77a.87.87 0 0 0-.88.88v4.41h-13.12v-4.41a.87.87 0 0 0-.87-.88h-21a.87.87 0 0 0-.87.88v4.41H506.9v-4.41a.87.87 0 0 0-.88-.88h-20.99a.87.87 0 0 0-.87.88v4.41h-13.13v-4.41a.87.87 0 0 0-.87-.88h-21a.87.87 0 0 0-.87.88v4.41h-13.12v-4.41a.87.87 0 0 0-.87-.88h-21a.87.87 0 0 0-.87.88v4.41h-13.12v-4.41a.87.87 0 0 0-.88-.88h-20.99a.87.87 0 0 0-.87.88v4.41h-13.12v-4.41a.87.87 0 0 0-.88-.88h-21a.87.87 0 0 0-.87.88v4.41h-40.23a21 21 0 0 0-21 21v9.49a21 21 0 0 0 21 20.99h698.01a21 21 0 0 0 21-21v-9.49a21 21 0 0 0-21-20.99Z" />
</svg>
