<svg xmlns="http://www.w3.org/2000/svg" viewBox="0 0 717.67 596.33">
	<rect width="326" height="594" x="103.85" fill="#3f3d56" rx="58.73" />
	<path fill="#fff" d="M424.36 58.73v476.54a53.3 53.3 0 0 1-53.23 53.23H162.59a53.3 53.3 0 0 1-53.23-53.23V58.73A53.3 53.3 0 0 1 162.59 5.5h27.27v9.42A16.08 16.08 0 0 0 205.94 31h121.84a16.08 16.08 0 0 0 16.08-16.08V5.5h27.27a53.3 53.3 0 0 1 53.23 53.23Z" />
	<path fill="#f2f2f2" d="M335.14 262.12c-12.1-5.45-25.57 6.89-16.6 18.43-30.3 27.6-75.29 37.31-114.45 25.77-.97 2.33-1.98 4.63-3.02 6.93a283.88 283.88 0 0 1-65.58 91.22c36.5-30.35 81.46-4.71 120.13 5.27a13.74 13.74 0 0 1 6.06 24.43 78.98 78.98 0 0 0-15.2-3.96 11.98 11.98 0 0 0-10.66 19.91c-40.5 19.42-90.89 12.26-125.64-15.63v-16.57a285.22 285.22 0 0 0 85.49-107.2 280.91 280.91 0 0 0 16.44-45.92 267 267 0 0 0 8.33-52.67c-6.67-19.64-5.55-42.7 5.55-60.54 4.58 8.32 17.78 10.48 19.17-1.07.3-4.66.52-9.31.8-13.94 49.76-3.84 41.27 65.84-19.63 76.74a280.22 280.22 0 0 1-8.67 52.99c-.42 1.73-.89 3.44-1.38 5.15a119.04 119.04 0 0 1 42.53-36.02c16.08-7.53 34.8-9.14 52.67-12.04 21.72-3.54 37.1 21.28 23.66 38.72Z" />
	<path fill="#3f3d56" d="M102.35 120.5a4 4 0 0 1-4-4v-8a4 4 0 0 1 8 0v8a4 4 0 0 1-4 4ZM102.35 161.52a4 4 0 0 1-4-4V135.5a4 4 0 0 1 8 0v22.02a4 4 0 0 1-4 4ZM102.35 194.5a4 4 0 0 1-4-4v-22.02a4 4 0 0 1 8 0v22.02a4 4 0 0 1-4 4ZM430.35 176.5a4 4 0 0 1-4-4v-53.73a4 4 0 0 1 8 0v53.73a4 4 0 0 1-4 4Z" />
	<path fill="#fff" d="M275.45 18.35h-31a2.5 2.5 0 0 1 0-5h31a2.5 2.5 0 0 1 0 5Z" />
	<circle cx="291.45" cy="15.85" r="2" fill="#fff" />
	<path fill="#e6e6e6" d="M198.72 150.53H164a18.15 18.15 0 0 1-18.14-18.13V97.66A18.15 18.15 0 0 1 164 79.53h34.73a18.15 18.15 0 0 1 18.13 18.13v34.74a18.15 18.15 0 0 1-18.13 18.13Zm-34.73-69a16.15 16.15 0 0 0-16.14 16.13v34.74A16.15 16.15 0 0 0 164 148.53h34.73a16.15 16.15 0 0 0 16.13-16.13V97.66a16.15 16.15 0 0 0-16.13-16.13ZM284.22 151.03H249.5a18.15 18.15 0 0 1-18.14-18.13V98.16a18.15 18.15 0 0 1 18.14-18.13h34.73a18.15 18.15 0 0 1 18.13 18.13v34.74a18.15 18.15 0 0 1-18.13 18.13Zm-34.73-69a16.15 16.15 0 0 0-16.14 16.13v34.74a16.15 16.15 0 0 0 16.14 16.13h34.73a16.15 16.15 0 0 0 16.13-16.13V98.16a16.15 16.15 0 0 0-16.13-16.13ZM369.72 151.53H335a18.15 18.15 0 0 1-18.14-18.13V98.66A18.15 18.15 0 0 1 335 80.53h34.73a18.15 18.15 0 0 1 18.13 18.13v34.74a18.15 18.15 0 0 1-18.13 18.13Zm-34.73-69a16.15 16.15 0 0 0-16.14 16.13v34.74A16.15 16.15 0 0 0 335 149.53h34.73a16.15 16.15 0 0 0 16.13-16.13V98.66a16.15 16.15 0 0 0-16.13-16.13ZM198.72 249.53H164a18.15 18.15 0 0 1-18.14-18.13v-34.74A18.15 18.15 0 0 1 164 178.53h34.73a18.15 18.15 0 0 1 18.13 18.13v34.74a18.15 18.15 0 0 1-18.13 18.13Zm-34.73-69a16.15 16.15 0 0 0-16.14 16.13v34.74A16.15 16.15 0 0 0 164 247.53h34.73a16.15 16.15 0 0 0 16.13-16.13v-34.74a16.15 16.15 0 0 0-16.13-16.13ZM284.22 250.03H249.5a18.15 18.15 0 0 1-18.14-18.13v-34.74a18.15 18.15 0 0 1 18.14-18.13h34.73a18.15 18.15 0 0 1 18.13 18.13v34.74a18.15 18.15 0 0 1-18.13 18.13Zm-34.73-69a16.15 16.15 0 0 0-16.14 16.13v34.74a16.15 16.15 0 0 0 16.14 16.13h34.73a16.15 16.15 0 0 0 16.13-16.13v-34.74a16.15 16.15 0 0 0-16.13-16.13ZM369.72 250.53H335a18.15 18.15 0 0 1-18.14-18.13v-34.74A18.15 18.15 0 0 1 335 179.53h34.73a18.15 18.15 0 0 1 18.13 18.13v34.74a18.15 18.15 0 0 1-18.13 18.13Zm-34.73-69a16.15 16.15 0 0 0-16.14 16.13v34.74A16.15 16.15 0 0 0 335 248.53h34.73a16.15 16.15 0 0 0 16.13-16.13v-34.74a16.15 16.15 0 0 0-16.13-16.13Z" />
	<path d="M198.72 549.53H164a17.15 17.15 0 0 1-17.14-17.13v-34.74A17.15 17.15 0 0 1 164 480.53h34.73a17.15 17.15 0 0 1 17.13 17.13v34.74a17.15 17.15 0 0 1-17.13 17.13Z" />
	<path fill="#e6e6e6" d="M284.22 550.03H249.5a17.15 17.15 0 0 1-17.14-17.13v-34.74a17.15 17.15 0 0 1 17.14-17.13h34.73a17.15 17.15 0 0 1 17.13 17.13v34.74a17.15 17.15 0 0 1-17.13 17.13ZM369.72 550.53H335a17.15 17.15 0 0 1-17.14-17.13v-34.74A17.15 17.15 0 0 1 335 481.53h34.73a17.15 17.15 0 0 1 17.13 17.13v34.74a17.15 17.15 0 0 1-17.13 17.13Z" />
	<circle cx="248.85" cy="447.03" r="5" fill="#ccc" />
	<circle cx="266.85" cy="447.03" r="5" fill="#e6e6e6" />
	<circle cx="284.85" cy="447.03" r="5" fill="#e6e6e6" />
	<path fill="#e6e6e6" d="M386.44 561.03h-238.9a20.57 20.57 0 0 1-20.55-20.55v-50.9a20.57 20.57 0 0 1 20.55-20.55h238.9A20.57 20.57 0 0 1 407 489.58v50.9a20.57 20.57 0 0 1-20.55 20.55Zm-238.9-90a18.57 18.57 0 0 0-18.55 18.55v50.9a18.57 18.57 0 0 0 18.55 18.55h238.9A18.57 18.57 0 0 0 405 540.48v-50.9a18.57 18.57 0 0 0-18.55-18.55Z" />
	<path fill="#ffb6b6" d="M594.12 129.69a7.74 7.74 0 0 0-6.5 8.63 7.43 7.43 0 0 0 .28 1.2l-21.5 16.36 4.47 13.83 27.02-25.6a7.72 7.72 0 0 0 4.76-8.14 7.4 7.4 0 0 0-8.33-6.31l-.2.03Z" />
	<path fill="#3f3d56" d="M445.82 205.56a13 13 0 0 0 13.2 12.47l40.58-.62 51.33-23.8s16.74-14.21 21.4-14.55 7.15 4.01 6.1.05-2.46-6.62 1.13-6.25 3.01-6.95 3.8-9.71-10.11-12.76-10.11-12.76-7.86.15-8.38 1.19 1.28 3.63-2.95 3.52-7.45.07-7.58 2.03.18 3.49-2.16 5-12.91 9.36-12.91 9.36l-83.61 20.92a13 13 0 0 0-9.84 13.15Z" />
	<path fill="#ffb6b6" d="M467.56 574.79h11.03l5.26-42.57h-16.29v42.57z" />
	<path fill="#2f2e41" d="m463.95 567.23 17.64-1.05v7.56l16.76 11.58a4.72 4.72 0 0 1-2.68 8.6h-21l-3.61-7.47-1.42 7.47h-7.91Z" />
	<path fill="#ffb6b6" d="m485.99 302.03 6-37-42-10v38.33l36 8.67z" />
	<path fill="#2f2e41" d="m433.49 337.53 20.53 133.48s-1.2 58 8.13 71.26l2.34 14.26h21.07s-.4-8.76 1.77-13.88 5.16-1.73 2.16-6.42-3.32-4.18-2.16-7.94 1.84-174.24 1.84-174.24Z" />
	<path fill="#ffb6b6" d="m446 509.24 6.39 9 37.74-20.39-9.44-13.28L446 509.24z" />
	<path fill="#2f2e41" d="m450.07 501.92 11.08 13.77-6.16 4.37.28 20.38a4.72 4.72 0 0 1-8.57 2.8l-12.16-17.11 3.99-7.28-6.9 3.18-4.6-6.46ZM447.99 271.03l-.29 15.49s-37.96 33.3-9.33 73.9c0 0 3.6 11.7 8.61 11.15s7.56 2.25 6.28 4.86 47.39 34.27 47.39 34.27-32.07 70.71-39.66 86.33l5 16s-2.65 6.19 1.42 3.84 2.07-2.66 6.58-3.5 10.05-2.77 9.77-3.8 55.99-88.09 55.99-88.09 13.48-14.34 3.6-31.14c-1.36-.31-1.4 0-1.4 0l-48.24-54.95-5.72-36.36Z" />
	<path fill="#3f3d56" d="m491.4 171.76-24.31-11.4-7.28 12.67s-19.54 27.88-19.82 48 3.18 26.1 3.18 26.1-8.42 6.3-4.21 10.15 13.54 5.51 6.38 7.18-5.35 18.57 2.65 21.57 50.96 2.97 50.96 2.97a7.65 7.65 0 0 1 1.9-7.53c3.32-3.34 6.32-.94 3.32-6.14s-8-2.2-4-9.2 4-9.1 4-9.1 9.74-16.8-4.13-32.35-.12-1.06-.12-1.06l-9.91-33.24Z" />
	<path d="M589.85 270.03h-34.73A17.15 17.15 0 0 1 538 252.9v-34.74a17.15 17.15 0 0 1 17.13-17.13h34.73A17.15 17.15 0 0 1 607 218.16v34.74a17.15 17.15 0 0 1-17.14 17.13ZM607.85 138.03h-34.73A17.15 17.15 0 0 1 556 120.9V86.16a17.15 17.15 0 0 1 17.13-17.13h34.73A17.15 17.15 0 0 1 625 86.16v34.74a17.15 17.15 0 0 1-17.14 17.13Z" />
	<path fill="#2f2e41" d="M513.86 158.5h.03a4.26 4.26 0 0 0 3.72-4.72l-2.78-23.6a31.75 31.75 0 0 0-3.94-12 32.26 32.26 0 0 0-18.83-14.94 31.77 31.77 0 0 0-12.69-1.1c-17.42 2.03-22.9 6.92-27.88 35.23s2.79 23.63 2.79 23.63a4.26 4.26 0 0 0 .53 1.61 4.33 4.33 0 0 0 2.53 2 4.28 4.28 0 0 0 1.7.15c21.29.81 42.82 1.86 54.83-6.25Z" />
	<path fill="#ffb6b6" d="M467.93 127.51a23.42 23.42 0 0 0 30.84 30.33 23.14 23.14 0 0 0 12.52-12.7 23.42 23.42 0 0 0-30.82-30.33 23.14 23.14 0 0 0-12.54 12.7Z" />
	<path fill="#2f2e41" d="M522.54 131.22a25.11 25.11 0 0 0-3.12-9.5c-1.87-7.63-5.59-14.1-14.89-11.8a25.13 25.13 0 0 0-9.97-.88l-4.72.54-.16.01a25.07 25.07 0 0 0-21.95 27.85l.06.48 10-1.14 2.28-9.92 1.8 9.45 5.17-.58 1.15-5 .9 4.76c8.93 5 20.39 2.92 33.5-3.8Z" data-name="Path 10" />
	<path fill="#2f2e41" d="M495.92 159.87a4.19 4.19 0 0 1 .1 2.3 4.28 4.28 0 0 1-.44 1.12 4.33 4.33 0 0 1-.6.82 4.25 4.25 0 0 1-2.63 1.32l-.19.02H491.6l-3.62-.22-6.11-9.86 1.12 9.55-16.46-1-4.78-40.55 27.04-3.06-.58.86a18.72 18.72 0 0 0-3.13 9.64 30.5 30.5 0 0 0 1.41 10.28 55.02 55.02 0 0 0 4.07 9.73 81.08 81.08 0 0 0 4.84 7.98 4.28 4.28 0 0 1 .53 1.07Z" data-name="Path 13" />
	<path fill="#ffb6b6" d="M559.57 197.3a7.74 7.74 0 0 0-4.44 9.86 7.43 7.43 0 0 0 .53 1.1l-17.37 20.7 7.4 12.5 20.73-30.91a7.72 7.72 0 0 0 2.85-9 7.4 7.4 0 0 0-9.51-4.32l-.2.08Z" />
	<path fill="#3f3d56" d="M468.6 193.16a13.37 13.37 0 0 0-5.76 19.4l16.65 25.97 39 35s32-23 33-31-2-10 1-8 6 1 5 0-.6-1.06.2-2.53 3.8-8.47 3.8-8.47l-10.63-10.5s-11.37 5.5-12.37 8.5 3 2-1 3-9.34-3.54-5.17 1.23 3.83 6.84 0 6.8-10.83 9.97-10.83 9.97l-37-45.61a13.37 13.37 0 0 0-15.9-3.76Z" />
	<path fill="#f2f2f2" d="M587.75 570.04a3.56 3.56 0 0 0 2.53-6.2l-.26-.97a9.57 9.57 0 0 1 17.75-.34c4.32 9.85 9.88 20.03 7.27 30.95 17.6-38.23 11.03-85.51-15.81-117.8-7.38-3.97-13.39-11.1-15.02-19.42 3.64 1.2 8.14-1.8 5.38-5.6l-3.6-4.34c13.64-14.81 30.3 8.11 15.3 28.08a114.26 114.26 0 0 1 13.03 19.95 48.04 48.04 0 0 1 2.65-22.34c2.69-6.65 7.78-12.28 12.26-18.05 5.44-7.02 16.8-3.91 17.64 4.93-5.07 1.72-5.66 9.07.16 10.02-1.37 16.49-11.98 31.72-26.73 39.09a114.71 114.71 0 0 1 6.72 47.88c2.44-19.01 22.78-23.81 36.95-31.5a5.55 5.55 0 0 1 8.51 5.55 32.05 32.05 0 0 0-5.58 3.01 4.84 4.84 0 0 0 2.33 8.83c-7.01 17.83-25.46 29.94-44.53 30.06a117.93 117.93 0 0 1-7.7 23.2l-28.3.27-.3-.95a32.15 32.15 0 0 0 7.83-.54c-7-8.14-12.4-12.28-8.48-23.77Z" />
	<path fill="#ccc" d="M0 595.14a1.19 1.19 0 0 0 1.19 1.19h715.29a1.19 1.19 0 0 0 0-2.38H1.19A1.19 1.19 0 0 0 0 595.14Z" />
	<path fill="#e6e6e6" d="M177.94 29.07h-27a5 5 0 0 1 0-10h27a5 5 0 0 1 0 10Z" />
	<circle cx="354.94" cy="24.07" r="4.5" fill="#e6e6e6" />
	<circle cx="368.94" cy="24.07" r="4.5" fill="#e6e6e6" />
	<circle cx="382.94" cy="24.07" r="4.5" fill="#e6e6e6" />
	<circle cx="209.44" cy="184.57" r="12" fill="#ccc" />
	<circle cx="296.44" cy="488.57" r="12" fill="#ccc" />
	<path fill="#e6e6e6" d="M198.72 348.53H164a18.15 18.15 0 0 1-18.14-18.13v-34.74A18.15 18.15 0 0 1 164 277.53h34.73a18.15 18.15 0 0 1 18.13 18.13v34.74a18.15 18.15 0 0 1-18.13 18.13Zm-34.73-69a16.15 16.15 0 0 0-16.14 16.13v34.74A16.15 16.15 0 0 0 164 346.53h34.73a16.15 16.15 0 0 0 16.13-16.13v-34.74a16.15 16.15 0 0 0-16.13-16.13ZM284.22 349.03H249.5a18.15 18.15 0 0 1-18.14-18.13v-34.74a18.15 18.15 0 0 1 18.14-18.13h34.73a18.15 18.15 0 0 1 18.13 18.13v34.74a18.15 18.15 0 0 1-18.13 18.13Zm-34.73-69a16.15 16.15 0 0 0-16.14 16.13v34.74a16.15 16.15 0 0 0 16.14 16.13h34.73a16.15 16.15 0 0 0 16.13-16.13v-34.74a16.15 16.15 0 0 0-16.13-16.13ZM369.72 349.53H335a18.15 18.15 0 0 1-18.14-18.13v-34.74A18.15 18.15 0 0 1 335 278.53h34.73a18.15 18.15 0 0 1 18.13 18.13v34.74a18.15 18.15 0 0 1-18.13 18.13Zm-34.73-69a16.15 16.15 0 0 0-16.14 16.13v34.74A16.15 16.15 0 0 0 335 347.53h34.73a16.15 16.15 0 0 0 16.13-16.13v-34.74a16.15 16.15 0 0 0-16.13-16.13Z" />
	<circle cx="296.44" cy="285.57" r="12" fill="#ccc" />
</svg>
