<svg xmlns="http://www.w3.org/2000/svg" viewBox="0 0 738.42 504.65">
	<path fill="#f2f2f2" d="M725.21 458.92c-5.05 17.52-19.8 29.8-35.19 40.21q-3.22 2.19-6.45 4.27l-.04.03-.3.2-1.33.85.24.1s.24.13-.02.03l-.24-.1c-8.94-3.6-18.03-7.47-24.88-14.23-7.11-7-11.26-18.01-7.42-27.22a17.6 17.6 0 0 1 1.9-3.42c.32-.45.66-.88 1-1.3a18.86 18.86 0 0 1 32.4 5.73c1.12-10.52-7.56-19.34-15.9-25.84-8.36-6.5-17.86-13.59-19.48-24.06-.9-5.82 1.13-11.46 4.82-16l.34-.4a27.52 27.52 0 0 1 17.69-9.5c12.81-1.32 25.26 5.46 34.57 14.37 14.98 14.33 24.04 36.35 18.3 56.28Z" />
	<path fill="#fff" d="M701.13 436a46.78 46.78 0 0 1 5.6 12.35 40.62 40.62 0 0 1 1.4 12 52.04 52.04 0 0 1-6.8 23.68 74.9 74.9 0 0 1-11.3 15.1q-3.23 2.19-6.46 4.27l-.04.03-.3.2-1.33.85s.48.23.22.13l-.24-.1a41.4 41.4 0 0 0-13.25-35.65 41.76 41.76 0 0 0-17.14-9.22c.31-.45.65-.88 1-1.3a43.3 43.3 0 0 1 7.14 2.7 42.42 42.42 0 0 1 19.19 18.5 43.37 43.37 0 0 1 4.72 23.8l1.09-1c6.8-6.34 12.83-13.6 16.9-22a48.42 48.42 0 0 0 5.08-22.9c-.33-8.66-3.78-16.67-8.77-23.65a101.35 101.35 0 0 0-19.21-19.8 115.16 115.16 0 0 0-23.9-14.75.83.83 0 0 1-.41-1.06.7.7 0 0 1 .34-.41.61.61 0 0 1 .54.02 126 126 0 0 1 3.13 1.49 116.46 116.46 0 0 1 24.07 15.87c7.08 6.04 13.75 12.94 18.73 20.84Z" />
	<path fill="#3f3d56" d="M615.72 0h-607A8.73 8.73 0 0 0 0 8.72v411.32a8.73 8.73 0 0 0 8.72 8.72h607a8.71 8.71 0 0 0 6.63-3.06 2.05 2.05 0 0 0 .19-.24 8.17 8.17 0 0 0 1.25-2.11 8.5 8.5 0 0 0 .66-3.31V8.72A8.73 8.73 0 0 0 615.72 0Zm6.24 420.04a6.18 6.18 0 0 1-1.03 3.42 6.45 6.45 0 0 1-2.36 2.12 6.18 6.18 0 0 1-2.85.69h-607a6.24 6.24 0 0 1-6.23-6.23V8.72a6.24 6.24 0 0 1 6.23-6.23h607a6.24 6.24 0 0 1 6.24 6.23Z" />
	<path fill="#3f3d56" d="M1.24 34.95H623.2v2.49H1.24z" />
	<circle cx="22.43" cy="18.7" r="7.48" fill="#3f3d56" />
	<circle cx="43.93" cy="18.7" r="7.48" fill="#3f3d56" />
	<circle cx="65.43" cy="18.7" r="7.48" fill="#3f3d56" />
	<path d="M402.81 175.36A20.17 20.17 0 1 1 423 155.2a20.2 20.2 0 0 1-20.18 20.17Zm0-38.44a18.26 18.26 0 1 0 18.26 18.27 18.28 18.28 0 0 0-18.26-18.27Z" />
	<path d="M400.9 162.52a2 2 0 0 1-1.2-.4l-.01-.02-4.52-3.45a2 2 0 0 1 2.44-3.19l2.93 2.25 6.91-9.02a2 2 0 0 1 2.81-.37l-.04.06.05-.06a2 2 0 0 1 .37 2.8l-8.13 10.61a2 2 0 0 1-1.6.79Z" data-name="Path 395" />
	<path fill="#e6e6e6" d="M460.54 175.36a20.17 20.17 0 1 1 20.17-20.17 20.2 20.2 0 0 1-20.17 20.17Zm0-38.44a18.26 18.26 0 1 0 18.26 18.27 18.28 18.28 0 0 0-18.26-18.27Z" />
	<path fill="#e6e6e6" d="M467.8 162.17a1.3 1.3 0 0 1-1.83 0l-4.84-4.84a.58.58 0 0 0-.81 0l-4.84 4.84a1.3 1.3 0 0 1-1.83-1.83l4.84-4.84a.58.58 0 0 0 0-.81l-4.84-4.85a1.3 1.3 0 0 1 1.83-1.82l4.84 4.84a.58.58 0 0 0 .81 0l4.84-4.84a1.3 1.3 0 0 1 1.83 1.82l-4.84 4.85a.58.58 0 0 0 0 .81l4.84 4.84a1.3 1.3 0 0 1 0 1.83Z" />
	<path d="M402.81 239.41A20.17 20.17 0 1 1 423 219.24a20.2 20.2 0 0 1-20.18 20.17Zm0-38.44a18.26 18.26 0 1 0 18.26 18.27 18.28 18.28 0 0 0-18.26-18.27Z" />
	<path d="M400.9 226.57a2 2 0 0 1-1.2-.4l-.01-.02-4.52-3.45a2 2 0 0 1 2.44-3.19l2.93 2.25 6.91-9.02a2 2 0 0 1 2.81-.38l-.04.06.05-.05a2 2 0 0 1 .37 2.8l-8.13 10.61a2 2 0 0 1-1.6.78Z" data-name="Path 395" />
	<path fill="#e6e6e6" d="M460.54 239.41a20.17 20.17 0 1 1 20.17-20.17 20.2 20.2 0 0 1-20.17 20.17Zm0-38.44a18.26 18.26 0 1 0 18.26 18.27 18.28 18.28 0 0 0-18.26-18.27Z" />
	<path fill="#e6e6e6" d="M467.8 226.22a1.3 1.3 0 0 1-1.83 0l-4.84-4.84a.58.58 0 0 0-.81 0l-4.84 4.84a1.3 1.3 0 0 1-1.83-1.83l4.84-4.84a.58.58 0 0 0 0-.81l-4.84-4.85a1.3 1.3 0 0 1 1.83-1.82l4.84 4.84a.58.58 0 0 0 .81 0l4.84-4.84a1.3 1.3 0 0 1 1.83 1.82l-4.84 4.85a.58.58 0 0 0 0 .8l4.84 4.85a1.3 1.3 0 0 1 0 1.83ZM402.81 303.46A20.17 20.17 0 1 1 423 283.29a20.2 20.2 0 0 1-20.18 20.17Zm0-38.44a18.26 18.26 0 1 0 18.26 18.27 18.28 18.28 0 0 0-18.26-18.27Z" />
	<path fill="#e6e6e6" d="M400.9 290.62a2 2 0 0 1-1.2-.4l-.01-.02-4.52-3.45a2 2 0 0 1 2.44-3.19l2.93 2.24 6.91-9.01a2 2 0 0 1 2.81-.38l-.04.06.05-.06a2 2 0 0 1 .37 2.82l-8.13 10.6a2 2 0 0 1-1.6.78Z" data-name="Path 395" />
	<path fill="#e6e6e6" d="M460.54 303.46a20.17 20.17 0 1 1 20.17-20.17 20.2 20.2 0 0 1-20.17 20.17Zm0-38.44a18.26 18.26 0 1 0 18.26 18.27 18.28 18.28 0 0 0-18.26-18.27Z" />
	<path fill="#e6e6e6" d="M467.8 290.27a1.3 1.3 0 0 1-1.83 0l-4.84-4.85a.58.58 0 0 0-.81 0l-4.84 4.85a1.3 1.3 0 0 1-1.83-1.83l4.84-4.84a.58.58 0 0 0 0-.82l-4.84-4.84a1.3 1.3 0 0 1 1.83-1.82l4.84 4.84a.58.58 0 0 0 .81 0l4.84-4.84a1.3 1.3 0 0 1 1.83 1.82l-4.84 4.85a.58.58 0 0 0 0 .8l4.84 4.85a1.3 1.3 0 0 1 0 1.83Z" />
	<path fill="#3f3d56" d="M737.42 504.36h-381a1 1 0 0 1 0-2h381a1 1 0 1 1 0 2Z" />
	<path fill="#ffb8b8" d="M410.66 231.44a10.06 10.06 0 0 0 14.59-5l35.71 1.2-9.7-15.84-32.43 1.3a10.11 10.11 0 0 0-8.17 18.34ZM612.03 308.8a10.06 10.06 0 0 0-2.36-15.24l7.43-34.95-17.3 6.78-4.4 32.15a10.11 10.11 0 0 0 16.63 11.26ZM528.37 490.97h-12.26l-5.83-47.28h18.09v47.28z" />
	<path fill="#2f2e41" d="M531.5 502.86h-39.54v-.5a15.39 15.39 0 0 1 15.4-15.39h24.14Z" />
	<path fill="#ffb8b8" d="M588.37 490.97h-12.26l-5.83-47.28h18.09v47.28z" />
	<path fill="#2f2e41" d="M591.5 502.86h-39.54v-.5a15.39 15.39 0 0 1 15.4-15.39h24.14ZM529.65 466.28l-17.36-.7a4.51 4.51 0 0 1-4.32-4.63l4.9-160.38.31-.11c30.42-11 55.58-10.17 76.93 2.54l.24.14 2.93 156.2a4.5 4.5 0 0 1-4.5 4.59h-14.64a4.51 4.51 0 0 1-4.41-3.63l-19.94-101.41a1.5 1.5 0 0 0-2.96.1L534.3 462.34a4.53 4.53 0 0 1-4.47 3.95h-.17Z" />
	<circle cx="546.53" cy="135.37" r="24.56" fill="#ffb8b8" />
	<path fill="#ccc" d="M431.06 225.64a4.5 4.5 0 0 1 0-2.69l2.55-8.15a4.51 4.51 0 0 1 4.1-3.16l32.22-1.42 52.27-26.8a14.5 14.5 0 1 1 8.79 27.63l-32.04 18.58a46.37 46.37 0 0 1-32.2 5.4l-32.26-6.32a4.5 4.5 0 0 1-3-2.11 4.45 4.45 0 0 1-.43-.96ZM610.98 286.17a4.5 4.5 0 0 1-2.68.12l-8.25-2.2a4.51 4.51 0 0 1-3.33-3.96l-2.8-32.13-29-51.09a14.5 14.5 0 1 1 27.23-9.95l19.93 31.21a46.37 46.37 0 0 1 6.77 31.94l-4.94 32.5a4.5 4.5 0 0 1-1.99 3.1 4.45 4.45 0 0 1-.94.46Z" />
	<path fill="#ccc" d="M519.66 178.98a41.82 41.82 0 0 1 33.54-13.56l1.23.09a41.73 41.73 0 0 1 30.16 16.65 42.36 42.36 0 0 1 7.52 34.14 132.36 132.36 0 0 0 3.5 67.88l6.59 20.46a4.5 4.5 0 0 1-4.04 5.87l-33.69 1.8-8.62-14.88v15.35l-40.94 2.2-.24.01a4.5 4.5 0 0 1-4.49-4.86l4.63-57.38-5.8-38.98a42.09 42.09 0 0 1 10.65-34.79Z" />
	<path fill="#2f2e41" d="M563.6 158.81c-2.27 1.31-11.26 2.18-11.9-.37l-.02-.05c-.44-1.87-.07-3.81.06-5.72s-.06-4.02-1.37-5.42c-2.42-2.62-6.74-1.24-10.26-1.9a8.66 8.66 0 0 1-6.74-9.25c.05-.4.13-.8.22-1.2a6.67 6.67 0 0 0-6.93-8.08c-3.54.2-7.37 1.28-10.3-1.35-2.28-2.03-2.83-7.32-1.84-10.2 1.68-4.83 12.42-7.37 17.1-8.76a40.62 40.62 0 0 1 34.44 5.65c2.96 2.09 5.72 4.7 6.99 8.1s.65 7.69-2.2 9.93a18.33 18.33 0 0 1 4.25 17.8c-1.4 4.53-8.12 8.88-11.5 10.82Z" />
	<path d="M224.62 160.07H67.36a7.65 7.65 0 0 1 0-15.3h157.26a7.65 7.65 0 0 1 0 15.3Z" />
	<path fill="#3f3d56" d="M321.71 166.6h-270a1 1 0 0 1 0-2h270a1 1 0 0 1 0 2Z" />
	<path d="M224.62 224.12H67.36a7.65 7.65 0 0 1 0-15.3h157.26a7.65 7.65 0 0 1 0 15.3Z" />
	<path fill="#3f3d56" d="M321.71 230.64h-270a1 1 0 0 1 0-2h270a1 1 0 0 1 0 2Z" />
	<path fill="#f2f2f2" d="M224.62 288.17H67.36a7.65 7.65 0 0 1 0-15.3h157.26a7.65 7.65 0 0 1 0 15.3Z" />
	<path fill="#3f3d56" d="M321.71 294.7h-270a1 1 0 1 1 0-2h270a1 1 0 0 1 0 2Z" />
</svg>
