<svg xmlns="http://www.w3.org/2000/svg" viewBox="0 0 676.66 577.35">
	<path fill="#e4e4e4" d="M315.04 528.4a24.21 24.21 0 0 0 23.39-4.12c8.19-6.88 10.75-18.2 12.84-28.68l6.18-31.02-12.94 8.9c-9.3 6.42-18.81 13.03-25.26 22.3s-9.25 21.95-4.07 32" data-name="Path 438" />
	<path fill="#f2f2f2" d="M317.04 568.1c-1.63-11.86-3.3-23.87-2.16-35.86 1.02-10.65 4.27-21.05 10.88-29.58a49.2 49.2 0 0 1 12.62-11.44c1.27-.8 2.43 1.2 1.17 2a46.78 46.78 0 0 0-18.5 22.32c-4.03 10.25-4.68 21.42-3.98 32.3.42 6.58 1.3 13.12 2.2 19.65a1.2 1.2 0 0 1-.8 1.42 1.16 1.16 0 0 1-1.43-.8Z" data-name="Path 439" />
	<path fill="#e4e4e4" d="M328.76 549.07a17.83 17.83 0 0 0 15.53 8.02c7.87-.37 14.42-5.86 20.32-11.07l17.45-15.4-11.55-.56c-8.3-.4-16.82-.77-24.74 1.8s-15.2 8.72-16.65 16.9" data-name="Path 442" />
	<path fill="#f2f2f2" d="M312.44 574.93c7.84-13.87 16.93-29.29 33.18-34.22a37.03 37.03 0 0 1 13.95-1.44c1.49.13 1.12 2.41-.36 2.29a34.4 34.4 0 0 0-22.27 5.89c-6.28 4.27-11.17 10.22-15.31 16.52-2.54 3.86-4.8 7.88-7.08 11.9-.72 1.28-2.85.36-2.11-.94Z" data-name="Path 443" />
	<path fill="#fff" d="M572.66 406.8H0V0h572.66Z" />
	<path d="M46.65 167.08a5.58 5.58 0 0 0 0 11.16h193.39a5.58 5.58 0 0 0 0-11.16ZM46.65 200.55a5.58 5.58 0 1 0-.03 11.16h193.56a5.58 5.58 0 1 0 0-11.16ZM46.65 233.55a5.58 5.58 0 1 0-.03 11.16h43.56a5.58 5.58 0 1 0 0-11.16Z" />
	<path fill="#e5e5e5" d="M572.66 406.8H0V0h572.66ZM9.41 397.37h553.84V9.4H9.4Z" />
	<path fill="#e4e4e4" d="M392.47 317.4a10.04 10.04 0 0 0-.04 20.08h95.84a10.04 10.04 0 1 0 0-20.07ZM392.47 195.86a10.04 10.04 0 0 0-.04 20.07h95.84a10.04 10.04 0 1 0 0-20.07ZM46.65 322.05a5.58 5.58 0 1 0-.03 11.16h193.56a5.58 5.58 0 1 0 0-11.16ZM46.65 355.05a5.58 5.58 0 1 0-.03 11.16h43.56a5.58 5.58 0 1 0 0-11.16ZM46.65 288.58a5.58 5.58 0 0 0 0 11.16h193.39a5.58 5.58 0 0 0 0-11.16ZM46.65 45.58a5.58 5.58 0 0 0 0 11.16h193.39a5.58 5.58 0 0 0 0-11.16ZM46.65 79.05a5.58 5.58 0 1 0-.03 11.16h193.56a5.58 5.58 0 1 0 0-11.16ZM46.65 112.05a5.58 5.58 0 1 0-.03 11.16h43.56a5.58 5.58 0 1 0 0-11.16ZM392.47 74.4a10.04 10.04 0 0 0-.04 20.08h95.84a10.04 10.04 0 1 0 0-20.07Z" />
	<circle cx="412.66" cy="84.35" r="18" fill="#cacaca" />
	<path fill="#ffb6b6" d="M444.12 210.25a9.98 9.98 0 0 0 10.28 11.33l9.56 20.7 14-2.74-13.92-29.04a10.03 10.03 0 0 0-19.92-.25Z" />
	<path fill="#3f3d56" d="m540.95 288.58-39-19.29-27.52-46.7-19.23 9.3 24.96 53.96 63.07 36.4-2.28-33.67z" />
	<path fill="#ffb6b6" d="M452.91 564.7h-12.26l-5.84-35.35h18.1v35.35z" />
	<path fill="#2f2e41" d="M456.03 576.58H416.5v-.5a15.39 15.39 0 0 1 15.39-15.39h24.14Z" />
	<path fill="#ffb6b6" d="m575.28 542.21-8.55 8.78-29.39-20.48 12.62-12.96 25.32 24.66z" />
	<path fill="#2f2e41" d="m585.98 548.26-27.59 28.32-.35-.35a15.39 15.39 0 0 1-.29-21.76l16.85-17.3ZM468.06 354.33h-8.48a236.91 236.91 0 0 0-49.42 83.37l-10.13 29.66 36.1 75.59 22.53.4-25.75-80.25 25.94-34.4 1.31 69.15 83.5 43.76 16.7-24.68-67.94-37.15L504 420.96s23.28-19.42 9.73-49.76Z" />
	<path fill="#3f3d56" d="m579.66 277.35-35.23-15.43-38.79 17.18s-10.98 6.25-3.98 22.25l-42.08 52.98 52.96 16.87 47.72-42.02a58.74 58.74 0 0 0 19.4-51.83Z" />
	<circle cx="573.75" cy="236.9" r="24.56" fill="#ffb6b6" />
	<path fill="#2f2e41" d="M605.56 204.3c-5.64-4.58-14.38-5.58-20.2-1.23-10.15-5.33-23.87-2.55-31.14 6.3-2.62 3.2-4.47 7.5-3.18 11.42 1.3 3.92 6.88 6.22 9.8 3.3l-.06 1.2a19.5 19.5 0 0 1-12.12 33.2l24.15 9.76c3.38 1.36 6.88 2.75 10.53 2.74s7.55-1.8 8.96-5.16l3.06 9.37a154.23 154.23 0 0 0 14.72-30.34c2.43-6.85 4.4-14 4.14-21.27-.26-7.26-3.03-14.7-8.66-19.28Z" />
	<circle cx="412.66" cy="327.35" r="18" fill="#cacaca" />
	<circle cx="468.66" cy="205.9" r="18" />
	<path fill="#ffb6b6" d="M469.12 200.25a9.98 9.98 0 0 0 10.28 11.33l9.56 20.7 14-2.74-13.92-29.04a10.03 10.03 0 0 0-19.92-.25Z" />
	<path fill="#3f3d56" d="m565.95 278.58-39-19.29-27.52-46.7-19.23 9.3 24.96 53.96 63.07 36.4-2.28-33.67z" />
	<path fill="#cacaca" d="M675.66 577.35h-381a1 1 0 0 1 0-2h381a1 1 0 0 1 0 2Z" />
</svg>
