<svg xmlns="http://www.w3.org/2000/svg" viewBox="0 0 876.97 744">
	<path fill="#e6e6e6" d="M515 191h-26a5 5 0 0 1-5-5v-26a5 5 0 0 1 5-5h26a5 5 0 0 1 5 5v26a5 5 0 0 1-5 5Zm-26-34a3 3 0 0 0-3 3v26a3 3 0 0 0 3 3h26a3 3 0 0 0 3-3v-26a3 3 0 0 0-3-3ZM212 36h-26a5 5 0 0 1-5-5V5a5 5 0 0 1 5-5h26a5 5 0 0 1 5 5v26a5 5 0 0 1-5 5ZM186 2a3 3 0 0 0-3 3v26a3 3 0 0 0 3 3h26a3 3 0 0 0 3-3V5a3 3 0 0 0-3-3Z" />
	<path fill="#e6e6e6" d="M499 178h-26a5 5 0 0 1-5-5v-26a5 5 0 0 1 5-5h26a5 5 0 0 1 5 5v26a5 5 0 0 1-5 5Zm-26-34a3 3 0 0 0-3 3v26a3 3 0 0 0 3 3h26a3 3 0 0 0 3-3v-26a3 3 0 0 0-3-3ZM47 395H21a5 5 0 0 1-5-5v-26a5 5 0 0 1 5-5h26a5 5 0 0 1 5 5v26a5 5 0 0 1-5 5Zm-26-34a3 3 0 0 0-3 3v26a3 3 0 0 0 3 3h26a3 3 0 0 0 3-3v-26a3 3 0 0 0-3-3Z" />
	<path fill="#e6e6e6" d="M31 382H5a5 5 0 0 1-5-5v-26a5 5 0 0 1 5-5h26a5 5 0 0 1 5 5v26a5 5 0 0 1-5 5ZM5 348a3 3 0 0 0-3 3v26a3 3 0 0 0 3 3h26a3 3 0 0 0 3-3v-26a3 3 0 0 0-3-3Z" />
	<path fill="#3f3d56" d="M92.43 86.04h240.61a51.15 51.15 0 0 1 49.9 39.9L504.52 665.2a41.34 41.34 0 0 1-38.3 50.38l-247.35 12.19a54.61 54.61 0 0 1-56.43-44.83L93.48 301.68l-5.14 1.47-13.2-72.27 5.29-1.32-19.25-106.42a31.5 31.5 0 0 1 31.25-37.1Z" />
	<path fill="#fff" d="M301.37 97.66h28.09a35.35 35.35 0 0 1 34.53 27.82l116.7 534.86a21.9 21.9 0 0 1-19.97 26.53l-246.55 16.16a28.37 28.37 0 0 1-29.77-23.28L84.82 126.91a24.85 24.85 0 0 1 24.45-29.25h26.64a11.73 11.73 0 0 1 11.33 8.68 10.35 10.35 0 0 0 10 7.66h126.49a17.7 17.7 0 0 0 17.64-16.34Z" />
	<path d="M104 188.61h267.48L399.97 317 129 322l-25-133.39zM358 431.75h62.97l2 12.06H360l-2-12.06z" />
	<path fill="#2f2e41" d="m142.17 375.9 267.06-5.65.03 1.26-267.06 5.66zM145.3 413.61l272.1-6.28.02 1.26-272.08 6.28z" />
	<path d="M384 560.75h62.97l2 12.06H386l-2-12.06z" />
	<path fill="#2f2e41" d="m168.17 504.9 267.06-5.65.03 1.26-267.06 5.66zM171.3 542.61l272.1-6.28.02 1.26-272.08 6.28z" />
	<path fill="#a0616a" d="M615.56 731.21h-11.91l-5.67-45.96h17.58v45.96z" />
	<path fill="#2f2e41" d="M618.6 742.76h-38.42v-.5a14.95 14.95 0 0 1 14.95-14.94h23.47Z" />
	<path fill="#a0616a" d="m763.58 723.41-11.6 2.73-16.05-43.44 17.11-4.03 10.54 44.74z" />
	<path fill="#2f2e41" d="m769.18 733.95-37.4 8.8-.1-.47a14.95 14.95 0 0 1 11.12-17.98l22.84-5.38ZM613.13 537.37c.02-2.4.73-58.92 16.22-80.29l.23-.32 54 7.45-1.22 11.87c2.38 2.3 21.06 21.83 26.45 68.05l57.31 153.91-26.64 2.43-78.87-168.02-41.73 182.63h-26.41Z" />
	<path fill="#ccc" d="m623.03 459.16 5.27-27.7c-1.03-1.33-5.6-7.72-4.59-15.2.67-4.9 3.58-9.17 8.67-12.74l13.68-31.92.18-.1c.92-.55 22.7-13.15 34.58-1.26.3.23 29.53 23.43 17.8 54.74l-14.5 43.49Z" />
	<path fill="#a0616a" d="M604.66 496.65a9.8 9.8 0 0 0 8.28-12.54l28.25-20.35-16.91-6.43-24.24 20.31a9.85 9.85 0 0 0 4.62 19.01Z" />
	<path fill="#ccc" d="m609.85 463.73 43.13-33.99-12.82-43.8a15.74 15.74 0 0 1 1.6-12.46 14.56 14.56 0 0 1 9.54-6.9c7.38-1.55 14.08 2.58 19.92 12.3l.04.09c.96 2.35 23.43 57.9 6.28 69.77-16.79 11.62-55.7 28.54-56.1 28.7l-.45.2Z" />
	<circle cx="667.18" cy="332.56" r="26.13" fill="#a0616a" />
	<circle cx="708.14" cy="300.11" r="23.11" fill="#2f2e41" />
	<path fill="#2f2e41" d="M728.08 319.25a23.12 23.12 0 0 1-35.7-12.13 23.12 23.12 0 1 0 45.1-9.48 23.1 23.1 0 0 1-9.4 21.61Z" />
	<path fill="#2f2e41" d="M636.86 319.28c4.03-7.22 5.58-10.24 10.78-14.63 4.6-3.89 10.26-5.03 14.82-1.35a27.34 27.34 0 1 1-16.5 25.1 27.56 27.56 0 0 1 .2-3.1c-3.97-.56-5.34-5.46-9.3-6.02Z" />
	<path fill="#3f3d56" d="M875.97 744h-381a1 1 0 0 1 0-2h381a1 1 0 0 1 0 2Z" />
</svg>
