<svg xmlns="http://www.w3.org/2000/svg" viewBox="0 0 920.11 411.95">
	<path fill="#e6e6e6" d="M436.53 410h195.59c7.72 0 7.73-12 0-12h-195.6c-7.71 0-7.73 12 0 12Z" />
	<path d="M383.72 149.23H188.79a7.78 7.78 0 0 0-7.77 7.77v38.72c9.72.23 16.03 8.26 17.56 18v35.1h.74a.44.44 0 0 1 .45.45v18.68a.44.44 0 0 1-.45.44h-.74v112.9l-.02 7.02h185.16a7.78 7.78 0 0 0 7.77-7.77V157a7.78 7.78 0 0 0-7.77-7.77Z" />
	<path d="M745.9 21.81v211.9H404.97v-93.3a16 16 0 0 0-15.98-15.97h-63.94V21.8Z" />
	<path fill="#3f3d56" d="M766.95 263.58h-361.6v-1.47h360.12V12.55A11.09 11.09 0 0 0 754.4 1.48H312.14a11.09 11.09 0 0 0-11.08 11.07v110.93h-1.47V12.55A12.57 12.57 0 0 1 312.14 0H754.4a12.57 12.57 0 0 1 12.55 12.55Z" />
	<path fill="#3f3d56" d="M732.69 308.62H405.35v-1.48h327.34a32.82 32.82 0 0 0 32.78-32.78v-10.78H405.35v-1.47h361.6v12.25a34.3 34.3 0 0 1-34.26 34.26Z" />
	<path fill="#3f3d56" d="M635.54 380.98c-18.25-17.52-30.25-40.39-34.11-72.36h-134.5c-1.36 29.91-13.29 52.35-34.8 72.28l-2.28.08c22.2-20.12 34.43-42.72 35.64-73.13l.03-.7h137.22l.08.65c3.79 32.51 16.04 55.52 34.74 73.06ZM388.63 411.52H181.46v-1.47h207.17a16 16 0 0 0 15.98-15.98V140.75a16 16 0 0 0-15.98-15.97H181.46a16 16 0 0 0-15.98 15.97v54.67h-1.47v-54.67a17.47 17.47 0 0 1 17.45-17.45h207.17a17.47 17.47 0 0 1 17.46 17.45v253.32a17.47 17.47 0 0 1-17.46 17.45Z" />
	<path fill="#3f3d56" d="M285.05 141.98a5 5 0 1 1 5-5 5.01 5.01 0 0 1-5 5Zm0-8.85a3.85 3.85 0 1 0 3.85 3.85 3.85 3.85 0 0 0-3.85-3.85ZM285.05 405.86a6.39 6.39 0 1 1 6.39-6.38 6.4 6.4 0 0 1-6.4 6.38Zm0-11.3a4.91 4.91 0 1 0 4.91 4.92 4.92 4.92 0 0 0-4.91-4.92ZM179.38 411.95H110.8a19.5 19.5 0 0 1-19.47-19.47V214.89a19.5 19.5 0 0 1 19.47-19.47h68.58a19.5 19.5 0 0 1 19.47 19.47v31.78a1.92 1.92 0 0 1 1.19 1.78v20.67a1.92 1.92 0 0 1-1.19 1.78v121.58a19.5 19.5 0 0 1-19.47 19.47ZM110.8 196.9a18.02 18.02 0 0 0-18 18v177.58a18.02 18.02 0 0 0 18 18h68.58a18.02 18.02 0 0 0 18-18V269.57h.74a.44.44 0 0 0 .44-.45v-20.67a.44.44 0 0 0-.44-.45h-.74v-33.1a18.02 18.02 0 0 0-18-18Z" />
	<path d="M180.14 201.03h-8.96a6.65 6.65 0 0 1-6.15 9.16h-39.29a6.65 6.65 0 0 1-6.15-9.16h-8.36a14 14 0 0 0-14 14v177.32a14 14 0 0 0 14 13.99h68.9a14 14 0 0 0 14-14V215.04a14 14 0 0 0-14-14Z" />
	<path fill="#3f3d56" d="M919.23 411.66H.88a.88.88 0 1 1 0-1.76h918.35a.88.88 0 1 1 0 1.76Z" />
	<path fill="#3f3d56" d="M636 411.25H431.48a15.5 15.5 0 1 1 0-31.01H636a15.5 15.5 0 0 1 0 31Zm-204.52-29.53a14.03 14.03 0 0 0 0 28.05H636a14.03 14.03 0 0 0 0-28.05Z" />
	<path fill="#ffb8b8" d="m784.5 293.2 5.72 11.97 48.92-16.39-8.45-17.68-46.19 22.1z" />
	<path fill="#2f2e41" d="m790.15 333.59-18-37.64 14.54-6.96 11.58 24.21a14.89 14.89 0 0 1-7 19.85l-1.12.54Z" />
	<path fill="#ffb8b8" d="m772.96 400.14 13.27-.45.56-51.64-15.55.92 1.72 51.17z" />
	<path fill="#2f2e41" d="M811.97 411.86h-41.72v-16.12h26.84a14.89 14.89 0 0 1 14.88 14.88v1.24ZM774.06 392.38a4.97 4.97 0 0 1-4.84-3.78c-7.26-29.2-34.3-176.34-10.4-205.23l.22-.26.31-.08c1.68-.42 33.33-10.22 51.9 5.08l.21.17 10.34 29.92 27.86 41.35a20.4 20.4 0 0 1-6.04 28.66l-36.58 23.08a5 5 0 0 1-5.75-.4 5.06 5.06 0 0 1-1.5-2.1l-7.69-19.21a5.03 5.03 0 0 1 2.4-6.33l17.15-8.57a3.67 3.67 0 0 0 1.83-2.5 2.96 2.96 0 0 0-1.03-2.55l-19.9-17.15a3 3 0 0 0-4.95 2.38l4.93 130.2a5 5 0 0 1-4.22 5.13l-13.46 2.13a5.05 5.05 0 0 1-.8.06Z" />
	<path fill="#3f3d56" d="m808.38 193.41-.34-.01-49.62-3.68a4.5 4.5 0 0 1-3.91-5.97 47.1 47.1 0 0 0 1.07-27.31c-3.23-12.75-3.3-36.44-3.06-49.42a8.75 8.75 0 0 1 8.28-8.53v-.01h1c8.08.12 22.91.7 35.05 3.22a18.39 18.39 0 0 1 14.66 17.7c.28 12.06.32 28.38-1.05 37.66-1.16 7.83.98 22.86 2.35 31.12a4.5 4.5 0 0 1-4.43 5.23Z" />
	<path fill="#ffb8b8" d="M826.09 240.71a10.02 10.02 0 0 1-3.81-14.9L799.36 127h17.33l20.22 96.87a10.08 10.08 0 0 1-10.82 16.84ZM717.56 137.7l27.43-25.95 10.34 14.47-25.84 22.74 33.89 26.91c.24-.01.49-.04.74-.04a10.85 10.85 0 1 1-10.75 12.3l-.1.1-35.28-30.56a13.47 13.47 0 0 1-.43-19.97Z" />
	<path fill="#3f3d56" d="M801.19 133.33a4.47 4.47 0 0 1-4.05-2.55 52.81 52.81 0 0 1-4.47-14.57c-1.2-8.25 4.54-13.15 10.37-14.22 5.67-1.04 12.58 1.45 14.34 9.38a20.45 20.45 0 0 1 .35 2.04c.7 6 1.37 10.68 1.97 13.9a4.5 4.5 0 0 1-4.2 5.31l-14.08.7-.23.01Z" />
	<circle cx="781.54" cy="59.98" r="30" fill="#2f2e41" />
	<circle cx="781.73" cy="67.77" r="24.56" fill="#ffb8b8" />
	<path fill="#3f3d56" d="M738.13 121.38a4.47 4.47 0 0 1-1.26-4.62 52.81 52.81 0 0 1 6.55-13.76c4.7-6.88 12.23-6.63 17.25-3.48 4.89 3.07 8.3 9.57 4.24 16.61a20.45 20.45 0 0 1-1.12 1.73c-3.54 4.91-6.21 8.8-7.93 11.58a4.5 4.5 0 0 1-6.7 1.09l-10.85-9q-.1-.07-.18-.15Z" />
	<path fill="#2f2e41" d="M775.72 33.19c-6.04-3.6-7.35-12.57-3.75-18.61s10.86-9.2 17.9-9.4c10.03-.3 19.72 4.7 26.75 11.87s11.66 16.36 15.2 25.76 6.06 19.15 9.54 28.57c1.79 4.83 3.99 9.8 8.07 12.93s10.59 3.7 14.08-.08c-.01 6.06-4.66 11.57-10.42 13.45s-12.29.46-17.34-2.9c-8.76-5.8-13-16.4-15.41-26.64s-3.61-20.95-8.48-30.27c-2.01-3.87-4.77-7.54-8.66-9.5s-9.06-1.85-12.19 1.19c-1.44 1.4-2.38 3.32-4.02 4.5a8.05 8.05 0 0 1-7.04.72 23.8 23.8 0 0 1-6.36-3.59" />
	<path fill="#2f2e41" d="M756.07 51.17a29.38 29.38 0 0 0 42.13 5.26c2.38-1.94 4.6-4.61 4.45-7.68-.16-3.15-2.73-5.62-5.35-7.36a34.48 34.48 0 0 0-23.4-5.38c-4.68.63-9.37 2.34-12.68 5.7s-4.96 8.58-3.25 12.98" />
</svg>
