<svg xmlns="http://www.w3.org/2000/svg" viewBox="0 0 581.18 668">
	<path fill="#3f3d56" d="M248.23 95.79h89.68v73.14h-89.68V95.8Zm87.68 2h-85.68v69.14h85.68V97.8Z" />
	<path fill="#3f3d56" d="m320.1 167.16 1.87-70.4 2 .05-1.88 70.4zM293.62 167.16l1.88-70.4 2 .05-1.88 70.4zM267.15 167.17l1.88-70.4 2 .05-1.88 70.4z" />
	<path fill="#3f3d56" d="M348.72 167.19h2v-25.2l-.73-.21c-.6-.17-61.65-17.05-116.78 0l-.7.22v22.76h2v-21.28c51.12-15.54 107.2-1.8 114.21.03v23.68Z" />
	<path fill="#3f3d56" d="M233.77 153.7c64.82-17.32 115.12-.2 115.62-.02l.66-1.9c-.5-.17-51.35-17.5-116.8-.01l.52 1.93Z" />
	<path fill="#3f3d56" d="M233.77 161.06c64.82-17.32 115.12-.2 115.62-.03l.66-1.88c-.5-.18-51.35-17.5-116.8-.03l.52 1.94Z" />
	<path d="M246.74 244.87h89.35v-66.2l12.4-10.74c-38.14-11.12-76.76-11.43-115.8-1.65l14.05 12.7v65.89Z" />
	<path fill="#3f3d56" d="M369 238.97h2v-33.74l-.72-.2c-.83-.24-83.08-22.98-157.35 0l-.7.22v30.45h2v-28.97c69.79-21.32 146.5-2.17 154.78.02v32.22Z" />
	<path fill="#3f3d56" d="M213.48 220.43c87.57-23.39 155.52-.26 156.2-.02l.66-1.89c-.69-.24-69.18-23.58-157.37-.02l.51 1.93Z" />
	<path fill="#3f3d56" d="M213.48 230.36c87.57-23.4 155.52-.26 156.2-.03l.66-1.88c-.69-.24-69.18-23.58-157.37-.03l.51 1.94Z" />
	<path d="M240.95 96.79c0 15.53 27.01.4 48.94.4s50.33 15.13 50.33-.4-26.05-39.7-47.98-39.7c-21.93 0-51.29 24.17-51.29 39.7Z" />
	<path d="M313.76 67.01h-43.02V43.85h43.02z" />
	<path d="M294.72 47.98h-6.62V0h6.62z" />
	<path fill="#e6e6e6" d="M199.59 667.6h173.72l-26.47-380.54 34.75-46.33c-59.2-9.47-119.14-12.02-180.35-3.3l24.82 43.01L199.6 667.6Z" />
	<path fill="#fff" d="M257.5 667.6h-31.44v-72.8h31.44z" />
	<path fill="#ccc" d="m280.66 667.6 1.66-82.73-18.91-23.16h-20.8l14.89 24.58 1.48 80.49" />
	<path fill="#fff" d="M332.5 667.6h-31.44v-72.8h31.44z" />
	<path fill="#ccc" d="m355.66 667.6 1.66-82.73-18.91-23.16h-20.8l14.89 24.58 1.48 80.49" />
	<path fill="#3f3d56" d="M434.09 668h2v-56.82l-.73-.2c-.37-.11-37.85-10.6-91.43-15.8-49.46-4.8-123.17-5.95-193.44 15.8l-.7.22v54.6h2v-53.13c69.74-21.42 142.83-20.26 191.95-15.49 49.3 4.78 84.88 14.04 90.35 15.52V668Z" />
	<path fill="#3f3d56" d="M151.04 637.34c83.11-22.2 155.82-21.02 202.18-16.13 50.24 5.3 81.23 16 81.54 16.1l.66-1.88c-.31-.1-31.47-10.87-81.92-16.2-46.54-4.92-119.54-6.1-202.98 16.18l.52 1.93Z" />
	<path fill="#3f3d56" d="M151.04 655.34c83.11-22.2 155.82-21.02 202.18-16.13 50.24 5.3 81.23 16 81.54 16.11l.66-1.89c-.31-.1-31.47-10.86-81.92-16.2-46.54-4.92-119.54-6.1-202.98 16.18l.52 1.93Z" />
	<path fill="#2f2e41" d="M0 665.78h581.18v2H0z" />
</svg>
