<svg xmlns="http://www.w3.org/2000/svg" viewBox="0 0 890.11 611.97">
	<path fill="#f1f1f1" d="m312.08 549.8.28-1.12c.06-.24 6.36-24.58 25.4-37.79 19.02-13.21 44.02-10.61 44.27-10.59l1.14.13-.28 1.11c-.06.24-6.36 24.58-25.4 37.8-19.02 13.2-44.02 10.6-44.27 10.58Zm26.81-37.27c-16.09 11.18-22.79 30.6-24.27 35.5 5.1.32 25.66.82 41.74-10.34 16.07-11.16 22.78-30.6 24.27-35.5-5.11-.32-25.66-.82-41.74 10.34Z" />
	<path fill="#f1f1f1" d="M345.8 518.44c-9.6 20.97-32.2 31.18-32.2 31.18s-7.06-23.79 2.54-44.76 32.2-31.18 32.2-31.18 7.06 23.79-2.54 44.76Z" />
	<path fill="#e5e5e5" d="M102.16 542.21c-10.35-31.83-11.2-68 6.3-97.53 7.43-12.56 17.88-23.4 30.7-30.48 14.78-8.18 31.85-10.85 48.55-11.22 36.3-.8 72.36 7.97 108.67 3.44 16.3-2.04 32.54-6.6 46.5-15.45 12.08-7.65 22.56-18.36 28.74-31.34a57.36 57.36 0 0 0 3.85-39.86c-3.44-12.59-11.51-24.36-23.32-30.4-10.73-5.47-23.9-5.62-35-1.09-11.92 4.88-20.51 14.96-22.34 27.86-2.28 16.1 4.97 32.03 13.04 45.5 7.76 12.97 17.18 25.14 28.62 35.08 11.08 9.63 24.15 17.22 38.52 20.6 13.63 3.2 28.34 2.91 41.6-1.81a59.17 59.17 0 0 0 32.02-27.4c7.76-14.03 10.46-30.24 10.2-46.13-.32-18.76-4.28-37.33-7.81-55.69q-5.38-27.93-11.56-55.7-3-13.53-6.21-27.02c-.45-1.87-3.34-1.08-2.9.8 8.5 35.8 16.43 71.88 22.45 108.18 2.86 17.24 4.65 35.11 1.07 52.38-3.03 14.56-9.8 28.68-21.4 38.3-22.14 18.4-55.16 16.07-78.85 2.2-12.78-7.49-23.62-17.97-32.6-29.68-9.27-12.1-17.91-25.94-21.83-40.8-2.02-7.68-2.6-15.87-.26-23.54a30.77 30.77 0 0 1 10.15-14.99c9-7.3 21.74-9.93 33-7.47 12.69 2.77 22.5 12.32 27.77 23.93a53.34 53.34 0 0 1 1.79 38.87c-4.55 13.42-13.97 24.9-25.29 33.24-12.89 9.5-28.25 14.89-43.94 17.54-35.2 5.96-70.55-1.83-105.81-2.55-16.07-.32-32.54.91-47.73 6.53a81.55 81.55 0 0 0-34.62 24.75c-20.07 24.35-25.63 56.65-20.88 87.27a157.1 157.1 0 0 0 5.92 24.48c.6 1.83 3.49 1.04 2.89-.8Z" />
	<path d="M90.11 534.97h19v15h-19z" />
	<path fill="#fff" d="M431.98 203.94h338.89c64.2 0 116.24-36.59 116.24-100.79S835.06 12.2 770.87 12.2H664.46c-128.4 0-232.48 63.35-232.48 191.74Z" />
	<path fill="#e5e5e5" d="M770.87 206.94h-341.9v-3c0-61.43 23.97-112.06 69.29-146.41C539.98 25.91 597.45 9.2 664.46 9.2h106.4c34.38 0 63.4 7.59 83.92 21.94 23.44 16.4 35.33 40.63 35.33 72.01 0 31.47-12.16 58.02-35.15 76.8-21.33 17.4-51.2 26.99-84.1 26.99Zm-335.87-6h335.87c67.73 0 113.24-39.3 113.24-97.79 0-79.38-79.2-87.95-113.24-87.95H664.46C554.32 15.2 436.69 64.06 435 200.94Z" />
	<path d="M587.14 72.12h40.03v9.64h-40.03zM751.7 72.12h14.08v9.64H751.7zM779.87 72.12h14.08v9.64h-14.08zM641.26 72.12h95.62v9.64h-95.62zM536.74 134.38h40.03v9.64h-40.03zM701.3 134.38h14.08v9.64H701.3zM729.46 134.38h14.08v9.64h-14.08zM590.85 134.38h95.62v9.64h-95.62zM702.04 93.61h40.03v9.64h-40.03zM756.15 93.61h40.03v9.64h-40.03zM810.26 93.61h14.08v9.64h-14.08zM564.91 93.61h14.08v9.64h-14.08zM593.07 93.61h95.62v9.64h-95.62zM619.02 114.37h40.03v9.64h-40.03zM564.91 114.37h40.03v9.64h-40.03zM810.26 114.37h14.08v9.64h-14.08zM782.09 114.37h14.08v9.64h-14.08zM672.39 114.37h95.62v9.64h-95.62z" />
	<path fill="#cbcbcb" d="M382 550.97H1a1 1 0 0 1 0-2h381a1 1 0 0 1 0 2ZM231 611.97H114a1 1 0 0 1 0-2h117a1 1 0 1 1 0 2Z" />
	<path fill="#ffb7b7" d="M120.42 337.49a13.75 13.75 0 0 0-4.48-20.6l7.25-48.32-23.04 10.68-3.35 44.25a13.82 13.82 0 0 0 23.62 13.99ZM190.07 594.09l-16.58-.01-7.89-63.95h24.47v63.96z" />
	<path fill="#2f2e41" d="M194.3 610.16h-53.46v-.68a20.8 20.8 0 0 1 20.8-20.8h32.66Z" />
	<path fill="#ffb7b7" d="m249.33 555.95-15.48 5.96-30.37-56.88 22.85-8.8 23 59.72z" />
	<path fill="#2f2e41" d="m259.06 569.43-49.92 19.23-.25-.63a20.82 20.82 0 0 1 11.95-26.91l30.5-11.75ZM141.88 299.94l-4.68 27.03 74.96 228 40.02-12.22-28.6-84.09-28.89-124.7-.63-44.44-52.18 10.42z" />
	<path fill="#2f2e41" d="m158.37 581.95 13.5-92.31-2.18-17.42 24.37-53.48-2.81-126.75 53.14 7.95-20.81 163.26-27.1 95.89-5.44 20.68-32.67 2.18z" />
	<circle cx="166.54" cy="50.05" r="30.49" fill="#ffb8b8" />
	<path fill="#2f2e41" d="M196.63 17.6a37.58 37.58 0 0 0-21.38-16.33l-6.53 5.22 2.54-6.1a34.6 34.6 0 0 0-6.46-.37l-5.88 7.56 2.43-7.3a37.22 37.22 0 0 0-25.68 15.28c-7.48 10.79-6.98 25.79.38 36.67 2.02-6.21 2.7-12.03 4.73-18.25a18.38 18.38 0 0 0 4.79.03l2.46-5.74.68 5.5c7.62-.67 18.93-2.13 26.15-3.46l-.7-4.22 4.2 3.5c2.22-.5 3.53-.97 3.42-1.32 5.37 8.66 10.7 14.2 16.07 22.86 2.04-12.22 5.64-22.38-1.22-33.52Z" />
	<path fill="#cbcbcb" d="M225.77 88.4s-58.06-5.16-83.47 15.93l-7.88 189.08 4.34 14.75s20.78 4.15 46-3 59.63 3 59.63 3l3.7-115.78Z" />
	<path fill="#3f3d56" d="m140.3 296.91 18.11-183.94L155 97.1s-34.95 9.87-47.7 28.62l23 159.4v14.81ZM221.52 284.7s-48.6-164.9-31.16-195.03c0 0 35.09-9.9 51.85 2.31l9.29 101.28s18.63 57.9 4.34 71.52l3.14 13.62s-19.06 1.12-23.14 1.65-14.32 4.65-14.32 4.65Z" />
	<path fill="#3f3d56" d="m118.14 124.63-10.84 1.1s-3.9 2.11-3.42 11.52-11.24 147.2-5.38 156.16l-3.4 11.67 23.96 6.53 1.42-11.67s9.7-30.17 10.95-37.83-13.3-137.48-13.3-137.48Z" />
	<path fill="#ffb7b7" d="M237.08 282.4a13.75 13.75 0 0 1 15.86-13.89l22.92-43.15 12.16 22.29-23.63 37.56a13.82 13.82 0 0 1-27.31-2.8Z" />
	<path fill="#3f3d56" d="m228.22 97.33 12.9-5.35s21.02 11.42 22.7 22.7 43.29 84.3 43.29 84.3-14.88 65-28.24 68.94l-7.26 8.02L251.55 263l6.5-6.5s-.17-34.39 5.82-40.55c0 0-16.87-43.18-24.5-47.53s-11.15-71.1-11.15-71.1Z" />
</svg>
