<svg xmlns="http://www.w3.org/2000/svg" viewBox="0 0 693.97 712.57">
	<path fill="#3f3d56" d="M499.74 168.9h-3.9V61.9A61.91 61.91 0 0 0 433.93 0H207.28a61.91 61.91 0 0 0-61.92 61.91V648.8a61.91 61.91 0 0 0 61.92 61.91h226.65a61.91 61.91 0 0 0 61.91-61.91V245.04h3.9Z" data-name="Path 968" />
	<path fill="#fff" d="M483.14 57.77v595.17a46.96 46.96 0 0 1-46.94 46.95H204.9a46.97 46.97 0 0 1-46.97-46.95V57.77a46.97 46.97 0 0 1 46.97-46.95h28.06a22.33 22.33 0 0 0 20.65 30.74h131.87a22.33 22.33 0 0 0 20.66-30.74h30.05a46.96 46.96 0 0 1 46.95 46.94Z" data-name="Path 969" />
	<path fill="#e6e6e6" d="M425.81 400.6H220.27a3.81 3.81 0 0 1-3.8-3.81v-50.98a3.81 3.81 0 0 1 3.8-3.81h205.54a3.81 3.81 0 0 1 3.8 3.8v51a3.81 3.81 0 0 1-3.8 3.8Zm-205.54-57.08a2.29 2.29 0 0 0-2.28 2.29v50.98a2.29 2.29 0 0 0 2.28 2.28h205.54a2.29 2.29 0 0 0 2.28-2.28v-50.98a2.29 2.29 0 0 0-2.28-2.29Z" data-name="Path 39" />
	<path fill="#e6e6e6" d="M283.84 360.36a2.66 2.66 0 0 0 0 5.33h125.6a2.67 2.67 0 0 0 .2-5.33H283.84Z" data-name="Path 40" />
	<path fill="#e6e6e6" d="M283.84 376.34a2.66 2.66 0 0 0 0 5.33h125.6a2.67 2.67 0 0 0 .2-5.32H283.84Z" data-name="Path 41" />
	<path fill="#e6e6e6" d="M425.81 485.58H220.27a3.81 3.81 0 0 1-3.8-3.81v-50.98a3.81 3.81 0 0 1 3.8-3.81h205.54a3.81 3.81 0 0 1 3.8 3.8v51a3.81 3.81 0 0 1-3.8 3.8ZM220.27 428.5a2.29 2.29 0 0 0-2.28 2.29v50.98a2.29 2.29 0 0 0 2.28 2.28h205.54a2.29 2.29 0 0 0 2.28-2.28V430.8a2.29 2.29 0 0 0-2.28-2.29Z" data-name="Path 42" />
	<path fill="#e6e6e6" d="M283.84 445.62a2.66 2.66 0 0 0 0 5.33h125.6a2.67 2.67 0 0 0 .09-5.33h-125.7Z" data-name="Path 43" />
	<path fill="#e6e6e6" d="M283.84 461.6a2.66 2.66 0 0 0 0 5.33h125.6a2.67 2.67 0 0 0 .09-5.32h-125.7Z" data-name="Path 44" />
	<path fill="#e6e6e6" d="M425.81 570.83H220.27a3.81 3.81 0 0 1-3.8-3.8v-50.99a3.81 3.81 0 0 1 3.8-3.8h205.54a3.81 3.81 0 0 1 3.8 3.8v50.99a3.81 3.81 0 0 1-3.8 3.8Zm-205.54-57.07a2.29 2.29 0 0 0-2.28 2.28v50.99a2.29 2.29 0 0 0 2.28 2.28h205.54a2.29 2.29 0 0 0 2.28-2.28v-50.99a2.29 2.29 0 0 0-2.28-2.28Z" data-name="Path 39-2" />
	<path fill="#e6e6e6" d="M283.84 530.88a2.66 2.66 0 1 0 0 5.33h125.6a2.67 2.67 0 0 0 .2-5.33H283.84Z" data-name="Path 40-2" />
	<path fill="#e6e6e6" d="M283.84 546.86a2.66 2.66 0 0 0 0 5.33h125.6a2.67 2.67 0 0 0 .2-5.32H283.84Z" data-name="Path 41-2" />
	<path fill="#e6e6e6" d="M692.16 712.57H1.8c-1 0-1.81-.46-1.81-1.04s.81-1.05 1.81-1.05h690.35c1 0 1.81.47 1.81 1.05s-.81 1.04-1.81 1.04Z" data-name="Path 970" />
	<g data-name="Group 58">
		<path fill="#e6e6e6" d="M29.07 671.8a19.47 19.47 0 0 0 18.8-3.3c6.6-5.53 8.66-14.64 10.34-23.07l4.97-24.95-10.4 7.17c-7.49 5.15-15.14 10.47-20.32 17.93s-7.44 17.65-3.28 25.73" data-name="Path 438" />
		<path fill="#f2f2f2" d="M30.68 703.75c-1.31-9.55-2.66-19.21-1.74-28.85.82-8.57 3.43-16.93 8.75-23.8a39.57 39.57 0 0 1 10.15-9.2c1.02-.63 1.95.97.94 1.61a37.62 37.62 0 0 0-14.88 17.96c-3.24 8.24-3.76 17.22-3.2 25.98a219 219 0 0 0 1.77 15.8.96.96 0 0 1-.65 1.15.94.94 0 0 1-1.14-.65Z" data-name="Path 439" />
		<path fill="#e6e6e6" d="M40.1 688.44a14.34 14.34 0 0 0 12.5 6.44c6.32-.3 11.6-4.71 16.34-8.9l14.03-12.39-9.29-.44c-6.68-.32-13.53-.62-19.9 1.44s-12.23 7.02-13.39 13.6" data-name="Path 442" />
		<path fill="#f2f2f2" d="M26.98 709.23c6.3-11.16 13.61-23.55 26.68-27.52a29.78 29.78 0 0 1 11.23-1.16c1.19.1.89 1.94-.3 1.84a27.66 27.66 0 0 0-17.92 4.74c-5.05 3.44-8.98 8.22-12.3 13.29-2.05 3.1-3.87 6.34-5.7 9.57-.58 1.03-2.28.29-1.7-.76Z" data-name="Path 443" />
	</g>
	<g data-name="Group 59">
		<circle cx="245.92" cy="370.99" r="15.99" />
		<path fill="#e6e6e6" d="M238.26 368c-.18 0-.33 1.2-.33 2.66s.15 2.67.33 2.67h15.72c.19.02.34-1.15.34-2.62a5.94 5.94 0 0 0-.33-2.71h-15.73Z" data-name="Path 40-3" />
	</g>
	<g data-name="Group 60">
		<circle cx="245.92" cy="456.28" r="15.99" data-name="Ellipse 5-2" />
		<path fill="#e6e6e6" d="M238.26 453.3c-.18 0-.33 1.18-.33 2.66s.15 2.66.33 2.66h15.72c.19.02.34-1.15.34-2.62a5.94 5.94 0 0 0-.33-2.7h-15.73Z" data-name="Path 40-4" />
	</g>
	<g data-name="Group 61">
		<circle cx="245.92" cy="541.54" r="15.99" data-name="Ellipse 5-3" />
		<path fill="#e6e6e6" d="M238.26 538.55c-.18 0-.33 1.2-.33 2.66s.15 2.67.33 2.67h15.72c.19.02.34-1.15.34-2.62a5.94 5.94 0 0 0-.33-2.7h-15.73Z" data-name="Path 40-5" />
	</g>
	<path fill="#e6e6e6" d="M372.19 256.67a4.49 4.49 0 0 1-4.02-2.45 52.87 52.87 0 0 0-31.37-26.41 60 60 0 0 0-8.4-1.9l-.59-.1 29.92-93.54.51.02c58.13 15.8 91.38 62.38 100.2 76.28a4.5 4.5 0 0 1-1.8 6.42l-82.43 41.2a4.5 4.5 0 0 1-2.02.48Z" />
	<path fill="#feb8b8" d="M551.62 456a9.28 9.28 0 0 1 12.71-6.39l22.29-24.3 4.16 16.62-21.8 20.52a9.33 9.33 0 0 1-17.36-6.46Z" data-name="Path 2881" />
	<path fill="#feb8b8" d="M599.48 698.33h-13.61l-6.48-52.52h20.1Z" data-name="Path 2882" />
	<path fill="#2f2e41" d="M602.95 693.89h-26.81a17.09 17.09 0 0 0-17.09 17.08v.56h43.9Z" data-name="Path 2883" />
	<path fill="#feb8b8" d="m677.67 684.84-12.73 4.83-24.7-46.8 18.8-7.13Z" data-name="Path 2884" />
	<path fill="#2f2e41" d="m679.34 679.45-25.07 9.52a17.09 17.09 0 0 0-9.9 22.04l.2.52 41.04-15.58Z" data-name="Path 2885" />
	<path fill="#2f2e41" d="m632.85 523.65 11.28 60.71s30.63 85.43 28.48 87.58-31.7 9.67-30.09 4.83-35.46-77.36-35.46-77.36Z" data-name="Path 2886" />
	<path fill="#e4e4e4" d="M587.1 413.32s-22.78 29.77-19.8 31.4 14.55 10.23 14.55 10.23l11.76-32.28Z" data-name="Path 2887" />
	<path fill="#2f2e41" d="M580.73 443.37s-3.76 27.94-2.14 33.85.53 173.54-.54 176.23-4.3 11.82-2.69 16.12 23.64 15.04 26.87 11.28 26.86-140.77 26.86-140.77 33.31-82.74 25.8-90.8-74.16-5.91-74.16-5.91Z" data-name="Path 2888" />
	<circle cx="629.07" cy="237.48" r="26.33" fill="#feb8b8" data-name="Ellipse 542" />
	<path fill="#e4e4e4" d="M601.56 296.98a18.66 18.66 0 0 1 6-11.04l4.8-14.67h28.21l7.86 12.33c8.5 3.66 14.8 9.47 15.04 16.31 1.3 4.55-4.3 148.83-5.9 154.2-.48 1.57-6.9 2.4-15.94 2.78-8.29.33-18.76.29-28.81.05-16.65-.38-32.17-1.27-34.78-1.75-5.9-1.08 22.94-154.82 23.52-158.2Z" data-name="Path 2890" />
	<path fill="#feb8b8" d="M626.5 488.31a9.28 9.28 0 0 0 1.83-14.1l15.57-29.06-17.06 1.56-12.17 27.35a9.33 9.33 0 0 0 11.83 14.25Z" data-name="Path 2891" />
	<path fill="#e4e4e4" d="M629.09 281.11s-24.71 10.2-15.58 36 19.34 56.41 19.34 56.41-12.9 69.31-12.9 72-8.05 17.2-4.83 19.88 24.72 8.06 25.25 5.38a181.72 181.72 0 0 1 5.91-18.27c1.08-2.15 26.33-69.31 23.1-75.22-2.37-4.35-4.45-44.2-5.39-64.94a34.1 34.1 0 0 0-17.78-28.71c-5-2.67-10.83-4.1-17.12-2.53Z" data-name="Path 2893" />
	<path fill="#2f2e41" d="M639.2 249.25c-2-.92-4.31-1.11-6.47-1.69-7.74-2.05-12.92-9.69-11.27-16.6a7.48 7.48 0 0 0 .41-2.73c-.29-2.05-2.69-3.37-4.99-3.84s-4.74-.4-6.94-1.16a9.39 9.39 0 0 1-6.13-7.36 13.67 13.67 0 0 1 2.32-9.17l.83 2.09a7.77 7.77 0 0 0 2.72-3.55 5.5 5.5 0 0 1 4.26 3c1.33.68 1.52-2.14 3-2.56a2.94 2.94 0 0 1 1.84.4c2.96 1.21 6.41.18 9.6-.5a41.22 41.22 0 0 1 16.77 0c3.66.75 7.29 2.08 9.9 4.45a20.35 20.35 0 0 1 4.64 6.96c2.82 6.18 4.67 12.87 3.75 19.47a26.05 26.05 0 0 1-7.44 14.6c-2.12 2.14-9.05 9.6-12.85 8.32-4.78-1.6 1.68-7.53-3.95-10.13Z" data-name="Path 2800" />
	<circle cx="321.98" cy="266.46" r="8" fill="#3f3d56" />
	<path d="M268.3 256.55a4.5 4.5 0 0 1-2.1-.52l-81.96-43.24a4.5 4.5 0 0 1-1.74-6.32 181.67 181.67 0 0 1 40.99-45.98c28.3-22.43 60.5-33.68 95.68-33.5a151.88 151.88 0 0 1 39.06 5.3l.5.13-29.92 93.54-.42-.06a66.68 66.68 0 0 0-8.14-.72c-30.45-.86-43.65 19.88-47.91 28.83a4.41 4.41 0 0 1-2.62 2.3 4.53 4.53 0 0 1-1.43.24Z" />
	<path fill="#3f3d56" d="m358.1 132.77-21.15 94.56a60.38 60.38 0 0 0-8.48-1.92l29.63-92.64Z" />
</svg>
