<svg xmlns="http://www.w3.org/2000/svg" viewBox="0 0 740.24 712.82">
	<g data-name="Group 193">
		<g data-name="Group 191">
			<path fill="#feb8b8" d="M173.5 481.56a10.82 10.82 0 0 1-19.58-8.85l-41.8-85.9 20-12.13 36.12 91.23.4.17.4.19.4.2a4.05 4.05 0 0 1 .4.22 10.83 10.83 0 0 1 3.67 14.87Z" />
			<path fill="#ccc" d="m120.1 419.93 29.7-7.61s-.97-2.2-2.55-5.82a3777.6 3777.6 0 0 1-14.17-32.98c-2.68-6.35-5.3-12.62-7.49-18.06s-4.7-8.7-7.2-10.52a9.9 9.9 0 0 0-7.29-1.94 14.07 14.07 0 0 0-5.63 2.15 15.34 15.34 0 0 0-2.27 1.72l-6.88 12.52Z" />
			<path fill="#feb8b8" d="m90.58 651.28 18.18-.07-5.86 47.5-12.32.05Z" data-name="Path 1-2" />
			<path fill="#2f2e41" d="m87.44 710.71 39.69-.2v-.5a15.57 15.57 0 0 0-.3-3.04 15.18 15.18 0 0 0-2.29-5.51 15.59 15.59 0 0 0-4.3-4.28 15.19 15.19 0 0 0-5.52-2.26 15.57 15.57 0 0 0-3.03-.28l-24.25.12Z" />
			<path fill="#feb8b8" d="m148.78 651.05 18.12-.07-5.84 47.43-12.28.06Z" />
			<path fill="#2f2e41" d="m145.65 710.4 39.58-.2v-.5a15.57 15.57 0 0 0-.3-3.03 15.17 15.17 0 0 0-2.28-5.5 15.54 15.54 0 0 0-4.28-4.27 15.13 15.13 0 0 0-5.51-2.26 15.5 15.5 0 0 0-3.03-.28l-24.18.11Z" />
			<path fill="#2f2e41" d="m149.55 456.93 30.48 113.74-11.16 109.03-24.7.68 5.38-98.44-30.82-49.13-6.68 148.24-22.4-1.58L77.17 552a144.74 144.74 0 0 1-9.26-31 138 138 0 0 1-2.19-25.32 118.4 118.4 0 0 1 1.32-17.07 62.5 62.5 0 0 1 1.23-6.26l9.09-9.21Z" />
			<path fill="#ccc" d="M109.17 475.96c5.12 0 9.93-.17 14.3-.5a107.34 107.34 0 0 0 13.27-1.74 47.25 47.25 0 0 0 10.82-3.4 17.36 17.36 0 0 0 7.02-5.54l.2-.3-8.32-54.22-8.99-60.95a16.61 16.61 0 0 0-16.95-14.2l-28.13.86A15.77 15.77 0 0 0 77.1 352.2l.02.48 3.7 60.62-13.63 59.8.97.13a364.17 364.17 0 0 0 26.28 2.32c5.17.27 10.14.4 14.72.4Z" data-name="Path 2616" />
			<path fill="#2f2e41" d="M124.78 324.34h.02a4.5 4.5 0 0 0 4.5-4.5v-25.08a33.52 33.52 0 0 0-2.65-13.09 34.06 34.06 0 0 0-17.9-17.99A33.54 33.54 0 0 0 62 294.45v25.13a4.5 4.5 0 0 0 .36 1.76 4.58 4.58 0 0 0 2.4 2.41 4.52 4.52 0 0 0 1.77.36l58.26.23Z" />
			<path fill="#feb8b8" d="M80.45 286.15a24.73 24.73 0 0 0 28.59 35.62 24.44 24.44 0 0 0 14.7-11.78 24.73 24.73 0 0 0-28.57-35.6 24.44 24.44 0 0 0-14.72 11.76Z" />
			<path fill="#2f2e41" d="M137.25 296.8a26.52 26.52 0 0 0-2.1-10.35 26.93 26.93 0 0 0-14.14-14.22 26.53 26.53 0 0 0-10.35-2.15l-5.02-.02h-.17a26.47 26.47 0 0 0-26.45 26.49v.5l10.62.04 3.62-10.12.72 10.14 5.49.02 1.82-5.1.37 5.11 35.59.16Z" data-name="Path 10" />
			<path fill="#feb8b8" d="M180 349.56a11.65 11.65 0 0 1 4.49 2.2 11.34 11.34 0 0 1 2.6 2.92 11.84 11.84 0 0 1 1.7 7.38 11.34 11.34 0 0 1-1.04 3.77 11.53 11.53 0 0 1-16.55 4.85l-.3-.2-.3-.2-.28-.22-.28-.22-58.6 20.86a8.83 8.83 0 0 1-10.13-3.17L87.4 368.3l16.8-11.3 8.81 10 53.63-10.66.18-.42q.08-.21.2-.41l.22-.4.23-.4a11.52 11.52 0 0 1 12.53-5.13Z" data-name="Path 11" />
			<path fill="#ccc" d="M112.08 360.68c-1.76-2.2-4.2-5.03-6.7-7.85s-5.01-5.6-6.92-7.7-3.2-3.47-3.2-3.47a13.81 13.81 0 0 0-25.08 10.19 13.61 13.61 0 0 0 2.06 5.04s1.91 2.5 4.8 6.24 6.75 8.7 10.64 13.65 7.83 9.86 10.86 13.49 5.17 5.97 5.47 5.77l10.58-31.44c.3-.2-.76-1.74-2.51-3.92Z" data-name="Path 12" />
			<path fill="#2f2e41" d="M105.8 323.55a4.42 4.42 0 0 1-.19 2.42 4.52 4.52 0 0 1-.6 1.12 4.57 4.57 0 0 1-.73.79 4.49 4.49 0 0 1-2.91 1.06h-.2l-.2-.02-.2-.02-.2-.04-3.77-.68-5.2-11.1v10.17l-17.13-3.09v-43.12l28.73.14-.71.83a19.76 19.76 0 0 0-4.47 9.72 32.21 32.21 0 0 0 .2 10.96 58.1 58.1 0 0 0 3.06 10.7 85.61 85.61 0 0 0 4.09 8.97 4.51 4.51 0 0 1 .43 1.19Z" data-name="Path 13" />
		</g>
		<path fill="#cacaca" d="M739.15 712.82H0v-2.1h740.25Z" data-name="Path 2533" />
		<path fill="#3f3d56" d="M543.24 168.9h-3.9V61.91A61.91 61.91 0 0 0 477.42 0H250.77a61.91 61.91 0 0 0-61.92 61.91V648.8a61.91 61.91 0 0 0 61.92 61.91h226.65a61.91 61.91 0 0 0 61.91-61.91V245.04h3.9Z" data-name="Path 339" />
		<path fill="#fff" d="M526.7 57.77v595.17a46.96 46.96 0 0 1-46.93 46.95h-231.3a46.97 46.97 0 0 1-46.98-46.95V57.77a46.97 46.97 0 0 1 46.97-46.95h28.06a22.33 22.33 0 0 0 20.66 30.74h131.87a22.33 22.33 0 0 0 20.65-30.74h30.06a46.96 46.96 0 0 1 46.95 46.94Z" data-name="Path 340" />
		<path fill="#ccc" d="M366.58 295.87a99.3 99.3 0 0 1-99.34-99.25v-.09c0-.2 0-.43.02-.63.3-54.4 44.86-98.7 99.32-98.7a99.34 99.34 0 0 1 .01 198.67h-.01Zm0-196.58a97.45 97.45 0 0 0-97.23 96.67l-.01.57A97.26 97.26 0 1 0 366.6 99.3h-.03Z" data-name="Path 45" />
		<path fill="#e6e6e6" d="M469.3 400.32H263.77a3.81 3.81 0 0 1-3.81-3.8v-51a3.81 3.81 0 0 1 3.8-3.8H469.3a3.81 3.81 0 0 1 3.8 3.8v51a3.81 3.81 0 0 1-3.8 3.8Zm-205.53-57.08a2.29 2.29 0 0 0-2.29 2.29v50.98a2.29 2.29 0 0 0 2.29 2.29H469.3a2.29 2.29 0 0 0 2.29-2.29v-50.98a2.29 2.29 0 0 0-2.29-2.29Z" data-name="Path 39" />
		<circle cx="290.41" cy="371.02" r="15.99" fill="#ccc" />
		<path fill="#e6e6e6" d="M327.33 360.36a2.66 2.66 0 0 0 0 5.33h125.6a2.67 2.67 0 0 0 .2-5.33h-125.8Z" data-name="Path 40" />
		<path fill="#e6e6e6" d="M327.33 376.35a2.66 2.66 0 0 0 0 5.32h125.6a2.67 2.67 0 0 0 .2-5.32h-125.8Z" data-name="Path 41" />
		<path fill="#e6e6e6" d="M469.3 485.58H263.77a3.81 3.81 0 0 1-3.81-3.81v-50.98a3.81 3.81 0 0 1 3.8-3.81H469.3a3.81 3.81 0 0 1 3.8 3.8v51a3.81 3.81 0 0 1-3.8 3.8ZM263.77 428.5a2.29 2.29 0 0 0-2.29 2.29v50.98a2.29 2.29 0 0 0 2.29 2.29H469.3a2.29 2.29 0 0 0 2.29-2.29V430.8a2.29 2.29 0 0 0-2.29-2.29Z" data-name="Path 42" />
		<circle cx="290.41" cy="456.28" r="15.99" fill="#ccc" />
		<path fill="#e6e6e6" d="M327.33 445.62a2.66 2.66 0 0 0 0 5.33h125.6a2.67 2.67 0 0 0 .1-5.33h-125.7Z" data-name="Path 43" />
		<path fill="#e6e6e6" d="M327.33 461.6a2.66 2.66 0 1 0 0 5.33h125.6a2.67 2.67 0 0 0 .1-5.32h-125.7Z" data-name="Path 44" />
		<path fill="#e6e6e6" d="M469.3 570.83H263.77a3.81 3.81 0 0 1-3.81-3.8v-50.99a3.81 3.81 0 0 1 3.8-3.8H469.3a3.81 3.81 0 0 1 3.8 3.8v50.99a3.81 3.81 0 0 1-3.8 3.8Zm-205.53-57.07a2.29 2.29 0 0 0-2.29 2.28v50.99a2.29 2.29 0 0 0 2.29 2.28H469.3a2.29 2.29 0 0 0 2.29-2.28v-50.99a2.29 2.29 0 0 0-2.29-2.28Z" data-name="Path 39-2" />
		<circle cx="290.41" cy="541.54" r="15.99" fill="#ccc" data-name="Ellipse 5-2" />
		<path fill="#e6e6e6" d="M327.33 530.88a2.66 2.66 0 0 0 0 5.33h125.6a2.67 2.67 0 0 0 .2-5.33h-125.8Z" data-name="Path 40-2" />
		<path fill="#e6e6e6" d="M327.33 546.87a2.66 2.66 0 0 0 0 5.32h125.6a2.67 2.67 0 0 0 .2-5.32h-125.8Z" data-name="Path 41-2" />
		<path fill="#ff6584" d="M243.37 432.48h37.9c2.36-17.5-2.87-33.82 0-45.48h-37.9q-10.7 22.74 0 45.48Z" data-name="Path 2596" />
		<path d="M489.38 520.22h-37.9c1.43-17.48 6-33.8 0-45.47h37.9q10.7 22.74 0 45.47Z" data-name="Path 2597" />
		<path d="M419.29 608.32h-37.9c1.43-17.48 6-33.8 0-45.47h37.9q10.7 22.74 0 45.47Z" data-name="Path 2597-2" />
		<path d="M417.35 282.22a94.18 94.18 0 0 1-102.6-3.2 38.67 38.67 0 0 1 34.9-22.06h31.45a38.63 38.63 0 0 1 36.25 25.26Z" data-name="Path 2595" />
		<g data-name="Group 192">
			<path fill="#2f2e41" d="M323.67 191.02c4.76-15.16 15.58-29.07 30.54-34.2s41.07-.34 48.13 13.9c10.16 20.5 5.6 45.61.2 67.88-2.8-.15-5.65-.27-8.5-.37l-4.02-13.42v13.28c-22.22-.68-45.35-.25-68.49.2-2.07-15.77-2.62-32.1 2.14-47.27Z" data-name="Path 1133" />
			<circle cx="356.27" cy="205.76" r="34.07" fill="#feb8b8" data-name="Ellipse 507" />
			<path fill="#2f2e41" d="M334.05 164.72a40.3 40.3 0 0 1 61.28 35.18c-17.94.82-36.78 1.04-55.89 1.07l-4.52-11.05-2.66 11.06-17.5-.02a41.16 41.16 0 0 1 19.29-36.24Z" data-name="Path 1145" />
		</g>
		<path fill="#f0f0f0" d="M674.28 680.65a106.36 106.36 0 0 1-4.97 29.4l-.2.66h-18.55l.06-.66c1.23-14.21 8.36-100.71-.16-115.5.74 1.2 25.26 40.94 23.82 86.1Z" data-name="Path 2352" />
		<path fill="#f0f0f0" d="M671.3 709.33c-.32.47-.65.93-1 1.38h-29.09l.77-1.38c4.81-8.67 19.03-34.6 32.24-61.48 14.19-28.9 27.2-58.88 26.1-69.73.34 2.45 10.16 77.06-29.01 131.21Z" data-name="Path 2353" />
	</g>
</svg>
