<svg xmlns="http://www.w3.org/2000/svg" viewBox="0 0 973.46 587.03">
	<g fill="#e4e4e4" data-name="Group 100">
		<path d="M561.88 471.61a11.49 11.49 0 1 0 11.49 11.5 11.49 11.49 0 0 0-11.5-11.5Zm0 18.56a7.07 7.07 0 1 1 7.07-7.07 7.07 7.07 0 0 1-7.07 7.07Z" data-name="Path 1465" />
		<path d="M517.68 462.77h44.2v43.74a5.76 5.76 0 0 1-5.76 5.76h-32.68a5.76 5.76 0 0 1-5.76-5.76v-43.74Z" data-name="Path 1467" />
	</g>
	<path fill="#cacaca" d="M665.13 513.27H.9a1 1 0 0 1 0-2h664.23a1 1 0 0 1 0 2Z" data-name="Path 944" />
	<path fill="#ffb6b6" d="m89.41 494.38-4.11 20.31 76.4 25.52 6.06-29.98-78.35-15.85z" />
	<path fill="#2f2e41" d="m97.09 490.54-8.1 40a26.01 26.01 0 0 1-30.64 20.34l-.83-.17 13.25-65.5Z" />
	<circle cx="175.98" cy="162.71" r="51.87" fill="#feb8b8" data-name="Ellipse 276" />
	<path fill="#2f2e41" d="M224.43 117.96a59.9 59.9 0 0 0-34.08-26.05l-6.37 4.65v-6.04a55.14 55.14 0 0 0-10.3-.6l-5.5 4.97v-4.55a59.34 59.34 0 0 0-40.93 24.34c-11.93 17.2-13.94 41.13-2.2 58.47 3.21-9.9 7.12-19.19 10.35-29.09a29.3 29.3 0 0 0 7.63.04l3.92-9.15 1.1 8.76a514.99 514.99 0 0 0 41.67-5.5l-1.12-6.73 6.7 5.59c3.53-.82 5.63-1.55 5.45-2.12 8.57 13.81 19.05 22.63 27.62 36.44 3.25-19.47 7-35.66-3.94-53.43Z" data-name="Path 1461" />
	<ellipse cx="192.86" cy="464.79" fill="#2f2e41" data-name="Ellipse 260" rx="133.56" ry="37.36" />
	<path d="M287.54 296.1c-1.78-10.73-3.62-21.67-8.61-31.33-3.28-6.34-8.48-12.37-15.5-13.62a14.99 14.99 0 0 1-4.03-.94c-2.06-.99-29.67-16.75-34.06-19.5-3.77-2.36-9.72-6.72-12.72-6.72-3.02-.07-14.6 2.63-59.76-.9a163.14 163.14 0 0 0-22.01 10.82c-.15-.1-46.89 25-48.64 24.93-3.33-.14-6.42 2-8.32 4.67-1.9 2.68-2.8 6-3.74 9.21 10.2 22.74 19.55 45.5 29.76 68.23a5.82 5.82 0 0 1 .74 2.8 6.83 6.83 0 0 1-1.27 2.8c-5.01 8.04-4.85 18.16-4.3 27.6.54 9.46 1.22 19.45-3 27.92-1.15 2.32-2.65 4.45-3.74 6.78-2.56 5.27-3.48 22.12-1.99 27.78l187.27 5.36c-4.03-11.07 13.92-145.89 13.92-145.89Z" />
	<path fill="#fbbebe" d="M53.96 341.96a33.06 33.06 0 0 0-.1 8.15l2.68 38.55c.25 3.63.5 7.25.84 10.88.64 7.03 1.6 14 2.8 20.98a3.74 3.74 0 0 0 3.83 3.63c11.81 2.5 24.02 2.4 36.08 1.72 18.4-1.03 65.47-2.97 68.35-6.7s1.2-9.79-2.55-12.8-65.88-10.4-65.88-10.4c.61-4.8 2.44-9.33 4.18-13.9 3.12-8.1 6.03-16.47 6.09-25.14s-3.21-17.8-10.32-22.78c-5.85-4.08-13.38-4.83-20.5-4.67-5.19.15-14.14-1.09-18.88.94-3.74 1.65-5.92 7.87-6.62 11.54Z" data-name="Path 1421" />
	<path fill="#2f2e41" d="M287.87 429.1c3.11-1.2 6.54-.77 9.87-.32 10.74 1.47 21.63 2.97 31.57 7.26 4.67 2 9.12 4.67 12.28 8.6 2.8 3.54 4.43 7.87 5.98 12.14l3.59 9.83a47.3 47.3 0 0 1 3.13 11.51c1.12 11.76-6.92 22.85-17.04 28.96s-22.02 8.28-33.62 10.56-23.25 4.8-34.8 7.47a140.09 140.09 0 0 1-16.37 3.23c-12.37 1.4-25.3-.67-37.05 3.42-4.67 1.64-9.25 4.07-14.1 5.2a87.74 87.74 0 0 1-9.75 1.48l-22.24 2.54a121.31 121.31 0 0 1-13.63 1.05c-9.71 0-19.27-2.3-28.7-4.6a7.26 7.26 0 0 1-2.8-1.13c-1.5-1.18-1.82-3.26-2.04-5.15q-1.43-12.52-2.5-25.08c-.22-2.71-.39-5.66 1.1-7.94 1.86-2.8 5.5-3.68 8.83-4.23a230.58 230.58 0 0 1 42.67-2.96c5.42-5.42 14.37-5.45 21.48-8.4a63.9 63.9 0 0 0 7.57-4.12 99 99 0 0 1 41.6-13.14 38.71 38.71 0 0 0 8.5-1.22c5.5-1.7 10.52-6.36 16.17-5.22.7-1.93 1.19-4.52 2.8-5.84.8-.69 1.8-1.14 2.53-1.87 1.56-1.58 1.7-4.07 1.47-6.27s-.76-4.46-.2-6.61a9.14 9.14 0 0 1 1.05-2.31c2.79-4.83 7.02-7.32 12.65-6.85Z" data-name="Path 1423" />
	<path d="M69.61 273.41a9.67 9.67 0 0 0-2.07 3.32 156.78 156.78 0 0 0-13.17 53.82 5.38 5.38 0 0 1-.6 2.6 11.4 11.4 0 0 1-1.38 1.49 5.16 5.16 0 0 0 .62 7.26q.12.11.26.2c1.54-2.9 5.23-3.84 8.5-4.1 15.7-1.23 31.04 6.07 46.79 5.52-1.11-3.84-2.71-7.53-3.62-11.41-4-17.25 5.99-36.04-.14-52.65-1.22-3.33-3.27-6.6-6.49-8.05a17.3 17.3 0 0 0-4.15-1.1c-3.98-.72-11.9-3.8-15.75-2.56-1.42.46-1.98 1.8-3.16 2.6-1.79 1.14-4.16 1.56-5.64 3.06Z" data-name="Path 1430" />
	<path fill="#fbbebe" d="M287.65 330.42c-4.73-2.03-13.7-.79-18.87-.94-7.13-.16-14.66.6-20.5 4.67-7.11 4.98-10.38 14.1-10.33 22.78s2.97 17.04 6.1 25.14c1.73 4.57 3.56 9.1 4.17 13.9 0 0-62.12 7.37-65.87 10.4s-5.43 9.06-2.55 12.8 92.61 7.48 104.43 4.98a3.74 3.74 0 0 0 3.83-3.63c1.2-6.97 2.15-13.95 2.8-20.98.34-3.63.59-7.25.84-10.88l2.68-38.55a33.06 33.06 0 0 0-.11-8.15c-.7-3.67-2.87-9.9-6.62-11.54Z" data-name="Path 1421" />
	<path d="M272.98 270.35c-1.18-.8-1.74-2.14-3.16-2.6-3.84-1.24-11.76 1.84-15.74 2.56a17.3 17.3 0 0 0-4.16 1.1c-3.22 1.45-5.27 4.72-6.49 8.05-6.13 16.61 3.87 35.4-.14 52.65-.9 3.88-2.5 7.57-3.61 11.41 15.74.55 31.08-6.75 46.78-5.51 3.28.25 6.97 1.2 8.5 4.1l.27-.2a5.16 5.16 0 0 0 .62-7.27 11.4 11.4 0 0 1-1.38-1.49 5.38 5.38 0 0 1-.6-2.6 156.78 156.78 0 0 0-13.17-53.82 9.67 9.67 0 0 0-2.08-3.32c-1.48-1.5-3.85-1.92-5.64-3.06Z" data-name="Path 1430" />
	<path fill="#ffb6b6" d="m299.24 523.38-2.73 20.54-80.53-.75 4.03-30.32 79.23 10.53z" />
	<path fill="#2f2e41" d="m319.85 520.78-8.8 66.25-.84-.12a26.01 26.01 0 0 1-22.36-29.2l5.38-40.46Z" />
	<path fill="#2f2e41" d="M109.77 439.49c0 .93-1.47 0-1.6-1-1.03-7.56-7.02-13.79-14.01-16.82s-14.94-3.18-22.51-2.46c-11.44 1.08-24.28 5.46-28.47 16.16-.99 2.5-10.26 24.76-9.36 29.76 2.44 13.36 11.58 24.78 22.64 32.7s24 12.63 36.9 16.9a639.95 639.95 0 0 0 104.61 24.98c5.75.87 11.56 1.67 17.07 3.52 4.93 1.65 9.55 4.13 14.37 6.07 11.2 4.5 23.26 6.1 35.2 7.69 2.05.26 4.38.44 5.88-.94 1.95-1.8 1.3-4.94.75-7.53a40.49 40.49 0 0 1 4.77-28.73c2-3.36 4.6-6.8 4.23-10.7-.45-4.53-4.97-7.75-9.47-8.48s-9.08.35-13.6.94a7.29 7.29 0 0 1-4.63-.46 9.23 9.23 0 0 1-1.81-1.6 20.48 20.48 0 0 0-23.85-3.34c-1.68.93-4.2-1.15-5.94-1.93l-19.65-8.9c-22.56-10.2-45.24-20.46-69.11-26.92a14.51 14.51 0 0 1-5.32-2.22c-1.2-.93-2.04-2.2-3.13-3.24-2.39-2.25-5.7-3.15-8.56-4.74s-6.05-5.51-5.4-8.71Z" data-name="Path 1427" />
	<circle cx="160.62" cy="411.99" r="14" fill="#fbbebe" />
	<circle cx="191.62" cy="411.99" r="14" fill="#fbbebe" />
	<path fill="#3f3d56" d="M278.04 443.54H85.7a8.48 8.48 0 0 1-8.47-8.47V318.38a8.48 8.48 0 0 1 8.47-8.47h192.34a8.48 8.48 0 0 1 8.47 8.47v116.69a8.48 8.48 0 0 1-8.47 8.47Z" />
	<circle cx="181.4" cy="376.72" r="5.6" fill="#fff" data-name="Ellipse 263" />
	<path fill="#3f3d56" d="M868.03 210.45h-249.9a5 5 0 0 1-5-5v-47.1h2v47.1a3 3 0 0 0 3 3h249.9a3 3 0 0 0 3-3v-47.43h2v47.43a5 5 0 0 1-5 5Z" />
	<path fill="#3f3d56" d="M371.4 157.35h587.22v2H371.4z" />
	<circle cx="371.44" cy="158.2" r="17.2" data-name="Ellipse 264" />
	<circle cx="546.24" cy="158.2" r="17.2" data-name="Ellipse 266" />
	<circle cx="664.88" cy="208.76" r="17.2" fill="#3f3d56" data-name="Ellipse 268" />
	<circle cx="755.06" cy="208.76" r="17.2" fill="#ccc" data-name="Ellipse 269" />
	<circle cx="711.36" cy="158.2" r="17.2" data-name="Ellipse 270" />
	<circle cx="956.26" cy="158.2" r="17.2" data-name="Ellipse 271" />
	<circle cx="872.03" cy="158.2" r="17.2" data-name="Ellipse 272" />
	<path fill="#3f3d56" d="M648.54 0h31.91v21.99h-31.91z" data-name="Rectangle 207" />
	<path d="M355.61 0h31.91v21.99h-31.91z" data-name="Rectangle 208" />
	<path fill="#ccc" d="M463.68 0h31.91v21.99h-31.91z" data-name="Rectangle 209" />
	<path fill="#3f3d56" d="M424.78 159.35a1 1 0 0 1-1-1V109a5 5 0 0 1 5-5h48.68a1 1 0 0 1 0 2h-48.68a3 3 0 0 0-3 3v49.36a1 1 0 0 1-1 1Z" />
	<circle cx="479.74" cy="104.62" r="17.2" fill="#e6e6e6" data-name="Ellipse 265" />
	<path fill="#3f3d56" d="M809.78 158.35h-2V109a5 5 0 0 1 5-5h48.68v2h-48.68a3 3 0 0 0-3 3Z" />
	<circle cx="863.74" cy="104.62" r="17.2" fill="#e6e6e6" data-name="Ellipse 265" />
</svg>
