<svg xmlns="http://www.w3.org/2000/svg" viewBox="0 0 923.22 462.14">
	<path fill="#e5e5e5" d="M244.35 220.48h-1.72v-47.17A27.3 27.3 0 0 0 215.32 146h-99.95a27.3 27.3 0 0 0-27.3 27.3v258.83a27.3 27.3 0 0 0 27.3 27.3h99.95a27.3 27.3 0 0 0 27.3-27.3V254.07h1.73Z" />
	<path fill="#fff" d="M216.42 153.1h-13.05a9.69 9.69 0 0 1-8.97 13.35h-57.26a9.69 9.69 0 0 1-8.97-13.35H116a20.4 20.4 0 0 0-20.4 20.4v258.44a20.4 20.4 0 0 0 20.4 20.39h100.43a20.4 20.4 0 0 0 20.4-20.4V173.5a20.4 20.4 0 0 0-20.4-20.4Z" />
	<path fill="#fff" d="M123.23 261.81h90.4v60.99h-90.4z" />
	<path fill="#3f3d56" d="M213.94 323.1h-91.02v-61.6h91.02Zm-90.4-.61h89.77v-60.37h-89.77Z" />
	<path fill="#e6e6e6" d="M130.87 309.43h75.12v-42.78h-75.12Z" />
	<circle cx="152.97" cy="285.72" r="7.53" />
	<path fill="#3f3d56" d="M176.58 308.92h-36.94a.75.75 0 0 1-.14-.01l17.47-30.26a1.22 1.22 0 0 1 2.13 0l11.72 20.3.57.98Z" />
	<path d="M176.58 308.92h-12.61l6.19-8.99.44-.65.23-.32.56.97 5.19 8.99z" opacity=".2" style="isolation:isolate" />
	<path fill="#3f3d56" d="M197.14 308.92H165.2l6.19-9 .44-.64 8.07-11.72a1.63 1.63 0 0 1 2.42-.14 1.46 1.46 0 0 1 .12.14Z" />
	<path fill="#e5e5e5" d="M432.9 459.67H190.6A21.68 21.68 0 0 1 168.96 438V86.64a21.68 21.68 0 0 1 21.66-21.66h242.28a21.68 21.68 0 0 1 21.66 21.66v351.37a21.68 21.68 0 0 1-21.66 21.66Z" />
	<path fill="#fff" d="M433.32 445.85H190.18a6.68 6.68 0 0 1-6.68-6.68V85.48a6.68 6.68 0 0 1 6.68-6.68h243.14a6.68 6.68 0 0 1 6.67 6.68v353.7a6.68 6.68 0 0 1-6.67 6.67Z" />
	<circle cx="310.83" cy="71.62" r="1.84" fill="#fff" />
	<path fill="#fff" d="M221.78 179.77h191.3v129.06h-191.3z" />
	<path fill="#3f3d56" d="M413.74 309.5H221.12V179.1h192.62Zm-191.3-1.32h189.98V180.43H222.44Z" />
	<path fill="#e6e6e6" d="M237.94 280.54h158.97v-90.53H237.94Z" />
	<circle cx="284.71" cy="230.37" r="15.93" />
	<path fill="#3f3d56" d="M334.67 279.47h-78.16a1.6 1.6 0 0 1-.3-.03l36.97-64.03a2.59 2.59 0 0 1 4.51 0l24.81 42.97 1.19 2.06Z" />
	<path d="M334.67 279.47h-26.68l13.1-19.03.94-1.37.47-.69 1.19 2.06 10.98 19.03z" opacity=".2" style="isolation:isolate" />
	<path fill="#3f3d56" d="M378.2 279.47h-67.61l13.1-19.03.94-1.37 17.07-24.8a3.45 3.45 0 0 1 5.13-.3 3.08 3.08 0 0 1 .25.3Z" />
	<path fill="#e6e6e6" d="m673.43 455.5-12.26-5.17-8.41-61.48H540.72l-9.12 61.23-10.97 5.49a2.6 2.6 0 0 0 1.17 4.93h150.62a2.6 2.6 0 0 0 1.01-5Z" />
	<path fill="#ccc" d="M872.53 397.03H322.18a10.9 10.9 0 0 1-10.87-10.9v-77.6h572.1v77.6a10.9 10.9 0 0 1-10.88 10.9Z" />
	<path fill="#e5e5e5" d="M883.98 345.2H310.8V13.14A13.16 13.16 0 0 1 323.95 0h546.89a13.16 13.16 0 0 1 13.14 13.14Z" />
	<path fill="#fff" d="M849.75 321.1H345.04a10.14 10.14 0 0 1-10.14-10.13V34.23a10.14 10.14 0 0 1 10.14-10.13h504.7a10.14 10.14 0 0 1 10.14 10.13v276.74a10.14 10.14 0 0 1-10.13 10.13Z" />
	<path fill="#ccc" d="M921.94 462.14H1.34a1.32 1.32 0 0 1-1.3-.95 1.29 1.29 0 0 1 1.24-1.61h920.55a1.36 1.36 0 0 1 1.36 1 1.28 1.28 0 0 1-1.25 1.56Z" />
	<path fill="#2f2e41" d="M717.29 122.1c2.59-8.25 8.48-15.83 16.63-18.62 8.15-2.79 22.36-.18 26.2 7.57 5.54 11.16 3.05 24.84.12 36.96-1.53-.08-3.08-.14-4.63-.2l-2.2-7.3v7.23c-12.09-.38-24.68-.14-37.28.1-1.13-8.58-1.43-17.48 1.16-25.74Z" />
	<path fill="#9f616a" d="m828.44 436.73-10.17 4.26-21.29-37.22 15.01-6.29 16.45 39.25z" />
	<path fill="#2f2e41" d="m835.17 445.5-32.81 13.75-.17-.41a13.85 13.85 0 0 1 7.41-18.12l20.05-8.4Z" />
	<path fill="#9f616a" d="M679.21 260.9a7.63 7.63 0 0 1 3.1-11.28l21.87-66 14.65 7.81-26.1 62.42a7.67 7.67 0 0 1-13.52 7.06ZM706.18 448.56h-11.03L689.9 406h16.28v42.56z" />
	<path fill="#2f2e41" d="M709 459.25h-35.58v-.45a13.85 13.85 0 0 1 13.85-13.84H709Z" />
	<path fill="#9f616a" d="m750.42 206.5 2.5 6.5-.5 6.5-48-6 1.5-5.5 5.5-6.5 39 5z" />
	<circle cx="734.95" cy="130.53" r="17.48" fill="#9f616a" />
	<path d="m716.42 160.5 10-6 20-2 17.68 4-.18 32.5-11 24-47-5-2-6.54s-13-17.46 1-27.46Z" />
	<path d="m718.92 162-2.5-1.5s-13.5 2.5-16.5 10.5-6 44-6 44l12.5 1.49 4.5-29.49Z" />
	<path fill="#2f2e41" d="M752.92 217v11.1s13 16.9 6 29.9c0 0 15 28 16 38l14 46s35 35 32 60l2 8-23 10-5-7-39-67-33-61-6 72s4 56-7 62l-1 9h-23.34v-8.55S676.92 389 681.92 366l-2-97s9-41 20-48l4-10ZM722.94 107.78a21.95 21.95 0 0 1 33.37 19.15c-9.77.45-20.03.57-30.43.6l-2.46-6.03-1.45 6.03-9.53-.02a22.41 22.41 0 0 1 10.5-19.73Z" />
	<path fill="#fff" d="m459.32 169.74 235.27-59.83 40.36 158.72-235.26 59.83z" />
	<path fill="#3f3d56" d="m735.97 269.23-236.89 60.24-40.77-160.34 236.88-60.24Zm-235.68 58.2 233.64-59.4-39.95-157.1-233.64 59.41Z" />
	<path fill="#e6e6e6" d="m510.72 288.6 195.5-49.7-28.31-111.34-195.5 49.71Z" />
	<circle cx="552.54" cy="212.28" r="20.22" />
	<path fill="#3f3d56" d="m629.34 257.03-96.12 24.45a2.02 2.02 0 0 1-.37.06l25.44-90.3a3.28 3.28 0 0 1 5.54-1.42l43.95 45.09 2.1 2.15Z" />
	<path d="m629.34 257.03-32.82 8.35 10.16-27.5.73-1.98.37-.99 2.1 2.16 19.46 19.96z" opacity=".2" style="isolation:isolate" />
	<path fill="#3f3d56" d="m682.86 243.42-83.14 21.14 10.16-27.5.73-1.98 13.24-35.83a4.38 4.38 0 0 1 6.21-1.98 3.91 3.91 0 0 1 .4.3Z" />
	<path fill="#9f616a" d="M736.3 239.97a7.86 7.86 0 0 1 1.18.36l30.5-21-.7-8.97 13.4-2.82 2.79 15.76a5.97 5.97 0 0 1-3.24 6.4l-37.8 18.63a7.84 7.84 0 1 1-6.13-8.36Z" />
	<path d="m756.92 158 7.18-1.5s15.82-5.5 16.82 14.5l2 47-14.86 2-6.14-41Z" />
</svg>
