<svg xmlns="http://www.w3.org/2000/svg" viewBox="0 0 837.5 607">
	<path fill="#3f3d56" d="M510 0H9a9.01 9.01 0 0 0-9 9v296a9.01 9.01 0 0 0 9 9h501a9.01 9.01 0 0 0 9-9V9a9.01 9.01 0 0 0-9-9Zm7 305a7 7 0 0 1-7 7H9a7 7 0 0 1-7-7V9a7 7 0 0 1 7-7h501a7 7 0 0 1 7 7Z" />
	<path fill="#3f3d56" d="M1 34h517v2H1z" />
	<circle cx="18" cy="17.5" r="5" fill="#ccc" />
	<circle cx="33" cy="17.5" r="5" fill="#ccc" />
	<circle cx="48" cy="17.5" r="5" fill="#ccc" />
	<path d="M380.5 433.5h-242a8.51 8.51 0 0 1-8.5-8.5V154a8.51 8.51 0 0 1 8.5-8.5h242a8.5 8.5 0 0 1 8.5 8.5v271a8.51 8.51 0 0 1-8.5 8.5Z" />
	<path fill="#fff" d="M330.5 284.5h-142a12.5 12.5 0 0 1 0-25h142a12.5 12.5 0 0 1 0 25ZM330.5 331h-142a12.5 12.5 0 0 1 0-25h142a12.5 12.5 0 0 1 0 25ZM330.5 378h-142a12.5 12.5 0 1 1 0-25h142a12.5 12.5 0 0 1 0 25ZM287 223h-55a12.5 12.5 0 0 1 0-25h55a12.5 12.5 0 0 1 0 25Z" />
	<rect width="433" height="21" x="43" y="71" fill="#ccc" rx="10.5" />
	<path fill="#a0616a" d="M739.62 476.02a9.7 9.7 0 0 0 3.46-14.45l22.58-124.97-21.07-.28-15.68 123.58a9.74 9.74 0 0 0 10.7 16.12ZM674.22 470.1l-8 38 1 85h15l7-83 11-35-26-5z" />
	<path fill="#a0616a" d="m724.22 470.1-8 38 1 85h15l7-83 11-35-26-5z" />
	<path fill="#2f2e41" d="m662.3 590.73 23.63 1.08-.68 14.87-38.49-1.75a14.89 14.89 0 0 1 15.55-14.2ZM712.3 590.73l23.63 1.08-.68 14.87-38.49-1.75a14.89 14.89 0 0 1 15.55-14.2Z" />
	<circle cx="710.71" cy="259.18" r="24.56" fill="#a0616a" />
	<path fill="#ccc" d="M765 319.93c-8.13-12.75-35.17-44.53-75.29-18.33 0 0 9.5 79.5-13.5 122.5 0 0 53 16 82 1 0 0-10-67 0-80a53.9 53.9 0 0 0 8.02-13.73 12.9 12.9 0 0 0-1.24-11.44Z" />
	<path fill="#ccc" d="m755.21 319.1 9.82 4.09a3.72 3.72 0 0 1 2.28 3.27l.9 21.64-22-2Z" />
	<path fill="#2f2e41" d="M680.21 422.1s-22 41-18 79l31 5 22-53-5 54 32 1s21-78 14-85Z" />
	<path fill="#a0616a" d="M674.62 466.02a9.7 9.7 0 0 0 3.46-14.45l22.58-124.97-21.07-.28-15.68 123.58a9.74 9.74 0 0 0 10.7 16.12Z" />
	<path fill="#ccc" d="m699.21 302.1-9-1s-8-2-11 9-3 33-3 33l28-1Z" />
	<path fill="#2f2e41" d="M714.65 271c.88-3.06.63-7.2-2.34-8.36-1.55-.6-3.27-.13-4.93.04a13.14 13.14 0 0 1-9.08-2.5c-3.07-2.28-4.96-5.77-6.76-9.14l-2.73-5.1a22.18 22.18 0 0 1-1.54-3.34c-1.52-4.5.13-9.72 3.5-13.08a18.98 18.98 0 0 1 12.96-5.08 34.98 34.98 0 0 1 13.85 2.97 61.26 61.26 0 0 1 20.65 13.87c3.83 3.92 7.32 9.03 6.52 14.45-.62 4.22-3.7 7.6-6.63 10.7l-10.65 11.24c-1.88 1.99-3.9 4.06-6.53 4.83s-6.02-.36-6.74-3c0 0-.43-5.43.45-8.5Z" />
	<path fill="#3f3d56" d="M837.5 606a1 1 0 0 1-1 1h-288a1 1 0 0 1 0-2h288a1 1 0 0 1 1 1Z" />
</svg>
