<svg xmlns="http://www.w3.org/2000/svg" viewBox="0 0 924 377.61">
	<path fill="#ffb8b8" d="M609.54 131.38a11 11 0 0 1 14.9 6.91 10.6 10.6 0 0 1 .32 1.44l43.93 21.79 10.17-6.74 12.65 14.56L676 181.95a11.15 11.15 0 0 1-13.3.52l-44.58-30.83a10.51 10.51 0 0 1-1.02.37 11 11 0 0 1-14-8.56 10.7 10.7 0 0 1-.17-1.34 11.04 11.04 0 0 1 6.62-10.73Z" />
	<path fill="#e5e5e5" d="M64.8 199.03a6.5 6.5 0 0 0 6.5 6.5h10.6l1.9 3.43v152.07a6.5 6.5 0 0 0 13 0v-155.5h355.9l.1 155.5a6.5 6.5 0 0 0 13 0v-155.5h11.5a6.5 6.5 0 0 0 0-13h-406a6.5 6.5 0 0 0-6.5 6.5Z" />
	<path fill="#e5e5e5" d="M213.7 290.93v-24a4 4 0 0 0-4-4h-91a4 4 0 0 0-4 4v24ZM114.7 299.93h99v31h-99zM114.7 339.93v24a4 4 0 0 0 4 4h91a4 4 0 0 0 4-4v-24Z" />
	<circle cx="164.7" cy="277.93" r="3" fill="#fff" />
	<circle cx="164.7" cy="317.93" r="3" fill="#fff" />
	<circle cx="164.54" cy="357.09" r="3" fill="#fff" />
	<path fill="#3f3d56" d="M96 184.07V192a1.65 1.65 0 0 0 1.74 1.53h31.42a1.94 1.94 0 0 0 .86-.2l7.93-3.97a1.45 1.45 0 0 0 0-2.66l-7.93-3.97a1.94 1.94 0 0 0-.86-.2H97.74a1.65 1.65 0 0 0-1.74 1.53Z" />
	<path d="M97.74 182.54H104v11h-6.26A1.65 1.65 0 0 1 96 192v-7.94a1.65 1.65 0 0 1 1.74-1.53Z" />
	<path fill="#e6e6e6" d="M851.44 280.75a24.75 24.75 0 0 1-23.9-4.2c-8.36-7.03-10.98-18.6-13.12-29.32l-6.31-31.7 13.22 9.11c9.5 6.55 19.23 13.3 25.81 22.79s9.46 22.42 4.17 32.69" />
	<path fill="#f2f2f2" d="M850.31 319.13c1.34-9.75 2.72-19.62 1.78-29.47-.83-8.75-3.5-17.3-8.94-24.3a40.43 40.43 0 0 0-10.37-9.4c-1.04-.66-2 .98-.96 1.64a38.43 38.43 0 0 1 15.2 18.34c3.31 8.42 3.84 17.6 3.27 26.54-.34 5.4-1.07 10.78-1.8 16.14a.98.98 0 0 0 .66 1.17.96.96 0 0 0 1.16-.66Z" />
	<path fill="#e6e6e6" d="M837.42 301.88a18.22 18.22 0 0 1-15.87 8.2c-8.03-.39-14.73-6-20.76-11.32l-17.83-15.75 11.8-.56c8.49-.4 17.2-.79 25.28 1.83s15.54 8.92 17.02 17.29" />
	<path fill="#f2f2f2" d="M854.1 324.73c-6.44-11.4-13.92-24.06-27.26-28.1a30.42 30.42 0 0 0-11.47-1.2c-1.22.11-.91 1.99.3 1.88a28.26 28.26 0 0 1 18.3 4.85c5.16 3.5 9.18 8.39 12.58 13.57 2.08 3.17 3.94 6.47 5.81 9.78.6 1.05 2.34.29 1.74-.78Z" />
	<path fill="#f2f2f2" d="M864.42 336.73a13.8 13.8 0 0 0-8.46-11.55v-6.6h-11.05v6.8a13.79 13.79 0 0 0-7.99 11.35l-2.6 30.2h32.7Z" />
	<path fill="#ccc" d="M0 368a1 1 0 0 1 1-1l922.36.36c.56 0 .64.09.64.64a1 1 0 0 1-1 1H1a1 1 0 0 1-1-1Z" />
	<path fill="#e6e6e6" d="m239.28 191.46 3.28-1.38 2.26-16.46h29.98l2.45 16.39 2.93 1.47a.7.7 0 0 1-.31 1.32h-40.32a.7.7 0 0 1-.27-1.34Z" />
	<path fill="#ccc" d="M183.08 172.89v-20.77H336.2v20.77a2.92 2.92 0 0 1-2.91 2.92H186a2.92 2.92 0 0 1-2.92-2.92Z" />
	<path fill="#3f3d56" d="M182.93 73.05a3.52 3.52 0 0 1 3.51-3.51h146.39a3.52 3.52 0 0 1 3.52 3.51v88.89H182.93Z" />
	<path fill="#fff" d="M189.38 152.77V78.7a2.72 2.72 0 0 1 2.7-2.71h135.1a2.72 2.72 0 0 1 2.72 2.71v74.07a2.72 2.72 0 0 1-2.72 2.71h-135.1a2.72 2.72 0 0 1-2.7-2.7ZM474.1 0h135.39v161.66H474.1Z" />
	<path fill="#e5e5e5" d="M474.1 0h135.39v161.66H474.1Zm133 2.39H476.5v156.88H607.1Z" />
	<path fill="#f1f1f1" d="M494.44 78.28h94.71v3.66h-94.71z" />
	<path fill="#cbcbcb" d="M578.97 56.41H580V19.38h-36.39v1.03h35.36v36zM506.2 59.8h36.38v-1.03h-35.35V22.78h-1.03V59.8z" />
	<path fill="#f1f1f1" d="M494.44 87.83h94.71v3.66h-94.71zM494.44 97.37h94.71v3.66h-94.71zM494.44 114.16h94.71v3.66h-94.71zM494.44 123.71h94.71v3.66h-94.71zM494.44 133.25h94.71v3.66h-94.71z" />
	<path d="m534.6 29.44.96-1.17-1.44-1.64-1.28.8a7.15 7.15 0 0 0-2.5-1.26l-.16-1.65-2.18-.14-.36 1.57a7.15 7.15 0 0 0-2.9.96l-1.08-.88-1.64 1.44.74 1.18a7.15 7.15 0 0 0-1.34 2.75l-1.6.16-.13 2.18 1.6.37a7.15 7.15 0 0 0 .94 2.66l-.88 1.08 1.44 1.64 1.18-.74a7.15 7.15 0 0 0 2.58 1.3l.17 1.7 2.18.14.38-1.66a7.15 7.15 0 0 0 2.8-.94l1.16.95 1.64-1.44-.8-1.28a7.15 7.15 0 0 0 1.3-2.64l1.7-.17.13-2.18-1.67-.39a7.15 7.15 0 0 0-.93-2.7Zm-2.27 8.03a5.81 5.81 0 1 1 .53-8.2 5.81 5.81 0 0 1-.53 8.2ZM547.66 45.25l1.31-.74-.73-2.05-1.49.27a7.15 7.15 0 0 0-1.86-2.09l.45-1.59-1.97-.93-.91 1.32a7.15 7.15 0 0 0-3.05-.16l-.68-1.22-2.06.74.25 1.37a7.15 7.15 0 0 0-2.25 2.07l-1.54-.44-.93 1.97 1.36.94a7.15 7.15 0 0 0-.1 2.82l-1.22.68.73 2.05 1.37-.25a7.15 7.15 0 0 0 1.93 2.15l-.47 1.65 1.97.93.97-1.4a7.15 7.15 0 0 0 2.94.14l.74 1.32 2.05-.74-.27-1.48a7.15 7.15 0 0 0 2.18-1.98l1.63.46.93-1.97-1.4-.98a7.15 7.15 0 0 0 .12-2.86Zm-5.07 6.63a5.81 5.81 0 1 1 3.5-7.43 5.81 5.81 0 0 1-3.5 7.43ZM563.78 35.84l.9-1.2-1.5-1.58-1.24.84a7.15 7.15 0 0 0-2.55-1.16l-.23-1.63-2.18-.06-.3 1.58a7.15 7.15 0 0 0-2.86 1.08l-1.11-.84-1.58 1.5.78 1.16a7.15 7.15 0 0 0-1.22 2.8l-1.6.23-.04 2.17 1.62.32a7.15 7.15 0 0 0 1.04 2.61l-.84 1.12 1.5 1.58 1.16-.79a7.15 7.15 0 0 0 2.63 1.19l.24 1.7 2.18.05.32-1.67a7.15 7.15 0 0 0 2.74-1.06l1.2.91 1.59-1.5-.85-1.25a7.15 7.15 0 0 0 1.2-2.7l1.68-.23.05-2.18-1.68-.32a7.15 7.15 0 0 0-1.05-2.67Zm-1.96 8.12a5.81 5.81 0 1 1 .2-8.22 5.81 5.81 0 0 1-.2 8.22ZM277.32 122.18l3.88-.3.48-5.6-3.77-.97a18.44 18.44 0 0 0-2.11-6.9l2.76-3.24-3.62-4.3-3.56 2.1a18.44 18.44 0 0 0-6.97-3.66l-.29-3.59-5.6-.48-.9 3.49a18.44 18.44 0 0 0-7.48 2.42l-3.15-2.69-4.3 3.62 2.16 3.67a18.43 18.43 0 0 0-3.27 6.48l-3.58.29-.49 5.6 3.49.89a18.44 18.44 0 0 0 2.2 7.1l-2.87 3.37 3.62 4.3 3.77-2.23a18.44 18.44 0 0 0 6.74 3.5l.3 3.87 5.6.48.97-3.76a18.44 18.44 0 0 0 7.24-2.3l3.33 2.84 4.3-3.62-2.25-3.8a18.44 18.44 0 0 0 3.37-6.58Zm-19.02 10.1a15 15 0 1 1 16.22-13.66 15 15 0 0 1-16.22 13.65Z" />
	<path fill="#3f3d56" d="M701.06 265.53h-48.01c0 1.38-49.48 2.5-49.48 2.5a12.86 12.86 0 0 0-2.11 2 12.41 12.41 0 0 0-2.9 8v2a12.5 12.5 0 0 0 12.5 12.5h90a12.51 12.51 0 0 0 12.5-12.5v-2a12.52 12.52 0 0 0-12.5-12.5Z" />
	<path fill="#3f3d56" d="M648.84 292.03h13v84h-13z" />
	<path fill="#3f3d56" d="M611.84 375.57c0 1.41 19.7.55 44 .55s44 .86 44-.55-19.7-12.54-44-12.54-44 11.14-44 12.54Z" />
	<path fill="#ffb8b8" d="M623.57 365.73h-12.26l-5.83-31.8h18.09v31.8z" />
	<path fill="#2f2e41" d="M626.7 377.61h-39.53v-.5a15.39 15.39 0 0 1 15.38-15.38h24.15ZM605.24 346.01l-24.45-54.8a20.09 20.09 0 0 1 8.82-25.79l53.02-28.43 24.19-2.06 22.31-2.02.16.27c.2.35 5 8.63 1.76 17.72-2.46 6.9-8.86 12.28-19.02 16-23.71 8.7-51.1 16.13-61.78 18.92a3.45 3.45 0 0 0-2.21 1.76 3.5 3.5 0 0 0-.2 2.8l22.7 51.01a4.5 4.5 0 0 1-3.8 6.03l-16.97 1.24q-.21.02-.43.02a4.5 4.5 0 0 1-4.1-2.67Z" />
	<path fill="#ffb8b8" d="M631.57 365.73h-12.26l-5.83-31.8h18.09v31.8z" />
	<path fill="#2f2e41" d="M634.7 377.61h-39.53v-.5a15.39 15.39 0 0 1 15.38-15.38h24.15ZM614.24 349.01l-24.45-54.8a20.09 20.09 0 0 1 8.82-25.79l53.02-28.43 24.19-2.06 17.48-1.51v-.24c.2.35 5 8.63 1.75 17.72-2.46 6.9-3.86 12.28-14.02 16-23.71 8.7-51.1 16.13-61.78 18.92a3.45 3.45 0 0 0-2.21 1.76 3.5 3.5 0 0 0-.2 2.8l22.7 51.01a4.5 4.5 0 0 1-3.8 6.03l-16.97 1.24q-.21.02-.43.02a4.5 4.5 0 0 1-4.1-2.67Z" />
	<path d="M660.3 237.42c-1.18-.83-18 8-21 1 14-35 4.35-50.12 12.92-70.19a25 25 0 0 1 16.57-14.18l22.25-1.12.12.06a26 26 0 0 1 14.21 27.59c-.07 21.84-13.14 38.5-8.57 54.34a5.12 5.12 0 0 1-.49 3.98 4.88 4.88 0 0 1-3.11 2.31l-29.38-3.92a4.96 4.96 0 0 1-4.02-.77Z" />
	<circle cx="683.61" cy="120.06" r="24.56" fill="#ffb8b8" />
	<path fill="#ffb8b8" d="m637.22 203.29-42.67-33.67a10.52 10.52 0 0 1-1.04.31 11.03 11.03 0 0 1-8.81-1.7 10.91 10.91 0 0 1-4.63-7.73 11 11 0 0 1 21.63-3.8 10.57 10.57 0 0 1 .23 1.46l42.48 24.5 10.58-6.08 11.7 15.33-16.4 11.7a10.94 10.94 0 0 1-13.07-.32Z" />
	<path d="m671.9 196.68-24.34-16.55L659 163.92a11.17 11.17 0 0 1 13.93-3.64 11.17 11.17 0 0 1 5.9 13.28Z" />
	<path fill="#2f2e41" d="M691.44 142.6c-1.3.57-3.98-9.82-2.78-11.9 1.78-3.1 1.67-3.07 2.85-5.12s1.45-4.85-.08-6.65-5.07-1.56-5.77.7c.45-4.29-3.8-7.74-8-8.7s-8.63-.37-12.85-1.23c-4.9-1-10-5.11-8.05-10.5a7.6 7.6 0 0 1 1.48-2.44c2.26-2.54 5.43-3.63 8.52-4.67 6.43-2.19 13.03-4.4 19.82-4.16a28.8 28.8 0 0 1 25.44 18.61 26.16 26.16 0 0 1 1.09 4.03c2.33 12.52-4.95 24.88-16.76 29.65Z" />
	<path fill="#3f3d56" d="M342.62 277.94v2a12.51 12.51 0 0 0 12.5 12.5h90a12.5 12.5 0 0 0 12.5-12.5v-2a12.41 12.41 0 0 0-2.9-8 12.86 12.86 0 0 0-2.11-2s-49.48-1.12-49.48-2.5h-48.01a12.52 12.52 0 0 0-12.5 12.5Z" />
	<path fill="#3f3d56" d="M394.34 291.94h13v84h-13z" />
	<path fill="#3f3d56" d="M400.34 362.94c-24.3 0-44 11.14-44 12.55s19.7.54 44 .54 44 .86 44-.54-19.7-12.55-44-12.55Z" />
	<path fill="#ffb8b8" d="m443.76 332.19 18.1-.01-5.84 31.8h-12.26v-31.79z" />
	<path fill="#2f2e41" d="M440.64 359.98h24.14a15.39 15.39 0 0 1 15.39 15.38v.5h-39.53ZM458 346.93l-.44-.02-16.96-1.24a4.5 4.5 0 0 1-3.81-6.02l22.7-51.02a3.5 3.5 0 0 0-.2-2.8 3.45 3.45 0 0 0-2.2-1.76c-10.68-2.79-38.08-10.22-61.79-18.92-10.16-3.72-16.56-9.1-19.02-16-3.24-9.08 1.56-17.37 1.76-17.72l.16-.27 22.32 2.03 24.19 2.05 53.01 28.43a20.09 20.09 0 0 1 8.82 25.79l-24.44 54.8a4.5 4.5 0 0 1-4.1 2.67Z" />
	<path fill="#ffb8b8" d="m437.76 332.19 18.1-.01-5.84 31.8h-12.26v-31.79z" />
	<path fill="#2f2e41" d="M434.64 359.98h24.14a15.39 15.39 0 0 1 15.39 15.38v.5h-39.53ZM451 349.93l-.44-.02-16.96-1.24a4.5 4.5 0 0 1-3.81-6.02l22.7-51.02a3.5 3.5 0 0 0-.2-2.8 3.45 3.45 0 0 0-2.2-1.76c-10.68-2.79-38.08-10.22-61.79-18.92-10.16-3.72-16.56-9.1-19.02-16-3.24-9.08 1.56-17.37 1.76-17.72l.16-.27 22.32 2.03 24.19 2.05 53.01 28.43a20.09 20.09 0 0 1 8.82 25.79l-24.44 54.8a4.5 4.5 0 0 1-4.1 2.67Z" />
	<path d="M365.5 155.89a11.17 11.17 0 0 1 14.27-2.79 11.17 11.17 0 0 1 5 13.5l-6.72 18.67-27.53-10.46Z" />
	<path d="M420.53 248.77a4.96 4.96 0 0 1-4.01.78l-42.38-10.08a4.88 4.88 0 0 1-3.12-2.31 5.12 5.12 0 0 1-.48-3.99c4.57-15.84-1.42-35.48-8.58-54.34a26 26 0 0 1 14.22-27.6l.11-.05 22.25 1.13a25 25 0 0 1 16.57 14.18c8.58 20.07 11.03 45.82 7.5 78.73a5 5 0 0 1-2.08 3.55Z" />
	<circle cx="521.72" cy="379.51" r="24.56" fill="#ffb8b8" transform="rotate(-80.78 299.22 330)" />
	<path fill="#ffb8b8" d="m417.05 201.86-16.41-11.7 11.7-15.33 10.58 6.09 42.48-24.51a10.57 10.57 0 0 1 .23-1.45 11 11 0 1 1 8.2 13.22 10.52 10.52 0 0 1-1.04-.3l-42.68 33.66a10.94 10.94 0 0 1-13.06.32Z" />
	<path d="M388.51 171.81a11.17 11.17 0 0 1 5.9-13.28 11.17 11.17 0 0 1 13.93 3.64l11.44 16.2-24.35 16.57Z" />
	<path fill="#2f2e41" d="M392.79 114.76a4.44 4.44 0 0 1-.6 5.18c-3.49 3.95-4.42 10.06-3.16 15.32 1.5 6.31 5.52 11.7 9.47 16.84s8.05 10.43 9.79 16.68c4.11 14.8-6.94 30.6-21.14 36.46s-30.38 4.01-45.33.48c-11.29-2.67-22.94-6.6-30.66-15.25s-9.76-23.31-1.56-31.51c6.43-6.43 16.44-6.95 25.39-8.56s19.08-6.35 20.28-15.36c1.2-8.96-7.2-16.36-8.78-25.25-1.96-11.06 7.66-21.6 18.54-24.38s22.37.31 32.91 4.18c8.11 2.98 16.6 6.87 19.68 15.7 1.72 4.9.39 10.5-3.85 13.52-6.44 4.6-14.73.16-21.05-4.16Z" />
</svg>
