<svg xmlns="http://www.w3.org/2000/svg" viewBox="0 0 982.49 763.01">
	<circle cx="559.43" cy="333.06" r="40.03" fill="#e6e6e6" />
	<path fill="#3f3d56" d="m657.54 384.5-41.83-41.83a44.3 44.3 0 0 0-14.43-61.93 44.46 44.46 0 0 0-58.91 12.24 44.3 44.3 0 0 0 60.03 63l41.83 41.83a9.4 9.4 0 0 0 13.3-13.3Zm-56.7-43.4a31.68 31.68 0 1 1 9.28-22.4 31.59 31.59 0 0 1-9.28 22.4Z" />
	<path fill="#e6e6e6" d="M960.77 446.2c106.98 118.31-203.13 288.81-453.72 288.81S83.11 602.91 53.33 446.21C-18.86 66.26 668.41-175.23 507.05 157.4c-235.2 484.85 369.47 195.64 453.72 288.8Z" />
	<path fill="#3f3d56" d="M912.77 474.2c106.98 118.31-203.13 288.81-453.72 288.81S35.11 630.91 5.33 474.21C-66.86 94.26 620.41-147.23 459.05 185.4c-235.2 484.85 369.47 195.64 453.72 288.8Z" />
	<path d="M149.6 196.83c-75.07-3.31-133.28-19.5-132.51-36.87.46-10.41 21.7-18.78 58.28-22.97a1 1 0 1 1 .23 1.99C41.14 142.92 19.48 151 19.1 160.05c-.7 15.7 59.11 31.63 130.6 34.78s132.45-7.46 133.14-23.17c.4-9.09-20.6-19.06-54.8-26.03a1 1 0 1 1 .4-1.96c36.3 7.4 56.86 17.63 56.4 28.08-.77 17.37-60.17 28.38-135.24 25.08ZM82.92 199.73a76.98 76.98 0 0 0 133.04 5.53 1211.98 1211.98 0 0 1-133.04-5.53Z" />
	<path d="M224.26 184.22a77 77 0 1 0-147.75-5.7 572.23 572.23 0 0 0 147.75 5.7Z" />
	<circle cx="168.83" cy="123.6" r="9" fill="#fff" />
	<circle cx="122.51" cy="152.59" r="15" fill="#fff" />
	<circle cx="348.9" cy="142.9" r="10" />
	<circle cx="122.9" cy="452.9" r="6" fill="#e6e6e6" />
	<circle cx="542.9" cy="658.9" r="6" fill="#e6e6e6" />
	<circle cx="151.9" cy="339.9" r="3" fill="#e6e6e6" />
	<circle cx="399.9" cy="563.9" r="3" fill="#e6e6e6" />
	<circle cx="850.9" cy="534.9" r="3" fill="#e6e6e6" />
	<circle cx="709.9" cy="623.9" r="3" fill="#e6e6e6" />
	<circle cx="562.9" cy="515.9" r="3" fill="#e6e6e6" />
	<circle cx="372.9" cy="219.9" r="3" fill="#e6e6e6" />
	<circle cx="396.9" cy="71.9" r="3" fill="#e6e6e6" />
	<circle cx="382.9" cy="694.9" r="3" fill="#e6e6e6" />
	<circle cx="234.9" cy="631.9" r="3" fill="#e6e6e6" />
	<circle cx="703.9" cy="523.9" r="3" fill="#e6e6e6" />
	<circle cx="148.37" cy="224.8" r="9" fill="#fff" />
	<path fill="#fff" d="M351.9 362.9c0 26.88-41.55 89.51-53.7 107.24a4 4 0 0 1-6.59 0c-12.15-17.73-53.7-80.36-53.7-107.24a57 57 0 1 1 114 0Z" />
	<circle cx="294.9" cy="358.9" r="29" />
	<ellipse cx="294.4" cy="496.4" fill="#fff" rx="33.5" ry="6.5" />
	<path fill="#ffb8b8" d="M816.85 317.92a10.53 10.53 0 0 0-.64 1.53l-47.78 13.27-8.61-8.42-14.42 11.33 13.8 16.4a8 8 0 0 0 9.35 2.17l51.62-22.79a10.5 10.5 0 1 0-3.32-13.49Z" />
	<path d="m766.75 333.5-17.94 13.96a4.5 4.5 0 0 1-6.68-1.33l-11.15-19.73a12.5 12.5 0 0 1 19.77-15.3l16.34 15.6a4.5 4.5 0 0 1-.34 6.8Z" />
	<path fill="#3f3d56" d="m821.44 311.32 18.18 8.18a3.15 3.15 0 0 1 1.58 4.16l-2.15 4.79a1.05 1.05 0 0 1 .53 1.39l-.87 1.91a1.05 1.05 0 0 1-1.38.53l-.86 1.91a1.05 1.05 0 0 1 .52 1.4l-.86 1.9a1.05 1.05 0 0 1-1.39.53l-11.63 25.85a3.15 3.15 0 0 1-4.16 1.58l-18.19-8.18a3.15 3.15 0 0 1-1.58-4.17l18.1-40.2a3.15 3.15 0 0 1 4.16-1.58Z" />
	<path fill="#f2f2f2" d="m804.07 354.72 14.59 6.57a3.03 3.03 0 0 0 4-1.51l6.73-15 2.34-5.19 6.1-13.56a3.03 3.03 0 0 0-1.5-3.99l-4.6-2.07-10-4.5a3.02 3.02 0 0 0-4 1.52l-5.9 13.11-6.72 14.93-2.56 5.7a3.02 3.02 0 0 0 1.52 3.99Z" />
	<path fill="#ffb8b8" d="M773.58 540.44h12.26l5.83-47.29-18.09.01v47.28z" />
	<path fill="#2f2e41" d="M770.45 536.44h24.14a15.39 15.39 0 0 1 15.4 15.39v.5h-39.54Z" />
	<path fill="#ffb8b8" d="M805.58 537.44h12.26l5.83-47.29-18.09.01v47.28z" />
	<path fill="#2f2e41" d="M802.45 533.44h24.14a15.39 15.39 0 0 1 15.4 15.39v.5h-39.54ZM718.59 429.48a39.41 39.41 0 0 0 36.9 26.8l.62.02c6.32.18 13.75-1.86 21.04-4.8 14.4-5.78 28.23-15.05 31.9-17.6l-6.21 59.79-2.52 24.24a4.51 4.51 0 0 0 4.48 4.97h15.52a4.5 4.5 0 0 0 4.36-3.36l25.64-97.65a19.03 19.03 0 0 0-19.7-23.83l-53.26 3.65 3.71-14.88-47.54-3.16-.13.1c-1.14.83-2.25 1.7-3.31 2.6a40.27 40.27 0 0 0-7 7.67 38.49 38.49 0 0 0-4.5 35.44Z" />
	<path fill="#2f2e41" d="M718.59 429.48a39.41 39.41 0 0 0 36.9 26.8 196.15 196.15 0 0 0 22.56-13.38l-.9 8.6-7.83 75.43a4.51 4.51 0 0 0 4.48 4.97h15.52a4.5 4.5 0 0 0 4.36-3.36l9.16-34.85 16.48-62.8a19.03 19.03 0 0 0-19.7-23.83l-53.26 3.65 3.71-14.88-26.98-1.8a38.49 38.49 0 0 0-4.5 35.45Z" />
	<path d="m730.02 389.83-.36-.05-8.3-40.78c-.07-.35-6.85-35.53 13.94-53.92l.36-2.52a4.5 4.5 0 0 1 5.79-3.66l19.58 6.08a4.5 4.5 0 0 1 3.02 5.44l-1.9 7.24c2.64 3.1 33.71 40.51 22.89 69.33l-4.85 18.96Z" />
	<path fill="#ffb8b8" d="M811.34 358a10.53 10.53 0 0 0-1.33.99l-47.9-12.86-3.13-11.63-18.18 2.43 3.55 21.13a8 8 0 0 0 6.95 6.62l56.03 6.62a10.5 10.5 0 1 0 4-13.3Z" />
	<path d="m760.27 345.94-22.55 2.9a4.5 4.5 0 0 1-5.07-4.54l.43-22.66a12.5 12.5 0 0 1 24.8-3.12l6.14 21.74a4.5 4.5 0 0 1-3.75 5.68Z" />
	<circle cx="753.92" cy="258.8" r="24.56" fill="#ffb8b8" />
	<path fill="#2f2e41" d="m752.63 260.85-3.08-5.6c-5.82 23.74 4.47 43.38 4.47 43.38l-39.94-18.6.39-6.6-3.96 4.48-5.67-3.13-.75-4.28-4.29 1.06 15.64-28.38c15.19-27.02 37.26-16.7 37.26-16.7 35.11-1.67 30.83 32.97 30.83 32.97Z" />
	<ellipse cx="556.16" cy="472.39" fill="#3f3d56" rx="12.18" ry="47.5" transform="rotate(-32.66 384.9 623.73)" />
</svg>
