<svg xmlns="http://www.w3.org/2000/svg" viewBox="0 0 717.67 596.33">
	<rect width="326" height="594" x="204.85" fill="#3f3d56" rx="58.73" />
	<path fill="#fff" d="M525.36 58.73v476.54a53.3 53.3 0 0 1-53.23 53.23H263.59a53.3 53.3 0 0 1-53.23-53.23V58.73A53.3 53.3 0 0 1 263.59 5.5h27.27v9.42A16.08 16.08 0 0 0 306.94 31h121.84a16.08 16.08 0 0 0 16.08-16.08V5.5h27.27a53.3 53.3 0 0 1 53.23 53.23Z" />
	<path fill="#3f3d56" d="M203.35 120.5a4 4 0 0 1-4-4v-8a4 4 0 0 1 8 0v8a4 4 0 0 1-4 4ZM203.35 161.52a4 4 0 0 1-4-4V135.5a4 4 0 0 1 8 0v22.02a4 4 0 0 1-4 4ZM203.35 194.5a4 4 0 0 1-4-4v-22.02a4 4 0 0 1 8 0v22.02a4 4 0 0 1-4 4ZM531.35 176.5a4 4 0 0 1-4-4v-53.73a4 4 0 0 1 8 0v53.73a4 4 0 0 1-4 4Z" />
	<path fill="#fff" d="M376.45 18.35h-31a2.5 2.5 0 0 1 0-5h31a2.5 2.5 0 0 1 0 5Z" />
	<circle cx="392.45" cy="15.85" r="2" fill="#fff" />
	<path fill="#f2f2f2" d="M632.75 569.02a3.56 3.56 0 0 0 2.53-6.2l-.26-.97a9.57 9.57 0 0 1 17.75-.34c4.32 9.85 9.88 20.03 7.27 30.94 17.6-38.22 11.03-85.5-15.81-117.8-7.38-3.97-13.39-11.09-15.02-19.41 3.64 1.2 8.14-1.8 5.38-5.6l-3.6-4.34c13.64-14.82 30.3 8.1 15.3 28.08a114.26 114.26 0 0 1 13.03 19.95 48.04 48.04 0 0 1 2.65-22.35c2.69-6.64 7.78-12.27 12.26-18.04 5.44-7.03 16.8-3.92 17.64 4.93-5.07 1.72-5.66 9.07.16 10.02-1.37 16.48-11.98 31.72-26.73 39.08a114.71 114.71 0 0 1 6.72 47.89c2.44-19.01 22.78-23.81 36.95-31.5a5.55 5.55 0 0 1 8.51 5.54 32.05 32.05 0 0 0-5.58 3.02 4.84 4.84 0 0 0 2.33 8.82c-7.01 17.84-25.46 29.95-44.53 30.07A117.93 117.93 0 0 1 662 594l-28.3.27-.3-.95a32.15 32.15 0 0 0 7.83-.55c-7-8.13-12.4-12.27-8.48-23.76ZM85 569.02a3.56 3.56 0 0 1-2.53-6.2l.26-.97a9.57 9.57 0 0 0-17.75-.34c-4.32 9.85-9.88 20.03-7.27 30.94-17.6-38.22-11.04-85.5 15.81-117.8 7.38-3.97 13.39-11.09 15.02-19.41-3.65 1.2-8.14-1.8-5.38-5.6l3.6-4.34c-13.65-14.82-30.3 8.1-15.3 28.08a114.26 114.26 0 0 0-13.03 19.95 48.04 48.04 0 0 0-2.66-22.35c-2.68-6.64-7.77-12.27-12.25-18.04-5.44-7.03-16.81-3.92-17.64 4.93 5.07 1.72 5.66 9.07-.16 10.02 1.36 16.48 11.98 31.72 26.73 39.08a114.71 114.71 0 0 0-6.73 47.89c-2.43-19.01-22.77-23.81-36.94-31.5a5.55 5.55 0 0 0-8.52 5.54 32.05 32.05 0 0 1 5.6 3.02 4.84 4.84 0 0 1-2.34 8.82c7.01 17.84 25.46 29.95 44.53 30.07a117.93 117.93 0 0 0 7.7 23.2l28.3.27.29-.95a32.15 32.15 0 0 1-7.83-.55c7.01-8.13 12.41-12.27 8.49-23.76Z" />
	<path fill="#e6e6e6" d="M278.94 29.07h-27a5 5 0 0 1 0-10h27a5 5 0 0 1 0 10Z" />
	<circle cx="455.94" cy="24.07" r="4.5" fill="#e6e6e6" />
	<circle cx="469.94" cy="24.07" r="4.5" fill="#e6e6e6" />
	<circle cx="483.94" cy="24.07" r="4.5" fill="#e6e6e6" />
	<path fill="#f2f2f2" d="M452.8 98.96H283.1a12.42 12.42 0 0 0-12.4 12.4v110.3a12.42 12.42 0 0 0 12.4 12.4h169.7a12.41 12.41 0 0 0 12.4-12.4v-110.3a12.41 12.41 0 0 0-12.4-12.4Z" />
	<path fill="#3f3d56" d="M399.67 146.05a791.4 791.4 0 0 1-50.68 78.42h-26.62q26.15-31.85 52.33-63.7c5.01-6.12 10.45-12.53 17.96-15.01Z" />
	<path d="M364.3 141.7c-2.78 2.9-5.43 5.9-7.94 9.03-5.51 6.64-10.95 13.33-16.4 20.01-3.4 4.15-6.8 8.3-10.15 12.46a24.79 24.79 0 0 1-3.03-2.29 27.16 27.16 0 0 1 34.7-41.77 25.04 25.04 0 0 1 2.82 2.56Z" />
	<path fill="#3f3d56" d="M465.2 138.55v4.03l-1.8-.66-25.34-9.26c-8.25-3.01-16.48-6.45-25-8.62a39.4 39.4 0 0 0-22.64.29 51.95 51.95 0 0 0-17.64 10.95 146.73 146.73 0 0 0-6.54 6.42l-2.06 2.19a126.97 126.97 0 0 0-5.88 6.84c-5.5 6.64-10.95 13.34-16.4 20-3.4 4.17-6.8 8.32-10.16 12.47q-16.83 20.6-33.46 41.27a19.54 19.54 0 0 1-4.43-.56q16.97-21.08 34.1-42.04l.77-.96c1.34-1.67 2.71-3.35 4.07-5.02l17.08-20.9c4.14-5.05 8.25-10.13 12.71-14.93l.84-.92 1.3-1.38c9.7-10.01 21.78-18.86 36.26-19.1 8.52-.13 16.75 2.57 24.67 5.42 8.53 3.09 17.03 6.23 25.55 9.35Z" />
	<path fill="#f2f2f2" d="M469.18 477.62H266.53a12.41 12.41 0 0 1-12.4-12.4V437.9a12.41 12.41 0 0 1 12.4-12.4h202.65a12.41 12.41 0 0 1 12.4 12.4v27.3a12.41 12.41 0 0 1-12.4 12.4ZM469.18 337.62H266.53a12.41 12.41 0 0 1-12.4-12.4V297.9a12.41 12.41 0 0 1 12.4-12.4h202.65a12.41 12.41 0 0 1 12.4 12.4v27.3a12.41 12.41 0 0 1-12.4 12.4ZM469.18 407.62H266.53a12.41 12.41 0 0 1-12.4-12.4V367.9a12.41 12.41 0 0 1 12.4-12.4h202.65a12.41 12.41 0 0 1 12.4 12.4v27.3a12.41 12.41 0 0 1-12.4 12.4Z" />
	<path fill="#fff" d="M392.48 446.89h-59.72a2.67 2.67 0 0 1 0-5.34h59.72a2.67 2.67 0 0 1 0 5.34ZM449.9 461.58H332.1a2.67 2.67 0 0 1 0-5.34h117.8a2.67 2.67 0 0 1 0 5.34Z" />
	<circle cx="301.04" cy="451.56" r="17.91" fill="#fff" />
	<path fill="#ffb6b6" d="M297.05 475.75a7.74 7.74 0 0 0-10.2 3.55 7.43 7.43 0 0 0-.44 1.15l-26.97 1.61-4 13.97 36.7-6.2a7.72 7.72 0 0 0 8.5-4.1 7.4 7.4 0 0 0-3.4-9.89l-.19-.09Z" />
	<path d="M237.52 406.83a13.37 13.37 0 0 0-18.04 9.17l-7.42 29.94 1.4 52.38s38.7 7.43 45.2 2.66 5.88-8.33 6.5-4.78 3.4 5.05 3.43 3.63.36-1.17 1.97-1.6 8.77-3.05 8.77-3.05l.32-14.94s-11.81-4.48-14.68-3.14.61 3.55-2.87 1.33-3.85-9.21-4.45-2.9-2.33 7.48-4.94 4.67-14.68-1.01-14.68-1.01l7.69-58.23a13.37 13.37 0 0 0-8.2-14.13Z" />
	<path fill="#ffb6b6" d="m498.16 562.18.4-11.03-42.35-6.82-.6 16.28 42.55 1.57z" />
	<path fill="#2f2e41" d="m490.47 565.5-.4-17.66 7.55.28 12.19-16.33a4.72 4.72 0 0 1 8.5 3l-.78 20.98-7.6 3.34 7.41 1.68-.29 7.91ZM259.8 587.47l134.14-15.6s57.93 3.35 71.52-5.5l14.33-1.8.78-21.05s-8.77.06-13.8-2.29-1.54-5.22-6.35-2.4-4.3 3.17-8 1.87-174.06-8.26-174.06-8.26Z" />
	<path fill="#ffb6b6" d="m436.56 578.34 7.8-7.81-26.41-33.81-11.51 11.53 30.12 30.09z" />
	<path fill="#2f2e41" d="m428.67 575.54 11.72-13.22 5.34 5.34 20.04-3.68a4.72 4.72 0 0 1 4.2 7.98l-14.84 14.85-7.85-2.72 4.29 6.28-5.6 5.6Z" />
	<path fill="#2f2e41" d="m206.87 514 1.34 31c1.57 36.5 41.76 58.59 72.92 39.53q.86-.52 1.73-1.09s11.81-3.17 11.46-8.2 2.52-7.47 5.08-6.1 36-46.09 36-46.09 69.47 34.66 84.8 42.82l16.18-4.4s6.08 2.87 3.9-1.29-2.6-2.16-3.27-6.7-2.4-10.14-3.44-9.9-85.96-59.2-85.96-59.2-13.83-14-30.99-4.76c-.36 1.36-.05 1.4-.05 1.4l-56.69 46.2-8-15.21Z" />
	<path d="m244.97 400.1-24.3-11.39-7.28 12.66s-19.54 27.9-19.82 48 3.18 26.11 3.18 26.11-8.42 6.3-4.21 10.15 13.54 5.51 6.38 7.18-5.35 18.57 2.65 21.57 50.96 2.97 50.96 2.97a7.65 7.65 0 0 1 1.9-7.53c3.32-3.34 6.32-.94 3.32-6.14s-8-2.2-4-9.2 4-9.1 4-9.1 8.16-15.51-4.13-32.35c-.75-1.02-.12-1.06-.12-1.06l-9.91-33.24Z" />
	<path fill="#2f2e41" d="M205.8 352.21c.21 5.13-3.02 12.4-4.62 16.8-1.7 4.68 5.68 10.9 10.4 12.27a6.99 6.99 0 0 1 2.3-4.2 11.97 11.97 0 0 0-.09 4.71l39.95 9.1c7.18-8.33 14.41-20.3 12.83-34.72a14.04 14.04 0 0 0-6.76-14l-20.2-11.93c-8.58-1.96-19.4-3.14-25.6 2.18a24.58 24.58 0 0 0-8.2 19.8Z" />
	<circle cx="241.51" cy="363.49" r="23" fill="#ffb6b6" />
	<path fill="#2f2e41" d="m214.57 351.2-1.11 4.88 19.4 4.41a7.16 7.16 0 0 1 2.39-5.2 12.2 12.2 0 0 0 .14 5.78c10.46 5.87 19.9 7.95 28.35 6.45a4.43 4.43 0 0 0 5.3-3.33c3.4-14.95-5.5-30.23-20.38-33.94a28 28 0 0 0-34.1 20.95Z" />
	<path fill="#2f2e41" d="M225.91 319.04c2.56-.56 5.27-.43 7.58-2.16l-1.51 3.48a17.63 17.63 0 0 1 12.58 1.26 6.73 6.73 0 0 1 2.85 2.41 4.96 4.96 0 0 1 .38 4.27 4.64 4.64 0 0 1-2.72 2.58 8.96 8.96 0 0 1-3.33.35l-14.16-.33a10.6 10.6 0 0 1-5.23-1.01 5.22 5.22 0 0 1-2.42-5.19c.45-3.16 3.43-5.1 5.98-5.66Z" />
	<path fill="#ccc" d="M350.68 499.3a.98.98 0 0 0-.19-.18 2.01 2.01 0 0 0-.62-.48l-1.68-.9-11.17-12.4a2.8 2.8 0 0 0-2.1-.2h-.03l-4.79 1.48-4.11 1.28-5.75 1.78-39.17 12.13-25.74 7.97a2.79 2.79 0 0 0-1.83 3.45 2.9 2.9 0 0 0 .59 1.04l.81.92 1.72 1.91 3.98 8.25 1.1 1.23a2.77 2.77 0 0 0 2.87.8l84.82-23.58a2.82 2.82 0 0 0 1.29-4.5Z" />
	<path fill="#ccc" d="m345.64 376.59-1.64.27a1.73 1.73 0 0 0-1.12.7l-.72 1-6.53 16.32a1.73 1.73 0 0 0-.3 1.3l.77 4.64-2.9 83a1.75 1.75 0 0 0 .65 1.1l12.68 16.95.3.23.63.5a1.76 1.76 0 0 0 1.15.36l1.08-.05a1.73 1.73 0 0 0 1.26-.64 1.7 1.7 0 0 0 .36-1.37L347.63 378a1.72 1.72 0 0 0-1.98-1.42Z" />
	<path d="m342.89 383.04-5.78 17.61-2.24 70.36 9 8-.98-95.97z" />
	<path fill="#ffb6b6" d="M298.18 490.36a7.74 7.74 0 0 0-10.2 3.54 7.43 7.43 0 0 0-.44 1.15l-26.97 1.61-4 13.97 36.7-6.2a7.72 7.72 0 0 0 8.5-4.1 7.4 7.4 0 0 0-3.4-9.89l-.19-.08Z" />
	<path d="M238.65 421.44a13.37 13.37 0 0 0-18.04 9.16l-7.42 29.94 1.4 52.39s38.7 7.42 45.2 2.65 5.88-8.33 6.5-4.77 3.4 5.04 3.43 3.63.35-1.18 1.97-1.6 8.77-3.06 8.77-3.06l.32-14.94s-11.82-4.48-14.68-3.14.6 3.55-2.87 1.34-3.85-9.22-4.45-2.91-2.33 7.48-4.94 4.68-14.68-1.02-14.68-1.02l7.68-58.23a13.37 13.37 0 0 0-8.19-14.12Z" />
	<path fill="#ccc" d="M0 595.14a1.19 1.19 0 0 0 1.19 1.19h715.29a1.19 1.19 0 0 0 0-2.38H1.19A1.19 1.19 0 0 0 0 595.14Z" />
	<path fill="#e6e6e6" d="M631.18 337.62H428.53a12.41 12.41 0 0 1-12.4-12.4V297.9a12.41 12.41 0 0 1 12.4-12.4h202.65a12.41 12.41 0 0 1 12.4 12.4v27.3a12.41 12.41 0 0 1-12.4 12.4Z" />
	<path fill="#fff" d="M554.48 306.89h-59.72a2.67 2.67 0 1 1 0-5.34h59.72a2.67 2.67 0 1 1 0 5.34ZM611.9 321.58H494.1a2.67 2.67 0 1 1 0-5.34h117.8a2.67 2.67 0 0 1 0 5.34Z" />
	<circle cx="463.04" cy="311.56" r="17.91" fill="#fff" />
	<path fill="#e6e6e6" d="M566.18 407.62H363.53a12.41 12.41 0 0 1-12.4-12.4V367.9a12.41 12.41 0 0 1 12.4-12.4h202.65a12.41 12.41 0 0 1 12.4 12.4v27.3a12.41 12.41 0 0 1-12.4 12.4Z" />
	<path fill="#fff" d="M489.48 376.89h-59.72a2.67 2.67 0 1 1 0-5.34h59.72a2.67 2.67 0 0 1 0 5.34ZM546.9 391.58H429.1a2.67 2.67 0 0 1 0-5.34h117.8a2.67 2.67 0 0 1 0 5.34Z" />
	<circle cx="398.04" cy="381.56" r="17.91" fill="#fff" />
</svg>
