<svg xmlns="http://www.w3.org/2000/svg" viewBox="0 0 703.82 573.37">
	<path fill="#e6e6e6" d="M206.3 540.32a21.57 21.57 0 0 0 20.5 5.18c9.17-2.6 15.39-10.87 20.91-18.63l16.33-22.96-13.76 2.52c-9.9 1.82-20.04 3.72-28.67 8.92s-15.52 14.46-14.98 24.51" data-name="Path 461" />
	<path fill="#f2f2f2" d="M193.5 571.25c2.42-8.23 4.85-16.58 9.1-24.08 3.8-6.66 8.96-12.5 15.79-16.14a35.25 35.25 0 0 1 11.6-3.77c1.06-.15 1.23 1.5.18 1.64a33.5 33.5 0 0 0-18.64 9.17c-5.63 5.51-9.33 12.62-12.06 19.94-1.66 4.43-3 8.96-4.32 13.5a.85.85 0 0 1-.95.69.83.83 0 0 1-.7-.95Z" data-name="Path 462" />
	<path fill="#ffb7b7" d="M459.31 239.74a11.04 11.04 0 0 1 13.6 10.07l37.77 10.61-15.4 13.35-33.5-12.13a11.1 11.1 0 0 1-2.47-21.9ZM556.36 561.29h-11.01l-5.24-42.45h16.25v42.45z" />
	<path fill="#2f2e41" d="M559.16 571.96h-35.49v-.45a13.82 13.82 0 0 1 13.82-13.81h21.67Z" />
	<path fill="#ffb7b7" d="M620.86 561.29h-11.01l-5.24-42.45h16.25v42.45z" />
	<path fill="#2f2e41" d="M623.67 571.96h-35.5v-.45A13.82 13.82 0 0 1 602 557.7h21.68ZM547.36 317.6l-16.21 112.32 4.04 118.33 24.35 1.94 7.61-106.12 19.38-59.18 11.4 84.36.47 79 25.14 1.94 8.77-166.1-6.45-72.24-78.5 5.75z" />
	<circle cx="594.26" cy="141.58" r="25.65" fill="#ffb7b7" />
	<path fill="#cbcbcb" d="m578.45 181.18-28.32 142.67s47.68 13.68 68.57 1.05 11.52-51.63 11.52-51.63l-3.82-66.36-7.07-16.78-6-13.85Z" />
	<path fill="#2f2e41" d="m570.16 282.45 9.78-104.04-7.82 5.71-27.35 8.89-1.88 73.24-19.13 96.32s13.68 26.7 30.63-17.46Z" />
	<path fill="#2f2e41" d="m557.93 203.96-13.16-10.95-29.59 64.27-33.02-7.23-1.56 19.5 47.84 18.93 32.6-45.38-3.11-39.14zM609.14 259.68l3.69-84.67 13.57 10.5 24.23 6.76-3.55 67.41 5.11 104.6-25.4 8.04-7.13-66-10.52-46.64z" />
	<path fill="#ffb7b7" d="M610.77 327.84a11.04 11.04 0 0 1 14.7-8.42l24.89-30.31 6.03 19.47-24.57 25.8a11.1 11.1 0 0 1-21.05-6.54Z" />
	<path fill="#2f2e41" d="m634.41 201.67 16.22-9.4 40.82 80.61-39.8 55.26-22.7-18.15 27.57-35.94-25.13-38.61 3.02-33.77zM618.39 121.07l1.24-2.5-6.26-3.11s-6.9-11.23-19.4-8.08-18.1 5.05-18.1 5.05l-6.24 3.14 3.13 3.12-5.62 1.89 3.75 1.86-4.36 2.51 2.35 12.87s3.9-9.76 11.41-6.03 21.25-1.93 21.25-1.93l11.93 23.1s2.46-8.1 6.85-5.94c0 0 11.21-17.86-1.93-25.95Z" />
	<path fill="#fff" d="M462.57 158.7h-.16l-94.07 40.17-128.71 54.96a4.15 4.15 0 0 1-3.18.02l-132.8-55.1-96.37-39.98-.15-.07h-.16a5.74 5.74 0 0 0-5.74 5.74v249.1a5.74 5.74 0 0 0 5.74 5.75h455.6a5.74 5.74 0 0 0 5.74-5.74V164.44a5.74 5.74 0 0 0-5.74-5.74Z" />
	<path fill="#3f3d56" d="M462.98 160.34a.82.82 0 0 1-.47-.14L235.9 2.37a4.11 4.11 0 0 0-4.7 0L6.22 160.2a.82.82 0 0 1-.94-1.34L230.26 1.04a5.75 5.75 0 0 1 6.57-.01l226.62 157.82a.82.82 0 0 1-.47 1.5Z" />
	<path fill="#e6e6e6" d="M19.06 165.94 233.77 6.82 450.1 177.26 244.83 298.95l-111.45-25.41-114.32-107.6z" />
	<path d="M142.8 374.1H36.71a4.96 4.96 0 1 1-.01-9.9h106.08a4.96 4.96 0 1 1 .02 9.9ZM74.78 352.8H36.72a4.96 4.96 0 1 1-.01-9.9h38.07a4.96 4.96 0 0 1 .01 9.9h-.01ZM236.78 254.57a6.2 6.2 0 0 1-2.35-.46l-132.41-54.95V27.18a5.74 5.74 0 0 1 5.74-5.73h254.02a5.74 5.74 0 0 1 5.74 5.73v172.1l-.25.11-128.06 54.69a6.24 6.24 0 0 1-2.43.49Z" />
	<path fill="#3f3d56" d="M461.34 158.7h-.16l-94.07 40.17-128.71 54.96a4.15 4.15 0 0 1-3.18.02l-132.79-55.1-96.38-39.98-.15-.07h-.16A5.74 5.74 0 0 0 0 164.44v249.1a5.74 5.74 0 0 0 5.74 5.75h455.6a5.74 5.74 0 0 0 5.74-5.74V164.44a5.74 5.74 0 0 0-5.74-5.74Zm4.1 254.85a4.1 4.1 0 0 1-4.1 4.1H5.74a4.1 4.1 0 0 1-4.1-4.1V164.44a4.1 4.1 0 0 1 3.94-4.1l96.85 40.19 132.16 54.84a5.83 5.83 0 0 0 4.46-.03l128.06-54.69 94.4-40.3a4.11 4.11 0 0 1 3.93 4.09Z" />
	<path fill="#fff" d="M216.17 85.73h-90.14a6.56 6.56 0 0 1 0-13.1h90.14a6.56 6.56 0 0 1 0 13.1ZM169.46 57.87h-43.43a6.56 6.56 0 0 1 0-13.1h43.43a6.56 6.56 0 0 1 0 13.1ZM302.19 151.29H164.52a6.56 6.56 0 0 1 0-13.11h137.67a6.56 6.56 0 0 1 0 13.11ZM302.19 181.6H164.52a6.56 6.56 0 1 1 0-13.1h137.67a6.56 6.56 0 1 1 0 13.1Z" />
	<path fill="#cbcbcb" d="M702.82 573h-263a1 1 0 0 1 0-2h263a1 1 0 0 1 0 2ZM243.82 573h-97a1 1 0 1 1 0-2h97a1 1 0 0 1 0 2Z" />
	<path fill="#e6e6e6" d="M182.48 542.08a21.57 21.57 0 0 0 18.2-10.79c4.66-8.3 3.24-18.55 1.68-27.95l-4.61-27.8-7.98 11.5c-5.74 8.27-11.59 16.77-14.04 26.53s-.8 21.2 6.67 27.95" data-name="Path 461" />
	<path fill="#f2f2f2" d="M195.22 573.03c-4.1-7.53-8.25-15.16-10.52-23.49-2.02-7.4-2.47-15.18-.2-22.57a35.25 35.25 0 0 1 5.57-10.86c.65-.85 1.93.2 1.29 1.04a33.5 33.5 0 0 0-6.75 19.64c-.11 7.89 2.28 15.54 5.5 22.65 1.95 4.3 4.2 8.46 6.45 12.61a.85.85 0 0 1-.18 1.16.83.83 0 0 1-1.16-.18Z" data-name="Path 462" />
</svg>
