<svg xmlns="http://www.w3.org/2000/svg" viewBox="0 0 751.12 669.03">
	<path fill="#f2f2f2" d="m86.15 669.03-.65-.24a80.53 80.53 0 0 1-47.44-48.32A78.13 78.13 0 0 1 34 601.3l-.05-.62.62.1a210.75 210.75 0 0 0 18.5 2.34l-19.29-12.77.04-.66a15.27 15.27 0 0 1 10.26-13.7 15.53 15.53 0 0 1 16.9 4.16c1.92 2.08 3.95 4.17 5.9 6.2 6.75 6.97 13.72 14.17 18.12 22.67a48.68 48.68 0 0 1 .98 41.9l.17 18.11Z" />
	<path d="M476.59 656.66v-.07a205.08 205.08 0 0 0-10.33-55.65l-.01-.03c-.35-1.85-.25-3.75.3-5.55a10.96 10.96 0 0 1 12.21-7.43 23.52 23.52 0 0 0 16.11-2.75c3.1-1.8 6.85-2.04 10.15-.67a10.62 10.62 0 0 1 6.45 7.97 163.53 163.53 0 0 0 10.32 55.7v.03c.7 3.68-.4 7.47-2.98 10.2a10.85 10.85 0 0 1-8.69 3.18c-5.8-.4-11.75.78-18.22 3.6-2.25 1-4.8 1.18-7.17.5a11.59 11.59 0 0 1-8.14-9.03Z" />
	<path fill="#f2f2f2" d="M291.37 396.5v248.7H465.6V396.5a8.36 8.36 0 0 0-8.4-8.4H299.79a8.4 8.4 0 0 0-8.41 8.4Zm68 85.45a18.6 18.6 0 0 1 37.19 0v28.86a18.6 18.6 0 0 1-37.2 0v-28.86Z" />
	<path fill="#e6e6e6" d="M290.83 637.25v23.98c.01 2.58 2.1 4.68 4.68 4.7h165.94a4.7 4.7 0 0 0 4.68-4.7v-23.98h-175.3ZM17.28 21.8v454.1a21.84 21.84 0 0 0 21.82 21.82h672.92a21.84 21.84 0 0 0 21.82-21.83V21.8A21.85 21.85 0 0 0 712.02 0H39.1a21.85 21.85 0 0 0-21.82 21.8Z" />
	<path fill="#fff" d="M706.4 15.76H44.71a11.69 11.69 0 0 0-11.66 11.69v442.84a11.68 11.68 0 0 0 11.66 11.66h661.7a11.68 11.68 0 0 0 11.66-11.66V27.45c0-6.45-5.22-11.67-11.67-11.69ZM539.5 330.38a11.59 11.59 0 0 1-10.38 6.36h-.07a203.22 203.22 0 0 0-19.1-1.76c1 .71 1.87 1.58 2.59 2.56 1.85 2.66 2.42 6 1.55 9.13-1.44 5.62-1.37 11.7.21 18.57.58 2.4.3 4.93-.8 7.14a11.59 11.59 0 0 1-10.38 6.36h-.07a205.07 205.07 0 0 0-45.72-1.23c-.06.39-.14.77-.24 1.16-1.44 5.62-1.37 11.7.21 18.57.58 2.4.3 4.93-.8 7.14a11.59 11.59 0 0 1-10.38 6.36h-.07a205.06 205.06 0 0 0-46.95-1.11c-.12 3.9.28 7.8 1.2 11.6.58 2.4.3 4.94-.8 7.15a11.59 11.59 0 0 1-10.38 6.36h-.07a205.08 205.08 0 0 0-56.6 0h-.03c-1.88 0-3.73-.45-5.4-1.31a10.96 10.96 0 0 1-5.07-13.37c.56-1.6.98-3.26 1.26-4.94a205.07 205.07 0 0 0-51.76.61h-.03c-1.88 0-3.73-.44-5.4-1.3a10.96 10.96 0 0 1-5.07-13.37 23.52 23.52 0 0 0 .23-16.34c-.88-2.48-.88-5.2 0-7.68-12.93-.66-25.9-.1-38.73 1.7h-.03c-1.88 0-3.73-.45-5.4-1.31a10.96 10.96 0 0 1-5.07-13.37 23.52 23.52 0 0 0 .23-16.34c-1.2-3.37-.76-7.1 1.2-10.1a10.62 10.62 0 0 1 9-4.88c6.57 1.14 13.2 1.9 19.87 2.24a11 11 0 0 1-4.3-12.92 23.52 23.52 0 0 0 .23-16.34c-1.2-3.37-.76-7.1 1.2-10.1.07-.13.17-.24.26-.36-4.74.32-9.47.81-14.19 1.47h-.03c-1.88 0-3.73-.44-5.4-1.3a10.96 10.96 0 0 1-5.07-13.37 23.52 23.52 0 0 0 .23-16.34c-1.2-3.37-.76-7.1 1.2-10.1a10.62 10.62 0 0 1 9-4.88 164.8 164.8 0 0 0 23.92 2.4 11.16 11.16 0 0 1-1.35-10.08 23.52 23.52 0 0 0 .23-16.34c-1.2-3.37-.76-7.1 1.2-10.1a10.62 10.62 0 0 1 9-4.88A165.13 165.13 0 0 0 278.6 214c-1.45-2.76-1.7-6-.65-8.94a23.52 23.52 0 0 0 .23-16.34c-1.2-3.37-.76-7.1 1.2-10.1a10.62 10.62 0 0 1 9-4.88 164.81 164.81 0 0 0 23.81 2.4 11.19 11.19 0 0 1-.24-8.08 23.52 23.52 0 0 0 .23-16.34c-1.2-3.37-.76-7.1 1.2-10.1a10.62 10.62 0 0 1 9-4.88c18.74 3.3 37.92 3.3 56.66 0h.02c1.45.3 2.94.3 4.38 0h.03c18.74 3.3 37.91 3.3 56.65 0a10.62 10.62 0 0 1 9.01 4.89c1.95 2.99 2.4 6.72 1.2 10.09-1.88 5.3-1.8 11.1.23 16.34.93 2.63.84 5.51-.25 8.08 7.99-.22 15.94-1.03 23.81-2.4a10.62 10.62 0 0 1 9.01 4.89c1.95 2.99 2.4 6.72 1.2 10.09-1.88 5.3-1.8 11.1.23 16.34 1.04 2.94.8 6.18-.66 8.94 6.78-.34 13.54-1.1 20.22-2.26a10.62 10.62 0 0 1 9.01 4.89c1.95 2.99 2.4 6.72 1.2 10.09-1.88 5.3-1.8 11.1.23 16.34 1.2 3.4.7 7.15-1.37 10.1.9.68 1.69 1.48 2.35 2.38 1.85 2.66 2.42 6 1.55 9.13-1.44 5.62-1.37 11.7.21 18.57a10.53 10.53 0 0 1-2.27 9.34c4.68-.4 9.35-1.02 14-1.84h.03a11.68 11.68 0 0 1 9.48 4.8c1.85 2.66 2.42 6 1.55 9.13-1.44 5.62-1.37 11.7.21 18.57.58 2.4.3 4.93-.8 7.14Z" />
	<path fill="#e6e6e6" d="M684.94 76.77H65.8a2.46 2.46 0 0 1 0-4.93h619.14a2.46 2.46 0 0 1 0 4.93Z" />
	<path d="M382.85 422.94h-.07a205.08 205.08 0 0 0-56.6 0h-.03c-1.88 0-3.73-.45-5.4-1.3a10.96 10.96 0 0 1-5.07-13.38 23.52 23.52 0 0 0 .23-16.34c-1.2-3.36-.76-7.1 1.19-10.1a10.62 10.62 0 0 1 9.01-4.88c18.74 3.3 37.92 3.3 56.66 0h.02a11.68 11.68 0 0 1 9.48 4.8c1.85 2.66 2.42 6 1.55 9.13-1.44 5.63-1.37 11.7.21 18.57.58 2.4.3 4.93-.8 7.14a11.59 11.59 0 0 1-10.38 6.36Z" />
	<path fill="#ffb8b8" d="m440.6 324.9-15.11-12.5c-11.33 5.93-28.56 29.63-28.56 29.63l-39.77 28.6a8.66 8.66 0 1 0 8.12 12.6l54.03-28.56 21.29-29.78Z" />
	<path fill="#3f3d56" d="M466.08 277.32a20.69 20.69 0 0 1-.32 31.84l-9.6 7.8s-23.97 34.5-36.44 38.5l-32.02 16.73-14.44-14.48 29.02-23.65s13.35-12.62 14.69-21.86c.82-5.66 10.4-21.08 20-32.51a20.63 20.63 0 0 1 29.08-2.4l.03.03Z" />
	<path fill="#ffb6b6" d="M435.04 651.67h-13.65l-6.49-52.64h20.14v52.64z" />
	<path fill="#2f2e41" d="M435.52 665.9h-41.97v-.52c0-9.02 7.31-16.34 16.34-16.34l7.66-5.81 14.3 5.81h3.67v16.87Z" />
	<path fill="#ffb6b6" d="m539.02 579.84-6.46 12.02-49.44-19.21 9.54-17.74 46.36 24.93z" />
	<path fill="#2f2e41" d="m551.79 586.16-19.88 36.96-.46-.25a16.34 16.34 0 0 1-6.66-22.12l-1.49-9.5 11.9-9.85 1.73-3.23 14.86 7.99ZM409.24 410.61l-12.05 96.36 6.02 32.3 108.4 47.5 6.03-19.58c-27.71-16.95-57.33-42.61-76-44.5 0 0-1.54-17.1 11.83-27.65 2.7-2.13 2.1-5.01 3.2-7.62.75-1.8 3.73-3.67 4.5-5.51.99-2.39-.24-4.76.76-7.19.56-1.36 2.68-1.45 3.24-2.81.94-2.33.32-5.94 1.25-8.24 1.97-4.91 3.87-9.72 5.61-14.23 5.4-14.02 9.2-25.14 8.72-27.54-1.5-7.53-71.51-11.29-71.51-11.29Z" />
	<path fill="#2f2e41" d="m407.16 506.7-6.3 40.68 15.9 83.05h21.08c7.57-27.9 7.97-64.58.75-95.6l-31.43-28.14Z" />
	<path fill="#3f3d56" d="m420.7 292.88 9.72-16.93 10.43-8.37 19.58-3.01 5.43 4.18a139.02 139.02 0 0 1 20.38 101.36l-1.53 8.27-.97 5.25.42 6.28-3.26 9.14.45 6.69.24 3.57.24 3.6.33 5c.6 2.86-2.42 2.48-2 5 .76 4.42 4.13 10.98-1 11l-53-11c-13.46.05-26-16-13-29l7.54-101.03Z" />
	<circle cx="445.51" cy="234.11" r="25.74" fill="#ffb8b8" />
	<path fill="#2f2e41" d="M445.95 259.12c3.76.06 7.53-.2 11.25-.79 3.69-.75 11.94-6.8 14.24-10.43 1.7-2.7 2.8-6.93 3.41-10 1.68-8.2-.2-16.73-5.17-23.46a9.34 9.34 0 0 0-3.77-3.22 4.6 4.6 0 0 0-.41-.14 11.52 11.52 0 0 1-5.74-3.55 9.5 9.5 0 0 0-.95-.98 14.2 14.2 0 0 0-5.92-2.98c-3.52-.94-8.62 0-15.15 2.79-3.28 1.4-6.86.9-9.62.3a.9.9 0 0 0-.85.28 6.37 6.37 0 0 1-4.33 1.73c-.99.04-2.02 1.41-3.27 3.19-.29.4-.62.88-.86 1.16l-.03-.55-.56.62a7.73 7.73 0 0 0 3.5 12.6c.99.26 2 .42 3.03.48.62.06 1.26.11 1.88.22 4.01.82 7.3 3.7 8.66 7.57a3.05 3.05 0 0 0 4.6 1.48 5.04 5.04 0 0 1 4.6-.84c.66.37 1.19.97 1.47 1.68.35.8.93 1.46 1.66 1.93 2.5 1.29 2.67 7 1.77 11.75-.87 4.6-2.58 7.91-4.16 8.07-1.22.13-1.36.22-1.45.43l-.08.2.14.18c.68.24 1.4.34 2.1.28Z" />
	<path d="M393.85 243.94h-.07a205.08 205.08 0 0 0-56.6 0h-.03c-1.88 0-3.73-.45-5.4-1.3a10.96 10.96 0 0 1-5.07-13.38 23.52 23.52 0 0 0 .23-16.34c-1.2-3.36-.76-7.1 1.19-10.1a10.62 10.62 0 0 1 9.01-4.88c18.74 3.3 37.92 3.3 56.66 0h.02a11.68 11.68 0 0 1 9.48 4.8c1.85 2.66 2.42 6 1.55 9.13-1.44 5.63-1.37 11.7.21 18.57.58 2.4.3 4.93-.8 7.14a11.59 11.59 0 0 1-10.38 6.36Z" />
	<path fill="#ffb8b8" d="m417.92 304.56 10.65-16.47c-7.22-10.55-32.78-24.9-32.78-24.9l-33.05-36.15a8.66 8.66 0 1 0-11.55 9.53l34.67 50.32 32.06 17.67Z" />
	<path fill="#3f3d56" d="M468.15 324.3a20.69 20.69 0 0 1-31.66 3.4l-8.88-8.62s-37.21-19.43-42.64-31.35l-24.39-34.59 16.35-14.75 28.42 25.84s13.08 15.13 22.42 15.38c5.71.15 22.15 7.86 34.62 16.06a20.63 20.63 0 0 1 5.78 28.6l-.02.04Z" />
	<path d="M220.24 665.76h-.07a205.08 205.08 0 0 0-56.6 0h-.03c-1.88 0-3.74-.45-5.4-1.31a10.96 10.96 0 0 1-5.08-13.37 23.52 23.52 0 0 0 .24-16.34c-1.2-3.36-.76-7.1 1.19-10.1a10.62 10.62 0 0 1 9-4.88c18.75 3.3 37.92 3.3 56.66 0h.03a11.68 11.68 0 0 1 9.48 4.8c1.85 2.66 2.42 6 1.55 9.13-1.45 5.62-1.38 11.7.21 18.57.58 2.4.29 4.93-.81 7.14a11.59 11.59 0 0 1-10.37 6.36Z" />
	<path d="M236.24 623.76h-.07a205.08 205.08 0 0 0-56.6 0h-.03c-1.88 0-3.74-.45-5.4-1.31a10.96 10.96 0 0 1-5.08-13.37 23.52 23.52 0 0 0 .24-16.34c-1.2-3.36-.76-7.1 1.19-10.1a10.62 10.62 0 0 1 9-4.88c18.75 3.3 37.92 3.3 56.66 0h.03a11.68 11.68 0 0 1 9.48 4.8c1.85 2.66 2.42 6 1.55 9.13-1.45 5.62-1.38 11.7.21 18.57.58 2.4.29 4.93-.81 7.14a11.59 11.59 0 0 1-10.37 6.36Z" />
	<path d="m96.23 635.2.04-.05a205.08 205.08 0 0 0 31.71-46.88l.02-.02a11.67 11.67 0 0 1 4.1-3.75 10.96 10.96 0 0 1 13.92 3.3 23.52 23.52 0 0 0 13.4 9.34c3.47.9 6.31 3.35 7.7 6.64a10.62 10.62 0 0 1-1 10.2 163.53 163.53 0 0 0-31.75 46.93l-.02.02a11.68 11.68 0 0 1-9.28 5.16 10.85 10.85 0 0 1-8.43-3.83c-3.85-4.34-8.92-7.7-15.5-10.23a10.53 10.53 0 0 1-5.46-4.67 11.59 11.59 0 0 1 .55-12.15Z" />
	<path fill="#cacaca" d="m749.93 667.28-748.75.31a1.2 1.2 0 0 1 0-2.38l748.75-.3a1.2 1.2 0 0 1 0 2.37Z" />
	<g fill="#3f3d56">
		<ellipse cx="160.25" cy="45.26" rx="8.46" ry="8.65" />
		<ellipse cx="189.47" cy="45.26" rx="8.46" ry="8.65" />
		<ellipse cx="218.68" cy="45.26" rx="8.46" ry="8.65" />
		<path d="M251.99 52.1a1 1 0 0 1-.71-.3l-5.71-5.84a1 1 0 0 1 0-1.4l5.7-5.83a1 1 0 0 1 1.44 1.4l-5.03 5.13 5.03 5.14a1 1 0 0 1-.72 1.7ZM261.58 52.1a1 1 0 0 1-.71-1.7l5.02-5.14-5.03-5.13a1 1 0 1 1 1.43-1.4l5.7 5.83a1 1 0 0 1 0 1.4l-5.7 5.84a1 1 0 0 1-.71.3ZM560.09 37.62h-10.61c-1.21 0-2.2.98-2.2 2.19v10.62c0 1.2.99 2.19 2.2 2.19h10.6a2.2 2.2 0 0 0 2.2-2.2V39.82a2.2 2.2 0 0 0-2.2-2.2ZM534.09 37.62h-10.61c-1.21 0-2.2.98-2.2 2.19v10.62c0 1.2.99 2.19 2.2 2.19h10.6a2.2 2.2 0 0 0 2.2-2.2V39.82a2.2 2.2 0 0 0-2.2-2.2ZM584.59 38.12h-10.61c-1.21 0-2.2.98-2.2 2.19v10.62c0 1.2.99 2.19 2.2 2.19h10.6a2.2 2.2 0 0 0 2.2-2.2V40.32a2.2 2.2 0 0 0-2.2-2.2ZM424.67 42.16h-84.81a2.67 2.67 0 1 0 0 5.34h84.8a2.68 2.68 0 0 0 0-5.34Z" />
	</g>
</svg>
