<svg xmlns="http://www.w3.org/2000/svg" viewBox="0 0 903.81 509.15">
	<path fill="#f1f1f1" d="m68 508.9-.95-1.77c12.75-6.9 28.62-15.48 36.91-29.57 8.18-13.88 8.36-32.74.48-49.2-6.7-14.02-19.02-26.58-35.6-36.32-3.28-1.92-6.72-3.74-10.04-5.5-8.03-4.26-16.34-8.66-23.18-14.9-9.44-8.6-16.57-23.04-11.25-35.9a23.86 23.86 0 0 1 20.67-14.46l.12 2a21.86 21.86 0 0 0-18.95 13.24c-4.94 11.95 1.84 25.5 10.75 33.64 6.66 6.07 14.86 10.41 22.78 14.61 3.34 1.77 6.8 3.6 10.1 5.55 16.94 9.94 29.53 22.8 36.4 37.17 8.17 17.06 7.95 36.64-.55 51.09-8.58 14.57-24.72 23.3-37.7 30.31Z" />
	<ellipse cx="57.72" cy="323.32" fill="#f1f1f1" rx="17.5" ry="8.5" />
	<ellipse cx="71.72" cy="379.32" fill="#f1f1f1" rx="17.5" ry="8.5" />
	<ellipse cx="39.72" cy="388.32" fill="#f1f1f1" rx="17.5" ry="8.5" />
	<ellipse cx="89.72" cy="435.32" fill="#f1f1f1" rx="17.5" ry="8.5" />
	<ellipse cx="124.72" cy="435.32" fill="#f1f1f1" rx="17.5" ry="8.5" />
	<path fill="#e6e6e6" d="M341.01 15.43h562.8v267.06h-562.8z" />
	<path fill="#fff" d="M357.1 38.33h530.61v222.81H357.1z" />
	<path d="M340.77 0h562.8v23.91h-562.8z" />
	<circle cx="358.54" cy="11.06" r="4.43" fill="#fff" />
	<circle cx="375.36" cy="11.06" r="4.43" fill="#fff" />
	<circle cx="392.18" cy="11.06" r="4.43" fill="#fff" />
	<path fill="#e6e6e6" d="M594.43 91.2a2.15 2.15 0 0 0 0 4.3h117.8a2.15 2.15 0 0 0 0-4.3Z" />
	<path fill="#e6e6e6" d="M594.43 104.09a2.15 2.15 0 0 0 0 4.3h60.14a2.15 2.15 0 0 0 0-4.3Z" />
	<path fill="#e6e6e6" d="M591.47 166.44a2.15 2.15 0 0 0 0 4.3h220.88a2.15 2.15 0 0 0 0-4.3Z" />
	<path fill="#e6e6e6" d="M591.47 179.33a2.15 2.15 0 0 0 0 4.29h163.22a2.15 2.15 0 0 0 0-4.3Z" />
	<path fill="#e6e6e6" d="M591.47 191.92a2.15 2.15 0 0 0 0 4.3h220.88a2.15 2.15 0 0 0 0-4.3Z" />
	<path fill="#e6e6e6" d="M591.47 204.8a2.15 2.15 0 0 0 0 4.3h163.22a2.15 2.15 0 0 0 0-4.3Z" />
	<circle cx="475.99" cy="156.46" r="18.69" fill="#a0616a" />
	<path fill="#2f2e41" d="M470.07 141.5s8.72 2.34 13.24 3.28 4.05-1.72 4.05-1.72 5.92.78 5.61.16 2.5-3.9-.78-7.63-2.34-6.55-2.34-6.55h-2.8l-.78-1.09h-4.36s-4.82-4.23-13.4-2.98-18.7 4.54-19.63 9.68c-.12.7-.3 1.47-.49 2.3-2.34 9.88 2.64 19.14 7.8 27.9 1.27 2.15 7.41 6.84 7.25 3.62s-5.52-10.45-1.78-10.92 10.12-9.97 8.4-16.04Z" />
	<path d="M465.38 216.9a65.38 65.38 0 0 1-10.7-1.76l.2-3.73 1.64-29.64.01-.23h32.93l5.17 27.3.7 3.68a64.1 64.1 0 0 1-4.15 1.47l-.03.01c-1.96.6-3.94 1.14-5.94 1.58a68.56 68.56 0 0 1-8.07 1.24 62.05 62.05 0 0 1-6.3.3c-1.82 0-3.65-.07-5.46-.22Z" />
	<path fill="#2f2e41" d="M444.21 211.62a68.7 68.7 0 0 1-3.98-1.89l-.56-.29c-.38-.2-.78-.4-1.15-.62q-.78-.43-1.5-.86l-1.43-.85a74.32 74.32 0 0 1-4.86-3.32l-.78-.6-.27-4.36.4-.24 26.44-16.82.36-.23.03-.01 3.73.01v13.88c2.1 3.05 3.53 9.43 4.41 17.78.12 1.2.23 2.42.33 3.7a65.38 65.38 0 0 1-10.7-1.76l-1.12-.27a62.7 62.7 0 0 1-6.51-2.1c-.65-.24-1.3-.5-1.93-.75l-.06-.03-.85-.37Z" />
	<path fill="#2f2e41" d="M438.52 208.82q-.78-.43-1.5-.86l-1.43-.85a74.32 74.32 0 0 1-4.86-3.32l-.78-.6-.38-.3c-.97-.74-1.9-1.51-2.81-2.33l-.13-.1a10.42 10.42 0 0 1 3.05-1.63l1.08.32 7.66 2.3.05 3.11ZM503.09 208.87c-.46.24-.91.48-1.37.7-.1.07-.2.11-.28.16l-1.8.9c-.02 0-.05 0-.05.02l-.1.05a64.1 64.1 0 0 1-8.3 3.29l-.04.01c-1.96.6-3.94 1.14-5.94 1.58a12.5 12.5 0 0 1 .48-3.68l.02-.22 1.3-21.1-1.74-9.04 5-.74 27.5 14.8s-3.03 3.04-15.47 9.5c-1.1.56.51 2.46.79 3.77Z" />
	<path fill="#3f3d56" d="M476.81 213.18a65.1 65.1 0 0 1-11.76.02c.12 1.2.23 2.42.33 3.7 1.8.15 3.64.22 5.46.22a62.05 62.05 0 0 0 6.3-.3 68.56 68.56 0 0 0 8.07-1.24 12.5 12.5 0 0 1 .48-3.68l.02-.22a63 63 0 0 1-8.9 1.5Zm57.27-85.04a66.97 66.97 0 1 0-115.74 63.62c.61.75 1.23 1.51 1.87 2.24l.13.15a63.82 63.82 0 0 0 5 5.14c.42.4.85.79 1.3 1.17l.11.1c.91.82 1.85 1.6 2.82 2.33l.38.3.78.6a74.34 74.34 0 0 0 4.78 3.29 70.79 70.79 0 0 0 1.5.88l1.5.86 1.16.62.56.29c1.3.67 2.62 1.3 3.98 1.9l.85.36.06.03 1.93.76a62.7 62.7 0 0 0 6.51 2.09c.38.1.75.2 1.12.27a65.38 65.38 0 0 0 10.7 1.76c1.8.15 3.64.22 5.46.22a62.05 62.05 0 0 0 6.3-.3 68.56 68.56 0 0 0 8.07-1.24c2-.44 3.98-.97 5.94-1.58l.03-.01a64.15 64.15 0 0 0 8.3-3.3c.03 0 .08-.02.1-.04 0-.01.04-.01.05-.03.6-.28 1.2-.59 1.8-.89l.3-.15 1.36-.71.07-.05a70.3 70.3 0 0 0 7.63-4.92 4.68 4.68 0 0 0 .54-.41 57.75 57.75 0 0 0 4.08-3.37 66.91 66.91 0 0 0 18.67-71.98Zm-19.8 68.07a64.8 64.8 0 0 1-5.16 4.37c-.4.3-.8.6-1.21.88-.4.3-.8.59-1.2.86l-1.06.71c-.03.03-.08.05-.1.08-.26.18-.54.35-.8.51-.8.5-1.63 1-2.45 1.47-.2.1-.38.23-.58.34l-.33.18c-.45.26-.9.48-1.36.72-.06.05-.14.07-.2.11a.11.11 0 0 0-.06.03c-.32.17-.64.32-.96.47l-.8.4a61.27 61.27 0 0 1-7.02 2.83c-.3.1-.62.23-.93.32-1.44.45-2.88.86-4.35 1.2a63 63 0 0 1-8.9 1.5 65.1 65.1 0 0 1-11.76.01 62.37 62.37 0 0 1-10.17-1.79l-.38-.09a58.11 58.11 0 0 1-8.01-2.73c-.14-.06-.3-.1-.41-.16-.15-.06-.3-.11-.41-.17l-.43-.18a67.8 67.8 0 0 1-3.35-1.6l-.51-.28a45.88 45.88 0 0 1-2.91-1.64c-.33-.18-.68-.4-1.02-.6-.37-.23-.75-.47-1.12-.72l-.27-.18c-.85-.57-1.71-1.15-2.53-1.77-.58-.43-1.14-.83-1.7-1.27-.36-.28-.73-.57-1.07-.87-.23-.16-.46-.36-.69-.56-.3-.26-.6-.51-.9-.79-.47-.38-.91-.8-1.34-1.2a60.23 60.23 0 0 1-4.83-5c-.52-.57-1-1.15-1.47-1.75a3.65 3.65 0 0 1-.3-.38 63.3 63.3 0 1 1 93.04 6.74Z" />
	<path fill="#a0616a" d="M163.44 496.7h12.26l5.83-47.29h-18.1l.01 47.29z" />
	<path fill="#2f2e41" d="M160.3 492.7h24.15a15.39 15.39 0 0 1 15.4 15.38v.5H160.3Z" />
	<path fill="#a0616a" d="M209.44 496.7h12.26l5.83-47.29h-18.1l.01 47.29z" />
	<path fill="#2f2e41" d="M206.3 492.7h24.15a15.39 15.39 0 0 1 15.4 15.38v.5H206.3Z" />
	<path fill="#9e616a" d="M126.24 309.84a10.06 10.06 0 0 0-1.89-15.3l8.52-34.7-17.5 6.22-5.4 32a10.11 10.11 0 0 0 16.27 11.78ZM256.38 306.84a10.06 10.06 0 0 1 1.88-15.3l-8.52-34.7 17.5 6.22 5.4 32a10.11 10.11 0 0 1-16.26 11.78Z" />
	<path fill="#2f2e41" d="m142.37 285.51 16.99 199.07 24.86-2.27 9.96-153.85 8.85 60.92 1.78 96.77 22.5-1.5 12.49-104.1-3.06-100.82-85.42-8.65-8.95 14.43z" />
	<circle cx="189.11" cy="78.58" r="25.79" fill="#a0616a" />
	<path fill="#2f2e41" d="M180.95 57.95s12.03 3.23 18.26 4.52 5.59-2.37 5.59-2.37 8.16 1.08 7.73.22 3.44-5.37-1.07-10.53-3.22-9.03-3.22-9.03h-3.87l-1.08-1.5h-6.01s-6.65-5.83-18.47-4.11S153 41.4 151.72 48.5c-.17.96-.4 2.03-.67 3.16-3.23 13.64 3.64 26.4 10.76 38.49 1.75 2.96 10.21 9.44 10 5s-7.62-14.42-2.47-15.06 13.97-13.76 11.6-22.14Z" />
	<path d="M162.28 113.18h45.41l32.11 169.57s-28 2.4-44 8.4-42.6-13.71-42.6-13.71Z" />
	<path fill="#2f2e41" d="M167.95 132.33v-19.15l-5.14-.03-37.57 23.88 8.15 130.86s9.65 43.66 24.28 43.2 25.92-156.08 10.28-178.76Z" />
	<path fill="#2f2e41" d="m137.3 140.65-12.06-3.62s-8.93 2.62-8.93 11.62-7.7 136.86-7.7 136.86l24.45 2.16 5.25-65.02ZM204.3 125.65l-2.4-12.47 6.9-1.03 25 10s22.5 164.5 12.5 169.5-16.74 1.12-16.74 1.12-32.9-121.32-27.07-137.72Z" />
	<path fill="#2f2e41" d="m216.3 124.65 4.27-1.86s12.53-6.2 19.63 6.32 32.1 152.54 32.1 152.54l-20.56 3.86-15.38-50.38Z" />
	<path fill="#cacaca" d="M382 509.15H1a1 1 0 1 1 0-2h381a1 1 0 0 1 0 2Z" />
</svg>
