<svg xmlns="http://www.w3.org/2000/svg" viewBox="0 0 945 583.22">
	<path fill="#e6e6e6" d="M95.38 535.14a24.21 24.21 0 0 0 23.39-4.12c8.19-6.88 10.76-18.2 12.84-28.68l6.18-31.02-12.93 8.9c-9.3 6.41-18.82 13.03-25.26 22.3s-9.26 21.95-4.08 32" data-name="Path 438" />
	<path fill="#f2f2f2" d="M97.38 574.85c-1.63-11.87-3.3-23.88-2.16-35.87 1.02-10.65 4.27-21.05 10.88-29.58a49.2 49.2 0 0 1 12.63-11.44c1.26-.8 2.42 1.2 1.16 2a46.78 46.78 0 0 0-18.5 22.32c-4.03 10.24-4.68 21.41-3.98 32.3.42 6.58 1.3 13.12 2.2 19.65a1.2 1.2 0 0 1-.8 1.42 1.16 1.16 0 0 1-1.43-.8Z" data-name="Path 439" />
	<path fill="#e6e6e6" d="M109.1 555.81a17.83 17.83 0 0 0 15.53 8.02c7.87-.37 14.42-5.86 20.32-11.07l17.45-15.41-11.55-.55c-8.3-.4-16.82-.77-24.73 1.8s-15.21 8.72-16.66 16.9" data-name="Path 442" />
	<path fill="#f2f2f2" d="M92.78 581.67c7.84-13.87 16.93-29.3 33.18-34.22a37.03 37.03 0 0 1 13.96-1.44c1.48.13 1.1 2.41-.37 2.28a34.4 34.4 0 0 0-22.27 5.9c-6.28 4.27-11.17 10.21-15.31 16.52-2.54 3.86-4.8 7.88-7.08 11.9-.72 1.28-2.84.36-2.11-.94Z" data-name="Path 443" />
	<path fill="#e6e6e6" d="M880.86 551.65a17.83 17.83 0 0 1-17.07 3.78c-7.5-2.37-12.44-9.35-16.81-15.9l-12.94-19.35 11.31 2.42c8.13 1.74 16.47 3.55 23.46 8.06s12.47 12.32 11.78 20.6" data-name="Path 442" />
	<path fill="#f2f2f2" d="M890.03 580.82c-4.03-15.41-8.88-32.64-23.33-41.56a37.03 37.03 0 0 0-13.13-4.96c-1.46-.25-1.69 2.05-.23 2.3a34.4 34.4 0 0 1 20.03 11.4c4.98 5.73 8.19 12.73 10.58 19.88 1.46 4.38 2.63 8.85 3.8 13.31.37 1.43 2.66 1.07 2.28-.37Z" data-name="Path 443" />
	<path fill="#f1f1f1" d="M731.16 355.1H466.83a7.97 7.97 0 0 1-7.96-7.97v-89.17a7.97 7.97 0 0 1 7.96-7.96h264.33a7.97 7.97 0 0 1 7.96 7.96v89.17a7.97 7.97 0 0 1-7.96 7.96Z" />
	<path d="M500.27 273.88h70.06v7.96h-70.06z" />
	<circle cx="662.69" cy="278.66" r="4.78" />
	<circle cx="678.61" cy="278.66" r="4.78" />
	<circle cx="694.54" cy="278.66" r="4.78" />
	<path fill="#f1f1f1" d="M731.16 468.15H466.83a7.97 7.97 0 0 1-7.96-7.96v-89.17a7.97 7.97 0 0 1 7.96-7.97h264.33a7.97 7.97 0 0 1 7.96 7.97v89.17a7.97 7.97 0 0 1-7.96 7.96Z" />
	<path d="M500.27 386.94h70.06v7.96h-70.06z" />
	<circle cx="662.69" cy="391.72" r="4.78" />
	<circle cx="678.61" cy="391.72" r="4.78" />
	<circle cx="694.54" cy="391.72" r="4.78" />
	<path fill="#f1f1f1" d="M731.16 581.2H466.83a7.97 7.97 0 0 1-7.96-7.96v-89.17a7.97 7.97 0 0 1 7.96-7.96h264.33a7.97 7.97 0 0 1 7.96 7.96v89.17a7.97 7.97 0 0 1-7.96 7.96Z" />
	<path d="M500.27 499.99h70.06v7.96h-70.06z" />
	<circle cx="662.69" cy="504.77" r="4.78" />
	<circle cx="678.61" cy="504.77" r="4.78" />
	<circle cx="694.54" cy="504.77" r="4.78" />
	<path fill="#3f3d56" d="m631.51 162.93-.3-.22a3.58 3.58 0 0 0-5 .73l-59.5 80.11h-6.54v-1.54a1.43 1.43 0 0 0-1.43-1.43h-3.9a1.43 1.43 0 0 0-1.44 1.43v1.54h-2.26v-1.54a1.43 1.43 0 0 0-1.43-1.43h-3.9a1.43 1.43 0 0 0-1.44 1.43v1.54h-2.25v-1.54a1.43 1.43 0 0 0-1.43-1.43h-3.9a1.43 1.43 0 0 0-1.43 1.43v1.54h-2.27v-1.54a1.43 1.43 0 0 0-1.43-1.43h-3.9a1.43 1.43 0 0 0-1.43 1.43v1.54h-2.25v-1.54a1.43 1.43 0 0 0-1.44-1.43h-3.9a1.43 1.43 0 0 0-1.43 1.43v1.54h-2.26v-1.54a1.43 1.43 0 0 0-1.43-1.43h-3.9a1.43 1.43 0 0 0-1.44 1.43v1.54h-2.26v-1.54a1.43 1.43 0 0 0-1.43-1.43h-3.9a1.43 1.43 0 0 0-1.43 1.43v1.54H497v-1.54a1.43 1.43 0 0 0-1.43-1.43h-3.9a1.43 1.43 0 0 0-1.43 1.43v1.54h-2.26v-1.54a1.43 1.43 0 0 0-1.43-1.43h-3.91a1.43 1.43 0 0 0-1.43 1.43v1.54h-2.25v-1.54a1.43 1.43 0 0 0-1.43-1.43h-3.9a1.43 1.43 0 0 0-1.44 1.43v1.54h-2.83a3.58 3.58 0 0 0-3.58 3.58v3.4a3.58 3.58 0 0 0 3.58 3.58h96.76a5.33 5.33 0 0 0 5.22-4.24l.03.02 60.88-81.95v-.01a3.58 3.58 0 0 0-.74-5Z" />
	<path fill="#ffb7b7" d="m255.5 550.83 12.02 6.15 29.45-43.44-17.74-9.07-23.73 46.36z" />
	<path fill="#2f2e41" d="m254.45 545.33 23.67 12.12a16.95 16.95 0 0 1 7.36 22.8l-.25.49-38.75-19.83Z" />
	<path fill="#ffb7b7" d="M394.32 567.65h13.5l6.42-52.07h-19.92v52.07z" />
	<path fill="#2f2e41" d="M390.87 563.24h26.6a16.95 16.95 0 0 1 16.94 16.95v.55h-43.54ZM331.16 142.87s-9.04-6.92-9.04 10l-1.43 55.9 15.95 52.83 9.27-17.13-3.8-37.12ZM427.88 295.8s10.48 51.06-2.8 92.96l-7.34 161.11-26.9-2.1-9.44-119.52-9.09-59.4L353.44 423l-62.2 114.63-28.66-22.37s31.75-86.65 55.21-104.84l11.77-134.01Z" />
	<circle cx="523.48" cy="202.31" r="30.68" fill="#ffb7b7" transform="rotate(-61.34 326.18 230.62)" />
	<path fill="#2f2e41" d="M393.8 50.43c3.69.48 6.46-3.28 7.75-6.76s2.27-7.53 5.46-9.4c4.37-2.57 9.96.51 14.96-.33 5.64-.96 9.3-6.94 9.6-12.66s-2-11.2-4.22-16.48l-.78 6.55A12.99 12.99 0 0 0 420.89 0l1 9.6a10.2 10.2 0 0 0-11.73-8.43l.16 5.73c-6.51-.78-13.09-1.56-19.62-.96s-13.12 2.65-18.08 6.96c-7.4 6.44-10.11 17.04-9.2 26.81s4.94 18.96 9.15 27.83c1.05 2.23 2.52 4.75 4.97 5.03 2.2.26 4.22-1.58 4.9-3.7a13.4 13.4 0 0 0-.05-6.58c-.62-3.3-1.4-6.66-.82-9.96s2.96-6.57 6.29-6.97 6.73 3.4 5.13 6.35Z" />
	<path fill="#cbcbcb" d="m429.78 309.46-102.42-6.61 7.71-31.94 93.6 20.93 1.11 17.62z" />
	<path fill="#2f2e41" d="m366.61 85.77 6.43-8.92s7.18 2.44 26.4 12.01l1.37 8.36 33.37 205.3-60.67-2.62-16.52-.35-5.4-12.12-6.67 11.87-16.14-.35-16.41-9.51 16.18-49.5 5.23-45.2-8.09-42.59s-10.18-39.1 29.03-60.2Z" />
	<path fill="#ffb7b7" d="M503.36 241.19a10.49 10.49 0 0 1-13.04-9.41l-36-9.64 14.49-12.86 31.96 11.13a10.54 10.54 0 0 1 2.6 20.78Z" />
	<path fill="#2f2e41" d="M487.24 235.74a6.14 6.14 0 0 1-4.99.4l-59.2-22.48A63.23 63.23 0 0 1 389 184.98l-24.7-44.05a19.77 19.77 0 1 1 29.5-26.32l42.74 67.74 53.78 31.53a6.16 6.16 0 0 1 2.62 6.55l-2.67 11.33a6.14 6.14 0 0 1-1.87 3.15 6.07 6.07 0 0 1-1.17.83Z" />
	<path fill="#cbcbcb" d="M944 583H1a1 1 0 0 1 0-2h943a1 1 0 0 1 0 2Z" />
</svg>
