<svg xmlns="http://www.w3.org/2000/svg" viewBox="0 0 878.63 483"><path fill="var(--color-accent, lightgray)" d="M134.03 412.7c-19.5 14.55-25.04 40.14-25.04 40.14s26.1 2 45.62-12.54 25.04-40.13 25.04-40.13-26.1-2.01-45.62 12.53Z"/><path fill="var(--color-fill, darkgray)" d="M142.16 419.53c-9.38 22.46-32.86 34.03-32.86 34.03s-8.28-24.84 1.1-47.3 32.85-34.02 32.85-34.02 8.29 24.84-1.1 47.3Z"/><path fill="var(--color-text, silver)" d="M703.5 354.61a194.66 194.66 0 0 1-1.63-42.2l1.63-23.3c-9 17.91-6.96 41.48 0 65.5ZM710.52 358.51a143.1 143.1 0 0 1-.79-25.11l.8-13.88c-4.34 10.66-3.36 24.7 0 39Z"/><path fill="var(--color-accent-light, gray)" d="M741.72 375.67v7.8a2.35 2.35 0 0 1-2.34 2.34h-3.9a.78.78 0 0 0-.78.78v63.94a2.35 2.35 0 0 1-2.34 2.34h-47.57a2.34 2.34 0 0 1-2.34-2.34v-63.94a.78.78 0 0 0-.78-.78H677a2.34 2.34 0 0 1-2.34-2.34v-7.8a2.34 2.34 0 0 1 2.34-2.34h62.39a2.35 2.35 0 0 1 2.34 2.34Z"/><path fill="var(--color-fill, lightgray)" d="M682.52 387.45h52.25v2.34h-52.25zM734.7 421.87c-17.49 7.23-35.16 7.31-53.03 0v-16.48a83.27 83.27 0 0 1 53.03 0Z"/><circle cx="441.85" cy="99.21" r="70.67" fill="#E8BEAC" data-name="Ellipse 276"/><path fill="var(--color-background, black)" d="M507.86 38.25a81.61 81.61 0 0 0-46.43-35.5l-8.68 6.34V.86a75.12 75.12 0 0 0-14.03-.81l-7.49 6.77V.61a80.83 80.83 0 0 0-55.76 33.17c-16.25 23.43-19 56.03-3.01 79.65 4.39-13.49 9.71-26.14 14.1-39.63a39.92 39.92 0 0 0 10.4.05l5.34-12.46 1.5 11.94c16.54-1.45 41.09-4.61 56.78-7.51l-1.53-9.16 9.13 7.61c4.8-1.1 7.66-2.1 7.42-2.88 11.67 18.81 25.95 30.83 37.62 49.64 4.43-26.52 9.53-48.58-5.36-72.78Z" data-name="Path 1461"/><path fill="var(--color-fill-dark, darkslategray)" d="M593.83 280.93c-2.43-14.62-4.93-29.52-11.73-42.69-4.46-8.62-11.55-16.85-21.1-18.55a20.42 20.42 0 0 1-5.5-1.27c-2.8-1.35-40.43-22.83-46.4-26.57-5.14-3.21-13.25-9.16-17.33-9.16-4.12-.09-19.88 3.58-81.42-1.23 0 0-16.9 6.66-29.98 14.74-.2-.13-63.87 34.06-66.26 33.97-4.53-.19-8.75 2.71-11.34 6.36-2.6 3.66-3.82 8.18-5.1 12.55 13.91 30.97 26.64 61.98 40.55 92.95a7.93 7.93 0 0 1 1 3.81 9.31 9.31 0 0 1-1.73 3.82c-6.82 10.95-6.6 24.74-5.86 37.61.75 12.88 1.67 26.48-4.08 38.02-1.57 3.17-3.6 6.07-5.1 9.24-3.48 7.18-4.74 30.13-2.7 37.84l255.12 7.31c-5.49-15.08 18.96-198.75 18.96-198.75Z"/><path fill="#E8BEAC" d="M275.63 343.4a45.04 45.04 0 0 0-.16 11.11l3.66 52.51c.34 4.95.68 9.9 1.15 14.83.87 9.58 2.18 19.08 3.81 28.58a5.09 5.09 0 0 0 5.22 4.95c16.1 3.4 32.72 3.26 49.15 2.34 25.07-1.4 89.2-4.05 93.12-9.14s1.63-13.32-3.48-17.44S338.36 417 338.36 417c.83-6.55 3.32-12.72 5.69-18.94 4.25-11.04 8.22-22.43 8.3-34.26s-4.38-24.25-14.06-31.02c-7.97-5.56-18.23-6.59-27.93-6.36-7.06.2-19.27-1.49-25.72 1.27-5.1 2.25-8.06 10.72-9.01 15.72Z" data-name="Path 1421"/><path fill="var(--color-fill-dark, darkslategray)" d="M296.94 250.02a13.17 13.17 0 0 0-2.82 4.52 213.59 213.59 0 0 0-17.94 73.32 7.33 7.33 0 0 1-.83 3.55 15.53 15.53 0 0 1-1.87 2.02 7.02 7.02 0 0 0 .84 9.9l.36.28c2.1-3.95 7.12-5.24 11.59-5.59 21.39-1.69 42.28 8.26 63.73 7.51-1.51-5.23-3.69-10.25-4.92-15.55-5.46-23.5 8.15-49.09-.2-71.72-1.66-4.53-4.45-8.99-8.84-10.97a23.56 23.56 0 0 0-5.66-1.5c-5.42-.98-16.21-5.17-21.45-3.49-1.94.63-2.7 2.45-4.3 3.55-2.44 1.55-5.67 2.12-7.69 4.17Z" data-name="Path 1430"/><path fill="#E8BEAC" d="M593.99 327.68c-6.45-2.76-18.66-1.07-25.72-1.27-9.7-.23-19.96.8-27.93 6.36-9.68 6.77-14.13 19.2-14.06 31.02s4.05 23.22 8.3 34.26c2.37 6.22 4.86 12.4 5.69 18.94 0 0-84.63 10.04-89.74 14.15s-7.4 12.35-3.47 17.44 126.17 10.2 142.26 6.8a5.09 5.09 0 0 0 5.22-4.95c1.63-9.5 2.94-19 3.82-28.58.46-4.94.8-9.88 1.14-14.83l3.66-52.5a45.04 45.04 0 0 0-.16-11.12c-.95-5-3.9-13.47-9.01-15.72Z" data-name="Path 1421"/><path fill="var(--color-fill-dark, darkslategray)" d="M574 245.85c-1.6-1.1-2.36-2.92-4.3-3.55-5.24-1.68-16.03 2.51-21.45 3.49a23.56 23.56 0 0 0-5.66 1.5c-4.4 1.98-7.18 6.44-8.85 10.97-8.34 22.63 5.27 48.22-.19 71.72-1.23 5.3-3.4 10.32-4.92 15.55 21.45.75 42.34-9.2 63.73-7.5 4.47.34 9.5 1.63 11.6 5.58l.35-.28a7.02 7.02 0 0 0 .84-9.9 15.53 15.53 0 0 1-1.87-2.02 7.33 7.33 0 0 1-.83-3.55 213.59 213.59 0 0 0-17.94-73.32 13.17 13.17 0 0 0-2.82-4.52c-2.02-2.05-5.25-2.62-7.69-4.17Z" data-name="Path 1430"/><circle cx="420.92" cy="438.81" r="19.07" fill="#E8BEAC"/><circle cx="463.16" cy="438.81" r="19.07" fill="#E8BEAC"/><path fill="var(--color-heading, gainsboro)" d="M580.89 481.79H318.86a11.55 11.55 0 0 1-11.54-11.54V311.28a11.55 11.55 0 0 1 11.54-11.54h262.03a11.55 11.55 0 0 1 11.54 11.54v158.97a11.55 11.55 0 0 1-11.54 11.54Z"/><circle cx="449.24" cy="390.77" r="7.63" fill="var(--color-background, darkgray)" data-name="Ellipse 263"/><path fill="var(--color-text-dark, slategray)" d="M878.63 449.72H0v27h51.97V483h774.71v-6.28h51.95v-27z"/><path fill="var(--color-accent-light, lightslategray)" d="M376.87 125.55c-11.35 0-20.56-9.95-20.56-22.23V92.2c0-12.27 9.2-22.22 20.56-22.22v55.57ZM508.1 69.98c11.35 0 20.55 9.95 20.55 22.23v11.11c0 12.28-9.2 22.23-20.56 22.23V69.98Z"/><path fill="var(--color-accent-light, lightslategray)" d="M518.87 93.95h-3.26c0-44.73-33.66-81.12-75.03-81.12-41.37 0-75.03 36.4-75.03 81.12h-3.26c0-46.67 35.12-84.65 78.29-84.65 43.17 0 78.29 37.98 78.29 84.65Z"/></svg>