<svg version="2.0" viewBox="-12 -12 24 24" xmlns="http://www.w3.org/2000/svg">
	<defs>
		<path id="script" d="
			M-8 -7.5 h-3 v-2
      a 1.5 1.5 0 0 1 3 0
      v19
      a 1.5 1.5 0 0 0 3 0
      v-2 h16 v2
      a 1.5 1.5 0 0 1 -1.5 1.5
      h-16
      M-9.5 -11 h15.5
      a 2 2 0 0 1 2 2
      v16" />
		<path id="package" d="
      M-11 -6 
      l8 -5 3 3 3 -3 
      8 5 -3 3 3 3 
      -8 5 -3 -3 -3 3
      -8 -5 3 -3 -3 -3 z
      M-8 -3 l8 -5 8 5 -8 5 -8 -5 z
      M-8 2 v4 l8 5 8 -5 v-4
      M0 2 v8" />
	</defs>
	<g fill="none" stroke="currentColor" stroke-linejoin="round" stroke-linecap="round">
		<use href="#script" />
		<use href="#package" y="-3" transform="scale(.5)" />
	</g>
</svg>
