<?xml version="1.0" encoding="UTF-8"?>
<svg version="1.1" viewBox="-12 -12 24 24" xmlns="http://www.w3.org/2000/svg" xmlns:xlink="http://www.w3.org/1999/xlink">
	<defs>
		<path id="debug" d="M-12 0 h24 M0 -12 v24" stroke="white" stroke-width=".1" />
		<path id="plugin" d="
			M2 9 
			a 2 2 0 0 1 -4 0 v-2 
			a 6 6 0 0 1 -6 -6 
			v-4 h-2 v-4 h5 
			v-3 a 1 1 0 0 1 1 -1 a 1 1 0 0 1 1 1 v3 
			h6 
			v-3 a 1 1 0 0 1 1 -1 a 1 1 0 0 1 1 1 v3 
			h5 v4 h-2 v4
			a 6 6 0 0 1 -6 6 z" />
		<path id="typedoc" d="
				M0 10 l-10 -5 v-10 l10 -5 l10 5 v10 l-10 5 z
				M0 10 v-10 l-10 -5
				M0 0 l10 -5
				M0 0 l-10 5" />
	</defs>
	<!-- <use xlink:href="#debug" /> -->
	<g fill="none" stroke="#5fd4f4" stroke-linejoin="round">
		<use xlink:href="#plugin" stroke-width=".5" />
		<g transform="scale(.5)">
			<use xlink:href="#typedoc" />
		</g>
	</g>
</svg>
