<?xml version="1.0" encoding="UTF-8"?>
<svg version="1.1" viewBox="-12 -12 24 24" xmlns="http://www.w3.org/2000/svg" xmlns:xlink="http://www.w3.org/1999/xlink">
	<defs>
		<ellipse id="orbit" rx="10" ry="5" />
		<g id="react">
			<use xlink:href="#orbit" />
			<use xlink:href="#orbit" transform="rotate(60)" />
			<use xlink:href="#orbit" transform="rotate(-60)" />
		</g>
		<path id="head" d="M-1.5 0 a 1.5 1.5 0 0 1 3 0 a 1.5 1.5 0 0 1 -3 0 z" />
		<path id="body" d="M-3 2 a 3 3 0 0 1 6 0 z" />
		<g id="person">
			<use xlink:href="#head" y="-2" />
			<use xlink:href="#body" y="1" />
		</g>
		<text id="text" fill="#5fd4f4" font-family="sans-serif" font-size="4" textLength="6">
			CV
		</text>
		<path id="line" d="M-8 0 h16 z" />
	</defs>
	<g fill="none" stroke="#5fd4f4" stroke-linecap="round" stroke-linejoin="round" stroke-width=".5">
		<use xlink:href="#react" />
		<g transform="scale(.3)" stroke-width="">
			<path id="paper" d="M-8 -10 h16 v16 l-4 4 h-12 z M4 10 v-3 a 1 1 0 0 1 1 -1 h3 z" />
			<use xlink:href="#person" x="-3" y="-4" />
			<use xlink:href="#text" x="0" y="-5" />
			<use xlink:href="#line" x="12" y="-5" transform="scale(.3, .6)" />
			<use xlink:href="#line" x="12" y="-2" transform="scale(.3, .6)" />
			<use xlink:href="#line" x="0" y="2.5" transform="scale(.75, .75)" />
			<use xlink:href="#line" x="0" y="5" transform="scale(.75, .75)" />
			<use xlink:href="#line" x="-4" y="8" transform="scale(.5, .75)" />
			<use xlink:href="#line" x="-4" y="10.5" transform="scale(.5, .75)" />
		</g>
	</g>
</svg>
