<svg version="2.0" viewBox="-12 -12 24 24" xmlns="http://www.w3.org/2000/svg">
	<defs>
		<path id="script" d="
			M-8 -7.5 h-3 v-2
      a 1.5 1.5 0 0 1 3 0
      v19
      a 1.5 1.5 0 0 0 3 0
      v-2 h16 v2
      a 1.5 1.5 0 0 1 -1.5 1.5
      h-16
      M-9.5 -11 h15.5
      a 2 2 0 0 1 2 2
      v16" />
		<path id="workflow" d="
      M-6 -8 
      a 2 2 0 0 0 -4 0 a 2 2 0 0 0 4 0
      h14 a 2 2 0 0 1 2 2
      v4 a 2 2 0 0 1 -2 2
      h-4 l-4 -4 -4 4 4 4 4 -4
      M-4 0 
      h-4 a 2 2 0 0 0 -2 2
      v4 a 2 2 0 0 0 2 2
      h14 a 2 2 0 0 1 4 0 a 2 2 0 0 1 -4 0" />
	</defs>
	<g fill="none" stroke="currentColor" stroke-linejoin="round" stroke-linecap="round">
		<use href="#script" />
		<use href="#workflow" y="-3" transform="scale(.5)" />
	</g>
</svg>
